<?xml version="1.0" encoding="UTF-8" standalone="no"?>
<!-- Created with Inkscape (http://www.inkscape.org/) -->

<svg
   width="21mm"
   height="16mm"
   viewBox="0 0 21 16"
   version="1.1"
   id="svg36227"
   inkscape:version="1.2 (dc2aedaf03, 2022-05-15)"
   sodipodi:docname="Logo_Maderkit.svg"
   xmlns:inkscape="http://www.inkscape.org/namespaces/inkscape"
   xmlns:sodipodi="http://sodipodi.sourceforge.net/DTD/sodipodi-0.dtd"
   xmlns:xlink="http://www.w3.org/1999/xlink"
   xmlns="http://www.w3.org/2000/svg"
   xmlns:svg="http://www.w3.org/2000/svg">
  <sodipodi:namedview
     id="namedview36229"
     pagecolor="#ffffff"
     bordercolor="#eeeeee"
     borderopacity="1"
     inkscape:showpageshadow="0"
     inkscape:pageopacity="0"
     inkscape:pagecheckerboard="0"
     inkscape:deskcolor="#505050"
     inkscape:document-units="mm"
     showgrid="false"
     inkscape:zoom="6.6136924"
     inkscape:cx="44.453232"
     inkscape:cy="30.693898"
     inkscape:current-layer="layer1" />
  <defs
     id="defs36224">
    <color-profile
       name="Agfa-:-Swop-Standard"
       xlink:href="file:///C:/WINDOWS/system32/spool/drivers/color/RSWOP.icm"
       id="color-profile21368" />
  </defs>
  <g
     inkscape:label="Capa 1"
     inkscape:groupmode="layer"
     id="layer1">
    <g
       id="g20483"
       style="clip-rule:evenodd;display:inline;fill-rule:evenodd;image-rendering:optimizeQuality;shape-rendering:geometricPrecision;text-rendering:geometricPrecision"
       transform="matrix(0.01,0,0,0.01,-120.155,-117.4171)">
      <polygon
         class="fil1"
         points="13292,12547 12860,11760 13277,11760 13707,12547 "
         id="polygon291"
         style="fill:#f1613a;fill-rule:nonzero" />
      <polygon
         class="fil4"
         points="13288,11780 13277,11760 13069,12141 13123,12238 "
         id="polygon293"
         style="fill:#9d3e34;fill-rule:nonzero" />
      <polygon
         class="fil2"
         points="12846,12547 13278,11760 12860,11760 12430,12547 "
         id="polygon295"
         style="fill:#f79633;fill-rule:nonzero" />
      <polygon
         class="fil3"
         points="12404,13043 12404,12864 12324,12995 12316,12995 12236,12864 12236,13043 12166,13043 12166,12735 12236,12735 12320,12872 12404,12735 12474,12735 12474,13043 "
         id="polygon297"
         style="fill:#4b4b4d;fill-rule:nonzero" />
      <path
         class="fil3"
         d="m 12685,12933 c 0,-33 -22,-54 -53,-54 -30,0 -52,21 -52,54 0,33 22,54 52,54 31,0 53,-21 53,-54 z m 66,-110 v 220 h -66 v -20 c -15,16 -36,27 -66,27 -58,0 -105,-51 -105,-117 0,-66 47,-116 105,-116 30,0 51,10 66,27 v -21 z"
         id="path299"
         style="fill:#4b4b4d;fill-rule:nonzero" />
      <path
         class="fil3"
         d="m 12960,12933 c 0,-33 -23,-54 -53,-54 -30,0 -52,21 -52,54 0,33 22,54 52,54 30,0 53,-21 53,-54 z m 66,-198 v 308 h -66 v -20 c -15,16 -37,27 -66,27 -58,0 -106,-51 -106,-117 0,-66 48,-116 106,-116 29,0 51,10 66,27 v -109 z"
         id="path301"
         style="fill:#4b4b4d;fill-rule:nonzero" />
      <path
         class="fil3"
         d="m 13227,12910 c -7,-25 -27,-35 -47,-35 -25,0 -42,13 -48,35 z m -41,80 c 18,0 34,-7 42,-16 l 53,30 c -21,30 -54,46 -96,46 -75,0 -122,-51 -122,-117 0,-66 48,-116 117,-116 65,0 112,50 112,116 0,9 -1,18 -2,27 h -157 c 9,22 29,30 53,30 z"
         id="path303"
         style="fill:#4b4b4d;fill-rule:nonzero" />
      <path
         class="fil3"
         d="m 13462,12819 v 74 c -27,-4 -66,7 -66,51 v 99 h -66 v -220 h 66 v 39 c 9,-29 38,-43 66,-43 z"
         id="path305"
         style="fill:#4b4b4d;fill-rule:nonzero" />
      <polygon
         class="fil3"
         points="13559,12735 13559,12919 13625,12823 13702,12823 13622,12933 13704,13043 13629,13043 13559,12946 13559,13043 13493,13043 13493,12735 "
         id="polygon307"
         style="fill:#4b4b4d;fill-rule:nonzero" />
      <path
         class="fil3"
         d="m 13729,12823 h 66 v 220 h -66 z m -7,-59 c 0,-22 18,-40 40,-40 21,0 39,18 39,40 0,21 -18,40 -39,40 -22,0 -40,-19 -40,-40 z"
         id="path309"
         style="fill:#4b4b4d;fill-rule:nonzero" />
      <path
         class="fil3"
         d="m 13927,12886 v 78 c 0,19 16,21 45,19 v 60 c -86,9 -111,-17 -111,-79 v -78 h -35 v -63 h 35 v -42 l 66,-20 v 62 h 45 v 63 z"
         id="path311"
         style="fill:#4b4b4d;fill-rule:nonzero" />
      <path
         class="fil1"
         d="m 12167,13115 c 3,4 6,10 9,20 3,12 8,29 17,51 10,32 20,55 29,67 1,2 2,4 2,5 v 1 c -1,4 -3,7 -7,7 h -2 c -7,0 -14,-8 -20,-24 -6,-12 -15,-36 -28,-72 l -4,-10 v 0 c -2,11 -6,28 -9,53 -6,24 -8,49 -11,50 -1,0 -3,1 -9,2 h -2 c -2,0 -4,-1 -4,-3 -2,-4 -4,-11 -5,-23 l -8,-44 c -2,-11 -6,-21 -9,-28 l -1,-2 h -1 c -3,8 -12,50 -16,75 -2,11 -4,18 -7,20 -2,2 -4,3 -7,3 h -1 c -4,0 -6,-1 -6,-3 0,-3 -1,-6 -1,-9 l -1,-8 c 0,-2 0,-7 -2,-14 v -2 c 0,-5 3,-7 8,-7 h 1 c 2,-4 13,-48 18,-66 4,-13 9,-19 16,-19 8,0 15,11 21,34 2,6 5,19 9,37 v 0 c 3,-8 6,-19 8,-34 4,-28 8,-47 12,-56 l 7,-1 z"
         id="path673"
         style="fill:#f1613a;fill-rule:nonzero" />
      <path
         class="fil1"
         d="m 12266,13193 c 3,0 6,2 8,5 -1,33 11,45 11,48 v 2 c 0,2 -1,3 -2,4 h -3 c -7,0 -12,-7 -16,-19 l -2,-3 c -13,20 -29,18 -29,18 -3,0 -6,-4 -6,-12 l -1,-4 v -3 c 0,-12 3,-23 8,-31 3,-3 5,-4 7,-4 2,0 5,2 7,5 0,3 -1,9 -4,19 -1,1 -1,4 -1,7 v 1 c 4,-2 8,-7 11,-16 4,-11 7,-16 8,-16 z"
         id="path675"
         style="fill:#f1613a;fill-rule:nonzero" />
      <path
         class="fil1"
         d="m 12810,13183 c 4,0 6,2 8,5 0,33 11,45 11,48 v 2 c 0,2 0,3 -1,3 h -4 c -6,0 -12,-6 -16,-18 l -2,-3 c -13,20 -28,18 -28,18 -4,0 -6,-4 -7,-12 v -4 -3 c 0,-13 2,-23 8,-32 2,-2 4,-3 6,-3 2,0 5,2 7,5 0,3 -1,9 -4,19 -1,1 -1,4 -1,7 v 1 c 4,-2 8,-8 11,-16 4,-11 7,-16 9,-16 z"
         id="path677"
         style="fill:#f1613a;fill-rule:nonzero" />
      <path
         class="fil1"
         d="m 13643,13193 c 3,0 5,2 7,5 0,33 12,45 12,48 v 2 c 0,2 -1,3 -2,4 h -3 c -7,0 -13,-7 -17,-19 l -2,-3 c -12,20 -28,18 -28,18 -4,0 -6,-4 -7,-12 v -4 -3 c 0,-12 3,-23 8,-31 2,-3 4,-4 6,-4 3,0 5,2 8,5 0,3 -2,9 -5,19 0,1 0,4 0,7 v 1 c 4,-2 7,-7 10,-16 5,-11 7,-16 9,-16 z"
         id="path679"
         style="fill:#f1613a;fill-rule:nonzero" />
      <path
         class="fil1"
         d="m 12504,13213 c 10,-3 10,-9 10,-10 0,-6 -2,-9 -7,-11 l -2,-1 c -6,0 -6,7 -6,11 0,5 2,8 5,11 z m 26,-19 c 1,3 1,6 1,8 0,9 -6,16 -20,22 v 0 c 4,6 8,9 14,9 8,0 16,-6 25,-19 20,-29 21,-17 17,-7 h 1 v 0 c 0,3 -3,8 -8,15 -1,2 -18,22 -27,25 -3,1 -6,1 -8,1 h -3 c -36,0 -39,-49 -39,-49 v -2 c 0,-9 3,-14 8,-16 6,-4 12,-5 16,-5 10,0 17,6 23,18 z"
         id="path681"
         style="fill:#f1613a;fill-rule:nonzero" />
      <path
         class="fil1"
         d="m 12306,13213 c 10,-3 10,-9 10,-10 0,-6 -2,-9 -7,-11 l -2,-1 c -6,0 -6,7 -6,11 0,5 2,8 5,11 z m 26,-19 c 1,3 1,6 1,8 0,9 -7,16 -20,22 v 0 c 3,6 8,9 14,9 8,0 16,-6 25,-19 19,-25 21,-17 17,-7 h 1 v 0 c 0,3 -3,8 -8,15 -1,2 -18,22 -27,25 -4,1 -6,1 -8,1 h -3 c -36,0 -39,-49 -39,-49 v -2 c 0,-9 3,-14 8,-16 6,-4 12,-5 16,-5 9,0 17,6 23,18 z"
         id="path683"
         style="fill:#f1613a;fill-rule:nonzero" />
      <path
         class="fil1"
         d="m 12850,13213 c 10,-3 10,-9 10,-10 0,-5 -2,-9 -7,-11 h -2 c -6,-1 -5,7 -5,10 0,5 1,9 4,11 z m 26,-19 c 1,4 2,7 2,9 0,8 -7,16 -21,21 v 0 c 4,6 9,9 14,9 8,0 17,-6 26,-19 18,-25 20,-16 16,-7 h 1 v 1 c 0,3 -3,8 -8,14 -1,2 -18,22 -27,26 -3,0 -6,1 -8,1 h -2 c -36,0 -40,-50 -40,-50 v -2 c 0,-8 3,-14 9,-16 6,-3 11,-5 16,-5 9,0 16,6 22,18 z"
         id="path685"
         style="fill:#f1613a;fill-rule:nonzero" />
      <path
         class="fil1"
         d="m 12388,13232 c 21,-3 32,-12 32,-27 v -4 c -4,-1 -7,-1 -9,-1 -11,0 -17,6 -21,18 -1,4 -2,8 -2,14 z m -4,-117 c 3,0 5,2 5,6 v 1 c 0,1 -1,6 -3,14 -2,14 -3,26 -3,35 v 2 l -1,1 1,1 v 2 c 0,5 0,11 2,17 7,-9 17,-14 29,-14 9,1 16,2 23,3 1,5 2,10 2,15 v 1 c 0,16 -8,30 -25,43 -10,5 -18,8 -27,8 h -1 c -20,2 -19,-16 -19,-20 l 1,-17 -2,-35 v -3 c 0,-9 2,-25 5,-49 2,-7 6,-11 11,-11 z"
         id="path687"
         style="fill:#f1613a;fill-rule:nonzero" />
      <path
         class="fil1"
         d="m 12463,13123 c 3,0 5,2 5,4 1,6 2,11 2,18 l -2,40 v 4 c 0,13 2,29 6,51 v 3 c 0,3 -1,5 -3,6 -1,0 -8,3 -13,-2 -4,-26 -7,-46 -7,-62 v -8 c 0,-11 2,-44 3,-51 3,-2 6,-3 8,-3 z"
         id="path689"
         style="fill:#f1613a;fill-rule:nonzero" />
      <path
         class="fil1"
         d="m 12594,13181 c 6,0 10,2 10,5 2,3 2,5 2,5 -1,2 -4,4 -8,5 -12,2 -19,4 -19,5 2,3 7,6 14,8 14,3 23,6 29,9 5,3 8,7 8,13 0,9 -8,15 -24,18 -5,1 -9,1 -13,1 -24,2 -27,-9 -27,-12 v -1 c 0,-3 2,-6 5,-9 9,4 17,6 23,6 5,0 10,-1 13,-4 v 0 c -5,-3 -14,-6 -27,-9 -14,-4 -20,-9 -20,-15 v 0 c 0,-9 5,-16 16,-21 6,-3 11,-4 16,-4 z"
         id="path691"
         style="fill:#f1613a;fill-rule:nonzero" />
      <path
         class="fil1"
         d="m 13315,13228 v 0 c 10,-1 25,-28 25,-33 v -1 h -1 c -3,1 -9,6 -17,14 -5,7 -7,13 -7,20 z m 38,-54 c 3,0 5,3 7,9 0,3 1,13 5,29 3,9 7,17 11,24 3,4 5,7 5,10 v 1 c 0,2 -15,12 -22,-6 -2,-3 -6,-12 -11,-24 l -2,-2 c -6,9 -11,17 -16,22 -6,6 -12,9 -20,9 -7,0 -11,-3 -14,-11 v -4 c 0,-10 6,-22 19,-37 8,-6 17,-12 28,-16 3,-3 6,-4 8,-4 z"
         id="path693"
         style="fill:#f1613a;fill-rule:nonzero" />
      <path
         class="fil1"
         d="m 14057,13176 c 5,0 10,4 11,10 v 0 c -16,8 -27,21 -34,38 -3,10 -5,17 -5,23 -5,3 -9,4 -10,4 -3,0 -6,0 -7,-6 0,-3 -2,-15 -7,-36 -3,-11 -2,-17 -2,-17 1,-2 4,-4 8,-5 h 1 c 5,0 9,16 9,16 10,-14 30,-27 35,-27 z"
         id="path695"
         style="fill:#f1613a;fill-rule:nonzero" />
      <path
         class="fil1"
         d="m 13010,13175 c 2,12 3,24 3,37 v 7 29 c -1,4 -9,4 -9,4 h -3 c -4,0 -6,-9 -6,-17 0,0 2,-43 2,-52 0,-7 3,-11 8,-11 3,0 5,1 5,3 z m -4,-29 c 5,0 7,1 8,3 l 1,3 c 0,4 -4,6 -11,7 h -2 c -5,0 -8,-2 -8,-5 v -1 -1 c 2,-4 5,-6 10,-6 z"
         id="path697"
         style="fill:#f1613a;fill-rule:nonzero" />
      <path
         class="fil1"
         d="m 13082,13192 c 3,25 9,50 9,53 v 1 c 0,3 -1,4 -5,4 h -1 c -5,0 -8,-1 -8,-3 -3,-5 -5,-12 -7,-20 l -5,-34 h -1 c -6,7 -13,22 -21,43 -4,7 -6,11 -6,11 -1,3 -15,0 -12,-9 2,-9 4,-24 3,-46 0,-13 17,-3 17,-2 l -1,2 v 0 h 1 c 3,-3 6,-7 9,-13 5,-6 9,-10 13,-10 11,0 13,15 15,23 z"
         id="path699"
         style="fill:#f1613a;fill-rule:nonzero" />
      <path
         class="fil1"
         d="m 13158,13192 c 4,25 10,50 10,53 v 1 c 0,3 -2,4 -6,4 v 0 c -6,0 -8,-1 -8,-3 -3,-5 -5,-12 -7,-20 l -6,-34 v 0 c -6,7 -13,22 -22,43 -3,7 -5,11 -5,11 -2,3 -15,0 -12,-9 2,-9 4,-24 3,-46 0,-13 17,-3 17,-2 l -1,2 v 0 0 c 4,-3 7,-7 10,-13 5,-6 9,-10 13,-10 11,0 13,15 14,23 z"
         id="path701"
         style="fill:#f1613a;fill-rule:nonzero" />
      <path
         class="fil1"
         d="m 13447,13192 c 4,25 9,50 10,53 v 1 c 0,3 -2,4 -6,4 h -1 c -5,0 -8,-1 -8,-3 -2,-5 -5,-12 -6,-20 l -6,-34 v 0 c -6,7 -14,22 -22,43 -4,7 -5,11 -6,11 -1,3 -14,0 -12,-9 3,-9 4,-24 4,-46 -1,-13 16,-3 16,-2 l -1,2 h 1 v 0 c 3,-3 7,-7 10,-13 4,-6 8,-10 12,-10 11,0 13,15 15,23 z"
         id="path703"
         style="fill:#f1613a;fill-rule:nonzero" />
      <path
         class="fil1"
         d="m 13194,13213 v 12 c 0,7 2,11 5,11 3,-2 6,-5 8,-9 2,-4 3,-7 3,-10 v -1 c 0,-5 -2,-13 -6,-13 -4,-1 -5,1 -8,5 -1,1 -1,2 -2,2 z m 13,-24 c 9,0 15,5 18,16 1,3 2,6 2,10 v 2 c 0,13 -5,23 -14,31 -5,3 -10,4 -14,4 h -1 c -9,0 -16,-6 -20,-18 -1,-3 -1,-6 -1,-9 v -2 c 0,-8 1,-15 3,-22 1,-1 7,-3 7,-3 0,0 2,-3 5,-6 2,-2 7,-3 15,-3 z"
         id="path705"
         style="fill:#f1613a;fill-rule:nonzero" />
      <path
         class="fil1"
         d="m 13804,13213 -1,12 c 1,7 2,11 5,11 4,-2 7,-5 9,-9 2,-4 3,-7 3,-10 v -1 c 0,-5 -2,-13 -6,-13 -4,-1 -6,1 -8,5 -1,1 -2,2 -3,2 z m 12,-24 c 9,0 15,5 19,16 1,3 1,6 1,10 v 2 c 0,13 -4,23 -14,31 -5,3 -10,4 -14,4 h -1 c -9,0 -16,-6 -19,-18 -1,-3 -2,-6 -2,-9 v -2 c 0,-8 1,-15 4,-22 0,-1 6,-3 6,-3 0,0 3,-3 5,-6 3,-2 8,-3 15,-3 z"
         id="path707"
         style="fill:#f1613a;fill-rule:nonzero" />
      <path
         class="fil1"
         d="m 13289,13180 c 11,0 6,12 5,13 0,0 -7,17 -12,37 -4,13 -9,20 -16,20 -5,0 -12,-7 -19,-22 -10,-14 -14,-23 -14,-26 v -2 c 0,-6 4,-8 14,-8 l 14,26 3,5 c 6,-4 9,-15 13,-30 3,-8 5,-12 7,-12 l 3,-1 z"
         id="path709"
         style="fill:#f1613a;fill-rule:nonzero" />
      <path
         class="fil1"
         d="m 13563,13124 c 4,0 7,2 9,6 -3,22 -5,39 -5,51 v 12 h 3 c 8,0 17,-1 26,-4 h 5 c 4,0 6,2 6,6 0,5 -4,9 -12,10 -3,1 -27,3 -28,3 l 1,18 c 0,2 1,10 1,12 v 3 c 0,6 -1,9 -2,10 0,0 -15,9 -17,-22 -1,-11 -1,-20 -2,-20 0,0 -7,0 -17,0 -4,0 -7,-2 -9,-7 v -1 c 2,-4 7,-7 15,-7 4,0 12,0 12,0 v -6 c 0,-16 1,-35 4,-59 3,-3 6,-5 9,-5 z"
         id="path711"
         style="fill:#f1613a;fill-rule:nonzero" />
      <path
         class="fil1"
         d="m 13735,13145 c -3,19 -4,40 -4,62 v 8 c 3,-2 7,-11 12,-26 5,-11 12,-10 14,-10 h 1 c 2,0 3,2 5,6 2,5 4,16 7,33 2,8 4,14 6,18 2,2 4,5 7,8 v 0 c -2,3 -5,5 -7,7 -4,0 -8,-3 -13,-7 -3,-3 -5,-8 -7,-14 l -4,-20 c -3,3 -7,12 -13,26 -3,7 -6,15 -10,15 h -2 c -22,0 -10,-38 -10,-77 1,-14 2,-24 4,-29 3,-11 15,-5 14,0 z"
         id="path713"
         style="fill:#f1613a;fill-rule:nonzero" />
      <path
         class="fil1"
         d="m 13861,13224 v 5 c 5,-2 9,-7 13,-13 3,-7 7,-13 10,-17 0,-1 -1,-1 -1,-1 -4,0 -9,2 -15,7 -5,5 -7,11 -7,17 z m 24,-40 c 9,0 15,2 20,6 1,0 1,1 1,2 -1,1 -2,2 -2,3 1,23 1,40 1,51 0,22 -2,36 -5,42 -5,11 -13,17 -22,16 -22,-2 -32,-28 -32,-31 -1,-6 11,-11 12,-5 2,5 5,12 11,17 0,0 3,3 7,5 3,0 7,-4 9,-8 3,-6 5,-14 5,-25 l -1,-32 v -5 c -2,1 -6,7 -12,17 -5,6 -10,9 -14,9 h -2 c -3,0 -17,-2 -17,-23 v -2 c 0,-15 8,-26 23,-34 5,-2 11,-3 16,-3 z"
         id="path715"
         style="fill:#f1613a;fill-rule:nonzero" />
      <path
         class="fil1"
         d="m 13934,13228 v 0 c 4,0 8,-3 13,-11 8,-9 12,-17 12,-22 l -1,-1 v 0 c -3,1 -9,6 -17,14 -5,7 -7,13 -7,20 z m 37,-54 c 4,0 6,3 7,9 0,3 2,13 6,29 2,9 6,17 11,24 3,4 5,7 5,10 v 1 c 0,2 -2,3 -4,3 -3,2 -5,3 -5,3 -5,-2 -10,-6 -13,-12 -2,-3 -6,-12 -11,-24 l -2,-2 c -6,9 -12,17 -16,22 -6,6 -13,9 -20,9 -7,0 -12,-3 -14,-11 v -4 c 0,-10 6,-22 19,-37 8,-6 17,-12 28,-16 2,-3 5,-4 8,-4 z"
         id="path717"
         style="fill:#f1613a;fill-rule:nonzero" />
      <path
         class="fil1"
         d="m 12711,13230 c 15,-8 25,-20 31,-35 l 1,-2 c -2,-1 -4,-2 -6,-2 h -1 c -4,0 -28,9 -26,33 0,4 1,6 1,6 z m 29,-54 c 9,1 14,2 14,4 6,7 10,11 10,12 -5,16 -8,41 -8,76 v 15 c 15,-13 14,29 0,35 0,0 -19,14 -20,-3 l -1,-26 c 0,-23 2,-43 4,-62 -13,13 -24,21 -33,20 -8,0 -13,-12 -13,-16 -1,0 -1,-2 -1,-6 v -3 c 0,-6 9,-24 12,-28 10,-12 21,-18 34,-18 z"
         id="path719"
         style="fill:#f1613a;fill-rule:nonzero" />
    </g>
  </g>
</svg>
