<?xml version="1.0" encoding="UTF-8" standalone="no"?>
<!-- Created with Inkscape (http://www.inkscape.org/) -->

<svg
   width="13mm"
   height="8mm"
   viewBox="0 0 13 8"
   version="1.1"
   id="svg36227"
   inkscape:version="1.2 (dc2aedaf03, 2022-05-15)"
   sodipodi:docname="Partes_Herrajes_Cantidades.svg"
   xmlns:inkscape="http://www.inkscape.org/namespaces/inkscape"
   xmlns:sodipodi="http://sodipodi.sourceforge.net/DTD/sodipodi-0.dtd"
   xmlns:xlink="http://www.w3.org/1999/xlink"
   xmlns="http://www.w3.org/2000/svg"
   xmlns:svg="http://www.w3.org/2000/svg">
  <sodipodi:namedview
     id="namedview36229"
     pagecolor="#ffffff"
     bordercolor="#eeeeee"
     borderopacity="1"
     inkscape:showpageshadow="0"
     inkscape:pageopacity="0"
     inkscape:pagecheckerboard="0"
     inkscape:deskcolor="#505050"
     inkscape:document-units="mm"
     showgrid="false"
     inkscape:zoom="13.227385"
     inkscape:cx="30.013491"
     inkscape:cy="6.4260624"
     inkscape:current-layer="text419" />
  <defs
     id="defs36224">
    <color-profile
       name="Agfa-:-Swop-Standard"
       xlink:href="file:///C:/WINDOWS/system32/spool/drivers/color/RSWOP.icm"
       id="color-profile2360" />
  </defs>
  <g
     inkscape:label="Capa 1"
     inkscape:groupmode="layer"
     id="layer1">
    <g
       aria-label="Partes Herrajes y sus  Cantidades"
       id="text13648"
       style="font-weight:bold;font-size:2.46944px;line-height:1.25;font-family:Play;-inkscape-font-specification:'Play, Bold';font-variant-ligatures:none;stroke-width:0.264583">
      <g
         aria-label="Cantidades Totales de Herrajes"
         transform="matrix(0.36514036,0,0,0.36514036,12.161435,3.2591859)"
         id="text419"
         style="font-size:6.35px;text-align:center;text-anchor:middle;white-space:pre;inline-size:49.2125;fill:#f28e1c;stroke-width:0.0700042">
        <path
           d="m -30.27173,-4.3211526 q -0.2794,0 -0.50165,-0.0254 -0.2159,-0.0254 -0.47625,-0.09525 -0.2921,-0.0762 -0.4826,-0.19685 -0.1905,-0.127 -0.3175,-0.34925 -0.13335,-0.22225 -0.13335,-0.52705 v -1.80975 q 0,-1.2446 1.91135,-1.2446 0.48895,0 1.3081,0.1397 v 0.74295 q -0.7366,-0.1778 -1.2954,-0.1778 -0.23495,0 -0.3683,0.0127 -0.127,0.0127 -0.2667,0.0635 -0.29845,0.1016 -0.29845,0.45085 v 1.7526 q 0,0.5588 1.02235,0.5588 0.43815,0 1.2319,-0.18415 v 0.7493 q -0.67945,0.1397 -1.3335,0.1397 z"
           id="path2304" />
        <path
           d="m -27.471379,-4.3211526 q -0.4318,0 -0.6477,-0.0762 -0.20955,-0.08255 -0.29845,-0.28575 -0.08255,-0.20955 -0.08255,-0.6223 0,-0.3683 0.0889,-0.57785 0.09525,-0.20955 0.29845,-0.29845 0.20955,-0.09525 0.5715,-0.09525 h 1.0414 v -0.20955 q 0,-0.19685 -0.05715,-0.2921 -0.0508,-0.09525 -0.19685,-0.13335 -0.1397,-0.0381 -0.42545,-0.0381 -0.3937,0 -1.0795,0.0762 v -0.5842 q 0.50165,-0.0635 1.17475,-0.0635 0.59055,0 0.90805,0.0889 0.32385,0.0889 0.46355,0.3048 0.1397,0.2159 0.1397,0.62865 v 2.11455 h -0.90805 v -0.2794 q -0.10795,0.18415 -0.2921,0.26035 -0.18415,0.08255 -0.6985,0.08255 z m 0.36195,-0.57785 q 0.2794,0 0.40005,-0.01905 0.0889,-0.0127 0.12065,-0.0381 0.0381,-0.0254 0.0635,-0.08255 0.0254,-0.04445 0.0254,-0.13335 v -0.5969 h -0.635 q -0.2159,0 -0.3048,0.03175 -0.0889,0.0254 -0.12065,0.1143 -0.03175,0.08255 -0.03175,0.29845 0,0.20955 0.03175,0.2921 0.03175,0.08255 0.12065,0.10795 0.09525,0.0254 0.3302,0.0254 z"
           id="path2306" />
        <path
           d="m -24.759934,-7.4580526 h 0.9144 v 0.37465 q 0.10795,-0.43815 0.98425,-0.43815 0.59055,0 0.8255,0.2159 0.2413,0.20955 0.2413,0.66675 v 2.25425 h -0.9271 v -2.1336 q 0,-0.1778 -0.0381,-0.2667 -0.03175,-0.0889 -0.1397,-0.127 -0.1016,-0.0381 -0.3175,-0.0381 -0.27305,0 -0.40005,0.0381 -0.127,0.03175 -0.17145,0.12065 -0.04445,0.0889 -0.04445,0.27305 v 2.1336 h -0.9271 z"
           id="path2308" />
        <path
           d="m -19.444989,-4.3211526 q -0.23495,0 -0.3937,-0.01905 -0.15875,-0.01905 -0.3175,-0.0762 -0.1778,-0.05715 -0.2921,-0.15875 -0.10795,-0.1016 -0.1778,-0.2794 -0.0762,-0.18415 -0.0762,-0.42545 v -1.60655 h -0.6223 v -0.5715 h 0.6223 v -0.889 h 0.9271 v 0.889 h 0.84455 v 0.5715 h -0.84455 v 1.4478 q 0,0.22225 0.0381,0.33655 0.0381,0.10795 0.14605,0.15875 0.10795,0.04445 0.3302,0.04445 0.0889,0 0.3302,-0.03175 v 0.57785 q -0.29845,0.03175 -0.51435,0.03175 z"
           id="path2310" />
        <path
           d="m -18.371841,-8.5693026 h 0.9271 v 0.7493 h -0.9271 z m 0,1.11125 h 0.9271 v 3.0734 h -0.9271 z"
           id="path2312" />
        <path
           d="m -15.425444,-4.3211526 q -0.5461,0 -0.80645,-0.0762 -0.26035,-0.08255 -0.36195,-0.3048 -0.1016,-0.22225 -0.1016,-0.69215 v -1.20015 q 0,-0.508 0.28575,-0.71755 0.2921,-0.20955 0.9398,-0.20955 0.3048,0 0.47625,0.0381 0.1778,0.03175 0.28575,0.12065 0.10795,0.08255 0.22225,0.24765 v -1.7144999 h 0.9271 v 4.4449999 h -0.89535 v -0.34925 q -0.1143,0.18415 -0.20955,0.26035 -0.0889,0.06985 -0.254,0.10795 -0.17145,0.04445 -0.508,0.04445 z m 0.23495,-0.57785 q 0.31115,0 0.4572,-0.03175 0.14605,-0.03175 0.19685,-0.1143 0.0508,-0.0889 0.0508,-0.26035 v -1.23825 q 0,-0.15875 -0.05715,-0.2413 -0.0508,-0.0889 -0.1905,-0.127 -0.13335,-0.0381 -0.4064,-0.0381 -0.2921,0 -0.4191,0.0381 -0.127,0.03175 -0.17145,0.12065 -0.0381,0.08255 -0.0381,0.2794 v 1.17475 q 0,0.1778 0.0381,0.27305 0.04445,0.0889 0.1651,0.127 0.12065,0.0381 0.37465,0.0381 z"
           id="path2314" />
        <path
           d="m -11.875796,-4.3211526 q -0.4318,0 -0.6477,-0.0762 -0.20955,-0.08255 -0.29845,-0.28575 -0.08255,-0.20955 -0.08255,-0.6223 0,-0.3683 0.0889,-0.57785 0.09525,-0.20955 0.29845,-0.29845 0.20955,-0.09525 0.5715,-0.09525 h 1.0414 v -0.20955 q 0,-0.19685 -0.05715,-0.2921 -0.0508,-0.09525 -0.19685,-0.13335 -0.1397,-0.0381 -0.42545,-0.0381 -0.3937,0 -1.0795,0.0762 v -0.5842 q 0.50165,-0.0635 1.17475,-0.0635 0.59055,0 0.90805,0.0889 0.32385,0.0889 0.46355,0.3048 0.1396998,0.2159 0.1396998,0.62865 v 2.11455 h -0.9080498 v -0.2794 q -0.10795,0.18415 -0.2921,0.26035 -0.18415,0.08255 -0.6985,0.08255 z m 0.36195,-0.57785 q 0.2794,0 0.40005,-0.01905 0.0889,-0.0127 0.12065,-0.0381 0.0381,-0.0254 0.0635,-0.08255 0.0254,-0.04445 0.0254,-0.13335 v -0.5969 h -0.635 q -0.2159,0 -0.3048,0.03175 -0.0889,0.0254 -0.12065,0.1143 -0.03175,0.08255 -0.03175,0.29845 0,0.20955 0.03175,0.2921 0.03175,0.08255 0.12065,0.10795 0.09525,0.0254 0.3302,0.0254 z"
           id="path2316" />
        <path
           d="m -7.9832501,-4.3211526 q -0.5460999,0 -0.8064499,-0.0762 -0.26035,-0.08255 -0.36195,-0.3048 -0.1016,-0.22225 -0.1016,-0.69215 v -1.20015 q 0,-0.508 0.28575,-0.71755 0.2921,-0.20955 0.9397999,-0.20955 0.3048,0 0.47625,0.0381 0.1778,0.03175 0.28575,0.12065 0.10795,0.08255 0.22225,0.24765 v -1.7144999 h 0.9271 v 4.4449999 h -0.89535 v -0.34925 q -0.1143,0.18415 -0.20955,0.26035 -0.0889,0.06985 -0.254,0.10795 -0.17145,0.04445 -0.508,0.04445 z m 0.23495,-0.57785 q 0.31115,0 0.4572,-0.03175 0.14605,-0.03175 0.19685,-0.1143 0.0508,-0.0889 0.0508,-0.26035 v -1.23825 q 0,-0.15875 -0.05715,-0.2413 -0.0508,-0.0889 -0.1905,-0.127 -0.13335,-0.0381 -0.4064,-0.0381 -0.2921,0 -0.4191,0.0381 -0.127,0.03175 -0.17145,0.12065 -0.0381,0.08255 -0.0381,0.2794 v 1.17475 q 0,0.1778 0.0381,0.27305 0.04445,0.0889 0.1651,0.127 0.12065,0.0381 0.37465,0.0381 z"
           id="path2318" />
        <path
           d="m -3.7605022,-4.3211526 q -1.63195,0 -1.63195,-0.99695 v -1.1049 q 0,-0.57785 0.3683,-0.8382 0.37465,-0.26035 1.14935,-0.26035 0.73025,0 1.0668,0.254 0.3429,0.24765 0.3429,0.84455 v 0.7493 h -1.9939 v 0.2794 q 0,0.2667 0.1905,0.381 0.1905,0.1143 0.6858,0.1143 0.4572,0 1.0287,-0.13335 v 0.59055 q -0.56515,0.12065 -1.2065,0.12065 z m 0.41275,-1.8796 v -0.4445 q 0,-0.1524 -0.127,-0.2286 -0.12065,-0.0762 -0.41275,-0.0762 -0.33655,0 -0.45085,0.0762 -0.12065,0.08255 -0.12065,0.2286 v 0.4445 z"
           id="path2320" />
        <path
           d="m -0.60455198,-4.3211526 q -0.49530002,0 -1.21285002,-0.09525 v -0.61595 q 0.88265002,0.13335 1.22555002,0.13335 0.2921,0 0.43179999,-0.05715 0.1397,-0.05715 0.1397,-0.20955 v -0.1905 q 0,-0.15875 -0.0889,-0.22225 -0.0889,-0.06985 -0.34924999,-0.06985 h -0.40005 q -0.48895002,0 -0.75565002,-0.1905 -0.2667,-0.19685 -0.2667,-0.5715 v -0.37465 q 0,-0.40005 0.381,-0.56515 0.381,-0.17145 1.14935002,-0.17145 0.30479999,0 1.09219998,0.05715 v 0.59055 q -0.99059999,-0.0762 -1.11759998,-0.0762 -0.37465,0 -0.48895,0.0508 -0.10159999,0.05715 -0.10159999,0.20955 v 0.1651 q 0,0.08255 0.08255,0.14605 0.08255,0.05715 0.2413,0.05715 h 0.40639999 q 1.13029999,0 1.13029999,0.7366 v 0.38735 q 0,0.22225 -0.08255,0.38735 -0.08255,0.1651 -0.2159,0.26035 -0.127,0.0889 -0.33019999,0.1397 -0.19685,0.0508 -0.41275,0.06985 -0.19684999,0.01905 -0.45719999,0.01905 z"
           id="path2322" />
        <path
           d="m -29.909778,0.13654736 h -1.27 v -0.70484999 h 3.52425 v 0.70484999 h -1.26365 V 3.5528473 h -0.9906 z"
           id="path2324" />
        <path
           d="m -25.648933,3.6163473 q -0.28575,0 -0.4699,-0.01905 -0.18415,-0.01905 -0.3937,-0.0762 -0.2286,-0.0635 -0.3683,-0.1778 -0.1397,-0.12065 -0.23495,-0.33655 -0.09525,-0.20955 -0.09525,-0.508 v -0.90805 q 0,-0.3048 0.09525,-0.5333999 0.09525,-0.22860005 0.24765,-0.35560004 0.13335,-0.10795 0.34925,-0.1778 0.22225,-0.0762 0.4318,-0.09525 0.2413,-0.0127 0.43815,-0.0127 0.2921,0 0.46355,0.01905 0.1778,0.0127 0.38735,0.0762 0.2286,0.06985 0.3683,0.1905 0.14605,0.12064999 0.24765,0.34290004 0.09525,0.2285999 0.09525,0.5460999 v 0.90805 q 0,0.28575 -0.09525,0.50165 -0.0889,0.2159 -0.23495,0.33655 -0.127,0.10795 -0.34925,0.1778 -0.2159,0.0635 -0.42545,0.08255 -0.1905,0.01905 -0.4572,0.01905 z m 0,-0.57785 q 0.26035,0 0.3937,-0.0381 0.13335,-0.04445 0.18415,-0.13335 0.05715,-0.0889 0.05715,-0.26035 v -1.16205 q 0,-0.254 -0.13335,-0.3556 -0.13335,-0.10159995 -0.50165,-0.10159995 -0.3683,0 -0.50165,0.10159995 -0.13335,0.1016 -0.13335,0.3556 v 1.16205 q 0,0.17145 0.0508,0.26035 0.05715,0.0889 0.1905,0.13335 0.13335,0.0381 0.3937,0.0381 z"
           id="path2326" />
        <path
           d="m -21.826239,3.6163473 q -0.23495,0 -0.3937,-0.01905 -0.15875,-0.01905 -0.3175,-0.0762 -0.1778,-0.05715 -0.2921,-0.15875 -0.10795,-0.1016 -0.1778,-0.2794 -0.0762,-0.18415 -0.0762,-0.42545 V 1.0509474 h -0.6223 V 0.47944736 h 0.6223 v -0.88899999 h 0.9271 v 0.88899999 h 0.84455 V 1.0509474 h -0.84455 v 1.4477999 q 0,0.22225 0.0381,0.33655 0.0381,0.10795 0.14605,0.15875 0.10795,0.04445 0.3302,0.04445 0.0889,0 0.3302,-0.03175 v 0.57785 q -0.29845,0.03175 -0.51435,0.03175 z"
           id="path2328" />
        <path
           d="m -19.908541,3.6163473 q -0.4318,0 -0.6477,-0.0762 -0.20955,-0.08255 -0.29845,-0.28575 -0.08255,-0.20955 -0.08255,-0.6223 0,-0.3683 0.0889,-0.57785 0.09525,-0.20955 0.29845,-0.29845 0.20955,-0.09525 0.5715,-0.09525 h 1.0414 v -0.20955 q 0,-0.19685 -0.05715,-0.2921 -0.0508,-0.09525 -0.19685,-0.1333499 -0.1397,-0.0381001 -0.42545,-0.0381001 -0.3937,0 -1.0795,0.0762001 V 0.47944736 q 0.50165,-0.0635 1.17475,-0.0635 0.59055,0 0.90805,0.0889 0.32385,0.0889 0.46355,0.30479999 0.1397,0.21590005 0.1397,0.62864995 v 2.11455 h -0.90805 v -0.2794 q -0.10795,0.18415 -0.2921,0.26035 -0.18415,0.08255 -0.6985,0.08255 z m 0.36195,-0.57785 q 0.2794,0 0.40005,-0.01905 0.0889,-0.0127 0.12065,-0.0381 0.0381,-0.0254 0.0635,-0.08255 0.0254,-0.04445 0.0254,-0.13335 v -0.5969 h -0.635 q -0.2159,0 -0.3048,0.03175 -0.0889,0.0254 -0.12065,0.1143 -0.03175,0.08255 -0.03175,0.29845 0,0.20955 0.03175,0.2921 0.03175,0.08255 0.12065,0.10795 0.09525,0.0254 0.3302,0.0254 z"
           id="path2330" />
        <path
           d="m -17.171697,-0.89215262 h 0.9271 V 3.5528473 h -0.9271 z"
           id="path2332" />
        <path
           d="m -13.86335,3.6163473 q -1.63195,0 -1.63195,-0.99695 v -1.1049 q 0,-0.57784995 0.3683,-0.83819994 0.37465,-0.26035 1.14935,-0.26035 0.73025,0 1.06679996,0.254 0.34289999,0.24764999 0.34289999,0.84454994 v 0.7493 H -2.357157 v 0.2794 q 0,0.2667 0.1905,0.381 0.1905,0.1143 0.6858,0.1143 0.4572,0 1.02869995,-0.13335 v 0.59055 q -0.56514995,0.12065 -1.20649995,0.12065 z m 0.41275,-1.8796 v -0.4445 q 0,-0.1524 -0.127,-0.2285999 -0.12065,-0.0762001 -0.41275,-0.0762001 -0.33655,0 -0.45085,0.0762001 -0.12065,0.08255 -0.12065,0.2285999 v 0.4445 z"
           id="path2340" />
        <path
           d="m -11.947637,7.3691974 h 0.9906 v 1.6509999 h 1.7526 V 7.3691974 h 0.9906 v 4.1211496 h -0.9906 V 9.7250473 h -1.7526 v 1.7652997 h -0.9906 z"
           id="path2342" />
        <path
           d="m -5.819883,11.553847 q -1.63195,0 -1.63195,-0.99695 V 9.4519973 q 0,-0.5778499 0.3683,-0.8381999 0.37465,-0.26035 1.14935,-0.26035 0.73025,0 1.0668,0.254 0.3429,0.24765 0.3429,0.8445499 v 0.7492997 h -1.9939 v 0.2794 q 0,0.2667 0.1905,0.381 0.1905,0.1143 0.6858,0.1143 0.4572,0 1.0287,-0.13335 v 0.59055 q -0.56515,0.12065 -1.2065,0.12065 z m 0.41275,-1.8795997 v -0.4445 q 0,-0.1524 -0.127,-0.2285999 -0.12065,-0.0762 -0.41275,-0.0762 -0.33655,0 -0.45085,0.0762 -0.12065,0.08255 -0.12065,0.2285999 v 0.4445 z"
           id="path2344" />
        <path
           d="m -3.813283,8.4169474 h 0.88265 v 0.53975 q 0,-0.14605 0.12065,-0.28575 0.12065,-0.1397 0.3048,-0.2286 0.1905,-0.0889 0.37465,-0.0889 h 0.3302 v 0.7683499 h -0.3175 q -0.3937,0 -0.5842,0.12065 -0.18415,0.12065 -0.18415,0.40005 v 1.8478497 h -0.9271 z"
           id="path2346" />
        <path
           d="m -1.292337,8.4169474 h 0.88265 v 0.53975 q 0,-0.14605 0.12065,-0.28575 0.12065,-0.1397 0.3048,-0.2286 0.1905,-0.0889 0.37465,-0.0889 h 0.3302 v 0.7683499 h -0.3175 q -0.3937,0 -0.5842,0.12065 -0.18415,0.12065 -0.18415,0.40005 v 1.8478497 h -0.9271 z"
           id="path2348" />
        <path
           d="m 2.098559,11.553847 q -0.4318,0 -0.6477,-0.0762 -0.20955,-0.08255 -0.29845,-0.28575 -0.08255,-0.20955 -0.08255,-0.6223 0,-0.3683 0.0889,-0.5778497 0.09525,-0.20955 0.29845,-0.29845 0.20955,-0.09525 0.5715,-0.09525 h 1.0414 v -0.20955 q 0,-0.19685 -0.05715,-0.2921 -0.0508,-0.09525 -0.19685,-0.1333499 -0.1397,-0.0381 -0.42545,-0.0381 -0.3937,0 -1.0795,0.0762 v -0.5842 q 0.50165,-0.0635 1.17475,-0.0635 0.59055,0 0.90805,0.0889 0.32385,0.0889 0.46355,0.3048 0.1397,0.2159 0.1397,0.6286499 v 2.1145497 h -0.90805 v -0.2794 q -0.10795,0.18415 -0.2921,0.26035 -0.18415,0.08255 -0.6985,0.08255 z m 0.36195,-0.57785 q 0.2794,0 0.40005,-0.01905 0.0889,-0.0127 0.12065,-0.0381 0.0381,-0.0254 0.0635,-0.08255 0.0254,-0.04445 0.0254,-0.13335 v -0.5969 h -0.635 q -0.2159,0 -0.3048,0.03175 -0.0889,0.0254 -0.12065,0.1143 -0.03175,0.08255 -0.03175,0.29845 0,0.20955 0.03175,0.2921 0.03175,0.08255 0.12065,0.10795 0.09525,0.0254 0.3302,0.0254 z"
           id="path2350" />
        <path
           d="m 4.810003,7.3056974 h 0.9271 v 0.7493 h -0.9271 z m -0.6477,5.5689496 v -0.60325 q 0.0254,0.006 0.1143,0.006 0.2413,0 0.34925,-0.0381 0.10795,-0.03175 0.14605,-0.1397 0.0381,-0.10795 0.0381,-0.3556 V 8.4169474 h 0.9271 v 3.5369496 q 0,0.52705 -0.31115,0.73025 -0.3048,0.2032 -0.9652,0.2032 z"
           id="path2352" />
        <path
           d="m 8.0929539,11.553847 q -1.63195,0 -1.63195,-0.99695 V 9.4519973 q 0,-0.5778499 0.3683,-0.8381999 0.37465,-0.26035 1.14935,-0.26035 0.73025,0 1.0668,0.254 0.3429,0.24765 0.3429,0.8445499 v 0.7492997 h -1.9939 v 0.2794 q 0,0.2667 0.1905,0.381 0.1905,0.1143 0.6858,0.1143 0.4572,0 1.0287,-0.13335 v 0.59055 q -0.56515,0.12065 -1.2065,0.12065 z m 0.41275,-1.8795997 v -0.4445 q 0,-0.1524 -0.127,-0.2285999 -0.12065,-0.0762 -0.41275,-0.0762 -0.33655,0 -0.45085,0.0762 -0.12065,0.08255 -0.12065,0.2285999 v 0.4445 z"
           id="path2354" />
        <path
           d="m 11.248904,11.553847 q -0.4953,0 -1.21285,-0.0952 v -0.61595 q 0.88265,0.13335 1.22555,0.13335 0.2921,0 0.4318,-0.0571 0.1397,-0.0571 0.1397,-0.2095 v -0.1905 q 0,-0.15875 -0.0889,-0.22225 -0.0889,-0.06985 -0.34925,-0.06985 h -0.40005 q -0.48895,0 -0.75565,-0.1905 -0.2667,-0.1968497 -0.2667,-0.5714997 v -0.37465 q 0,-0.4000499 0.381,-0.5651499 0.381,-0.17145 1.14935,-0.17145 0.3048,0 1.0922,0.05715 v 0.59055 q -0.9906,-0.0762 -1.1176,-0.0762 -0.37465,0 -0.48895,0.0508 -0.1016,0.05715 -0.1016,0.2095499 v 0.1651 q 0,0.08255 0.08255,0.14605 0.08255,0.05715 0.2413,0.05715 h 0.4064 q 1.1303,0 1.1303,0.7365997 v 0.38735 q 0,0.22225 -0.08255,0.38735 -0.08255,0.1651 -0.2159,0.26035 -0.127,0.0889 -0.3302,0.1397 -0.19685,0.0508 -0.41275,0.06985 -0.19685,0.01905 -0.4572,0.01905 z"
           id="path2356" />
      </g>
    </g>
  </g>
</svg>
