<?xml version="1.0" encoding="UTF-8" standalone="no"?>
<!-- Created with Inkscape (http://www.inkscape.org/) -->

<svg
   width="39.6875mm"
   height="21mm"
   viewBox="0 0 39.687499 21"
   version="1.1"
   id="svg36227"
   inkscape:version="1.2 (dc2aedaf03, 2022-05-15)"
   sodipodi:docname="Ensamble_Minifix.svg"
   xmlns:inkscape="http://www.inkscape.org/namespaces/inkscape"
   xmlns:sodipodi="http://sodipodi.sourceforge.net/DTD/sodipodi-0.dtd"
   xmlns="http://www.w3.org/2000/svg"
   xmlns:svg="http://www.w3.org/2000/svg">
  <sodipodi:namedview
     id="namedview36229"
     pagecolor="#505050"
     bordercolor="#eeeeee"
     borderopacity="1"
     inkscape:showpageshadow="0"
     inkscape:pageopacity="0"
     inkscape:pagecheckerboard="0"
     inkscape:deskcolor="#505050"
     inkscape:document-units="mm"
     showgrid="false"
     inkscape:zoom="4.6765868"
     inkscape:cx="77.19305"
     inkscape:cy="33.14383"
     inkscape:current-layer="layer1" />
  <defs
     id="defs36224" />
  <g
     inkscape:label="Capa 1"
     inkscape:groupmode="layer"
     id="layer1">
    <g
       id="g581"
       transform="translate(0,-2.0775332)">
      <path
         d="m 10.30576,11.99361 v -1.54796 h 0.26746 v 1.54796 z"
         stroke="#000000"
         stroke-width="0"
         fill="#000000"
         fill-opacity="1"
         id="path17401-7"
         style="stroke-width:0.1;stroke-dasharray:none" />
      <path
         d="m 10.43949,21.31059 v 0.48142 l -1.06983,-0.74888 1.06983,-0.74888 v 0.48142 c 0.71818,0.0191 1.58216,-0.30683 2.17712,-0.90179 0.59496,-0.59496 0.92088,-1.45895 0.90179,-2.17712 0.0191,-0.71818 -0.30683,-1.58216 -0.90179,-2.17712 -0.59496,-0.59495 -1.45894,-0.92089 -2.17712,-0.90179 v -0.53491 c 0.84295,-0.0224 1.85704,0.36014 2.55536,1.05846 0.69832,0.69832 1.08087,1.71241 1.05847,2.55536 0.0224,0.84295 -0.36015,1.85704 -1.05847,2.55536 -0.69832,0.69832 -1.71241,1.08087 -2.55536,1.05847 z"
         stroke="#000000"
         stroke-width="0"
         fill="#000000"
         fill-opacity="1"
         id="path17403-3"
         style="stroke-width:0.1;stroke-dasharray:none" />
      <path
         d="m 33.857026,11.22047 -1.46356,-0.42355 c 0.454377,-0.39357 0.925966,-0.61558 1.335271,-0.69517 0.274492,-0.0547 0.558546,-0.055 0.829787,0.0134 l 1.487069,0.37343 c -0.271155,-0.0684 -0.556556,-0.0652 -0.833427,-0.006 -0.412804,0.0869 -0.891088,0.32274 -1.35514,0.73753 z"
         stroke="#000000"
         stroke-width="0"
         fill="#000000"
         fill-opacity="1"
         id="path17405-1"
         style="stroke-width:0.1;stroke-dasharray:none" />
      <path
         d="m 31.859641,17.31537 c -0.800319,-0.36465 -1.278078,-1.51463 -1.229032,-2.63502 l -0.740946,-0.32204 c 0.233273,-0.25956 0.517922,-0.54068 0.849507,-0.83428 l 0.129677,-0.11337 0.136194,-0.11612 0.287214,-0.23597 0.636649,-0.48568 c 0.01905,0.2487 0.05563,0.50236 0.108887,0.76367 l 0.09046,0.38938 0.05374,0.19632 0.05848,0.19478 c 0.159152,0.50833 0.373243,1.02769 0.633816,1.53851 l -0.853382,-0.37092 c -0.06549,1.16609 0.401335,2.35136 1.201591,2.71406 z"
         stroke="#000000"
         stroke-width="0"
         fill="#000000"
         fill-opacity="1"
         id="path17407-1"
         style="stroke-width:0.1;stroke-dasharray:none" />
      <path
         d="m 27.37012,9.92758 0.364381,0.68396 -0.720552,0.13283 z"
         stroke="#000000"
         stroke-width="0"
         fill="#000000"
         fill-opacity="1"
         id="path17409-8"
         style="stroke-width:0.1;stroke-dasharray:none" />
      <path
         d="m 33.222502,17.99869 c -0.224093,-0.11203 -0.430689,-0.28133 -0.60405,-0.50111 0.262619,0.004 0.522803,-0.0483 0.766113,-0.1368 0.656688,-0.22643 1.417396,-0.8617 1.944421,-1.75167 l 1.400035,0.56398 c -0.541177,0.92826 -1.312426,1.59826 -1.974767,1.84457 -0.389619,0.15318 -0.824566,0.20933 -1.235209,0.0951 -0.101074,-0.0279 -0.200385,-0.0658 -0.296543,-0.11403 z"
         stroke="#000000"
         stroke-width="0"
         fill="#000000"
         fill-opacity="1"
         id="path17411-2"
         style="stroke-width:0.1;stroke-dasharray:none" />
      <path
         d="M 10.90274,16.70717 H 9.97624 L 10.43949,15.9048 Z"
         stroke="#000000"
         stroke-width="0"
         fill="#000000"
         fill-opacity="1"
         id="path17413-4"
         style="stroke-width:0.1;stroke-dasharray:none" />
      <path
         d="m 35.254773,10.47427 c 0.263427,-0.0511 0.53357,-0.0506 0.79082,0.0143 0.524496,0.12099 0.975239,0.54632 1.238872,1.12605 0.263633,0.57973 0.340155,1.31386 0.280845,1.97415 -0.01743,0.2076 -0.04791,0.42551 -0.09321,0.65004 l -1.429956,-0.48985 c 0.04178,-0.21649 0.0688,-0.42675 0.08293,-0.62715 0.08456,-0.96977 -0.190092,-2.09707 -0.870304,-2.64752 z"
         stroke="#000000"
         stroke-width="0"
         fill="#000000"
         fill-opacity="1"
         id="path17415-2"
         style="stroke-width:0.1;stroke-dasharray:none" />
      <path
         d="M 10.90274,11.99361 10.43949,12.79599 9.97624,11.99361 Z"
         stroke="#000000"
         stroke-width="0"
         fill="#000000"
         fill-opacity="1"
         id="path17417-3"
         style="stroke-width:0.1;stroke-dasharray:none" />
      <path
         d="M 31.013442,12.1057 C 30.53382,11.99536 30.043658,11.89978 29.608782,11.82265"
         stroke="#000000"
         stroke-width="0.051001"
         fill-opacity="0"
         id="path17419-2"
         style="stroke-width:0.1;stroke-dasharray:none" />
      <path
         d="m 9.93545,6.70078 0.0163,-0.0512 0.0605,-0.0785 c 0.0283,-0.0362 0.0593,-0.0365 0.0875,0 l 0.0831,0.0785 0.0753,0.0693 c 0.0164,0.0167 0.0419,0.0264 0.0739,0.0311 l 0.10713,0.005 0.10715,-0.005 c 0.0321,-0.005 0.0576,-0.0143 0.074,-0.0311 l 0.0754,-0.0693 0.0379,-0.0345 0.0453,-0.0439 c 0.0282,-0.0365 0.0592,-0.0362 0.0875,0 l 0.0605,0.0785 0.0164,0.0512 -0.003,0.0181 -0.005,0.0196 0.007,0.0115 0.0553,0.005 0.0961,-0.005 0.0553,-0.0115 0.0475,-0.0196 0.0297,-0.0181 0.0639,-0.0512 0.0571,-0.0785 c 0.007,-0.0281 0.0289,-0.0285 0.0362,0 0.009,0.0267 0.0107,0.0532 0.002,0.0785 -0.008,0.0253 -0.0262,0.0495 -0.0571,0.0693 l -0.0713,0.0311 -0.0288,0.005 -0.0267,10e-4 -0.76225,1e-5 H 9.67703 l -0.0267,-0.001 -0.0287,-0.005 -0.0713,-0.0311 c -0.0309,-0.0198 -0.0488,-0.044 -0.0571,-0.0693 l -0.005,-0.0345 0.008,-0.0439 c 0.007,-0.0285 0.029,-0.0281 0.0363,0 l 0.0571,0.0785 0.0936,0.0693 0.0475,0.0196 0.0551,0.0115 0.096,0.005 0.0555,-0.005 0.007,-0.0115 -0.005,-0.0196 z"
         stroke="#000000"
         stroke-width="0.0170003"
         fill-opacity="0"
         id="path17421-5"
         style="stroke-width:0.1;stroke-dasharray:none" />
      <path
         d="m 10.43949,19.67594 c 0.46166,0.0123 1.01705,-0.19724 1.39949,-0.57969 0.38245,-0.38245 0.59197,-0.93783 0.57969,-1.39949 0.0123,-0.46166 -0.19724,-1.01704 -0.57969,-1.39949 C 11.45654,15.91482 10.90115,15.70531 10.43949,15.71758 9.97783,15.70528 9.42245,15.91482 9.04,16.29727 8.65755,16.67972 8.44804,17.2351 8.46031,17.69676 8.44801,18.15842 8.65755,18.7138 9.04,19.09625 c 0.38245,0.38245 0.93783,0.59196 1.39949,0.57969 z"
         stroke="#000000"
         stroke-width="0.051001"
         fill-opacity="0"
         id="path17423-0"
         style="stroke-width:0.1;stroke-dasharray:none" />
      <path
         d="M 11.44246,3.97469 11.25523,4.08168 H 10.43949 9.62375 L 9.43653,3.97469"
         stroke="#000000"
         stroke-width="0.0170003"
         fill-opacity="0"
         id="path17425-6"
         style="stroke-width:0.1;stroke-dasharray:none" />
      <path
         d="m 11.20355,4.08168 0.0249,10e-4 0.0287,0.005 0.0713,0.0311 c 0.0309,0.0198 0.0488,0.044 0.0571,0.0693 0.008,0.0253 0.007,0.0521 -0.002,0.0785 -0.007,0.0285 -0.029,0.0281 -0.0363,0 l -0.0571,-0.0785 -0.0639,-0.0512 -0.0297,-0.0181 -0.0475,-0.0196 -0.0551,-0.0115 -0.0961,-0.005 -0.0555,0.005 -0.007,0.0115 0.005,0.0196 0.003,0.0181 -0.0164,0.0512 -0.0605,0.0785 c -0.0283,0.0362 -0.0593,0.0365 -0.0875,0 l -0.0453,-0.0439 -0.0379,-0.0345 -0.0753,-0.0693 c -0.0164,-0.0167 -0.0419,-0.0264 -0.0739,-0.0311 l -0.10706,-0.005 -0.10722,0.005 c -0.0321,0.005 -0.0576,0.0143 -0.074,0.0311 l -0.0754,0.0693 -0.0831,0.0785 c -0.0282,0.0365 -0.0593,0.0362 -0.0875,0 l -0.0605,-0.0785 -0.0163,-0.0512 0.003,-0.0181 0.005,-0.0196 -0.007,-0.0115 -0.0553,-0.005 -0.0961,0.005 -0.0553,0.0115 -0.0476,0.0196 -0.0936,0.0693 -0.0571,0.0785 c -0.007,0.0281 -0.0289,0.0285 -0.0363,0 l -0.008,-0.0439 0.005,-0.0345 c 0.008,-0.0252 0.0262,-0.0495 0.0571,-0.0693 l 0.0713,-0.0311 0.0288,-0.005 0.0267,-0.001 z"
         stroke="#000000"
         stroke-width="0.0170003"
         fill-opacity="0"
         id="path17427-8"
         style="stroke-width:0.1;stroke-dasharray:none" />
      <path
         d="M 26.613506,13.302 25.87188,12.96926 c -0.47209,-0.19146 -0.80084,-0.7884 -0.80147,-1.36302 -0.0217,-0.46403 0.1554,-1.05054 0.49762,-1.45996 l 0.32262,0.11034 c 0.372436,-0.49257 1.066801,-0.78675 1.582613,-0.6075 l 0.447165,0.13396"
         stroke="#000000"
         stroke-width="0.051001"
         fill-opacity="0"
         id="path17429-5"
         style="stroke-width:0.1;stroke-dasharray:none" />
      <path
         d="m 12.44542,17.69676 c 0.0124,-0.4679 -0.1999,-1.03079 -0.58752,-1.41841 -0.38762,-0.38761 -0.95051,-0.59995 -1.41841,-0.58752 -0.4679,-0.0124 -1.03078,0.19991 -1.41841,0.58752 -0.38761,0.38762 -0.59995,0.95051 -0.58751,1.41841 -0.0124,0.46789 0.1999,1.03079 0.58751,1.4184 0.38763,0.38762 0.95051,0.59997 1.41841,0.58753 0.4679,0.0124 1.03079,-0.19991 1.41841,-0.58753 0.38762,-0.38761 0.59996,-0.95051 0.58752,-1.4184 z"
         stroke="#000000"
         stroke-width="0.0170003"
         fill-opacity="0"
         id="path17431-5"
         style="stroke-width:0.1;stroke-dasharray:none" />
      <path
         d="M 11.44246,3.86771 V 3.97469 H 11.1487 10.05568 9.43653 V 3.86771"
         stroke="#000000"
         stroke-width="0.0170003"
         fill-opacity="0"
         id="path17433-2"
         style="stroke-width:0.1;stroke-dasharray:none" />
      <path
         d="m 30.557989,13.68748 -1.167938,-0.47043 c -0.05588,-0.0224 -0.108002,-0.0567 -0.152882,-0.10081 -0.05203,-0.0508 -0.09568,-0.11625 -0.126972,-0.19067 l -0.09446,-0.31934 -0.04554,-0.15697 -0.01,-0.035 -0.04373,-0.15498 -0.0051,-0.039 c -0.0018,-0.0498 0.03108,-0.11349 0.07066,-0.13691 l 0.174211,-0.1148 0.06017,-0.0393 0.214127,-0.13765 0.178206,0.0311 0.372173,-0.14983 0.05855,0.0198 9.197015,3.15061"
         stroke="#000000"
         stroke-width="0.051001"
         fill-opacity="0"
         id="path17435-6"
         style="stroke-width:0.1;stroke-dasharray:none" />
      <path
         d="m 9.57026,9.88583 h 0.86923 0.86924"
         stroke="#000000"
         stroke-width="0.0170003"
         fill-opacity="0"
         id="path17437-6"
         style="stroke-width:0.1;stroke-dasharray:none" />
      <path
         d="M 10.87411,6.75624 V 9.169 c -1.4e-4,0.0503 0.0114,0.10336 0.0345,0.15108 0.023,0.0478 0.0573,0.0898 0.0968,0.12107 l 0.0336,0.0281 c 0.1456,0.1278 0.22845,0.28165 0.26971,0.41661 v 0.13339 c 4.2e-4,0.0313 -0.0126,0.0684 -0.0392,0.0946 -0.0261,0.0266 -0.0632,0.0396 -0.0946,0.0392 h -0.73551 -0.7355 c -0.0313,4.3e-4 -0.0684,-0.0125 -0.0946,-0.0392 -0.0266,-0.0261 -0.0396,-0.0632 -0.0392,-0.0946 V 9.88586 C 9.61141,9.75067 9.69452,9.59648 9.84065,9.46851 l 0.0328,-0.0273 c 0.0395,-0.0312 0.0738,-0.0732 0.0968,-0.12107 0.0232,-0.0477 0.0347,-0.10075 0.0346,-0.15108 l -10e-6,-2.41275"
         stroke="#000000"
         stroke-width="0.0170003"
         fill-opacity="0"
         id="path17439-5"
         style="stroke-width:0.1;stroke-dasharray:none" />
      <text
         x="14.416669"
         y="18.402512"
         font-family="Play"
         font-size="2.05904px"
         id="text17441-5"
         style="stroke-width:0.1;stroke-dasharray:none">180°</text>
      <path
         d="m 10.43949,4.61659 -0.10649,0.0111 -0.0434,0.0119 -0.0312,0.0123 -0.008,0.004 -0.0231,0.0132 -0.0249,0.0195 -0.0213,0.0274 -0.007,0.0166 -0.002,0.009 -6.3e-4,0.009 v 1.33729 l 6.3e-4,0.009 0.002,0.009 0.007,0.0166 0.0213,0.0274 0.0249,0.0195 0.0231,0.0132 0.008,0.004 0.0312,0.0123 0.0434,0.0119 0.10649,0.0111 0.10648,-0.0111 0.0435,-0.0119 0.0312,-0.0123 0.008,-0.004 0.0231,-0.0132 0.0249,-0.0196 0.0213,-0.0274 0.007,-0.0166 0.002,-0.009 5.7e-4,-0.009 V 4.75049 l -5.7e-4,-0.009 -0.002,-0.009 -0.007,-0.0166 -0.0213,-0.0274 -0.0249,-0.0196 -0.0231,-0.0132 -0.008,-0.004 -0.0312,-0.0123 -0.0434,-0.0119 z"
         stroke="#000000"
         stroke-width="0.051001"
         fill-opacity="0"
         id="path17443-1"
         style="stroke-width:0.1;stroke-dasharray:none" />
      <path
         d="M 38.5336,16.89995 32.335623,14.40349"
         stroke="#000000"
         stroke-width="0.051001"
         fill-opacity="0"
         id="path17447-4"
         style="stroke-width:0.1;stroke-dasharray:none" />
      <path
         d="m 33.857026,11.22047 -1.46356,-0.42355 c 0.454377,-0.39357 0.925966,-0.61558 1.335271,-0.69517 0.274492,-0.0547 0.558546,-0.055 0.829787,0.0134 l 1.487069,0.37343 c -0.271155,-0.0684 -0.556556,-0.0652 -0.833427,-0.006 -0.412804,0.0869 -0.891088,0.32274 -1.35514,0.73753 z"
         stroke="#000000"
         stroke-width="0.051001"
         fill-opacity="0"
         id="path17449-2"
         style="stroke-width:0.1;stroke-dasharray:none" />
      <path
         d="M 27.013949,10.74437 27.37012,9.92758"
         stroke="#000000"
         stroke-width="0.051001"
         fill-opacity="0"
         id="path17451-8"
         style="stroke-width:0.1;stroke-dasharray:none" />
      <path
         d="m 26.859621,11.57147 0.423245,0.16047"
         stroke="#000000"
         stroke-width="0.051001"
         fill-opacity="0"
         id="path17453-8"
         style="stroke-width:0.1;stroke-dasharray:none" />
      <path
         d="m 27.279282,11.36988 0.207666,0.076"
         stroke="#000000"
         stroke-width="0.051001"
         fill-opacity="0"
         id="path17455-7"
         style="stroke-width:0.1;stroke-dasharray:none" />
      <path
         d="m 27.053319,11.64508 -0.0013,-0.11213"
         stroke="#000000"
         stroke-width="0.051001"
         fill-opacity="0"
         id="path17457-4"
         style="stroke-width:0.1;stroke-dasharray:none" />
      <path
         d="m 23.29457,8.37503 c -0.29431,-0.0963 -0.69414,-0.0585 -1.03336,0.13713 -0.33923,0.19561 -0.61782,0.54907 -0.73647,0.89425 -0.13293,0.33994 -0.14953,0.79017 -0.0185,1.16009 0.13103,0.36993 0.4097,0.65956 0.69482,0.77903"
         stroke="#000000"
         stroke-width="0.0170003"
         fill-opacity="0"
         id="path17459-4"
         style="stroke-width:0.1;stroke-dasharray:none" />
      <path
         d="m 32.61848,17.49756 c 0.262599,0.004 0.522775,-0.0483 0.766085,-0.13678 0.656702,-0.22643 1.417425,-0.86173 1.944457,-1.75172"
         stroke="#000000"
         stroke-width="0.051001"
         fill-opacity="0"
         id="path17461-6"
         style="stroke-width:0.1;stroke-dasharray:none" />
      <path
         d="M 33.222502,17.99869 31.859641,17.31537"
         stroke="#000000"
         stroke-width="0.051001"
         fill-opacity="0"
         id="path17463-8"
         style="stroke-width:0.1;stroke-dasharray:none" />
      <path
         d="M 32.874293,15.65555 32.020911,15.28463"
         stroke="#000000"
         stroke-width="0.051001"
         fill-opacity="0"
         id="path17465-3"
         style="stroke-width:0.1;stroke-dasharray:none" />
      <path
         d="m 31.928904,12.57289 -0.636649,0.48568 -0.287214,0.23597 -0.136194,0.11612 -0.129677,0.11337 c -0.331585,0.2936 -0.616234,0.57472 -0.849507,0.83428"
         stroke="#000000"
         stroke-width="0.051001"
         fill-opacity="0"
         id="path17467-1"
         style="stroke-width:0.1;stroke-dasharray:none" />
      <path
         d="m 31.928904,12.57289 c 0.01905,0.2487 0.05563,0.50236 0.108887,0.76367 l 0.09046,0.38938 0.05374,0.19632 0.05848,0.19478 c 0.159152,0.50833 0.373243,1.02769 0.633816,1.53851"
         stroke="#000000"
         stroke-width="0.051001"
         fill-opacity="0"
         id="path17469-8"
         style="stroke-width:0.1;stroke-dasharray:none" />
      <path
         d="m 32.020911,15.28463 c -0.06549,1.16609 0.401335,2.35136 1.201591,2.71406"
         stroke="#000000"
         stroke-width="0.051001"
         fill-opacity="0"
         id="path17471-2"
         style="stroke-width:0.1;stroke-dasharray:none" />
      <path
         d="m 22.39178,8.44526 0.0172,0.32809"
         stroke="#000000"
         stroke-width="0.0170003"
         fill-opacity="0"
         id="path17473-9"
         style="stroke-width:0.1;stroke-dasharray:none" />
      <path
         d="m 21.51964,9.42051 c 0.0581,0.0179 0.14175,0.0316 0.23343,0.0395 0.18864,0.018 0.47059,0.009 0.66383,-0.0202"
         stroke="#000000"
         stroke-width="0.0170003"
         fill-opacity="0"
         id="path17475-3"
         style="stroke-width:0.1;stroke-dasharray:none" />
      <path
         d="m 25.47037,12.78912 c -0.46931,-0.19056 -0.79739,-0.78001 -0.79992,-1.34606 -0.023,-0.45722 0.15068,-1.0343 0.48883,-1.43657"
         stroke="#000000"
         stroke-width="0.051001"
         fill-opacity="0"
         id="path17477-1"
         style="stroke-width:0.1;stroke-dasharray:none" />
      <path
         d="m 27.920428,9.78308 c -0.182973,-0.0551 -0.37354,-0.0617 -0.551888,-0.0319 -0.361009,0.0473 -0.807218,0.32213 -1.111829,0.74174 -0.304611,0.41958 -0.467611,0.98395 -0.446571,1.41517 -0.003,0.57156 0.311921,1.19315 0.803366,1.39393"
         stroke="#000000"
         stroke-width="0.051001"
         fill-opacity="0"
         id="path17479-7"
         style="stroke-width:0.1;stroke-dasharray:none" />
      <path
         d="m 27.734501,10.61154 -0.720552,0.13283"
         stroke="#000000"
         stroke-width="0.051001"
         fill-opacity="0"
         id="path17481-3"
         style="stroke-width:0.1;stroke-dasharray:none" />
      <path
         d="m 27.37012,9.92758 0.364381,0.68396"
         stroke="#000000"
         stroke-width="0.051001"
         fill-opacity="0"
         id="path17483-9"
         style="stroke-width:0.1;stroke-dasharray:none" />
      <path
         d="m 27.6597,10.58671 -0.627079,0.11511"
         stroke="#000000"
         stroke-width="0.051001"
         fill-opacity="0"
         id="path17485-7"
         style="stroke-width:0.1;stroke-dasharray:none" />
      <path
         d="m 27.34207,9.9919 0.31763,0.59481"
         stroke="#000000"
         stroke-width="0.051001"
         fill-opacity="0"
         id="path17487-2"
         style="stroke-width:0.1;stroke-dasharray:none" />
      <path
         d="m 27.064171,11.53051 0.424739,0.15915"
         stroke="#000000"
         stroke-width="0.051001"
         fill-opacity="0"
         id="path17489-5"
         style="stroke-width:0.1;stroke-dasharray:none" />
      <path
         d="m 27.767142,11.38974 0.429641,0.15464"
         stroke="#000000"
         stroke-width="0.051001"
         fill-opacity="0"
         id="path17491-1"
         style="stroke-width:0.1;stroke-dasharray:none" />
      <path
         d="m 27.287626,12.21276 0.206143,0.0818"
         stroke="#000000"
         stroke-width="0.051001"
         fill-opacity="0"
         id="path17493-8"
         style="stroke-width:0.1;stroke-dasharray:none" />
      <path
         d="m 27.280415,11.48017 0.194172,-0.0389"
         stroke="#000000"
         stroke-width="0.051001"
         fill-opacity="0"
         id="path17495-1"
         style="stroke-width:0.1;stroke-dasharray:none" />
      <path
         d="m 26.613506,13.302 c 0.25776,0.11661 0.540065,0.12574 0.787441,0.0656"
         stroke="#000000"
         stroke-width="0.051001"
         fill-opacity="0"
         id="path17497-5"
         style="stroke-width:0.1;stroke-dasharray:none" />
      <path
         d="m 27.734501,10.61154 -0.0748,-0.0248"
         stroke="#000000"
         stroke-width="0.051001"
         fill-opacity="0"
         id="path17499-0"
         style="stroke-width:0.1;stroke-dasharray:none" />
      <path
         d="m 26.752746,9.54687 0.0016,0.10812"
         stroke="#000000"
         stroke-width="0.051001"
         fill-opacity="0"
         id="path17501-9"
         style="stroke-width:0.1;stroke-dasharray:none" />
      <path
         d="m 26.752746,9.54687 0.209678,0.0637"
         stroke="#000000"
         stroke-width="0.051001"
         fill-opacity="0"
         id="path17503-1"
         style="stroke-width:0.1;stroke-dasharray:none" />
      <path
         d="m 27.400947,13.36759 c 0.351277,-0.0737 0.759746,-0.35439 1.039741,-0.75352 0.279996,-0.39913 0.431519,-0.91673 0.425143,-1.32558 0.02942,-0.62881 -0.353628,-1.35693 -0.945403,-1.50541"
         stroke="#000000"
         stroke-width="0.051001"
         fill-opacity="0"
         id="path17505-1"
         style="stroke-width:0.1;stroke-dasharray:none" />
      <path
         d="m 21.69988,10.93509 c 0.26444,-0.0269 0.52259,-0.14319 0.72307,-0.30677 0.38142,-0.29055 0.6357,-0.86389 0.59931,-1.34963"
         stroke="#000000"
         stroke-width="0.0170003"
         fill-opacity="0"
         id="path17507-4"
         style="stroke-width:0.1;stroke-dasharray:none" />
      <path
         d="m 22.20106,11.34553 c 0.42302,0.20793 1.02041,0.10157 1.39923,-0.23137 0.39531,-0.30877 0.66237,-0.91256 0.62985,-1.42223"
         stroke="#000000"
         stroke-width="0.0170003"
         fill-opacity="0"
         id="path17509-8"
         style="stroke-width:0.1;stroke-dasharray:none" />
      <path
         d="M 23.02226,9.27869 C 23.01006,8.95403 22.88035,8.60288 22.64721,8.35849"
         stroke="#000000"
         stroke-width="0.0170003"
         fill-opacity="0"
         id="path17511-3"
         style="stroke-width:0.1;stroke-dasharray:none" />
      <path
         d="m 24.23014,9.69193 c 0.003,-0.58057 -0.41605,-1.18979 -0.93557,-1.3169"
         stroke="#000000"
         stroke-width="0.0170003"
         fill-opacity="0"
         id="path17513-9"
         style="stroke-width:0.1;stroke-dasharray:none" />
      <path
         d="m 36.042143,13.74894 c 0.04178,-0.21649 0.0688,-0.42675 0.08293,-0.62715"
         stroke="#000000"
         stroke-width="0.051001"
         fill-opacity="0"
         id="path17515-7"
         style="stroke-width:0.1;stroke-dasharray:none" />
      <path
         d="m 37.472099,14.23879 c 0.04531,-0.22453 0.07578,-0.44244 0.09321,-0.65004"
         stroke="#000000"
         stroke-width="0.051001"
         fill-opacity="0"
         id="path17517-9"
         style="stroke-width:0.1;stroke-dasharray:none" />
      <path
         d="m 33.222502,17.99869 c 0.09616,0.0482 0.195469,0.0861 0.296543,0.11403 0.410643,0.11427 0.84559,0.0581 1.235209,-0.0951 0.662341,-0.24631 1.43359,-0.91631 1.974767,-1.84457"
         stroke="#000000"
         stroke-width="0.051001"
         fill-opacity="0"
         id="path17519-5"
         style="stroke-width:0.1;stroke-dasharray:none" />
      <path
         d="M 30.630609,14.68035 29.889663,14.35831"
         stroke="#000000"
         stroke-width="0.051001"
         fill-opacity="0"
         id="path17521-9"
         style="stroke-width:0.1;stroke-dasharray:none" />
      <path
         d="m 30.630609,14.68035 c -0.04905,1.12039 0.428713,2.27037 1.229032,2.63502"
         stroke="#000000"
         stroke-width="0.051001"
         fill-opacity="0"
         id="path17523-8"
         style="stroke-width:0.1;stroke-dasharray:none" />
      <path
         d="M 37.56531,13.58875 C 37.62462,12.92846 37.5481,12.19433 37.284465,11.6146 37.020832,11.03487 36.570089,10.60954 36.045593,10.48855"
         stroke="#000000"
         stroke-width="0.051001"
         fill-opacity="0"
         id="path17525-2"
         style="stroke-width:0.1;stroke-dasharray:none" />
      <path
         d="m 36.125077,13.12179 c 0.08456,-0.96977 -0.190092,-2.09707 -0.870304,-2.64752"
         stroke="#000000"
         stroke-width="0.051001"
         fill-opacity="0"
         id="path17527-2"
         style="stroke-width:0.1;stroke-dasharray:none" />
      <path
         d="m 28.911414,12.22021 1.422588,0.87599"
         stroke="#000000"
         stroke-width="0.051001"
         fill-opacity="0"
         id="path17529-2"
         style="stroke-width:0.1;stroke-dasharray:none" />
      <path
         d="m 28.911414,12.22021 0.01215,-9.2e-4 0.01422,7.8e-4 0.03064,0.003 0.06472,0.009 0.08157,0.0118"
         stroke="#000000"
         stroke-width="0.051001"
         fill-opacity="0"
         id="path17531-9"
         style="stroke-width:0.1;stroke-dasharray:none" />
      <path
         d="M 30.334002,13.0962 C 29.901117,13.0686 29.471207,12.9997 29.110197,12.92557"
         stroke="#000000"
         stroke-width="0.051001"
         fill-opacity="0"
         id="path17533-6"
         style="stroke-width:0.1;stroke-dasharray:none" />
      <path
         d="m 29.114709,12.2439 1.219293,0.8523"
         stroke="#000000"
         stroke-width="0.051001"
         fill-opacity="0"
         id="path17535-7"
         style="stroke-width:0.1;stroke-dasharray:none" />
      <path
         d="m 29.430583,11.79154 c -0.134182,0.10462 -0.252654,0.274 -0.315874,0.45236"
         stroke="#000000"
         stroke-width="0.051001"
         fill-opacity="0"
         id="path17537-3"
         style="stroke-width:0.1;stroke-dasharray:none" />
      <path
         d="m 29.390051,13.21705 0.02698,0.01"
         stroke="#000000"
         stroke-width="0.051001"
         fill-opacity="0"
         id="path17539-5"
         style="stroke-width:0.1;stroke-dasharray:none" />
      <path
         d="m 30.039507,11.69262 c 0.316419,0.10848 0.665117,0.2474 0.973935,0.41308"
         stroke="#000000"
         stroke-width="0.051001"
         fill-opacity="0"
         id="path17541-3"
         style="stroke-width:0.1;stroke-dasharray:none" />
      <path
         d="m 22.50626,8.9548 0.0388,0.0286 c 0.10312,0.0817 0.18141,0.18957 0.22653,0.31138"
         stroke="#000000"
         stroke-width="0.0170003"
         fill-opacity="0"
         id="path17543-3"
         style="stroke-width:0.1;stroke-dasharray:none" />
      <path
         d="m 22.4169,9.43985 c 0.21372,-0.029 0.36724,-0.0886 0.3565,-0.13612"
         stroke="#000000"
         stroke-width="0.0170003"
         fill-opacity="0"
         id="path17545-2"
         style="stroke-width:0.1;stroke-dasharray:none" />
      <path
         d="m 22.40898,8.77348 c 0.002,0.0382 0.013,0.0749 0.0308,0.10678 l 0.0554,0.0663 0.006,0.004 0.006,0.004"
         stroke="#000000"
         stroke-width="0.0170003"
         fill-opacity="0"
         id="path17547-2"
         style="stroke-width:0.1;stroke-dasharray:none" />
      <path
         d="m 22.77834,9.4037 -0.0106,0.0576 -0.0299,0.0439 -0.01,0.009 -0.0136,0.011 -0.0661,0.0367 -0.0285,0.0111 -0.0487,0.0156 -0.18123,0.0375 C 22.24769,9.6472 22.08364,9.6563 21.92997,9.6515 L 21.713,9.6334 21.5582,9.5963 21.481,9.553 21.478,9.551"
         stroke="#000000"
         stroke-width="0.0170003"
         fill-opacity="0"
         id="path17549-5"
         style="stroke-width:0.1;stroke-dasharray:none" />
      <path
         d="m 22.7734,9.30373 -0.002,-0.009 0.007,0.10888"
         stroke="#000000"
         stroke-width="0.0170003"
         fill-opacity="0"
         id="path17551-1"
         style="stroke-width:0.1;stroke-dasharray:none" />
      <path
         d="m 19.8432,8.516 c 0.81751,-1.98157 2.535,-3.91193 4.67703,-5.02606 2.142031,-1.11412 4.708601,-1.41201 6.800387,-0.94364 2.106038,0.39943 4.344119,1.69056 5.868823,3.56269 1.524697,1.87213 2.336003,4.32525 2.300798,6.46854 0.03521,2.14329 -0.776101,4.59642 -2.300798,6.46855 -1.524704,1.87213 -3.762785,3.16326 -5.868823,3.56268 -2.091786,0.46838 -4.658356,0.17049 -6.800387,-0.94364 C 22.3782,20.551 20.66071,18.62065 19.8432,16.63907"
         stroke="#000000"
         stroke-width="0.0340007"
         fill-opacity="0"
         id="path17553-0"
         style="stroke-width:0.3;stroke-dasharray:none" />
      <path
         d="m 20.68282,12.57753 c 0.002,-1.20458 -0.2183,-2.51042 -0.7192,-3.77051 C 19.46272,7.54692 18.68078,6.33256 17.68262,5.3344 16.68446,4.33625 15.47011,3.5543 14.21001,3.0534 12.94991,2.55251 11.64408,2.33267 10.43949,2.3342 9.23491,2.3322 7.92907,2.55251 6.66898,3.0534 5.40888,3.5543 4.19452,4.33625 3.19636,5.3344 c -0.99815,0.99816 -1.7801,2.21252 -2.281,3.47262 -0.50089,1.26009 -0.72073,2.56593 -0.7192,3.77051 -0.002,1.20459 0.21831,2.51042 0.7192,3.77052 0.5009,1.2601 1.28285,2.47446 2.281,3.47261 0.99816,0.99816 2.21252,1.7801 3.47262,2.281 1.26009,0.5009 2.56593,0.72074 3.77051,0.7192 1.20459,0.002 2.51042,-0.2183 3.77052,-0.7192 1.2601,-0.5009 2.47445,-1.28284 3.47261,-2.281 0.99816,-0.99815 1.7801,-2.21251 2.281,-3.47261 0.5009,-1.2601 0.72074,-2.56593 0.7192,-3.77052 z"
         stroke="#000000"
         stroke-width="0.0340007"
         fill-opacity="0"
         id="path17555-8"
         style="stroke-width:0.3;stroke-dasharray:none" />
      <path
         d="m 10.43949,21.31059 c 0.84295,0.0224 1.85704,-0.36015 2.55536,-1.05847 0.69832,-0.69832 1.08087,-1.71241 1.05847,-2.55536 0.0224,-0.84295 -0.36015,-1.85704 -1.05847,-2.55536 -0.69832,-0.69832 -1.71241,-1.08087 -2.55536,-1.05846 v 0.53491 c 0.71818,-0.0191 1.58216,0.30684 2.17712,0.90179 0.59496,0.59496 0.92088,1.45894 0.90179,2.17712 0.0191,0.71817 -0.30683,1.58216 -0.90179,2.17712 -0.59496,0.59496 -1.45894,0.92088 -2.17712,0.90179 v -0.48142 l -1.06983,0.74888 1.06983,0.74888 z"
         stroke="#000000"
         stroke-width="0.0340007"
         fill-opacity="0"
         id="path17557-0"
         style="stroke-width:0.1;stroke-dasharray:none" />
      <path
         d="m 25.67941,12.86013 c -0.0704,-0.0167 -0.14055,-0.0403 -0.20904,-0.071 l -0.38904,-0.17455 c -0.48083,-0.19729 -0.79444,-0.78956 -0.79808,-1.32949 -0.0237,-0.43922 0.13832,-1.00808 0.48034,-1.41391 l 0.39569,0.13532 0.0155,0.54164 c -0.17019,0.20989 -0.24401,0.44276 -0.23632,0.63151 0.004,0.13162 0.0447,0.26824 0.13118,0.38707"
         stroke="#000000"
         stroke-width="0.051001"
         fill-opacity="0"
         id="path17559-8"
         style="stroke-width:0.1;stroke-dasharray:none" />
      <path
         d="m 11.50932,17.83049 h -0.9361 v 0.66865 H 10.30576 V 17.83049 H 9.36967 v -0.26746 h 0.93609 v -0.66864 h 0.26746 v 0.66864 h 0.9361 z"
         stroke="#000000"
         stroke-width="0.051001"
         fill-opacity="0"
         id="path17561-4"
         style="stroke-width:0.1;stroke-dasharray:none" />
      <path
         d="m 27.282866,11.73194 -0.734847,0.15081 -0.0041,-0.24803 0.736532,-0.14753 -0.0061,-0.61663 0.207667,-0.039 0.0049,0.61427 0.709438,-0.1421 4.25e-4,0.24065 -0.707873,0.14528 0.0049,0.60492 -0.204897,0.0446 z"
         stroke="#000000"
         stroke-width="0.051001"
         fill-opacity="0"
         id="path17563-2"
         style="stroke-width:0.1;stroke-dasharray:none" />
      <path
         d="m 10.90275,11.99361 h -0.9265 l 0.46324,0.80238 z"
         stroke="#000000"
         stroke-width="0.051001"
         fill-opacity="0"
         id="path17565-6"
         style="stroke-width:0.1;stroke-dasharray:none" />
      <path
         d="M 10.90275,16.70717 H 9.97625 L 10.43949,15.9048 Z"
         stroke="#000000"
         stroke-width="0.051001"
         fill-opacity="0"
         id="path17567-9"
         style="stroke-width:0.1;stroke-dasharray:none" />
      <path
         d="m 10.30576,11.99361 h 0.26746 v -1.54796 h -0.26746 z"
         stroke="#000000"
         stroke-width="0.0340007"
         fill-opacity="0"
         id="path17569-4"
         style="stroke-width:0.1;stroke-dasharray:none" />
      <path
         d="m 9.48786,6.615 2e-5,-2.38985"
         stroke="#000000"
         stroke-width="0.0170003"
         fill-opacity="0"
         id="path17571-6"
         style="stroke-width:0.1;stroke-dasharray:none" />
      <path
         d="m 10.94343,4.14069 -3e-5,2.55654"
         stroke="#000000"
         stroke-width="0.0170003"
         fill-opacity="0"
         id="path17573-2"
         style="stroke-width:0.1;stroke-dasharray:none" />
      <path
         d="m 9.93554,6.69724 3e-5,-2.55664"
         stroke="#000000"
         stroke-width="0.0170003"
         fill-opacity="0"
         id="path17575-6"
         style="stroke-width:0.1;stroke-dasharray:none" />
      <path
         d="M 10.93471,6.7384 Z"
         stroke="#000000"
         stroke-width="0.0170003"
         fill-opacity="0"
         id="path17577-0"
         style="stroke-width:0.1;stroke-dasharray:none" />
      <path
         d="M 15.83067,3.86771 H 5.04832"
         stroke="#000000"
         stroke-width="0.0170003"
         fill-opacity="0"
         id="path17579-3"
         style="stroke-width:0.1;stroke-dasharray:none" />
      <path
         d="M 20.60003,11.27779 H 0.27896"
         stroke="#000000"
         stroke-width="0.0170003"
         fill-opacity="0"
         id="path17581-2"
         style="stroke-width:0.1;stroke-dasharray:none" />
      <path
         d="m 11.3832,4.26683 -2e-5,2.30425"
         stroke="#000000"
         stroke-width="0.0170003"
         fill-opacity="0"
         id="path17583-5"
         style="stroke-width:0.1;stroke-dasharray:none" />
      <path
         d="m 10.7791,6.57108 2e-5,-2.30424"
         stroke="#000000"
         stroke-width="0.0340007"
         fill-opacity="0"
         id="path17585-0"
         style="stroke-width:0.1;stroke-dasharray:none" />
      <path
         d="m 10.86665,4.26684 -2e-5,2.30424"
         stroke="#000000"
         stroke-width="0.0340007"
         fill-opacity="0"
         id="path17587-3"
         style="stroke-width:0.1;stroke-dasharray:none" />
      <path
         d="m 11.34693,6.57108 2e-5,-2.30425"
         stroke="#000000"
         stroke-width="0.0340007"
         fill-opacity="0"
         id="path17589-1"
         style="stroke-width:0.1;stroke-dasharray:none" />
      <path
         d="m 9.53204,4.26685 -3e-5,2.30424"
         stroke="#000000"
         stroke-width="0.0340007"
         fill-opacity="0"
         id="path17591-5"
         style="stroke-width:0.1;stroke-dasharray:none" />
      <path
         d="m 10.01232,6.57109 2e-5,-2.30424"
         stroke="#000000"
         stroke-width="0.0340007"
         fill-opacity="0"
         id="path17593-9"
         style="stroke-width:0.1;stroke-dasharray:none" />
      <path
         d="m 10.09987,4.26684 -2e-5,2.30425"
         stroke="#000000"
         stroke-width="0.0340007"
         fill-opacity="0"
         id="path17595-3"
         style="stroke-width:0.1;stroke-dasharray:none" />
    </g>
  </g>
</svg>
