<?xml version="1.0" encoding="UTF-8" standalone="no"?>
<!-- Created with Inkscape (http://www.inkscape.org/) -->

<svg
   width="59mm"
   height="21mm"
   viewBox="0 0 58.999999 21"
   version="1.1"
   id="svg36227"
   inkscape:version="1.2 (dc2aedaf03, 2022-05-15)"
   sodipodi:docname="Martillo_Destornillador_Allen.svg"
   xmlns:inkscape="http://www.inkscape.org/namespaces/inkscape"
   xmlns:sodipodi="http://sodipodi.sourceforge.net/DTD/sodipodi-0.dtd"
   xmlns="http://www.w3.org/2000/svg"
   xmlns:svg="http://www.w3.org/2000/svg">
  <sodipodi:namedview
     id="namedview36229"
     pagecolor="#505050"
     bordercolor="#eeeeee"
     borderopacity="1"
     inkscape:showpageshadow="0"
     inkscape:pageopacity="0"
     inkscape:pagecheckerboard="0"
     inkscape:deskcolor="#505050"
     inkscape:document-units="mm"
     showgrid="false"
     inkscape:zoom="3.3068462"
     inkscape:cx="115.21552"
     inkscape:cy="27.518667"
     inkscape:current-layer="layer1" />
  <defs
     id="defs36224" />
  <g
     inkscape:label="Capa 1"
     inkscape:groupmode="layer"
     id="layer1">
    <g
       id="g410"
       transform="translate(0,-2.0244042)">
      <path
         d="m 29.75333,5.66353 -0.256945,-0.42325 -0.0074,-0.49249 0.477397,0.78642 c 0.0169,0.027 0.02251,0.0634 0.01452,0.0943 -0.0072,0.0311 -0.02891,0.0607 -0.05638,0.0769 -0.02703,0.0169 -0.0634,0.0225 -0.09427,0.0145 -0.03107,-0.007 -0.06075,-0.0289 -0.07692,-0.0564 z"
         stroke="#000000"
         stroke-width="0"
         fill="#000000"
         fill-opacity="1"
         id="path23251" />
      <path
         d="m 49.932254,12.73333 0.723696,0.41782 v 0.83566 l -0.723696,0.41784 -0.723705,-0.41784 v -0.83566 z"
         stroke="#000000"
         stroke-width="0"
         fill="#000000"
         fill-opacity="1"
         id="path23253" />
      <path
         d="m 49.932254,11.77205 c 0.419148,-0.0111 0.92339,0.17908 1.270619,0.52631 0.347239,0.34723 0.537454,0.85147 0.526314,1.27062 0.01114,0.41915 -0.179075,0.92339 -0.526314,1.27063 -0.347229,0.34723 -0.851471,0.53745 -1.270619,0.5263 -0.419147,0.0112 -0.923389,-0.17907 -1.270628,-0.5263 -0.347229,-0.34724 -0.537454,-0.85148 -0.526304,-1.27063 -0.01115,-0.41915 0.179075,-0.92339 0.526304,-1.27062 0.347239,-0.34723 0.851481,-0.53745 1.270628,-0.52631 z m 0,0.24923 c -0.361017,-0.01 -0.795317,0.15425 -1.094389,0.45332 -0.299072,0.29906 -0.462906,0.73337 -0.453308,1.09438 -0.0096,0.36102 0.154236,0.79532 0.453308,1.09439 0.299072,0.29907 0.733372,0.46291 1.094389,0.45331 0.361008,0.01 0.795318,-0.15424 1.09439,-0.45331 0.299072,-0.29907 0.462906,-0.73337 0.453308,-1.09439 0.0096,-0.36101 -0.154236,-0.79532 -0.453308,-1.09438 -0.299072,-0.29907 -0.733382,-0.46291 -1.09439,-0.45332 z"
         stroke="#000000"
         stroke-width="0"
         fill="#000000"
         fill-opacity="1"
         id="path23255" />
      <path
         d="m 45.054614,13.44437 c 0.0062,0.0613 -0.06329,0.13083 -0.124613,0.12461 -0.06132,0.006 -0.130829,-0.0633 -0.124612,-0.12461 -0.0062,-0.0613 0.06329,-0.13083 0.124612,-0.12462 0.06132,-0.006 0.13083,0.0633 0.124613,0.12462 z"
         stroke="#000000"
         stroke-width="0"
         fill="#000000"
         fill-opacity="1"
         id="path23257" />
      <path
         d="m 9.30869,16.64288 c 0.006,0.0613 -0.0633,0.13083 -0.12461,0.12461 -0.0613,0.006 -0.13084,-0.0633 -0.12462,-0.12461 -0.006,-0.0613 0.0633,-0.13083 0.12462,-0.12461 0.0613,-0.006 0.13083,0.0633 0.12461,0.12461 z"
         stroke="#000000"
         stroke-width="0"
         fill="#000000"
         fill-opacity="1"
         id="path23259" />
      <path
         d="m 28.068189,17.72245 c 0.0062,0.0613 -0.06329,0.13083 -0.124612,0.12461 -0.06132,0.006 -0.13083,-0.0633 -0.124623,-0.12461 -0.0062,-0.0613 0.0633,-0.13083 0.124623,-0.12462 0.06132,-0.006 0.130829,0.0633 0.124612,0.12462 z"
         stroke="#000000"
         stroke-width="0"
         fill="#000000"
         fill-opacity="1"
         id="path23261" />
      <path
         d="m 30.188618,9.78976 c 0.0062,0.0613 -0.06323,0.13069 -0.124474,0.12448 -0.06125,0.006 -0.130691,-0.0632 -0.124484,-0.12448 -0.0062,-0.0613 0.06323,-0.13069 0.124484,-0.12448 0.06124,-0.006 0.130682,0.0632 0.124474,0.12448 z"
         stroke="#000000"
         stroke-width="0"
         fill="#000000"
         fill-opacity="1"
         id="path23263" />
      <path
         d="m 29.271446,5.52384 0.217535,-0.77605 0.01167,0.77605 z"
         stroke="#000000"
         stroke-width="0"
         fill="#000000"
         fill-opacity="1"
         id="path23265" />
      <path
         d="m 9.99076,8.8539 v 3.91233 h 1.47816 v -1.21321 c -0.006,-0.0613 0.0633,-0.13083 0.12461,-0.12461 0.0613,-0.006 0.13083,0.0633 0.12461,0.12461 v 1.2161 c 0.35758,0.002 0.71263,0.40445 0.68208,0.74481 v 6.25789 c 0.0104,0.38964 -0.16647,0.85836 -0.48924,1.18114 -0.32278,0.32278 -0.79152,0.4996 -1.18114,0.48925 C 10.34022,21.45251 9.87148,21.27574 9.54871,20.95296 9.22593,20.63018 9.0491,20.16146 9.05946,19.77183 v -2.38126 c -4e-4,-0.0319 0.0137,-0.0659 0.0365,-0.0881 0.0222,-0.0228 0.0562,-0.0369 0.0881,-0.0365 0.0319,-3.9e-4 0.0659,0.0137 0.0881,0.0365 0.0228,0.0222 0.0369,0.0563 0.0365,0.0881 v 2.38126 c -0.009,0.33149 0.14164,0.73028 0.41624,1.0049 0.27462,0.27462 0.67342,0.42506 1.00491,0.41624 0.33149,0.009 0.73029,-0.14162 1.00491,-0.41624 0.27462,-0.27462 0.42505,-0.67341 0.41624,-1.00491 v -6.25789 c 0.0249,-0.24529 -0.25319,-0.52333 -0.49847,-0.49846 H 9.80713 c -0.24528,-0.0249 -0.52334,0.25317 -0.49847,0.49846 v 2.38124 c 0.006,0.0613 -0.0633,0.13084 -0.12461,0.12463 -0.0613,0.006 -0.13084,-0.0633 -0.12462,-0.12463 v -2.38124 c -0.0305,-0.34036 0.3245,-0.74282 0.68208,-0.74481 V 8.77218 C 9.54927,8.67368 9.39635,8.46461 9.36062,8.25156 9.28972,7.8741 9.14939,7.5192 8.94629,7.27258 8.7969,7.09119 8.61358,6.96837 8.40395,6.90056 8.04966,6.78595 7.62025,6.82846 7.08867,6.95356 6.44902,7.10401 5.66142,7.37393 5.15845,7.52109 5.55515,7.07359 5.99092,6.65951 6.46236,6.26942 7.21217,5.649 8.05223,5.08931 8.93405,4.74783 h 3.28128 l 0.45135,0.54515 h 0.88489 v -0.0455 c -0.0373,-0.36792 0.37977,-0.785 0.74769,-0.7477 h 0.88246 c 0.12264,-0.0124 0.26167,0.1266 0.24924,0.24923 v 2.67674 c 0.0124,0.12265 -0.1266,0.26167 -0.24924,0.24924 h -0.88246 c -0.36792,0.0373 -0.785,-0.37978 -0.74769,-0.74771 v -2.9e-4 h -0.73193 l -0.77375,1.15346 v 0.0332 c 0.006,0.23484 -0.13012,0.49167 -0.32778,0.61863 v 1.32541 c 0.006,0.0613 -0.0633,0.13084 -0.12461,0.12462 -0.0613,0.006 -0.13083,-0.0633 -0.12461,-0.12462 V 8.8416 l -0.17071,0.0197 h -1.2027 z M 15.18175,7.42567 V 4.74893 H 14.29929 C 14.05402,4.72403 13.77596,5.00212 13.80083,5.2474 v 1.6798 c -0.0249,0.24529 0.25319,0.52334 0.49846,0.49847 z M 11.79668,8.11358 V 8.00451 L 12.68673,6.67767 H 13.5516 V 5.54217 H 12.54949 L 12.09814,4.99702 H 8.98116 L 8.52476,5.19912 8.07564,5.438 C 7.7689,5.61418 7.47356,5.8099 7.18822,6.019 L 6.76027,6.34797 6.46587,6.59201 6.01667,6.99487 6.52875,6.84268 7.03163,6.71092 l 0.39666,-0.0806 0.3709,-0.0421 0.35019,0.007 c 0.11237,0.0116 0.22383,0.0336 0.33129,0.0684 0.12658,0.041 0.24763,0.0997 0.35752,0.17465 0.11272,0.0769 0.21371,0.17081 0.30057,0.2761 l 0.16366,0.23728 0.13079,0.26588 0.10067,0.28698 0.0717,0.30129 c 0.025,0.21689 0.27214,0.42193 0.4899,0.40647 h 1.2027 c 0.24528,0.0249 0.52334,-0.25318 0.49847,-0.49846 z"
         stroke="#000000"
         stroke-width="0"
         fill="#000000"
         fill-opacity="1"
         id="path23267" />
      <path
         d="m 29.500655,5.52384 c 0.07009,0.37328 0.249848,1.10659 0.409599,0.9938 0.06797,-0.048 0.132303,-0.2491 0.168341,-0.41016 0.02662,-0.11892 0.03779,-0.21599 0.03842,-0.32512 l 0.0716,0.11796 v 3.14174 c 3.96e-4,0.0318 -0.01364,0.0658 -0.03646,0.088 -0.02221,0.0228 -0.05617,0.0369 -0.08801,0.0365 -0.03185,4e-4 -0.06581,-0.0136 -0.08802,-0.0365 -0.02281,-0.0222 -0.03689,-0.0562 -0.03646,-0.088 V 6.7718 l -0.08019,0.006 -0.07656,-0.0143 -0.03297,-0.0127 -0.0463,-0.0253 -0.04355,-0.0335 -0.03411,-0.0342 -0.02791,-0.034 -0.03262,-0.0479 -0.03905,-0.0702 -0.03397,-0.0738 -0.06005,-0.15935 -0.05062,-0.16364 -0.07392,0.248 -0.05111,0.13972 -0.02517,0.0576 -0.02764,0.0545 -0.04932,0.0756 -0.04973,0.0539 -0.03402,0.027 -0.02969,0.0183 -0.0068,0.004 v 6.89173 h 0.905282 v -3.14175 c -0.0062,-0.0613 0.06323,-0.13069 0.124484,-0.12448 0.06124,-0.006 0.130682,0.0632 0.124474,0.12448 v 3.14175 h 0.223397 c 0.367927,-0.0373 0.784999,0.37978 0.747705,0.7477 0.0062,0.23727 -0.133222,0.4971 -0.334399,0.62308 0.201177,0.12598 0.340617,0.38581 0.334399,0.62308 v 4.09875 c 0.01036,0.38964 -0.166473,0.85836 -0.489247,1.18114 -0.322775,0.32278 -0.791503,0.4996 -1.181136,0.48925 -0.389623,0.0103 -0.85836,-0.16647 -1.181135,-0.48925 -0.322775,-0.32278 -0.499597,-0.7915 -0.489248,-1.18113 v -1.30167 c -3.95e-4,-0.0319 0.01366,-0.0659 0.0365,-0.0881 0.02224,-0.0229 0.05624,-0.0369 0.08812,-0.0365 0.03188,-3.9e-4 0.06588,0.0136 0.08811,0.0365 0.02285,0.0222 0.03693,0.0562 0.0365,0.0881 v 1.30168 c -0.0088,0.33149 0.141634,0.73028 0.416252,1.0049 0.274608,0.27462 0.673403,0.42506 1.004896,0.41624 0.331493,0.009 0.730289,-0.14162 1.004907,-0.41624 0.274618,-0.27462 0.425048,-0.67341 0.416241,-1.00491 v -4.09875 c 0.02487,-0.24528 -0.253188,-0.52333 -0.49847,-0.49847 h -1.845356 c -0.245281,-0.0249 -0.523329,0.25319 -0.49847,0.49847 v 1.30168 c 3.96e-4,0.0319 -0.01365,0.0659 -0.0365,0.0881 -0.02223,0.0228 -0.05623,0.0369 -0.08811,0.0365 -0.03188,3.9e-4 -0.06588,-0.0137 -0.08812,-0.0365 -0.02284,-0.0222 -0.03693,-0.0563 -0.0365,-0.0881 v -1.30168 c -0.0062,-0.23727 0.133232,-0.4971 0.334399,-0.62308 -0.201167,-0.12598 -0.340606,-0.38581 -0.334399,-0.62308 -0.03729,-0.36792 0.379788,-0.785 0.747705,-0.7477 h 0.218376 V 6.43361 c 0.04082,0.0833 0.06822,0.12333 0.09602,0.1347 0.114906,0.047 0.236731,-0.39539 0.390394,-1.04441 z m 0.91136,9.40154 c 0.245282,0.0249 0.523339,-0.25319 0.49847,-0.49847 0.02487,-0.24528 -0.253188,-0.52333 -0.49847,-0.49847 h -1.845356 c -0.245281,-0.0249 -0.523329,0.25319 -0.49847,0.49847 -0.02486,0.24528 0.253189,0.52333 0.49847,0.49847 z"
         stroke="#000000"
         stroke-width="0"
         fill="#000000"
         fill-opacity="1"
         id="path23269" />
      <path
         d="m 11.71814,10.80533 c 0.006,0.0613 -0.0633,0.13083 -0.12461,0.12461 -0.0613,0.006 -0.13083,-0.0633 -0.12461,-0.12461 -0.006,-0.0613 0.0633,-0.13084 0.12461,-0.12463 0.0613,-0.006 0.13083,0.0633 0.12461,0.12463 z"
         stroke="#000000"
         stroke-width="0"
         fill="#000000"
         fill-opacity="1"
         id="path23271" />
      <path
         d="m 28.784926,6.10118 -5.9e-5,-0.19855 0.704114,-1.15484 -0.217535,0.77605 -0.02348,0.098 -0.213849,0.35074 v 0.12536 c 0.006,0.0608 -0.06208,0.12988 -0.123001,0.12465 -0.06076,0.007 -0.130662,-0.0604 -0.126194,-0.12141 z"
         stroke="#000000"
         stroke-width="0"
         fill="#000000"
         fill-opacity="1"
         id="path23273" />
      <path
         d="m 46.476711,9.09894 v 8.94008 h -1.671322 v -3.84696 c -0.0062,-0.0613 0.06329,-0.13083 0.124612,-0.12461 0.06132,-0.006 0.13083,0.0633 0.124613,0.12461 v 3.59772 h 1.172862 V 9.09894 C 46.194196,8.7707 46.566303,8.3986 46.894544,8.43189 H 49.68302 V 7.25903 h -2.788476 c -0.42918,-0.0114 -0.945482,0.18336 -1.301023,0.5389 -0.355542,0.35553 -0.550314,0.87184 -0.538907,1.30101 v 3.59773 c 0.0062,0.0613 -0.06329,0.13083 -0.124613,0.12462 -0.06132,0.006 -0.130829,-0.0633 -0.124612,-0.12462 V 9.09894 C 44.792429,8.61164 45.013584,8.0254 45.417282,7.62169 45.82098,7.21799 46.407234,6.99684 46.894544,7.0098 h 3.03771 v 1.67132 h -3.03771 c -0.205605,-0.0208 -0.438679,0.21223 -0.417833,0.41782 z"
         stroke="#000000"
         stroke-width="0"
         fill="#000000"
         fill-opacity="1"
         id="path23275" />
      <path
         d="m 49.932254,11.77205 c -0.419147,-0.0111 -0.923389,0.17908 -1.270628,0.52631 -0.347229,0.34723 -0.537454,0.85147 -0.526304,1.27062 -0.01115,0.41915 0.179075,0.92339 0.526304,1.27063 0.347239,0.34723 0.851481,0.53745 1.270628,0.5263 0.419148,0.0112 0.92339,-0.17907 1.270619,-0.5263 0.347239,-0.34724 0.537454,-0.85148 0.526314,-1.27063 0.01114,-0.41915 -0.179075,-0.92339 -0.526314,-1.27062 -0.347229,-0.34723 -0.851471,-0.53745 -1.270619,-0.52631 z"
         stroke="#000000"
         stroke-width="0.0474451"
         fill-opacity="0"
         id="path23277" />
      <path
         d="m 49.932254,12.02128 c -0.361017,-0.01 -0.795317,0.15425 -1.094389,0.45332 -0.299072,0.29906 -0.462906,0.73337 -0.453308,1.09438 -0.0096,0.36102 0.154236,0.79532 0.453308,1.09439 0.299072,0.29907 0.733372,0.46291 1.094389,0.45331 0.361008,0.01 0.795318,-0.15424 1.09439,-0.45331 0.299072,-0.29907 0.462906,-0.73337 0.453308,-1.09439 0.0096,-0.36101 -0.154236,-0.79532 -0.453308,-1.09438 -0.299072,-0.29907 -0.733382,-0.46291 -1.09439,-0.45332 z"
         stroke="#000000"
         stroke-width="0.0474451"
         fill-opacity="0"
         id="path23279" />
      <path
         d="m 46.476711,9.09894 c -0.02085,-0.20559 0.212228,-0.43867 0.417833,-0.41782 h 3.03771 V 7.0098 h -3.03771 C 46.407234,6.9968 45.82098,7.21799 45.417282,7.62169 45.013584,8.0254 44.79243,8.61164 44.805389,9.09894 v 3.59773 c -0.0062,0.0613 0.06329,0.13083 0.124612,0.12462 0.06132,0.006 0.13083,-0.0633 0.124613,-0.12462 V 9.09894 c -0.01141,-0.42917 0.183365,-0.94548 0.538907,-1.30101 0.355541,-0.35554 0.871843,-0.55031 1.301023,-0.5389 H 49.68302 V 8.43189 H 46.894544 C 46.566303,8.39859 46.194195,8.7707 46.227476,9.09894 v 8.69084 h -1.172862 v -3.59772 c 0.0062,-0.0613 -0.06329,-0.13083 -0.124613,-0.12461 -0.06132,-0.006 -0.130829,0.0633 -0.124612,0.12461 v 3.84696 h 1.671322 z"
         stroke="#000000"
         stroke-width="0.0474451"
         fill-opacity="0"
         id="path23281" />
      <path
         d="m 45.054614,13.44437 c 0.0062,-0.0613 -0.06329,-0.13083 -0.124613,-0.12462 -0.06132,-0.006 -0.130829,0.0633 -0.124612,0.12462 -0.0062,0.0613 0.06329,0.13083 0.124612,0.12461 0.06132,0.006 0.13083,-0.0633 0.124613,-0.12461 z"
         stroke="#000000"
         stroke-width="0.0474451"
         fill-opacity="0"
         id="path23283" />
      <path
         d="m 28.784926,6.10118 c -0.0045,0.061 0.06543,0.12823 0.126194,0.12141 0.06092,0.005 0.129051,-0.0638 0.123001,-0.12465 V 5.97258 l 0.213849,-0.35074 0.02348,-0.098 0.217535,-0.77605 -0.704114,1.15484 z"
         stroke="#000000"
         stroke-width="0.0474451"
         fill-opacity="0"
         id="path23285" />
      <path
         d="m 29.500655,5.52384 h -0.229209 c -0.153663,0.64902 -0.275488,1.09143 -0.390394,1.04441 -0.0278,-0.0114 -0.05519,-0.0514 -0.09602,-0.1347 v 7.24566 h -0.218376 c -0.367917,-0.0373 -0.784999,0.37978 -0.747705,0.7477 -0.0062,0.23727 0.133232,0.4971 0.334399,0.62308 -0.201167,0.12598 -0.340606,0.38581 -0.334399,0.62308 v 1.30168 c -3.95e-4,0.0319 0.01366,0.0659 0.0365,0.0881 0.02224,0.0228 0.05624,0.0369 0.08812,0.0365 0.03188,3.9e-4 0.06588,-0.0137 0.08811,-0.0365 0.02285,-0.0222 0.03693,-0.0562 0.0365,-0.0881 v -1.30168 c -0.02486,-0.24528 0.253189,-0.52333 0.49847,-0.49847 h 1.845356 c 0.245282,-0.0249 0.523339,0.25319 0.49847,0.49847 v 4.09875 c 0.0088,0.3315 -0.141623,0.73029 -0.416241,1.00491 -0.274618,0.27462 -0.673414,0.42506 -1.004907,0.41624 -0.331493,0.009 -0.730288,-0.14162 -1.004896,-0.41624 -0.274618,-0.27462 -0.425059,-0.67341 -0.416252,-1.0049 v -1.30168 c 3.96e-4,-0.0319 -0.01365,-0.0659 -0.0365,-0.0881 -0.02223,-0.0229 -0.05623,-0.0369 -0.08811,-0.0365 -0.03188,-3.9e-4 -0.06588,0.0137 -0.08812,0.0365 -0.02284,0.0222 -0.03693,0.0562 -0.0365,0.0881 v 1.30167 c -0.01035,0.38963 0.166473,0.85835 0.489248,1.18113 0.322775,0.32278 0.791512,0.4996 1.181135,0.48925 0.389633,0.0103 0.858361,-0.16647 1.181136,-0.48925 0.322774,-0.32278 0.499606,-0.7915 0.489247,-1.18114 v -4.09875 c 0.0062,-0.23727 -0.133222,-0.4971 -0.334399,-0.62308 0.201177,-0.12598 0.340617,-0.38581 0.334399,-0.62308 0.03729,-0.36792 -0.379778,-0.785 -0.747705,-0.7477 h -0.223397 v -3.14175 c 0.0062,-0.0613 -0.06323,-0.13069 -0.124474,-0.12448 -0.06125,-0.006 -0.130691,0.0632 -0.124484,0.12448 V 13.6792 H 29.034375 V 6.78747 l 0.0068,-0.004 0.02969,-0.0183 0.03402,-0.027 0.04973,-0.0539 0.04932,-0.0756 0.02764,-0.0545 0.02517,-0.0576 0.05111,-0.13972 0.07392,-0.248 0.05062,0.16364 0.06005,0.15935 0.03397,0.0738 0.03905,0.0702 0.03262,0.0479 0.02791,0.034 0.03411,0.0342 0.04355,0.0335 0.0463,0.0253 0.03297,0.0127 0.07656,0.0143 0.08019,-0.006 V 9.042 c -3.95e-4,0.0318 0.01365,0.0658 0.03646,0.088 0.02221,0.0228 0.05617,0.0369 0.08802,0.0365 0.03184,4e-4 0.0658,-0.0136 0.08801,-0.0365 0.02282,-0.0222 0.03689,-0.0562 0.03646,-0.088 V 5.90026 l -0.0716,-0.11796 c -5.93e-4,0.10913 -0.0118,0.2062 -0.03842,0.32512 -0.03604,0.16106 -0.100376,0.36219 -0.168341,0.41016 -0.159751,0.11279 -0.339509,-0.62052 -0.409599,-0.9938 z"
         stroke="#000000"
         stroke-width="0.0474451"
         fill-opacity="0"
         id="path23287" />
      <path
         d="m 29.75333,5.66353 c 0.01617,0.0275 0.04585,0.0492 0.07692,0.0564 0.03087,0.008 0.06723,0.002 0.09427,-0.0145 0.02747,-0.0162 0.04922,-0.0459 0.05638,-0.0769 0.008,-0.0309 0.0024,-0.0672 -0.01452,-0.0943 l -0.477397,-0.78642 0.0074,0.49249 z"
         stroke="#000000"
         stroke-width="0.0474451"
         fill-opacity="0"
         id="path23289" />
      <path
         d="m 30.188618,9.78976 c 0.0062,-0.0613 -0.06323,-0.13069 -0.124474,-0.12448 -0.06125,-0.006 -0.130691,0.0632 -0.124484,0.12448 -0.0062,0.0613 0.06323,0.13069 0.124484,0.12448 0.06124,0.006 0.130682,-0.0632 0.124474,-0.12448 z"
         stroke="#000000"
         stroke-width="0.0474451"
         fill-opacity="0"
         id="path23291" />
      <path
         d="m 28.068189,17.72245 c 0.0062,-0.0613 -0.06329,-0.13083 -0.124612,-0.12462 -0.06132,-0.006 -0.13083,0.0633 -0.124623,0.12462 -0.0062,0.0613 0.0633,0.13083 0.124623,0.12461 0.06132,0.006 0.130829,-0.0633 0.124612,-0.12461 z"
         stroke="#000000"
         stroke-width="0.0474451"
         fill-opacity="0"
         id="path23293" />
      <path
         d="m 30.412015,14.92538 h -1.845356 c -0.245281,0.0249 -0.523329,-0.25319 -0.49847,-0.49847 -0.02486,-0.24528 0.253189,-0.52333 0.49847,-0.49847 h 1.845356 c 0.245282,-0.0249 0.523339,0.25319 0.49847,0.49847 0.02487,0.24528 -0.253188,0.52333 -0.49847,0.49847 z"
         stroke="#000000"
         stroke-width="0.0474451"
         fill-opacity="0"
         id="path23295" />
      <path
         d="M 15.18175,7.42567 H 14.29929 C 14.05402,7.45057 13.77596,7.17249 13.80083,6.9272 V 5.2474 c -0.0249,-0.24528 0.25319,-0.52334 0.49846,-0.49847 h 0.88246 z"
         stroke="#000000"
         stroke-width="0.0474451"
         fill-opacity="0"
         id="path23297" />
      <path
         d="m 9.30869,16.64288 c 0.006,-0.0613 -0.0633,-0.13083 -0.12461,-0.12461 -0.0613,-0.006 -0.13084,0.0633 -0.12462,0.12461 -0.006,0.0613 0.0633,0.13083 0.12462,0.12461 0.0613,0.006 0.13083,-0.0633 0.12461,-0.12461 z"
         stroke="#000000"
         stroke-width="0.0474451"
         fill-opacity="0"
         id="path23299" />
      <path
         d="m 11.71814,10.80533 c 0.006,-0.0613 -0.0633,-0.13084 -0.12461,-0.12463 -0.0613,-0.006 -0.13083,0.0633 -0.12461,0.12463 -0.006,0.0613 0.0633,0.13083 0.12461,0.12461 0.0613,0.006 0.13083,-0.0633 0.12461,-0.12461 z"
         stroke="#000000"
         stroke-width="0.0474451"
         fill-opacity="0"
         id="path23301" />
      <path
         d="M 9.05946,16.64288 Z"
         stroke="#000000"
         stroke-width="0.0474451"
         fill-opacity="0"
         id="path23303" />
      <path
         d="m 11.79668,8.11358 c 0.0249,0.24528 -0.25319,0.52333 -0.49847,0.49846 h -1.2027 C 9.87775,8.62754 9.63061,8.42246 9.60561,8.20557 L 9.53391,7.90428 9.43324,7.6173 9.30245,7.35142 9.13879,7.11414 C 9.05189,7.00885 8.95094,6.91492 8.83822,6.83804 8.72833,6.76304 8.60728,6.70436 8.4807,6.66339 8.37324,6.62859 8.26178,6.60659 8.14941,6.59499 L 7.79922,6.58799 7.42832,6.63009 7.03166,6.71069 6.52878,6.84245 6.0167,6.99464 6.4659,6.59178 6.7603,6.34774 7.18825,6.01877 c 0.28534,-0.2091 0.58068,-0.40482 0.88742,-0.581 l 0.44912,-0.23888 0.4564,-0.2021 h 3.11698 l 0.45135,0.54515 h 1.00211 v 1.1355 h -0.86487 l -0.89005,1.32684 z"
         stroke="#000000"
         stroke-width="0.0474451"
         fill-opacity="0"
         id="path23305" />
      <path
         d="m 9.99076,8.8539 0.10475,0.007 h 1.2027 l 0.17071,-0.0197 v 1.21609 c -0.006,0.0613 0.0633,0.13084 0.12461,0.12462 0.0613,0.006 0.13083,-0.0633 0.12461,-0.12462 V 8.73188 C 11.9158,8.60492 12.05188,8.34809 12.04592,8.11325 v -0.0332 l 0.77375,-1.15346 h 0.73193 v 2.9e-4 c -0.0373,0.36793 0.37977,0.785 0.74769,0.74771 h 0.88246 C 15.30439,7.68699 15.44342,7.548 15.43099,7.42535 V 4.74861 c 0.0124,-0.12263 -0.1266,-0.26166 -0.24924,-0.24923 h -0.88246 c -0.36792,-0.0373 -0.785,0.37978 -0.74769,0.7477 v 0.0455 H 12.66671 L 12.21536,4.74743 H 8.93408 C 8.05226,5.08891 7.2122,5.6486 6.46239,6.26902 5.99095,6.65911 5.55518,7.07319 5.15848,7.52069 5.66145,7.37353 6.44905,7.10361 7.0887,6.95316 7.62028,6.82812 8.04969,6.78559 8.40398,6.90016 8.61361,6.96796 8.79693,7.09079 8.94632,7.27218 9.14942,7.5188 9.28977,7.8737 9.36065,8.25116 9.39635,8.46421 9.5493,8.67324 9.74154,8.77178 v 3.99694 c -0.35758,0.002 -0.71263,0.40445 -0.68208,0.74481 v 2.38124 c -0.006,0.0613 0.0633,0.13084 0.12462,0.12463 0.0613,0.006 0.13083,-0.0633 0.12461,-0.12463 V 13.51353 C 9.28379,13.26824 9.56188,12.9902 9.80716,13.01507 h 1.84536 c 0.24528,-0.0249 0.52334,0.25317 0.49847,0.49846 v 6.25789 c 0.009,0.3315 -0.14162,0.73029 -0.41624,1.00491 -0.27462,0.27462 -0.67342,0.42506 -1.00491,0.41624 -0.33149,0.009 -0.73029,-0.14162 -1.00491,-0.41624 -0.2746,-0.27462 -0.42504,-0.67341 -0.41624,-1.0049 v -2.38126 c 4e-4,-0.0319 -0.0137,-0.0659 -0.0365,-0.0881 -0.0222,-0.0228 -0.0562,-0.0369 -0.0881,-0.0365 -0.0319,-3.9e-4 -0.0659,0.0137 -0.0881,0.0365 -0.0228,0.0222 -0.0369,0.0563 -0.0365,0.0881 v 2.38126 c -0.0104,0.38963 0.16647,0.85835 0.48925,1.18113 0.32277,0.32278 0.79151,0.4996 1.18113,0.48925 0.38962,0.0103 0.85836,-0.16647 1.18114,-0.48925 0.32277,-0.32278 0.49959,-0.7915 0.48924,-1.18114 v -6.25789 c 0.0306,-0.34036 -0.3245,-0.74282 -0.68208,-0.74481 v -1.2161 c 0.006,-0.0613 -0.0633,-0.13083 -0.12461,-0.12461 -0.0613,-0.006 -0.13083,0.0633 -0.12461,0.12461 v 1.21321 H 9.99079 Z"
         stroke="#000000"
         stroke-width="0.0474451"
         fill-opacity="0"
         id="path23307" />
      <path
         d="m 20.10959,16.6219 c 0.82425,1.97415 2.54446,3.89314 4.6849,4.99798 2.140444,1.10484 4.701124,1.39554 6.787818,0.92394 2.100986,-0.40316 4.331162,-1.69464 5.850333,-3.56395 1.519172,-1.86929 2.32733,-4.31643 2.292378,-6.45546 C 39.759969,10.38538 38.951813,7.93824 37.432641,6.06893 35.91347,4.19964 33.683294,2.90816 31.582308,2.505 29.495614,2.03339 26.934934,2.3241 24.79449,3.42894 22.65405,4.53378 20.93384,6.45276 20.10959,8.42691"
         stroke="#000000"
         stroke-width="0.0474451"
         fill-opacity="0"
         id="path23309"
         style="stroke-width:0.347;stroke-dasharray:none" />
      <path
         d="m 38.878313,16.60072 c 0.820256,1.97738 2.538292,3.90177 4.678737,5.0112 2.140445,1.10942 4.703279,1.40391 6.791891,0.93425 2.102884,-0.40097 4.33645,-1.69173 5.858004,-3.56181 1.521554,-1.87008 2.331095,-4.31948 2.296015,-6.45995 C 58.53804,10.38393 57.728499,7.93453 56.206945,6.06446 54.685391,4.19438 52.451825,2.90361 50.348941,2.50264 48.260329,2.03298 45.697495,2.32746 43.55705,3.4369 41.416605,4.54633 39.698569,6.47071 38.878313,8.4481"
         stroke="#000000"
         stroke-width="0.0474451"
         fill-opacity="0"
         id="path23311"
         style="stroke-width:0.347;stroke-dasharray:none" />
      <path
         d="M 19.88466,7.94637 C 19.34768,6.8691 18.56758,5.80029 17.55674,4.89797 16.5459,3.99564 15.30431,3.2598 13.96612,2.81382 12.62793,2.36783 11.19314,2.21171 9.84308,2.32721 8.49303,2.44272 7.2277,2.82985 6.15181,3.36958 5.07454,3.90657 4.00573,4.68667 3.1034,5.69751 2.20107,6.70835 1.46523,7.94994 1.01925,9.28813 c -0.44599,1.33819 -0.60211,2.77298 -0.4866,4.12304 0.1155,1.35005 0.50263,2.61538 1.04237,3.69127 0.53699,1.07726 1.31708,2.14608 2.32792,3.04841 1.01084,0.90233 2.25243,1.63817 3.59062,2.08415 1.33819,0.44598 2.77298,0.60211 4.12304,0.4866 1.35006,-0.1155 2.61538,-0.50263 3.69128,-1.04237 1.07727,-0.537 2.14607,-1.31708 3.0484,-2.32793 0.90233,-1.01084 1.63817,-2.25242 2.08415,-3.59061 0.44599,-1.33819 0.60211,-2.77298 0.4866,-4.12304 -0.1155,-1.35006 -0.50263,-2.61538 -1.04237,-3.69128 z"
         stroke="#000000"
         stroke-width="0.0474451"
         fill-opacity="0"
         id="path23313"
         style="stroke-width:0.347;stroke-dasharray:none" />
      <path
         d="m 49.932254,12.73333 -0.723705,0.41783 v 0.83565 l 0.723705,0.41784 0.723706,-0.41784 v -0.83565 z"
         stroke="#000000"
         stroke-width="0.0474451"
         fill-opacity="0"
         id="path23319" />
      <path
         d="m 29.271446,5.52385 0.217535,-0.77606 0.01167,0.77606 z"
         stroke="#000000"
         stroke-width="0.0474451"
         fill-opacity="0"
         id="path23321" />
      <path
         d="M 27.818964,17.72244 Z"
         stroke="#000000"
         stroke-width="0.0474451"
         fill-opacity="0"
         id="path23323" />
      <path
         d="M 28.068199,17.72241 Z"
         stroke="#000000"
         stroke-width="0.0474451"
         fill-opacity="0"
         id="path23325" />
      <path
         d="M 30.412025,14.92538 H 28.566659"
         stroke="#000000"
         stroke-width="0.0474451"
         fill-opacity="0"
         id="path23327" />
      <path
         d="M 30.412025,15.17461 H 28.566659"
         stroke="#000000"
         stroke-width="0.0474451"
         fill-opacity="0"
         id="path23329" />
      <path
         d="M 11.71815,10.80533 Z"
         stroke="#000000"
         stroke-width="0.0474451"
         fill-opacity="0"
         id="path23331" />
      <path
         d="M 11.46892,10.80533 Z"
         stroke="#000000"
         stroke-width="0.0474451"
         fill-opacity="0"
         id="path23333" />
    </g>
  </g>
</svg>
