<?xml version="1.0" encoding="UTF-8" standalone="no"?>
<!-- Created with Inkscape (http://www.inkscape.org/) -->

<svg
   width="39.6875mm"
   height="21mm"
   viewBox="0 0 39.687499 21"
   version="1.1"
   id="svg36227"
   inkscape:version="1.2 (dc2aedaf03, 2022-05-15)"
   sodipodi:docname="Martillo_Destornillador.svg"
   xmlns:inkscape="http://www.inkscape.org/namespaces/inkscape"
   xmlns:sodipodi="http://sodipodi.sourceforge.net/DTD/sodipodi-0.dtd"
   xmlns="http://www.w3.org/2000/svg"
   xmlns:svg="http://www.w3.org/2000/svg">
  <sodipodi:namedview
     id="namedview36229"
     pagecolor="#505050"
     bordercolor="#eeeeee"
     borderopacity="1"
     inkscape:showpageshadow="0"
     inkscape:pageopacity="0"
     inkscape:pagecheckerboard="0"
     inkscape:deskcolor="#505050"
     inkscape:document-units="mm"
     showgrid="false"
     inkscape:zoom="2.3382934"
     inkscape:cx="57.734414"
     inkscape:cy="38.917272"
     inkscape:current-layer="layer1" />
  <defs
     id="defs36224" />
  <g
     inkscape:label="Capa 1"
     inkscape:groupmode="layer"
     id="layer1">
    <g
       id="g380"
       transform="translate(0,-2.0244478)">
      <path
         d="m 29.486057,5.66357 -0.256945,-0.42325 -0.0074,-0.49249 0.477397,0.78642 c 0.0169,0.027 0.02251,0.0634 0.01452,0.0943 -0.0072,0.0311 -0.02891,0.0607 -0.05638,0.0769 -0.02703,0.0169 -0.0634,0.0225 -0.09427,0.0145 -0.03107,-0.007 -0.06075,-0.0289 -0.07692,-0.0564 z"
         stroke="#000000"
         stroke-width="0"
         fill="#000000"
         fill-opacity="1"
         id="path23251-3" />
      <path
         d="m 9.041417,16.64292 c 0.006,0.0613 -0.0633,0.13083 -0.12461,0.12461 -0.0613,0.006 -0.13084,-0.0633 -0.12462,-0.12461 -0.006,-0.0613 0.0633,-0.13083 0.12462,-0.12461 0.0613,-0.006 0.13083,0.0633 0.12461,0.12461 z"
         stroke="#000000"
         stroke-width="0"
         fill="#000000"
         fill-opacity="1"
         id="path23259-4" />
      <path
         d="m 27.800916,17.72249 c 0.0062,0.0613 -0.06329,0.13083 -0.124612,0.12461 -0.06132,0.006 -0.13083,-0.0633 -0.124623,-0.12461 -0.0062,-0.0613 0.0633,-0.13083 0.124623,-0.12462 0.06132,-0.006 0.130829,0.0633 0.124612,0.12462 z"
         stroke="#000000"
         stroke-width="0"
         fill="#000000"
         fill-opacity="1"
         id="path23261-8" />
      <path
         d="m 29.921345,9.7898 c 0.0062,0.0613 -0.06323,0.13069 -0.124474,0.12448 -0.06125,0.006 -0.130691,-0.0632 -0.124484,-0.12448 -0.0062,-0.0613 0.06323,-0.13069 0.124484,-0.12448 0.06124,-0.006 0.130682,0.0632 0.124474,0.12448 z"
         stroke="#000000"
         stroke-width="0"
         fill="#000000"
         fill-opacity="1"
         id="path23263-9" />
      <path
         d="m 29.004173,5.52388 0.217535,-0.77605 0.01167,0.77605 z"
         stroke="#000000"
         stroke-width="0"
         fill="#000000"
         fill-opacity="1"
         id="path23265-7" />
      <path
         d="m 9.723487,8.85394 v 3.91233 h 1.47816 v -1.21321 c -0.006,-0.0613 0.0633,-0.13083 0.12461,-0.12461 0.0613,-0.006 0.13083,0.0633 0.12461,0.12461 v 1.2161 c 0.35758,0.002 0.71263,0.40445 0.68208,0.74481 v 6.25789 c 0.0104,0.38964 -0.16647,0.85836 -0.48924,1.18114 -0.32278,0.32278 -0.79152,0.4996 -1.18114,0.48925 -0.38962,0.0103 -0.85836,-0.16647 -1.18113,-0.48925 -0.32278,-0.32278 -0.49961,-0.7915 -0.48925,-1.18113 v -2.38126 c -4e-4,-0.0319 0.0137,-0.0659 0.0365,-0.0881 0.0222,-0.0228 0.0562,-0.0369 0.0881,-0.0365 0.0319,-3.9e-4 0.0659,0.0137 0.0881,0.0365 0.0228,0.0222 0.0369,0.0563 0.0365,0.0881 v 2.38126 c -0.009,0.33149 0.14164,0.73028 0.41624,1.0049 0.27462,0.27462 0.67342,0.42506 1.00491,0.41624 0.33149,0.009 0.73029,-0.14162 1.00491,-0.41624 0.27462,-0.27462 0.42505,-0.67341 0.41624,-1.00491 v -6.25789 c 0.0249,-0.24529 -0.25319,-0.52333 -0.49847,-0.49846 h -1.84536 c -0.24528,-0.0249 -0.52334,0.25317 -0.49847,0.49846 v 2.38124 c 0.006,0.0613 -0.0633,0.13084 -0.12461,0.12463 -0.0613,0.006 -0.13084,-0.0633 -0.12462,-0.12463 v -2.38124 c -0.0305,-0.34036 0.3245,-0.74282 0.68208,-0.74481 V 8.77222 C 9.281997,8.67372 9.129077,8.46465 9.093347,8.2516 9.022447,7.87414 8.882117,7.51924 8.679017,7.27262 8.529627,7.09123 8.346307,6.96841 8.136677,6.9006 c -0.35429,-0.11461 -0.7837,-0.0721 -1.31528,0.053 -0.63965,0.15045 -1.42725,0.42037 -1.93022,0.56753 0.3967,-0.4475 0.83247,-0.86158 1.30391,-1.25167 0.74981,-0.62042 1.58987,-1.18011 2.47169,-1.52159 h 3.28128 l 0.45135,0.54515 h 0.88489 v -0.0455 c -0.0373,-0.36792 0.37977,-0.785 0.74769,-0.7477 h 0.88246 c 0.12264,-0.0124 0.26167,0.1266 0.24924,0.24923 v 2.67674 c 0.0124,0.12265 -0.1266,0.26167 -0.24924,0.24924 h -0.88246 c -0.36792,0.0373 -0.785,-0.37978 -0.74769,-0.74771 v -2.9e-4 h -0.73193 l -0.77375,1.15346 v 0.0332 c 0.006,0.23484 -0.13012,0.49167 -0.32778,0.61863 v 1.32541 c 0.006,0.0613 -0.0633,0.13084 -0.12461,0.12462 -0.0613,0.006 -0.13083,-0.0633 -0.12461,-0.12462 V 8.84164 l -0.17071,0.0197 h -1.2027 z m 5.19099,-1.42823 V 4.74897 h -0.88246 c -0.24527,-0.0249 -0.52333,0.25319 -0.49846,0.49847 v 1.6798 c -0.0249,0.24529 0.25319,0.52334 0.49846,0.49847 z m -3.38507,0.68791 V 8.00455 l 0.89005,-1.32684 h 0.86487 v -1.1355 h -1.00211 l -0.45135,-0.54515 h -3.11698 l -0.4564,0.2021 -0.44912,0.23888 c -0.30674,0.17618 -0.60208,0.3719 -0.88742,0.581 l -0.42795,0.32897 -0.2944,0.24404 -0.4492,0.40286 0.51208,-0.15219 0.50288,-0.13176 0.39666,-0.0806 0.3709,-0.0421 0.35019,0.007 c 0.11237,0.0116 0.22383,0.0336 0.33129,0.0684 0.12658,0.041 0.24763,0.0997 0.35752,0.17465 0.11272,0.0769 0.21371,0.17081 0.30057,0.2761 l 0.16366,0.23728 0.13079,0.26588 0.10067,0.28698 0.0717,0.30129 c 0.025,0.21689 0.27214,0.42193 0.4899,0.40647 h 1.2027 c 0.24528,0.0249 0.52334,-0.25318 0.49847,-0.49846 z"
         stroke="#000000"
         stroke-width="0"
         fill="#000000"
         fill-opacity="1"
         id="path23267-2" />
      <path
         d="m 29.233382,5.52388 c 0.07009,0.37328 0.249848,1.10659 0.409599,0.9938 0.06797,-0.048 0.132303,-0.2491 0.168341,-0.41016 0.02662,-0.11892 0.03779,-0.21599 0.03842,-0.32512 l 0.0716,0.11796 V 9.0421 c 3.96e-4,0.0318 -0.01364,0.0658 -0.03646,0.088 -0.02221,0.0228 -0.05617,0.0369 -0.08801,0.0365 -0.03185,4e-4 -0.06581,-0.0136 -0.08802,-0.0365 -0.02281,-0.0222 -0.03689,-0.0562 -0.03646,-0.088 V 6.77184 l -0.08019,0.006 -0.07656,-0.0143 -0.03297,-0.0127 -0.0463,-0.0253 -0.04355,-0.0335 -0.03411,-0.0342 -0.02791,-0.034 -0.03262,-0.0479 -0.03905,-0.0702 -0.03397,-0.0738 -0.06005,-0.15935 -0.05062,-0.16364 -0.07392,0.248 -0.05111,0.13972 -0.02517,0.0576 -0.02764,0.0545 -0.04932,0.0756 -0.04973,0.0539 -0.03402,0.027 -0.02969,0.0183 -0.0068,0.004 v 6.89173 h 0.905282 v -3.14175 c -0.0062,-0.0613 0.06323,-0.13069 0.124484,-0.12448 0.06124,-0.006 0.130682,0.0632 0.124474,0.12448 v 3.14175 h 0.223397 c 0.367927,-0.0373 0.784999,0.37978 0.747705,0.7477 0.0062,0.23727 -0.133222,0.4971 -0.334399,0.62308 0.201177,0.12598 0.340617,0.38581 0.334399,0.62308 v 4.09875 c 0.01036,0.38964 -0.166473,0.85836 -0.489247,1.18114 -0.322775,0.32278 -0.791503,0.4996 -1.181136,0.48925 -0.389623,0.0103 -0.85836,-0.16647 -1.181135,-0.48925 -0.322775,-0.32278 -0.499597,-0.7915 -0.489248,-1.18113 v -1.30167 c -3.95e-4,-0.0319 0.01366,-0.0659 0.0365,-0.0881 0.02224,-0.0229 0.05624,-0.0369 0.08812,-0.0365 0.03188,-3.9e-4 0.06588,0.0136 0.08811,0.0365 0.02285,0.0222 0.03693,0.0562 0.0365,0.0881 v 1.30168 c -0.0088,0.33149 0.141634,0.73028 0.416252,1.0049 0.274608,0.27462 0.673403,0.42506 1.004896,0.41624 0.331493,0.009 0.730289,-0.14162 1.004907,-0.41624 0.274618,-0.27462 0.425048,-0.67341 0.416241,-1.00491 v -4.09875 c 0.02487,-0.24528 -0.253188,-0.52333 -0.49847,-0.49847 h -1.845356 c -0.245281,-0.0249 -0.523329,0.25319 -0.49847,0.49847 v 1.30168 c 3.96e-4,0.0319 -0.01365,0.0659 -0.0365,0.0881 -0.02223,0.0228 -0.05623,0.0369 -0.08811,0.0365 -0.03188,3.9e-4 -0.06588,-0.0137 -0.08812,-0.0365 -0.02284,-0.0222 -0.03693,-0.0563 -0.0365,-0.0881 v -1.30168 c -0.0062,-0.23727 0.133232,-0.4971 0.334399,-0.62308 -0.201167,-0.12598 -0.340606,-0.38581 -0.334399,-0.62308 -0.03729,-0.36792 0.379788,-0.785 0.747705,-0.7477 h 0.218376 V 6.43365 c 0.04082,0.0833 0.06822,0.12333 0.09602,0.1347 0.114906,0.047 0.236731,-0.39539 0.390394,-1.04441 z m 0.91136,9.40154 c 0.245282,0.0249 0.523339,-0.25319 0.49847,-0.49847 0.02487,-0.24528 -0.253188,-0.52333 -0.49847,-0.49847 h -1.845356 c -0.245281,-0.0249 -0.523329,0.25319 -0.49847,0.49847 -0.02486,0.24528 0.253189,0.52333 0.49847,0.49847 z"
         stroke="#000000"
         stroke-width="0"
         fill="#000000"
         fill-opacity="1"
         id="path23269-4" />
      <path
         d="m 11.450867,10.80537 c 0.006,0.0613 -0.0633,0.13083 -0.12461,0.12461 -0.0613,0.006 -0.13083,-0.0633 -0.12461,-0.12461 -0.006,-0.0613 0.0633,-0.13084 0.12461,-0.12463 0.0613,-0.006 0.13083,0.0633 0.12461,0.12463 z"
         stroke="#000000"
         stroke-width="0"
         fill="#000000"
         fill-opacity="1"
         id="path23271-7" />
      <path
         d="m 28.517653,6.10122 -5.9e-5,-0.19855 0.704114,-1.15484 -0.217535,0.77605 -0.02348,0.098 -0.213849,0.35074 v 0.12536 c 0.006,0.0608 -0.06208,0.12988 -0.123001,0.12465 -0.06076,0.007 -0.130662,-0.0604 -0.126194,-0.12141 z"
         stroke="#000000"
         stroke-width="0"
         fill="#000000"
         fill-opacity="1"
         id="path23273-9" />
      <path
         d="m 28.517653,6.10122 c -0.0045,0.061 0.06543,0.12823 0.126194,0.12141 0.06092,0.005 0.129051,-0.0638 0.123001,-0.12465 V 5.97262 l 0.213849,-0.35074 0.02348,-0.098 0.217535,-0.77605 -0.704114,1.15484 z"
         stroke="#000000"
         stroke-width="0.0474451"
         fill-opacity="0"
         id="path23285-6" />
      <path
         d="m 29.233382,5.52388 h -0.229209 c -0.153663,0.64902 -0.275488,1.09143 -0.390394,1.04441 -0.0278,-0.0114 -0.05519,-0.0514 -0.09602,-0.1347 v 7.24566 h -0.218376 c -0.367917,-0.0373 -0.784999,0.37978 -0.747705,0.7477 -0.0062,0.23727 0.133232,0.4971 0.334399,0.62308 -0.201167,0.12598 -0.340606,0.38581 -0.334399,0.62308 v 1.30168 c -3.95e-4,0.0319 0.01366,0.0659 0.0365,0.0881 0.02224,0.0228 0.05624,0.0369 0.08812,0.0365 0.03188,3.9e-4 0.06588,-0.0137 0.08811,-0.0365 0.02285,-0.0222 0.03693,-0.0562 0.0365,-0.0881 v -1.30168 c -0.02486,-0.24528 0.253189,-0.52333 0.49847,-0.49847 h 1.845356 c 0.245282,-0.0249 0.523339,0.25319 0.49847,0.49847 v 4.09875 c 0.0088,0.3315 -0.141623,0.73029 -0.416241,1.00491 -0.274618,0.27462 -0.673414,0.42506 -1.004907,0.41624 -0.331493,0.009 -0.730288,-0.14162 -1.004896,-0.41624 -0.274618,-0.27462 -0.425059,-0.67341 -0.416252,-1.0049 v -1.30168 c 3.96e-4,-0.0319 -0.01365,-0.0659 -0.0365,-0.0881 -0.02223,-0.0229 -0.05623,-0.0369 -0.08811,-0.0365 -0.03188,-3.9e-4 -0.06588,0.0137 -0.08812,0.0365 -0.02284,0.0222 -0.03693,0.0562 -0.0365,0.0881 v 1.30167 c -0.01035,0.38963 0.166473,0.85835 0.489248,1.18113 0.322775,0.32278 0.791512,0.4996 1.181135,0.48925 0.389633,0.0103 0.858361,-0.16647 1.181136,-0.48925 0.322774,-0.32278 0.499606,-0.7915 0.489247,-1.18114 V 15.6731 c 0.0062,-0.23727 -0.133222,-0.4971 -0.334399,-0.62308 0.201177,-0.12598 0.340617,-0.38581 0.334399,-0.62308 0.03729,-0.36792 -0.379778,-0.785 -0.747705,-0.7477 h -0.223397 v -3.14175 c 0.0062,-0.0613 -0.06323,-0.13069 -0.124474,-0.12448 -0.06125,-0.006 -0.130691,0.0632 -0.124484,0.12448 v 3.14175 H 28.767102 V 6.78751 l 0.0068,-0.004 0.02969,-0.0183 0.03402,-0.027 0.04973,-0.0539 0.04932,-0.0756 0.02764,-0.0545 0.02517,-0.0576 0.05111,-0.13972 0.07392,-0.248 0.05062,0.16364 0.06005,0.15935 0.03397,0.0738 0.03905,0.0702 0.03262,0.0479 0.02791,0.034 0.03411,0.0342 0.04355,0.0335 0.0463,0.0253 0.03297,0.0127 0.07656,0.0143 0.08019,-0.006 v 2.27026 c -3.95e-4,0.0318 0.01365,0.0658 0.03646,0.088 0.02221,0.0228 0.05617,0.0369 0.08802,0.0365 0.03184,4e-4 0.0658,-0.0136 0.08801,-0.0365 0.02282,-0.0222 0.03689,-0.0562 0.03646,-0.088 V 5.9003 l -0.0716,-0.11796 c -5.93e-4,0.10913 -0.0118,0.2062 -0.03842,0.32512 -0.03604,0.16106 -0.100376,0.36219 -0.168341,0.41016 C 29.48324,6.63041 29.303482,5.8971 29.233392,5.52382 Z"
         stroke="#000000"
         stroke-width="0.0474451"
         fill-opacity="0"
         id="path23287-0" />
      <path
         d="m 29.486057,5.66357 c 0.01617,0.0275 0.04585,0.0492 0.07692,0.0564 0.03087,0.008 0.06723,0.002 0.09427,-0.0145 0.02747,-0.0162 0.04922,-0.0459 0.05638,-0.0769 0.008,-0.0309 0.0024,-0.0672 -0.01452,-0.0943 l -0.477397,-0.78642 0.0074,0.49249 z"
         stroke="#000000"
         stroke-width="0.0474451"
         fill-opacity="0"
         id="path23289-9" />
      <path
         d="m 29.921345,9.7898 c 0.0062,-0.0613 -0.06323,-0.13069 -0.124474,-0.12448 -0.06125,-0.006 -0.130691,0.0632 -0.124484,0.12448 -0.0062,0.0613 0.06323,0.13069 0.124484,0.12448 0.06124,0.006 0.130682,-0.0632 0.124474,-0.12448 z"
         stroke="#000000"
         stroke-width="0.0474451"
         fill-opacity="0"
         id="path23291-1" />
      <path
         d="m 27.800916,17.72249 c 0.0062,-0.0613 -0.06329,-0.13083 -0.124612,-0.12462 -0.06132,-0.006 -0.13083,0.0633 -0.124623,0.12462 -0.0062,0.0613 0.0633,0.13083 0.124623,0.12461 0.06132,0.006 0.130829,-0.0633 0.124612,-0.12461 z"
         stroke="#000000"
         stroke-width="0.0474451"
         fill-opacity="0"
         id="path23293-6" />
      <path
         d="m 30.144742,14.92542 h -1.845356 c -0.245281,0.0249 -0.523329,-0.25319 -0.49847,-0.49847 -0.02486,-0.24528 0.253189,-0.52333 0.49847,-0.49847 h 1.845356 c 0.245282,-0.0249 0.523339,0.25319 0.49847,0.49847 0.02487,0.24528 -0.253188,0.52333 -0.49847,0.49847 z"
         stroke="#000000"
         stroke-width="0.0474451"
         fill-opacity="0"
         id="path23295-5" />
      <path
         d="m 14.914477,7.42571 h -0.88246 c -0.24527,0.0249 -0.52333,-0.25318 -0.49846,-0.49847 v -1.6798 c -0.0249,-0.24528 0.25319,-0.52334 0.49846,-0.49847 h 0.88246 z"
         stroke="#000000"
         stroke-width="0.0474451"
         fill-opacity="0"
         id="path23297-0" />
      <path
         d="m 9.041417,16.64292 c 0.006,-0.0613 -0.0633,-0.13083 -0.12461,-0.12461 -0.0613,-0.006 -0.13084,0.0633 -0.12462,0.12461 -0.006,0.0613 0.0633,0.13083 0.12462,0.12461 0.0613,0.006 0.13083,-0.0633 0.12461,-0.12461 z"
         stroke="#000000"
         stroke-width="0.0474451"
         fill-opacity="0"
         id="path23299-1" />
      <path
         d="m 11.450867,10.80537 c 0.006,-0.0613 -0.0633,-0.13084 -0.12461,-0.12463 -0.0613,-0.006 -0.13083,0.0633 -0.12461,0.12463 -0.006,0.0613 0.0633,0.13083 0.12461,0.12461 0.0613,0.006 0.13083,-0.0633 0.12461,-0.12461 z"
         stroke="#000000"
         stroke-width="0.0474451"
         fill-opacity="0"
         id="path23301-8" />
      <path
         d="M 8.792187,16.64292 Z"
         stroke="#000000"
         stroke-width="0.0474451"
         fill-opacity="0"
         id="path23303-8" />
      <path
         d="m 11.529407,8.11362 c 0.0249,0.24528 -0.25319,0.52333 -0.49847,0.49846 h -1.2027 C 9.610477,8.62758 9.363337,8.4225 9.338337,8.20561 L 9.266637,7.90432 9.165967,7.61734 9.035177,7.35146 8.871517,7.11418 C 8.784617,7.00889 8.683667,6.91496 8.570947,6.83808 8.461057,6.76308 8.340007,6.7044 8.213427,6.66343 8.105967,6.62863 7.994507,6.60663 7.882137,6.59503 l -0.35019,-0.007 -0.3709,0.0421 -0.39666,0.0806 -0.50288,0.13176 -0.51208,0.15219 0.4492,-0.40286 0.2944,-0.24404 0.42795,-0.32897 c 0.28534,-0.2091 0.58068,-0.40482 0.88742,-0.581 l 0.44912,-0.23888 0.4564,-0.2021 h 3.11698 l 0.45135,0.54515 h 1.00211 v 1.1355 h -0.86487 l -0.89005,1.32684 z"
         stroke="#000000"
         stroke-width="0.0474451"
         fill-opacity="0"
         id="path23305-4" />
      <path
         d="m 9.723487,8.85394 0.10475,0.007 h 1.2027 l 0.17071,-0.0197 v 1.21609 c -0.006,0.0613 0.0633,0.13084 0.12461,0.12462 0.0613,0.006 0.13083,-0.0633 0.12461,-0.12462 V 8.73192 c 0.19766,-0.12696 0.33374,-0.38379 0.32778,-0.61863 v -0.0332 l 0.77375,-1.15346 h 0.73193 v 2.9e-4 c -0.0373,0.36793 0.37977,0.785 0.74769,0.74771 h 0.88246 c 0.12264,0.0124 0.26167,-0.12659 0.24924,-0.24924 V 4.74865 c 0.0124,-0.12263 -0.1266,-0.26166 -0.24924,-0.24923 h -0.88246 c -0.36792,-0.0373 -0.785,0.37978 -0.74769,0.7477 v 0.0455 h -0.88489 l -0.45135,-0.54515 h -3.28128 c -0.88182,0.34148 -1.72188,0.90117 -2.47169,1.52159 -0.47144,0.39009 -0.90721,0.80417 -1.30391,1.25167 0.50297,-0.14716 1.29057,-0.41708 1.93022,-0.56753 0.53158,-0.12504 0.96099,-0.16757 1.31528,-0.053 0.20963,0.0678 0.39295,0.19063 0.54234,0.37202 0.2031,0.24662 0.34345,0.60152 0.41433,0.97898 0.0357,0.21305 0.18865,0.42208 0.38089,0.52062 v 3.99694 c -0.35758,0.002 -0.71263,0.40445 -0.68208,0.74481 v 2.38124 c -0.006,0.0613 0.0633,0.13084 0.12462,0.12463 0.0613,0.006 0.13083,-0.0633 0.12461,-0.12463 v -2.38124 c -0.0249,-0.24529 0.25319,-0.52333 0.49847,-0.49846 h 1.84536 c 0.24528,-0.0249 0.52334,0.25317 0.49847,0.49846 v 6.25789 c 0.009,0.3315 -0.14162,0.73029 -0.41624,1.00491 -0.27462,0.27462 -0.67342,0.42506 -1.00491,0.41624 -0.33149,0.009 -0.73029,-0.14162 -1.00491,-0.41624 -0.2746,-0.27462 -0.42504,-0.67341 -0.41624,-1.0049 v -2.38126 c 4e-4,-0.0319 -0.0137,-0.0659 -0.0365,-0.0881 -0.0222,-0.0228 -0.0562,-0.0369 -0.0881,-0.0365 -0.0319,-3.9e-4 -0.0659,0.0137 -0.0881,0.0365 -0.0228,0.0222 -0.0369,0.0563 -0.0365,0.0881 v 2.38126 c -0.0104,0.38963 0.16647,0.85835 0.48925,1.18113 0.32277,0.32278 0.79151,0.4996 1.18113,0.48925 0.38962,0.0103 0.85836,-0.16647 1.18114,-0.48925 0.32277,-0.32278 0.49959,-0.7915 0.48924,-1.18114 v -6.25789 c 0.0306,-0.34036 -0.3245,-0.74282 -0.68208,-0.74481 v -1.2161 c 0.006,-0.0613 -0.0633,-0.13083 -0.12461,-0.12461 -0.0613,-0.006 -0.13083,0.0633 -0.12461,0.12461 v 1.21321 h -1.47816 z"
         stroke="#000000"
         stroke-width="0.0474451"
         fill-opacity="0"
         id="path23307-1" />
      <path
         d="m 19.842317,16.62194 c 0.82425,1.97415 2.54446,3.89314 4.6849,4.99798 2.140444,1.10484 4.701124,1.39554 6.787818,0.92394 2.100986,-0.40316 4.331162,-1.69464 5.850333,-3.56395 1.519172,-1.86929 2.32733,-4.31643 2.292378,-6.45546 C 39.492696,10.38542 38.68454,7.93828 37.165368,6.06897 35.646197,4.19968 33.416021,2.9082 31.315035,2.50504 29.228341,2.03343 26.667661,2.32414 24.527217,3.42898 c -2.14044,1.10484 -3.86065,3.02382 -4.6849,4.99797"
         stroke="#000000"
         stroke-width="0.0474451"
         fill-opacity="0"
         id="path23309-4"
         style="stroke-width:0.347;stroke-dasharray:none" />
      <path
         d="m 19.617387,7.94641 c -0.53698,-1.07727 -1.31708,-2.14608 -2.32792,-3.0484 -1.01084,-0.90233 -2.25243,-1.63817 -3.59062,-2.08415 -1.33819,-0.44599 -2.77298,-0.60211 -4.12304,-0.48661 -1.35005,0.11551 -2.61538,0.50264 -3.69127,1.04237 -1.07727,0.53699 -2.14608,1.31709 -3.04841,2.32793 -0.90233,1.01084 -1.63817,2.25243 -2.08415,3.59062 -0.44599,1.33819 -0.60211,2.77298 -0.4866,4.12304 0.1155,1.35005 0.50263,2.61538 1.04237,3.69127 0.53699,1.07726 1.31708,2.14608 2.32792,3.04841 1.01084,0.90233 2.25243,1.63817 3.59062,2.08415 1.33819,0.44598 2.77298,0.60211 4.12304,0.4866 1.35006,-0.1155 2.61538,-0.50263 3.69128,-1.04237 1.07727,-0.537 2.14607,-1.31708 3.0484,-2.32793 0.90233,-1.01084 1.63817,-2.25242 2.08415,-3.59061 0.44599,-1.33819 0.60211,-2.77298 0.4866,-4.12304 -0.1155,-1.35006 -0.50263,-2.61538 -1.04237,-3.69128 z"
         stroke="#000000"
         stroke-width="0.0474451"
         fill-opacity="0"
         id="path23313-5"
         style="stroke-width:0.347;stroke-dasharray:none" />
      <path
         d="m 29.004173,5.52389 0.217535,-0.77606 0.01167,0.77606 z"
         stroke="#000000"
         stroke-width="0.0474451"
         fill-opacity="0"
         id="path23321-7" />
      <path
         d="M 27.551691,17.72248 Z"
         stroke="#000000"
         stroke-width="0.0474451"
         fill-opacity="0"
         id="path23323-2" />
      <path
         d="M 27.800926,17.72245 Z"
         stroke="#000000"
         stroke-width="0.0474451"
         fill-opacity="0"
         id="path23325-0" />
      <path
         d="M 30.144752,14.92542 H 28.299386"
         stroke="#000000"
         stroke-width="0.0474451"
         fill-opacity="0"
         id="path23327-0" />
      <path
         d="M 30.144752,15.17465 H 28.299386"
         stroke="#000000"
         stroke-width="0.0474451"
         fill-opacity="0"
         id="path23329-8" />
      <path
         d="M 11.450877,10.80537 Z"
         stroke="#000000"
         stroke-width="0.0474451"
         fill-opacity="0"
         id="path23331-2" />
      <path
         d="M 11.201647,10.80537 Z"
         stroke="#000000"
         stroke-width="0.0474451"
         fill-opacity="0"
         id="path23333-7" />
    </g>
  </g>
</svg>
