<?xml version="1.0" encoding="UTF-8" standalone="no"?>
<!-- Created with Inkscape (http://www.inkscape.org/) -->

<svg
   width="21mm"
   height="21mm"
   viewBox="0 0 21 21"
   version="1.1"
   id="svg36227"
   inkscape:version="1.2 (dc2aedaf03, 2022-05-15)"
   sodipodi:docname="Oculta_Tornillos.svg"
   xmlns:inkscape="http://www.inkscape.org/namespaces/inkscape"
   xmlns:sodipodi="http://sodipodi.sourceforge.net/DTD/sodipodi-0.dtd"
   xmlns="http://www.w3.org/2000/svg"
   xmlns:svg="http://www.w3.org/2000/svg">
  <sodipodi:namedview
     id="namedview36229"
     pagecolor="#505050"
     bordercolor="#eeeeee"
     borderopacity="1"
     inkscape:showpageshadow="0"
     inkscape:pageopacity="0"
     inkscape:pagecheckerboard="0"
     inkscape:deskcolor="#505050"
     inkscape:document-units="mm"
     showgrid="false"
     inkscape:zoom="4.6765868"
     inkscape:cx="54.313116"
     inkscape:cy="33.14383"
     inkscape:current-layer="layer1" />
  <defs
     id="defs36224" />
  <g
     inkscape:label="Capa 1"
     inkscape:groupmode="layer"
     id="layer1">
    <g
       id="g323"
       transform="translate(0,-2.0681112)">
      <path
         d="M 5.96357,6.133032 5.73101,6.061662 C 5.60885,6.035442 5.48006,6.023022 5.36381,6.051602 5.20422,6.090852 5.06829,6.207388 4.94379,6.330768 4.29253,6.976257 3.95435,7.809054 3.69783,8.656422 c -0.36592,1.208767 -0.56568,2.447171 -0.7124,3.695606 -0.0842,0.715983 -0.15087,1.435268 -0.0464,2.157988 0.0557,0.385341 0.16002,0.771659 0.35967,1.093214 0.22241,0.35819 0.56311,0.636018 0.9109,0.90208 0.37522,0.287044 0.75869,0.560395 1.1926,0.700415 0.34334,0.110799 0.71826,0.138113 1.08847,0.113583 0.28669,-0.019 0.57056,-0.06909 0.8282,-0.179842 C 7.65639,16.994382 7.9489,16.745199 8.21331,16.481652 8.51313,16.182814 8.77684,15.86551 9.0323,15.552045 9.19012,15.358389 9.34478,15.166201 9.55229,14.9924 c 0.16919,-0.141705 0.37349,-0.271183 0.56351,-0.384129 0.2875,-0.170896 0.54225,-0.303945 0.8073,-0.483589 0.18201,-0.123359 0.36888,-0.268691 0.45333,-0.465201 0.0525,-0.122147 0.0654,-0.264057 0.0508,-0.405564"
         stroke="#000000"
         stroke-width="0.0340007"
         fill-opacity="0"
         id="path17196"
         style="stroke-width:0.3;stroke-dasharray:none" />
      <path
         d="M 7.89754,5.476606 C 7.80074,5.435006 7.69981,5.402546 7.59527,5.380066 7.33668,5.324466 7.05583,5.329966 6.81327,5.414566 6.37548,5.567265 6.06238,5.977646 5.78594,6.384401 5.38841,6.969319 5.06667,7.546749 4.82577,8.174806 4.68482,8.542261 4.57156,8.92705 4.4869,9.314112"
         stroke="#000000"
         stroke-width="0.0340007"
         fill-opacity="0"
         id="path17198"
         style="stroke-width:0.3;stroke-dasharray:none" />
      <path
         d="M 7.07462,9.891461 C 7.52687,9.27121 7.9766,8.645683 8.4549,8.048107 8.77902,7.643173 9.11626,7.251074 9.41665,6.819216 9.47295,6.738256 9.52797,6.655906 9.56304,6.56596 9.60904,6.44807 9.62074,6.317132 9.61564,6.186194 9.60864,6.00225 9.56824,5.818306 9.47542,5.666196 9.37692,5.504756 9.21926,5.379187 9.04306,5.292273 8.89323,5.218353 8.73,5.172392 8.56982,5.181261 8.40969,5.190161 8.2526,5.253801 8.10825,5.33658 7.80756,5.50902 7.56209,5.764401 7.33306,6.038978 6.42079,7.132695 5.76956,8.531044 5.44444,9.544533"
         stroke="#000000"
         stroke-width="0.0340007"
         fill-opacity="0"
         id="path17200"
         style="stroke-width:0.3;stroke-dasharray:none" />
      <path
         d="M 20.74283,12.466751 C 20.73243,11.262206 20.49969,9.958612 19.98635,8.703534 19.47301,7.448462 18.67908,6.241891 17.6711,5.253661 16.66311,4.265431 15.44107,3.495542 14.17608,3.007137 12.9111,2.518738 11.60315,2.311823 10.39864,2.325281 9.19409,2.335661 7.8905,2.568415 6.63542,3.081761 5.38034,3.595101 4.17378,4.389024 3.18555,5.397009 2.19732,6.404988 1.42743,7.627029 0.93902,8.892025 c -0.4884,1.264988 -0.69531,2.572931 -0.68185,3.777448 0.0104,1.204538 0.24313,2.508131 0.75647,3.76321 0.51334,1.255078 1.30727,2.461642 2.31526,3.449872 1.00797,0.98823 2.23002,1.758126 3.495,2.246524 1.265,0.488406 2.57294,0.695314 3.77745,0.681863 1.20455,-0.01038 2.50814,-0.24314 3.76322,-0.75648 1.25508,-0.513339 2.46164,-1.30727 3.44987,-2.315248 0.98823,-1.007986 1.75813,-2.230027 2.24653,-3.495016 0.4884,-1.264988 0.69531,-2.572931 0.68186,-3.777447 z"
         stroke="#000000"
         stroke-width="0.0340007"
         fill-opacity="0"
         id="path17202"
         style="stroke-width:0.3;stroke-dasharray:none" />
      <path
         d="m 9.89167,14.746532 c 0.0567,0.913074 0.43156,1.711446 0.89391,2.444954 0.42043,0.667015 0.91318,1.280381 1.69052,1.668187 0.71592,0.35717 1.67325,0.523015 2.19094,0.114603 0.4203,-0.331584 0.55083,-1.041667 0.55552,-1.692355 0.007,-0.985064 -0.27412,-1.83399 -0.70888,-2.601669 C 14.31127,14.32282 14.07556,13.983004 13.7936,13.674866 L 10.84829,12.41558"
         stroke="#000000"
         stroke-width="0.0340007"
         fill-opacity="0"
         id="path17204"
         style="stroke-width:0.3;stroke-dasharray:none" />
      <path
         d="m 15.42528,13.052731 c -0.0412,0.679504 0.2155,1.256375 0.54503,1.779178 0.25626,0.406556 0.5566,0.780415 1.0304,1.016791 0.43637,0.217703 1.01988,0.318784 1.33542,0.06985 0.25618,-0.202099 0.33574,-0.634913 0.33861,-1.031517 0.004,-0.600417 -0.16709,-1.117851 -0.43208,-1.585771 -0.26479,-0.467552 -0.62301,-0.885668 -1.15291,-1.169609 -0.38238,-0.204904 -0.85417,-0.339936 -1.1663,-0.174084 -0.31924,0.169628 -0.47147,0.654025 -0.49817,1.095162 z"
         stroke="#000000"
         stroke-width="0.0340007"
         fill-opacity="0"
         id="path17206"
         style="stroke-width:0.3;stroke-dasharray:none" />
      <path
         d="m 10.05746,12.414297 c -0.14774,0.02658 -0.29291,0.0693 -0.43423,0.122368 -0.24531,0.09211 -0.47903,0.215366 -0.6785,0.379504 -0.20109,0.16547 -0.36738,0.372477 -0.57117,0.536665 -0.0542,0.04366 -0.11105,0.0843 -0.17633,0.111168 -0.11165,0.04594 -0.24793,0.05158 -0.3565,0.0038 C 7.73257,13.520232 7.65193,13.419659 7.59539,13.31097 7.49116,13.110557 7.46891,12.882519 7.49959,12.663129 7.54099,12.3667 7.67901,12.086067 7.87526,11.861967 7.99413,11.726226 8.13437,11.611233 8.28543,11.516966 l 0.15247,-0.07978 c 0.0453,-0.01782 0.0939,-0.03095 0.14057,-0.02852 0.0812,0.0042 0.15646,0.0556 0.22409,0.110006 0.15711,0.126391 0.27307,0.269187 0.40482,0.415219 0.16981,0.188237 0.36586,0.381856 0.598,0.448498 0.15855,0.04552 0.33393,0.0318 0.51005,0.02272 0.21334,-0.011 0.42776,-0.0152 0.60724,-0.117161 0.10672,-0.06061 0.20108,-0.155787 0.25247,-0.267316 0.0648,-0.14065 0.0613,-0.307303 0.0316,-0.462615 -0.0228,-0.119385 -0.061,-0.232069 -0.11178,-0.338449 C 10.96822,10.95408 10.76318,10.727855 10.56121,10.511575 10.22006,10.146238 9.88766,9.80927 9.50719,9.456222 9.36284,9.322281 9.21158,9.18603 9.03718,9.107531 8.96608,9.075541 8.89123,9.053141 8.81461,9.037111 8.66773,9.006361 8.51452,8.998971 8.38448,9.022241 8.26014,9.044481 8.15698,9.094751 8.05083,9.155913 7.76682,9.31957 7.4614,9.561244 7.07461,9.891433"
         stroke="#000000"
         stroke-width="0.0340007"
         fill-opacity="0"
         id="path17210"
         style="stroke-width:0.3;stroke-dasharray:none" />
      <path
         d="m 10.92973,12.48985 c -0.11745,-0.05361 -0.2488,-0.08371 -0.37927,-0.09721 l -0.0112,-0.0011"
         stroke="#000000"
         stroke-width="0.0340007"
         fill-opacity="0"
         id="path17212"
         style="stroke-width:0.3;stroke-dasharray:none" />
      <path
         d="m 10.84829,12.41558 -0.0595,0.02243"
         stroke="#000000"
         stroke-width="0.0340007"
         fill-opacity="0"
         id="path17214"
         style="stroke-width:0.3;stroke-dasharray:none" />
      <path
         d="m 10.84829,12.41558 0.11062,0.108773 c 0.079,0.102385 0.11464,0.233663 0.17242,0.351532 0.105,0.214169 0.28316,0.384059 0.47984,0.525282 0.17025,0.12224 0.35438,0.222995 0.55029,0.276433 0.2885,0.07869 0.60256,0.05475 0.90666,0.01863 0.16923,-0.0201 0.33536,-0.04398 0.50301,-0.04037 l 0.22247,0.019"
         stroke="#000000"
         stroke-width="0.0340007"
         fill-opacity="0"
         id="path17216"
         style="stroke-width:0.3;stroke-dasharray:none" />
      <path
         d="m 17.24898,14.368458 0.81261,0.489377 v -0.46763 l -0.81261,-0.489376 v -0.97485 l -0.42163,-0.260643 v 0.981571 l -0.82794,-0.498606 v 0.46763 l 0.82794,0.498606 v 0.94262 l 0.42163,0.260643 z"
         stroke="#000000"
         stroke-width="0.0340007"
         fill-opacity="0"
         id="path17218"
         style="stroke-width:0.3;stroke-dasharray:none" />
    </g>
  </g>
</svg>
