<svg width="1632" height="5280" viewBox="0 0 1632 5280" xmlns="http://www.w3.org/2000/svg">
  <!-- Detailed Yellow Portfolio Template -->
  <!-- Inspired by plantilla-portafolio-color-diseno-plano_23-2149215470.jpg -->
  <!-- Designed by Antigravity - Fully Editable SVG -->
  
  <rect width="1632" height="5280" fill="#f0f0f0" />
  
  <!-- Page 01: Cover (Single Letter Page, centered) -->
  <g id="page_01_cover" transform="translate(408, 0)">
    <rect width="816" height="1056" fill="#ffffff" />
    <rect id="cover_accent" x="50" y="50" width="200" height="400" fill="#ffcc00" />
    <text x="300" y="150" font-family="Arial, sans-serif" font-size="60" font-weight="bold" fill="#1a1a1a">JAMES DON</text>
    <text x="300" y="210" font-family="Arial, sans-serif" font-size="36" fill="#666666">Photographer</text>
    <g transform="translate(300, 320)">
      <text y="0" font-family="Arial, sans-serif" font-size="24" fill="#999999">yourname@company.com</text>
      <text y="40" font-family="Arial, sans-serif" font-size="24" fill="#999999">www.yourportfolio.com</text>
      <text y="80" font-family="Arial, sans-serif" font-size="24" fill="#999999">north street avenue</text>
    </g>
    
    <text x="50" y="600" font-family="Arial, sans-serif" font-size="120" font-weight="extrabold" fill="#1a1a1a">Portfolio</text>
    
    <!-- Hero Image Placeholder -->
    <rect x="50" y="680" width="716" height="300" fill="#eeeeee" />
    <text x="408" y="840" font-family="Arial, sans-serif" font-size="32" fill="#999999" text-anchor="middle">HERO IMAGE</text>
    <rect x="50" y="1000" width="40" height="40" fill="#1a1a1a" />
    <rect x="736" y="960" width="60" height="80" fill="#ffcc00" />
  </g>
  
  <!-- Page 02 & 03: About Me / Table of Contents (Spread 1: 1632x1056) -->
  <g id="spread_01" transform="translate(0, 1056)">
    <!-- Page 02: About -->
    <g id="page_02_about">
      <rect width="816" height="1056" fill="#ffffff" />
      <text x="60" y="100" font-family="Arial, sans-serif" font-size="64" font-weight="bold" fill="#1a1a1a">About</text>
      <text x="60" y="180" font-family="Arial, sans-serif" font-size="64" font-weight="bold" fill="#1a1a1a">Me</text>
      
      <rect x="100" y="250" width="250" height="350" fill="#dddddd" />
      <text x="380" y="320" font-family="Arial, sans-serif" font-size="48" font-weight="bold" fill="#1a1a1a">Hello</text>
      <text x="380" y="380" font-family="Arial, sans-serif" font-size="48" font-weight="bold" fill="#1a1a1a">I'm James</text>
      
      <!-- Social Icons -->
      <g transform="translate(380, 450)">
        <circle cx="15" cy="15" r="15" fill="#1a1a1a" /> <text x="45" y="25" font-family="Arial, sans-serif" font-size="24">facebook</text>
        <circle cx="15" cy="65" r="15" fill="#1a1a1a" /> <text x="45" y="75" font-family="Arial, sans-serif" font-size="24">instagram</text>
        <circle cx="15" cy="115" r="15" fill="#1a1a1a" /> <text x="45" y="125" font-family="Arial, sans-serif" font-size="24">twitter</text>
      </g>
      
      <rect x="60" y="750" width="696" height="150" fill="#ffcc00" />
      <text x="80" y="830" font-family="Arial, sans-serif" font-size="20" fill="#1a1a1a">Lorem ipsum dolor sit amet, consectetuer adipiscing elit.</text>
      <rect x="736" y="50" width="50" height="50" fill="#1a1a1a" />
      <text x="761" y="85" font-family="Arial, sans-serif" font-size="24" fill="#ffffff" text-anchor="middle">01</text>
    </g>
    
    <!-- Page 03: TOC -->
    <g id="page_03_toc" transform="translate(816, 0)">
      <rect width="816" height="1056" fill="#ffffff" />
      <text x="60" y="100" font-family="Arial, sans-serif" font-size="64" font-weight="bold" fill="#1a1a1a">Table</text>
      <text x="60" y="180" font-family="Arial, sans-serif" font-size="64" font-weight="bold" fill="#1a1a1a">of Content</text>
      
      <rect x="60" y="250" width="696" height="400" fill="#ffcc00" />
      <g transform="translate(100, 320)">
        <text y="0" font-family="Arial, sans-serif" font-size="32" font-weight="bold">Project 01</text>
        <text x="500" y="0" font-family="Arial, sans-serif" font-size="32" text-anchor="end">03</text>
        <rect y="20" width="300" height="2" fill="#1a1a1a" />
        
        <text y="100" font-family="Arial, sans-serif" font-size="32" font-weight="bold">Project 02</text>
        <text x="500" y="100" font-family="Arial, sans-serif" font-size="32" text-anchor="end">05</text>
        
        <text y="200" font-family="Arial, sans-serif" font-size="32" font-weight="bold">Project 03</text>
        <text x="500" y="200" font-family="Arial, sans-serif" font-size="32" text-anchor="end">07</text>
      </g>
      
      <rect x="736" y="50" width="50" height="50" fill="#1a1a1a" />
      <text x="761" y="85" font-family="Arial, sans-serif" font-size="24" fill="#ffffff" text-anchor="middle">02</text>
    </g>
  </g>
  
  <!-- Spreads 02 & 03: Projects Showcase (Each 1632x1056) -->
  <g id="spread_02" transform="translate(0, 2112)">
    <!-- Page 04: Project Detail -->
    <g id="page_04_project_detail">
      <rect width="816" height="1056" fill="#ffffff" />
      <rect x="0" y="0" width="150" height="50" fill="#ffcc00" />
      
      <rect x="100" y="100" width="500" height="500" fill="#eeeeee" />
      <g transform="translate(620, 200)">
         <text y="0" font-family="Arial, sans-serif" font-size="24" fill="#999999" letter-spacing="4">TITLE HERE</text>
         <text y="80" font-family="Arial, sans-serif" font-size="48" font-weight="bold" fill="#ffcc00">2019</text>
      </g>
      
      <text x="100" y="750" font-family="Arial, sans-serif" font-size="80" font-weight="extrabold" fill="#1a1a1a">Project</text>
      <text x="400" y="750" font-family="Arial, sans-serif" font-size="80" font-weight="light" fill="#999999">01</text>
      
      <rect x="736" y="50" width="50" height="50" fill="#1a1a1a" stroke="#ffcc00" />
      <text x="761" y="85" font-family="Arial, sans-serif" font-size="24" fill="#ffffff" text-anchor="middle">03</text>
    </g>
    
    <!-- Page 05: Project Gallery -->
    <g id="page_05_gallery" transform="translate(816, 0)">
      <rect width="816" height="1056" fill="#ffffff" />
      <rect x="100" y="50" width="500" height="500" fill="#eeeeee" />
      <rect x="620" y="550" width="150" height="150" fill="#ffcc00" />
      
      <g transform="translate(100, 700)">
        <text y="0" font-family="Arial, sans-serif" font-size="24" font-weight="bold">TITLE HERE</text>
        <text y="80" font-family="Arial, sans-serif" font-size="48" font-weight="bold" fill="#1a1a1a">2020</text>
      </g>
      
      <rect x="786" y="0" width="30" height="100" fill="#ffcc00" />
      <rect x="736" y="50" width="50" height="50" fill="#1a1a1a" />
      <text x="761" y="85" font-family="Arial, sans-serif" font-size="24" fill="#ffffff" text-anchor="middle">04</text>
    </g>
  </g>
  
  <!-- Spread 03: Continued Projects -->
  <g id="spread_03" transform="translate(0, 3168)">
    <!-- Page 06: Project 02 -->
    <g id="page_06_project_02">
      <rect width="816" height="1056" fill="#ffffff" />
      <rect x="50" y="50" width="500" height="500" fill="#eeeeee" />
      <rect x="580" y="500" width="200" height="200" fill="#ffcc00" />
      
      <text x="50" y="700" font-family="Arial, sans-serif" font-size="80" font-weight="extrabold" fill="#1a1a1a">Project</text>
      <text x="350" y="700" font-family="Arial, sans-serif" font-size="80" font-weight="light" fill="#999999">02</text>
      <text x="50" y="800" font-family="Arial, sans-serif" font-size="48" font-weight="bold" fill="#ffcc00">2021</text>
      
      <rect x="736" y="50" width="50" height="50" fill="#1a1a1a" />
      <text x="761" y="85" font-family="Arial, sans-serif" font-size="24" fill="#ffffff" text-anchor="middle">05</text>
    </g>
    
    <!-- Page 07: Project 02 Layout 2 -->
    <g id="page_07_layout_2" transform="translate(816, 0)">
      <rect width="816" height="1056" fill="#ffffff" />
      <rect x="300" y="100" width="450" height="450" fill="#eeeeee" />
      <rect x="250" y="500" width="100" height="100" fill="#ffcc00" />
      
      <g transform="translate(50, 250)">
        <text y="0" font-family="Arial, sans-serif" font-size="24" fill="#999999">TITLE HERE</text>
        <text y="80" font-family="Arial, sans-serif" font-size="48" font-weight="bold">2020</text>
      </g>
      
      <rect x="736" y="50" width="50" height="50" fill="#1a1a1a" />
      <text x="761" y="85" font-family="Arial, sans-serif" font-size="24" fill="#ffffff" text-anchor="middle">06</text>
    </g>
  </g>
  
  <!-- Final Spread: Project 03 -->
  <g id="spread_04" transform="translate(0, 4224)">
    <g id="page_08_project_03">
      <rect width="816" height="1056" fill="#ffffff" />
      <text x="50" y="100" font-family="Arial, sans-serif" font-size="80" font-weight="extrabold" fill="#1a1a1a">Project</text>
      <text x="350" y="100" font-family="Arial, sans-serif" font-size="80" font-weight="light" fill="#999999">03</text>
      
      <rect x="50" y="200" width="500" height="500" fill="#eeeeee" />
      <rect x="580" y="200" width="200" height="350" fill="#dddddd" />
      <rect x="350" y="750" width="250" height="100" fill="#ffcc00" />
      
      <text x="50" y="850" font-family="Arial, sans-serif" font-size="48" font-weight="bold" fill="#ffcc00">2020</text>
      
      <rect x="736" y="50" width="50" height="50" fill="#1a1a1a" />
      <text x="761" y="85" font-family="Arial, sans-serif" font-size="24" fill="#ffffff" text-anchor="middle">07</text>
    </g>
    
    <g id="page_09_last" transform="translate(816, 0)">
      <rect width="816" height="1056" fill="#ffffff" />
      <rect x="0" y="0" width="80" height="80" fill="#ffcc00" />
      <rect x="100" y="100" width="616" height="500" fill="#eeeeee" />
      <rect x="716" y="600" width="100" height="100" fill="#ffcc00" />
      <rect x="680" y="700" width="50" height="50" fill="#ffcc00" opacity="0.5" />
      
      <g transform="translate(100, 700)">
        <text y="0" font-family="Arial, sans-serif" font-size="24" fill="#999999">TITLE HERE</text>
        <text y="80" font-family="Arial, sans-serif" font-size="48" font-weight="bold">2021</text>
      </g>
      
      <rect x="736" y="50" width="50" height="50" fill="#1a1a1a" />
      <text x="761" y="85" font-family="Arial, sans-serif" font-size="24" fill="#ffffff" text-anchor="middle">08</text>
    </g>
  </g>
</svg>
