<svg xmlns="http://www.w3.org/2000/svg"
     xmlns:sodipodi="http://sodipodi.sourceforge.net/DTD/sodipodi-0.dtd"
     xmlns:inkscape="http://www.inkscape.org/namespaces/inkscape"
     viewBox="0 0 18080 1080" width="18080" height="1080" version="1.1" id="svg_presentation">
  
  <!-- Configuración de Múltiples Páginas nativas en Inkscape 1.2+ -->
  <sodipodi:namedview
     id="namedview_presentation"
     pagecolor="#ffffff"
     bordercolor="#000000"
     borderopacity="0.25"
     inkscape:showpageshadow="2"
     inkscape:pageopacity="0.0"
     inkscape:pagecheckerboard="0"
     inkscape:deskcolor="#d1d1d1"
     showgrid="false">
    <inkscape:page x="0" y="0" width="1920" height="1080" id="page1" />
    <inkscape:page x="2020" y="0" width="1920" height="1080" id="page2" />
    <inkscape:page x="4040" y="0" width="1920" height="1080" id="page3" />
    <inkscape:page x="6060" y="0" width="1920" height="1080" id="page4" />
    <inkscape:page x="8080" y="0" width="1920" height="1080" id="page5" />
    <inkscape:page x="10100" y="0" width="1920" height="1080" id="page6" />
    <inkscape:page x="12120" y="0" width="1920" height="1080" id="page7" />
    <inkscape:page x="14140" y="0" width="1920" height="1080" id="page8" />
    <inkscape:page x="16160" y="0" width="1920" height="1080" id="page9" />
  </sodipodi:namedview>

  <defs>
    <!-- Importación de Tipografía Oficial -->
    <style type="text/css">
      @import url('https://fonts.googleapis.com/css2?family=Inter:wght@300;400;500;700;900&amp;display=swap');
      
      .text-title {
        font-family: 'Inter', -apple-system, sans-serif;
        font-weight: 900;
        fill: #141413;
        letter-spacing: -0.03em;
      }
      .text-title-outline {
        font-family: 'Inter', -apple-system, sans-serif;
        font-weight: 900;
        fill: none;
        stroke: #141413;
        stroke-width: 2;
        letter-spacing: -0.02em;
      }
      .text-section-title {
        font-family: 'Inter', -apple-system, sans-serif;
        font-weight: 700;
        fill: #141413;
        letter-spacing: -0.01em;
      }
      .text-body-bold {
        font-family: 'Inter', -apple-system, sans-serif;
        font-weight: 700;
        fill: #141413;
      }
      .text-body-regular {
        font-family: 'Inter', -apple-system, sans-serif;
        font-weight: 400;
        fill: #666666;
      }
      .text-year {
        font-family: 'Inter', -apple-system, sans-serif;
        font-weight: 900;
        fill: #0088AA;
      }
    </style>

    <!-- Definición del LOGO REAL DE MARIO MOJICA (Extraído y encapsulado) -->
    <!-- viewBox mapeado de la firma original del logo en mm a una escala vectorial limpia -->
    <g id="real-logo-mm" transform="scale(3.2)">
      <!-- paths correspondientes al logotipo real de Logo_MM_en.svg -->
      <g transform="translate(-215, -45)">
        <!-- "FORM & FUTURE" sub-texto -->
        <text
            xml:space="preserve"
            style="font-style:normal;font-variant:normal;font-weight:normal;font-stretch:normal;font-size:5.28113px;font-family:Prompt;-inkscape-font-specification:Prompt;letter-spacing:9.37667px;fill:#0088aa;fill-opacity:1;stroke:none;stroke-width:0.563222"
            x="202"
            y="80.7"
            transform="scale(1.1014796,0.90786973)">FORM &amp; FUTURE</text>
        <!-- 'M' Izquierda (Teal) -->
        <path
            d="m 287.80493,41.495547 c 0,-13.433397 0,-26.866745 0,-40.3001032 6.47766,13.4333582 12.95533,26.8667062 19.43301,40.3001032 1.34952,0 2.69903,0 4.04854,0 6.47767,-13.433397 12.95535,-26.866745 19.43301,-40.3001032 0,13.4333582 0,26.8667062 0,40.3001032 2.69903,0 5.39805,0 8.0971,0 0,-18.89321 0,-37.7864294 0,-56.67962 -2.69905,0 -5.39807,0 -8.0971,0 -7.15243,15.06763162 -14.30486,30.135254 -21.45728,45.202904 -7.15243,-15.06765 -14.30487,-30.13527238 -21.45728,-45.202904 -2.69903,0 -5.39806,0 -8.09709,0 0,18.8931906 0,37.78641 0,56.67962 2.69903,0 5.39806,0 8.09709,0 z"
            fill="#0088aa" />
        <!-- 'M' Derecha (Teal) -->
        <path
            d="m 316.95444,41.495547 c 2.69903,0 5.39807,0 8.09709,0 0,-18.89321 0,-37.7864294 0,-56.67962 -2.69902,0 -5.39806,0 -8.09709,0 -7.15243,15.06763162 -14.30485,30.135254 -21.45727,45.202904 -7.15243,-15.06765 -14.30486,-30.13527238 -21.45729,-45.202904 -2.69903,0 -5.39807,0 -8.09709,0 0,18.8931906 0,37.78641 0,56.67962 2.69902,0 5.39806,0 8.09709,0 0,-13.433397 0,-26.866745 0,-40.3001032 6.47767,13.4333582 12.95535,26.8667062 19.43301,40.3001032 1.34952,0 2.69902,0 4.04854,0 6.47768,-13.433397 12.95534,-26.866745 19.43301,-40.3001032 0,13.4333582 0,26.8667062 0,40.3001032 z"
            fill="#0088aa" />
        <!-- Monograma 'MM' Pequeño Inferior (Teal) -->
        <path
            d="m 303.76395,49.592621 c 0,5.398063 0,10.796116 0,16.194169 0.75681,0 1.51362,0 2.27043,0 0,-3.838091 0,-7.676192 0,-11.514303 1.76075,3.838111 3.52148,7.676212 5.28222,11.514303 0.38613,0 0.77225,0 1.15839,0 1.75301,-3.838091 3.50603,-7.676192 5.25904,-11.514303 0,3.838111 0,7.676212 0,11.514303 0.76453,0 1.52906,0 2.2936,0 0,-5.398053 0,-10.796106 0,-16.194169 -0.7877,0 -1.5754,0 -2.36311,0 -1.92291,4.208797 -3.84581,8.417575 -5.76872,12.626371 -1.92292,-4.208796 -3.84582,-8.417574 -5.76876,-12.626371 -0.7877,0 -1.57538,0 -2.36309,0 z"
            fill="#0088aa" />
        <!-- Letra 'O' de MARIO -->
        <path
            d="m 331.10176,66.13432 c 1.60628,0 3.05813,-0.351384 4.35551,-1.054143 1.29739,-0.70274 2.31677,-1.695085 3.05813,-2.977034 0.74136,-1.28194 1.11206,-2.749209 1.11206,-4.401854 0,-1.652626 -0.3707,-3.119895 -1.11206,-4.401854 -0.74136,-1.281949 -1.76074,-2.278158 -3.05813,-2.988626 -1.29738,-0.710478 -2.74923,-1.065688 -4.35551,-1.065688 -1.60629,0 -3.05813,0.35521 -4.35552,1.065688 -1.29739,0.710468 -2.31676,1.706677 -3.05814,2.988626 -0.74136,1.281959 -1.11204,2.749228 -1.11204,4.401854 0,1.652645 0.37068,3.119914 1.11204,4.401854 0.74138,1.281949 1.76075,2.274294 3.05814,2.977034 1.29739,0.702759 2.74923,1.054143 4.35552,1.054143 z m 0,-2.131443 c -1.14295,0 -2.18162,-0.258691 -3.11605,-0.776093 -0.93444,-0.517392 -1.67193,-1.251064 -2.21251,-2.200931 -0.54057,-0.949887 -0.81087,-2.058062 -0.81087,-3.324564 0,-1.251055 0.27415,-2.355385 0.82245,-3.312981 0.54829,-0.957576 1.28968,-1.69123 2.22409,-2.200912 0.93444,-0.509664 1.98084,-0.764519 3.13921,-0.764519 1.14295,0 2.17777,0.258681 3.10449,0.776121 0.92669,0.517402 1.65648,1.251036 2.18931,2.200903 0.53286,0.949867 0.7993,2.050333 0.7993,3.301388 0,1.266502 -0.27029,2.374677 -0.81087,3.324564 -0.54057,0.949867 -1.27807,1.683539 -2.21251,2.200931 -0.93442,0.517402 -1.9731,0.776093 -3.11605,0.776093 z"
            fill="#0088aa" />
        <!-- Letra 'J' de MOJICA -->
        <path
            d="m 343.70496,66.13432 c 1.29738,0 2.32447,-0.37455 3.08129,-1.123642 0.75681,-0.749072 1.13521,-1.787777 1.13521,-3.11604 0,-4.100656 0,-8.201351 0,-12.302017 -0.78769,0 -1.5754,0 -2.36309,0 0,4.046606 0,8.09324 0,12.139836 0,1.544504 -0.79544,2.316752 -2.38628,2.316752 -0.32436,0 -0.66798,-0.03088 -1.03095,-0.09263 -0.36295,-0.06175 -0.66028,-0.139016 -0.89195,-0.23167 0,0.671854 0,1.343709 0,2.015574 0.24711,0.108111 0.61008,0.200785 1.08885,0.278022 0.47882,0.07719 0.93445,0.11584 1.36692,0.11584 z"
            fill="#0088aa" />
        <!-- Letra 'I' de MOJICA -->
        <path
            d="m 350.81743,49.592621 c 0,5.398063 0,10.796116 0,16.194169 0.79541,0 1.5908,0 2.38623,0 0,-5.398053 0,-10.796106 0,-16.194169 -0.79543,0 -1.59082,0 -2.38623,0 z"
            fill="#0088aa" />
        <!-- Letra 'C' de MOJICA -->
        <path
            d="m 364.32414,66.13432 c 2.47121,0 4.40186,-0.5792 5.79192,-1.737581 0,-0.764529 0,-1.529068 0,-2.293596 -0.77226,0.664136 -1.61015,1.146798 -2.51371,1.447986 -0.90351,0.301187 -1.92678,0.451748 -3.0697,0.451748 -1.23559,0 -2.33606,-0.254837 -3.3014,-0.764539 -0.96531,-0.509682 -1.72212,-1.243297 -2.27041,-2.200893 -0.5483,-0.957605 -0.82247,-2.069654 -0.82247,-3.336156 0,-1.266502 0.27416,-2.374658 0.81088,-3.324545 0.54057,-0.949876 1.29354,-1.679666 2.25885,-2.189348 0.9653,-0.509664 2.07349,-0.764519 3.32455,-0.764519 2.23954,0 4.03117,0.594609 5.37489,1.783884 0,-0.7568 0,-1.513591 0,-2.27042 -1.49818,-1.127496 -3.3593,-1.69122 -5.5834,-1.69122 -1.66808,0 -3.15078,0.3475 -4.44818,1.042541 -1.2974,0.695021 -2.30905,1.683501 -3.03497,2.965441 -0.72591,1.281949 -1.08886,2.764684 -1.08886,4.448186 0,1.683501 0.36295,3.162401 1.08886,4.436612 0.72592,1.274212 1.73757,2.258838 3.03497,2.953887 1.2974,0.695002 2.7801,1.042532 4.44818,1.042532 z"
            fill="#0088aa" />
        <!-- Letra 'A' de MOJICA -->
        <path
            d="m 378.66491,49.592621 c -2.15459,5.398063 -4.3092,10.796116 -6.46377,16.194169 0.81088,0 1.62173,0 2.4326,0 0.52512,-1.343719 1.05027,-2.68741 1.57541,-4.031158 2.38627,0 4.77252,0 7.15879,0 0.54057,1.343748 1.08115,2.687439 1.62173,4.031158 0.80316,0 1.6063,0 2.40942,0 -2.15457,-5.398053 -4.30915,-10.796106 -6.46376,-16.194169 -0.75681,0 -1.51359,0 -2.27042,0 z m 4.05434,10.193769 c -1.94607,0 -3.89215,0 -5.83826,0 0.97305,-2.525286 1.94611,-5.050523 2.91913,-7.575828 0.97306,2.525305 1.94608,5.050542 2.91913,7.575828 z"
            fill="#0088aa" />
        <!-- Letra 'M' de MARIO -->
        <path
            d="m 217.36026,49.592621 c 0,5.398063 0,10.796116 0,16.194169 0.75681,0 1.51362,0 2.27043,0 0,-3.838091 0,-7.676192 0,-11.514303 1.76074,3.838111 3.52148,7.676212 5.28222,11.514303 0.38613,0 0.77226,0 1.15838,0 1.75302,-3.838091 3.50604,-7.676192 5.25906,-11.514303 0,3.838111 0,7.676212 0,11.514303 0.76453,0 1.52907,0 2.2936,0 0,-5.398053 0,-10.796106 0,-16.194169 -0.78771,0 -1.5754,0 -2.36311,0 -1.92291,4.208797 -3.84582,8.417575 -5.76874,12.626371 -1.92292,-4.208796 -3.84583,-8.417574 -5.76875,-12.626371 -0.7877,0 -1.57539,0 -2.36309,0 z"
            fill="#0088aa" />
        <!-- Letra 'A' de MARIO -->
        <path
            d="m 242.63615,49.592621 c -2.15459,5.398063 -4.30918,10.796116 -6.46377,16.194169 0.81087,0 1.62173,0 2.4326,0 0.52513,-1.343719 1.05026,-2.68741 1.5754,0.031158 2.38627,0 4.77253,0 7.1588,0 0.54058,1.343748 1.08116,2.687439 1.62173,4.031158 0.80315,0 1.6063,0 2.40944,0 -2.15459,-5.398053 -4.30918,-10.796106 -6.46377,-16.194169 -0.75681,0 -1.51362,0 -2.27043,0 z m 4.05433,10.193769 c -1.94607,0 -3.89216,0 -5.83823,0 0.97303,-2.525286 1.94607,-5.050523 2.91911,-7.575828 0.97305,2.525305 1.94609,5.050542 2.91912,7.575828 z"
            fill="#0088aa" />
        <!-- Letra 'R' de MARIO -->
        <path
            d="m 260.42889,49.592621 c -2.17004,0 -4.34006,0 -6.5101,0 0,5.398063 0,10.796116 0,16.194169 0.7877,0 1.5754,0 2.3631,0 0,-2.131414 0,-4.262819 0,-6.394243 1.18154,0 2.3631,0 3.54464,0 1.15068,2.131424 2.30132,4.262829 3.45198,6.394243 0.81859,0 1.63718,0 2.45578,0 -1.18928,-2.193203 -2.37856,-4.386387 -3.56783,-6.5796 1.1584,-0.293459 2.05421,-0.853348 2.68746,-1.679666 0.63324,-0.826299 0.94986,-1.834071 0.94986,-3.023366 0,-1.606304 -0.46334,-2.826426 -1.39005,-3.660472 -0.9267,-0.834037 -2.25498,-1.251065 -3.98484,-1.251065 z m -0.39385,7.807499 c -1.25104,0 -2.50211,0 -3.75315,0 0,-1.938357 0,-3.876724 0,-5.815062 1.25104,0 2.50211,0 3.75315,0 1.06571,0 1.8959,0.223933 2.49053,0.671846 0.59463,0.447903 0.89195,1.196994 0.89195,2.247254 0,0.957605 -0.30504,1.679666 -0.91512,2.166182 -0.61008,0.486507 -1.43253,0.72978 -2.46736,0.72978 z"
            fill="#0088aa" />
        <!-- Letra 'I' de MARIO -->
        <path
            d="m 268.35222,49.592621 c 0,5.398063 0,10.796116 0,16.194169 0.79542,0 1.59085,0 2.38627,0 0,-5.398053 0,-10.796106 0,-16.194169 -0.79542,0 -1.59085,0 -2.38627,0 z"
            fill="#0088aa" />
        <!-- Letra 'O' de MARIO -->
        <path
            d="m 281.81262,66.13432 c 1.60629,0 3.05813,-0.351384 4.35551,-1.054143 1.29739,-0.70274 2.31677,-1.695085 3.05814,-2.977034 0.74136,-1.28194 1.11204,-2.749209 1.11204,-4.401854 0,-1.652626 -0.37068,-3.119895 -1.11204,-4.401854 -0.74137,-1.281949 -1.76075,-2.278158 -3.05814,-2.988626 -1.29739,-0.710478 -2.74922,-1.065688 -4.35551,-1.065688 -1.60629,0 -3.05813,0.35521 -4.35551,1.065688 -1.2974,0.710468 -2.31677,1.706677 -3.05814,2.988626 -0.74136,1.281959 -1.11204,2.749228 -1.11204,4.401854 0,1.652645 0.37068,3.119914 1.11204,4.401854 0.74137,1.281949 1.76074,2.274294 3.05814,2.977034 1.29738,0.702759 2.74922,1.054143 4.35551,1.054143 z m 0,-2.131443 c -1.14293,0 -2.18161,-0.258691 -3.11605,-0.776093 -0.93442,-0.517392 -1.67193,-1.251064 -2.2125,-2.200931 -0.54058,-0.949887 -0.81088,-2.058062 -0.81088,-3.324564 0,-1.251055 0.27416,-2.355385 0.82247,-3.312981 0.54828,-0.957576 1.28965,-1.69123 2.22408,-2.200912 0.93444,-0.509664 1.98083,-0.764519 3.13921,-0.764519 1.14296,0 2.17777,0.258681 3.10446,0.776121 0.92672,0.517402 1.65648,1.251036 2.18935,2.200903 0.53286,0.949867 0.79929,2.050333 0.79929,3.301388 0,1.266502 -0.27029,2.374677 -0.81087,3.324564 -0.54058,0.949867 -1.27808,1.683539 -2.21253,2.200931 -0.93441,0.517402 -1.9731,0.776093 -3.11603,0.776093 z"
            fill="#0088aa" />
      </g>
    </g>
  </defs>

  <!-- ==================== DIAPOSITIVA 1: PORTADA (x: 0, y: 0) ==================== -->
  <g id="slide1" transform="translate(0, 0)">
    <!-- Fondo -->
    <rect width="1920" height="1080" fill="#FAF9F5" />
    
    <!-- Bloque de acento Teal -->
    <rect x="180" y="140" width="380" height="420" fill="#0088AA" />
    
    <!-- Escuadra de Enfoque -->
    <path d="M 140 200 L 140 100 L 240 100" stroke="#141413" stroke-width="4" fill="none" stroke-linecap="square" />
    
    <!-- Acento inferior derecho y cuadrado de firma -->
    <rect x="1740" y="960" width="180" height="40" fill="#0088AA" />
    <rect x="180" y="960" width="40" height="40" fill="#141413" />
    <rect x="740" y="650" width="100" height="18" fill="#141413" />

    <!-- Uso del LOGO REAL MM (escalado y posicionado) -->
    <use href="#real-logo-mm" x="1260" y="140" />
    
    <!-- Datos de contacto corporativos reales -->
    <g transform="translate(1260, 320)">
      <text x="0" y="0" class="text-body-regular" font-size="16">contacto@mariomojica.com</text>
      <text x="0" y="25" class="text-body-regular" font-size="16">www.mariomojica.com</text>
      <text x="0" y="50" class="text-body-regular" font-size="16">Bogotá, Colombia</text>
    </g>

    <!-- Título Principal -->
    <g transform="translate(180, 670)">
      <text x="0" y="0" class="text-title" font-size="130">PORTAFOLIO</text>
      <line x1="0" y1="35" x2="680" y2="35" stroke="#141413" stroke-width="5" />
    </g>

    <!-- Placeholder de Imagen horizontal -->
    <g transform="translate(600, 670)">
      <rect width="1140" height="330" fill="#E2E2EB" />
      <line x1="0" y1="0" x2="1140" y2="330" stroke="#FAF9F5" stroke-width="2" opacity="0.4" />
      <line x1="0" y1="330" x2="1140" y2="0" stroke="#FAF9F5" stroke-width="2" opacity="0.4" />
      <text x="570" y="165" class="text-body-bold" font-size="20" fill="#666666" text-anchor="middle" letter-spacing="0.05em">PLACEHOLDER DE IMAGEN PORTADA (1140 x 330)</text>
      <text x="570" y="195" class="text-body-regular" font-size="14" text-anchor="middle">Folleto Técnico RTA &amp; Gemelo Digital</text>
    </g>
  </g>

  <!-- ==================== DIAPOSITIVA 2: ABOUT ME (x: 2020, y: 0) ==================== -->
  <g id="slide2" transform="translate(2020, 0)">
    <rect width="1920" height="1080" fill="#FAF9F5" />
    
    <!-- Indicador de página 01 -->
    <rect x="1680" y="100" width="60" height="60" fill="#141413" />
    <text x="1710" y="138" class="text-body-bold" font-size="24" fill="#FFFFFF" text-anchor="middle">01</text>
    
    <!-- Fondo de texto inferior -->
    <rect x="180" y="860" width="800" height="100" fill="#0088AA" opacity="0.15" />
    <!-- Acento inferior izquierdo -->
    <rect x="180" y="960" width="120" height="15" fill="#0088AA" />

    <!-- Placeholder foto de James (vertical) -->
    <g transform="translate(180, 140)">
      <rect width="500" height="700" fill="#E2E2EB" />
      <line x1="0" y1="0" x2="500" y2="700" stroke="#FAF9F5" stroke-width="2" opacity="0.4" />
      <line x1="0" y1="700" x2="500" y2="0" stroke="#FAF9F5" stroke-width="2" opacity="0.4" />
      <text x="250" y="350" class="text-body-bold" font-size="20" fill="#666666" text-anchor="middle">FOTO VERTICAL MM (500 x 700)</text>
      <!-- Escuadra de enfoque -->
      <path d="M 460 40 L 460 0 L 420 0" stroke="#141413" stroke-width="4" fill="none" transform="translate(0, 0)" />
    </g>

    <!-- Textos -->
    <g transform="translate(740, 220)">
      <text x="0" y="0" class="text-section-title" font-size="44">About Me</text>
      <text x="0" y="60" class="text-title" font-size="54">Hello, I'm Mario</text>
      <text x="0" y="120" class="text-body-regular" font-size="22" width="900">
        Diseñador paramétrico y programador B2B. Automatizo flujos 3D e Industry 4.0.
      </text>
      
      <!-- Redes e información -->
      <g transform="translate(0, 220)">
        <circle cx="20" cy="-8" r="12" fill="#0088AA" />
        <text x="50" y="0" class="text-body-bold" font-size="20">LinkedIn</text>
        <text x="220" y="0" class="text-body-regular" font-size="18">/in/mariomojica</text>

        <circle cx="20" cy="42" r="12" fill="#0088AA" />
        <text x="50" y="50" class="text-body-bold" font-size="20">Github</text>
        <text x="220" y="50" class="text-body-regular" font-size="18">github.com/mariomojicastyle</text>
      </g>
    </g>
  </g>

  <!-- ==================== DIAPOSITIVA 3: TABLE OF CONTENT (x: 4040, y: 0) ==================== -->
  <g id="slide3" transform="translate(4040, 0)">
    <rect width="1920" height="1080" fill="#FAF9F5" />
    
    <rect x="1680" y="100" width="60" height="60" fill="#141413" />
    <text x="1710" y="138" class="text-body-bold" font-size="24" fill="#FFFFFF" text-anchor="middle">02</text>
    
    <!-- Pestañas del borde derecho -->
    <rect x="1900" y="240" width="20" height="120" fill="#0088AA" />
    <rect x="1900" y="400" width="20" height="120" fill="#0088AA" />
    <rect x="1900" y="560" width="20" height="120" fill="#0088AA" />

    <text x="180" y="200" class="text-title" font-size="64">Table of Content</text>

    <!-- Lista de secciones del índice -->
    <g transform="translate(180, 320)">
      <!-- Item 1 -->
      <g transform="translate(0, 0)">
        <text x="0" y="30" class="text-section-title" font-size="36">Project 01: Visualización &amp; WebAR</text>
        <text x="0" y="70" class="text-body-regular" font-size="20">Renders 4K interactivos y calibración en la nube para tiendas virtuales.</text>
        <text x="1200" y="30" class="text-year" font-size="36">03</text>
        <line x1="0" y1="120" x2="1300" y2="120" stroke="#E2E2EB" stroke-width="2" />
      </g>
      
      <!-- Item 2 -->
      <g transform="translate(0, 180)">
        <text x="0" y="30" class="text-section-title" font-size="36">Project 02: Automatización CNC &amp; Despiece</text>
        <text x="0" y="70" class="text-body-regular" font-size="20">Algoritmo espacial en Grasshopper para la generación instantánea de planos.</text>
        <text x="1200" y="30" class="text-year" font-size="36">05</text>
        <line x1="0" y1="120" x2="1300" y2="120" stroke="#E2E2EB" stroke-width="2" />
      </g>

      <!-- Item 3 -->
      <g transform="translate(0, 360)">
        <text x="0" y="30" class="text-section-title" font-size="36">Project 03: Manuales de Armado 3D (CMS)</text>
        <text x="0" y="70" class="text-body-regular" font-size="20">Visores web embebibles interactivos con locución por voz sintética y telemetría.</text>
        <text x="1200" y="30" class="text-year" font-size="36">07</text>
        <line x1="0" y1="120" x2="1300" y2="120" stroke="#E2E2EB" stroke-width="2" />
      </g>
    </g>
  </g>

  <!-- ==================== DIAPOSITIVA 4: PROJECT 01 INTRO (x: 6060, y: 0) ==================== -->
  <g id="slide4" transform="translate(6060, 0)">
    <rect width="1920" height="1080" fill="#FAF9F5" />
    
    <rect x="1680" y="100" width="60" height="60" fill="#141413" />
    <text x="1710" y="138" class="text-body-bold" font-size="24" fill="#FFFFFF" text-anchor="middle">03</text>
    
    <!-- Rectángulo horizontal decorativo superior -->
    <rect x="180" y="80" width="300" height="20" fill="#0088AA" />

    <!-- Foto vertical izquierda -->
    <g transform="translate(180, 180)">
      <rect width="450" height="600" fill="#E2E2EB" />
      <line x1="0" y1="0" x2="450" y2="600" stroke="#FAF9F5" stroke-width="2" opacity="0.4" />
      <line x1="0" y1="600" x2="450" y2="0" stroke="#FAF9F5" stroke-width="2" opacity="0.4" />
      <text x="225" y="300" class="text-body-bold" font-size="18" fill="#666666" text-anchor="middle">MODELO 3D (450 x 600)</text>
      <!-- Año abajo -->
      <text x="0" y="660" class="text-year" font-size="54">2026</text>
    </g>

    <!-- Título principal centrado -->
    <g transform="translate(720, 450)">
      <text x="0" y="0" class="text-title" font-size="110">Project 01</text>
      <text x="10" y="60" class="text-body-bold" font-size="24" fill="#666666" letter-spacing="0.05em">VISUALIZACIÓN DE PRODUCTO</text>
      
      <!-- Mira decorativa -->
      <path d="M -50 -100 L -50 -50 L 0 -50" stroke="#141413" stroke-width="3" fill="none" />
      <path d="M 150 -100 L 150 -50 L 100 -50" stroke="#141413" stroke-width="3" fill="none" />
    </g>

    <!-- Foto horizontal inferior derecha -->
    <g transform="translate(1180, 680)">
      <rect width="560" height="260" fill="#E2E2EB" />
      <line x1="0" y1="0" x2="560" y2="260" stroke="#FAF9F5" stroke-width="2" opacity="0.4" />
      <text x="280" y="140" class="text-body-bold" font-size="18" fill="#666666" text-anchor="middle">WEB AR PREVIEW (560 x 260)</text>
    </g>
  </g>

  <!-- ==================== DIAPOSITIVA 5: PROJECT 01 GALLERY (x: 8080, y: 0) ==================== -->
  <g id="slide5" transform="translate(8080, 0)">
    <rect width="1920" height="1080" fill="#FAF9F5" />
    
    <rect x="1680" y="100" width="60" height="60" fill="#141413" />
    <text x="1710" y="138" class="text-body-bold" font-size="24" fill="#FFFFFF" text-anchor="middle">04</text>

    <!-- Pestañas de borde decorativas -->
    <rect x="180" y="440" width="15" height="200" fill="#0088AA" />
    <rect x="1740" y="960" width="180" height="40" fill="#0088AA" />

    <!-- Textos en el lateral izquierdo -->
    <g transform="translate(260, 240)">
      <text x="0" y="0" class="text-title" font-size="72">Renders 4K</text>
      <text x="0" y="50" class="text-year" font-size="36">AÑO 2026</text>
      
      <text x="0" y="140" class="text-body-bold" font-size="24">Estantería Multifuncional</text>
      <text x="0" y="180" class="text-body-regular" font-size="18" fill="#666666">
        Modelado paramétrico con variantes de textura de madera real, fondas y herrajes metálicos.
      </text>
    </g>

    <!-- Gran placeholder de imagen vertical derecho -->
    <g transform="translate(820, 180)">
      <rect width="900" height="750" fill="#E2E2EB" />
      <line x1="0" y1="0" x2="900" y2="750" stroke="#FAF9F5" stroke-width="2" opacity="0.4" />
      <line x1="0" y1="750" x2="900" y2="0" stroke="#FAF9F5" stroke-width="2" opacity="0.4" />
      <text x="450" y="380" class="text-body-bold" font-size="24" fill="#666666" text-anchor="middle">GALERÍA RENDERS (900 x 750)</text>
    </g>
  </g>

  <!-- ==================== DIAPOSITIVA 6: PROJECT 02 INTRO (x: 10100, y: 0) ==================== -->
  <g id="slide6" transform="translate(10100, 0)">
    <rect width="1920" height="1080" fill="#FAF9F5" />
    
    <!-- Indicador de página 01 (De la sección) -->
    <rect x="180" y="100" width="60" height="60" fill="#0088AA" />
    <text x="210" y="138" class="text-body-bold" font-size="24" fill="#FFFFFF" text-anchor="middle">01</text>

    <!-- Placeholder horizontal central superior -->
    <g transform="translate(360, 140)">
      <rect width="1200" height="500" fill="#E2E2EB" />
      <line x1="0" y1="0" x2="1200" y2="500" stroke="#FAF9F5" stroke-width="2" opacity="0.4" />
      <text x="600" y="260" class="text-body-bold" font-size="24" fill="#666666" text-anchor="middle">PLANO CNC / DESPIECE PARAMÉTRICO (1200 x 500)</text>
      <path d="M 40 40 L 40 0 L 80 0" stroke="#141413" stroke-width="4" fill="none" />
    </g>

    <!-- Título inferior izquierdo -->
    <g transform="translate(360, 780)">
      <text x="0" y="0" class="text-title-outline" font-size="100">Project 02</text>
      <text x="5" y="45" class="text-body-bold" font-size="20">AUTOMATIZACIÓN DE FÁBRICA</text>
      <text x="5" y="80" class="text-body-regular" font-size="18">Exportación de archivos listos para maquinaria tipo Biesse y seccionadoras CNC.</text>
    </g>

    <!-- Bloque inferior derecho con dirección -->
    <g transform="translate(1460, 780)">
      <rect width="100" height="100" fill="#0088AA" />
      <path d="M 1480 840 L 1510 810 L 1540 840" stroke="#FFFFFF" stroke-width="4" fill="none" transform="translate(-1460, -780)" />
      <text x="0" y="130" class="text-body-bold" font-size="16" fill="#141413">PLANTILLA 02</text>
    </g>
  </g>

  <!-- ==================== DIAPOSITIVA 7: PROJECT 02 DETAILS (x: 12120, y: 0) ==================== -->
  <g id="slide7" transform="translate(12120, 0)">
    <rect width="1920" height="1080" fill="#FAF9F5" />
    
    <rect x="1680" y="100" width="60" height="60" fill="#0088AA" />
    <text x="1710" y="138" class="text-body-bold" font-size="24" fill="#FFFFFF" text-anchor="middle">02</text>

    <!-- Bloque vertical central de acento -->
    <rect x="740" y="180" width="40" height="750" fill="#0088AA" />

    <!-- Imagen vertical izquierda -->
    <g transform="translate(180, 180)">
      <rect width="500" height="750" fill="#E2E2EB" />
      <line x1="0" y1="0" x2="500" y2="750" stroke="#FAF9F5" stroke-width="2" opacity="0.4" />
      <text x="250" y="380" class="text-body-bold" font-size="22" fill="#666666" text-anchor="middle">VISTA DE CONJUNTO (500 x 750)</text>
    </g>

    <!-- Textos Fase 1 y 2 -->
    <g transform="translate(840, 220)">
      <g transform="translate(0, 0)">
        <text x="0" y="0" class="text-section-title" font-size="36">Fase 01: Grasshopper Parsing</text>
        <text x="0" y="40" class="text-year" font-size="24">AÑO 2026</text>
        <text x="0" y="80" class="text-body-regular" font-size="18">Algoritmos para calcular coordenadas y hornear animaciones 3D procedimentales.</text>
      </g>
      
      <g transform="translate(0, 260)">
        <text x="0" y="0" class="text-section-title" font-size="36">Fase 02: Nesting &amp; Planos</text>
        <text x="0" y="40" class="text-year" font-size="24">AÑO 2027</text>
        <text x="0" y="80" class="text-body-regular" font-size="18">Cubicaje de empaques óptimos en cartón y distribución automática sobre la lámina.</text>
      </g>
    </g>

    <!-- Imagen pequeña inferior derecha -->
    <g transform="translate(1380, 670)">
      <rect width="360" height="260" fill="#E2E2EB" />
      <line x1="0" y1="0" x2="360" y2="260" stroke="#FAF9F5" stroke-width="2" opacity="0.4" />
      <text x="180" y="130" class="text-body-bold" font-size="16" fill="#666666" text-anchor="middle">DETALLE (360 x 260)</text>
    </g>
  </g>

  <!-- ==================== DIAPOSITIVA 8: PROJECT 03 INTRO (x: 14140, y: 0) ==================== -->
  <g id="slide8" transform="translate(14140, 0)">
    <rect width="1920" height="1080" fill="#FAF9F5" />
    
    <rect x="1680" y="100" width="60" height="60" fill="#141413" />
    <text x="1710" y="138" class="text-body-bold" font-size="24" fill="#FFFFFF" text-anchor="middle">07</text>

    <!-- Bordes horizontales Teal de encuadre -->
    <rect x="180" y="80" width="1340" height="15" fill="#0088AA" />
    <rect x="180" y="980" width="1340" height="15" fill="#0088AA" />

    <text x="180" y="200" class="text-title" font-size="64">Project 03</text>
    <text x="180" y="250" class="text-year" font-size="28">AÑO 2026 — TELEMETRÍA &amp; CMS</text>

    <!-- Imagen izquierda cuadrada -->
    <g transform="translate(180, 320)">
      <rect width="500" height="500" fill="#E2E2EB" />
      <line x1="0" y1="0" x2="500" y2="500" stroke="#FAF9F5" stroke-width="2" opacity="0.4" />
      <text x="250" y="250" class="text-body-bold" font-size="20" fill="#666666" text-anchor="middle">EXPERIENCIA MOVIL (500 x 500)</text>
    </g>

    <!-- Dos imágenes derechas horizontales -->
    <g transform="translate(740, 320)">
      <rect width="780" height="230" fill="#E2E2EB" />
      <line x1="0" y1="0" x2="780" y2="230" stroke="#FAF9F5" stroke-width="2" opacity="0.4" />
      <text x="390" y="120" class="text-body-bold" font-size="18" fill="#666666" text-anchor="middle">VISOR 3D EMBEBIDO (780 x 230)</text>
    </g>

    <g transform="translate(740, 590)">
      <rect width="780" height="230" fill="#E2E2EB" />
      <line x1="0" y1="0" x2="780" y2="230" stroke="#FAF9F5" stroke-width="2" opacity="0.4" />
      <text x="390" y="120" class="text-body-bold" font-size="18" fill="#666666" text-anchor="middle">PANEL CMS INTERFAZ (780 x 230)</text>
    </g>
  </g>

  <!-- ==================== DIAPOSITIVA 9: PROJECT 03 GALLERY (x: 16160, y: 0) ==================== -->
  <g id="slide9" transform="translate(16160, 0)">
    <rect width="1920" height="1080" fill="#FAF9F5" />
    
    <rect x="1680" y="100" width="60" height="60" fill="#141413" />
    <text x="1710" y="138" class="text-body-bold" font-size="24" fill="#FFFFFF" text-anchor="middle">08</text>

    <!-- Acento en la esquina y pestaña inferior -->
    <rect x="180" y="100" width="100" height="40" fill="#0088AA" />
    <rect x="1740" y="960" width="180" height="40" fill="#0088AA" />

    <!-- Imagen horizontal superior gigante -->
    <g transform="translate(180, 180)">
      <rect width="1500" height="550" fill="#E2E2EB" />
      <line x1="0" y1="0" x2="1500" y2="550" stroke="#FAF9F5" stroke-width="2" opacity="0.4" />
      <text x="750" y="280" class="text-body-bold" font-size="28" fill="#666666" text-anchor="middle">REPORTE ANÁLITICO / FUNNEL DE ARMADO (1500 x 550)</text>
      <path d="M 40 40 L 40 0 L 80 0" stroke="#141413" stroke-width="4" fill="none" />
    </g>

    <!-- Cierre a doble columna en la parte inferior -->
    <g transform="translate(180, 780)">
      <text x="0" y="30" class="text-section-title" font-size="28">Métricas de Fricción</text>
      <text x="0" y="70" class="text-body-regular" font-size="18" width="700">
        Monitoreo automatizado de los pasos de ensamblado para detectar problemas físicos de fabricación o de claridad instructiva en el manual.
      </text>

      <text x="800" y="30" class="text-section-title" font-size="28">Conversión B2B</text>
      <text x="800" y="70" class="text-body-regular" font-size="18" width="700">
        Disminución del 80% en reclamos telefónicos de postventa y optimización del branding del manual de armado al instante desde el CMS de Mario Mojica.
      </text>
    </g>
  </g>

</svg>
