<svg xmlns="http://www.w3.org/2000/svg"
     xmlns:sodipodi="http://sodipodi.sourceforge.net/DTD/sodipodi-0.dtd"
     xmlns:inkscape="http://www.inkscape.org/namespaces/inkscape"
     viewBox="0 0 1920 1080" width="1920" height="1080" version="1.1" id="cylindo_aesthetic_27_pages">
  
  <!-- Configuración de Múltiples Páginas nativas en Inkscape 1.2+ en cuadrícula de 9x3 -->
  <sodipodi:namedview
     id="namedview_presentation_27_cylindo"
     pagecolor="#ffffff"
     bordercolor="#000000"
     borderopacity="0.25"
     inkscape:showpageshadow="2"
     inkscape:pageopacity="0.0"
     inkscape:pagecheckerboard="0"
     inkscape:deskcolor="#d1d1d1"
     showgrid="false">
    <!-- Fila 1: Páginas 1-9 (y = 0) -->
    <inkscape:page x="0" y="0" width="1920" height="1080" id="page1" />
    <inkscape:page x="2020" y="0" width="1920" height="1080" id="page2" />
    <inkscape:page x="4040" y="0" width="1920" height="1080" id="page3" />
    <inkscape:page x="6060" y="0" width="1920" height="1080" id="page4" />
    <inkscape:page x="8080" y="0" width="1920" height="1080" id="page5" />
    <inkscape:page x="10100" y="0" width="1920" height="1080" id="page6" />
    <inkscape:page x="12120" y="0" width="1920" height="1080" id="page7" />
    <inkscape:page x="14140" y="0" width="1920" height="1080" id="page8" />
    <inkscape:page x="16160" y="0" width="1920" height="1080" id="page9" />
    <!-- Fila 2: Páginas 10-18 (y = 1200) -->
    <inkscape:page x="0" y="1200" width="1920" height="1080" id="page10" />
    <inkscape:page x="2020" y="1200" width="1920" height="1080" id="page11" />
    <inkscape:page x="4040" y="1200" width="1920" height="1080" id="page12" />
    <inkscape:page x="6060" y="1200" width="1920" height="1080" id="page13" />
    <inkscape:page x="8080" y="1200" width="1920" height="1080" id="page14" />
    <inkscape:page x="10100" y="1200" width="1920" height="1080" id="page15" />
    <inkscape:page x="12120" y="1200" width="1920" height="1080" id="page16" />
    <inkscape:page x="14140" y="1200" width="1920" height="1080" id="page17" />
    <inkscape:page x="16160" y="1200" width="1920" height="1080" id="page18" />
    <!-- Fila 3: Páginas 19-27 (y = 2400) -->
    <inkscape:page x="0" y="2400" width="1920" height="1080" id="page19" />
    <inkscape:page x="2020" y="2400" width="1920" height="1080" id="page20" />
    <inkscape:page x="4040" y="2400" width="1920" height="1080" id="page21" />
    <inkscape:page x="6060" y="2400" width="1920" height="1080" id="page22" />
    <inkscape:page x="8080" y="2400" width="1920" height="1080" id="page23" />
    <inkscape:page x="10100" y="2400" width="1920" height="1080" id="page24" />
    <inkscape:page x="12120" y="2400" width="1920" height="1080" id="page25" />
    <inkscape:page x="14140" y="2400" width="1920" height="1080" id="page26" />
    <inkscape:page x="16160" y="2400" width="1920" height="1080" id="page27" />
  </sodipodi:namedview>

  <defs>
    <!-- Importación de la tipografía Prompt (Google Fonts) -->
    <style type="text/css">
      @import url('https://fonts.googleapis.com/css2?family=Prompt:wght@300;400;500;700;900&amp;display=swap');
      
      /* Estilos para textos generales (Usando tipografía Prompt con Colores Tech Ethos) */
      .text-cylindo-title {
        font-family: 'Prompt', sans-serif;
        font-weight: 900;
        fill: #141413; /* Near Black */
        letter-spacing: -0.01em;
      }
      .text-cylindo-title-white {
        font-family: 'Prompt', sans-serif;
        font-weight: 900;
        fill: #ffffff;
        letter-spacing: -0.01em;
      }
      .text-cylindo-subtitle {
        font-family: 'Prompt', sans-serif;
        font-weight: 500;
        fill: #0088AA; /* Teal Oficial MM */
        letter-spacing: 0.05em;
      }
      .text-cylindo-subtitle-light {
        font-family: 'Prompt', sans-serif;
        font-weight: 400;
        fill: #ffffff;
        opacity: 0.8;
        letter-spacing: 0.05em;
      }
      .text-cylindo-body-bold {
        font-family: 'Prompt', sans-serif;
        font-weight: 700;
        fill: #141413; /* Near Black */
      }
      .text-cylindo-body-bold-white {
        font-family: 'Prompt', sans-serif;
        font-weight: 700;
        fill: #ffffff;
      }
      .text-cylindo-body-regular {
        font-family: 'Prompt', sans-serif;
        font-weight: 300;
        fill: #666666; /* Text Secondary */
        line-height: 1.6;
      }
      .text-cylindo-body-regular-white {
        font-family: 'Prompt', sans-serif;
        font-weight: 300;
        fill: #ffffff;
        opacity: 0.9;
        line-height: 1.6;
      }
      .text-cylindo-header-footer {
        font-family: 'Prompt', sans-serif;
        font-weight: 400;
        font-size: 14px;
        fill: #666666;
        opacity: 0.7;
      }
      
      .table-header {
        fill: #0088AA; /* Teal Oficial */
      }
      .table-row-even {
        fill: #ffffff;
      }
      .table-row-odd {
        fill: #F4F5F7; /* Surface Tech Ethos */
      }
    </style>

    <!-- LOGO OSCURO ENCAPSULADO (viewBox exacto para evitar deformaciones) -->
    <svg id="logo-mm-dark" viewBox="0 0 52.916665 8.3121501" width="52.916665" height="8.3121501">
      <g id="layer1_dark">
        <g id="g3_dark" transform="matrix(0.3524096,0,0,0.3524096,-160.67639,-64.616449)">
          <path d="m 575.68787,201.16718 c 0,0.81285 0,1.62571 0,2.43857 0.13689,0 0.27378,0 0.41072,0 0,-0.81286 0,-1.62572 0,-2.43857 0.28841,0 0.57683,0 0.8653,0 0,-0.11404 0,-0.22808 0,-0.34212 -0.71377,0 -1.42755,0 -2.14128,0 0,0.11404 0,0.22808 0,0.34212 0.28842,0 0.57684,0 0.86526,0 z" fill="#141413" />
          <path d="m 533.57276,198.28307 c 1.10325,0 2.1004,-0.24135 2.99147,-0.72402 0.89113,-0.48267 1.59127,-1.16425 2.10049,-2.04472 0.50916,-0.8805 0.76377,-1.88828 0.76377,-3.02336 0,-1.13506 -0.25461,-2.14286 -0.76377,-3.02334 -0.50922,-0.88047 -1.20936,-1.56471 -2.10049,-2.05268 -0.89107,-0.48798 -1.88822,-0.73197 -2.99147,-0.73197 -1.10325,0 -2.10044,0.24399 -2.99157,0.73197 -0.89103,0.48797 -1.59122,1.17221 -2.10039,2.05268 -0.50922,0.88048 -0.76381,1.88828 -0.76381,3.02334 0,1.13508 0.25459,2.14286 0.76381,3.02336 0.50917,0.88047 1.20936,1.56205 2.10039,2.04472 0.89113,0.48267 1.88832,0.72402 2.99157,0.72402 z m 0,-1.46394 c -0.78502,0 -1.49846,-0.17769 -2.14023,-0.53307 -0.64177,-0.35538 -1.14833,-0.85925 -1.51959,-1.51166 -0.37132,-0.6524 -0.55696,-1.41355 -0.55696,-2.28343 0,-0.85926 0.18829,-1.61775 0.5649,-2.27545 0.37657,-0.65771 0.88578,-1.1616 1.52755,-1.51168 0.64182,-0.35006 1.36051,-0.5251 2.15617,-0.5251 0.78496,0 1.49576,0.17768 2.13222,0.53305 0.63648,0.35538 1.13769,0.85927 1.50372,1.51167 0.36596,0.65241 0.54895,1.40825 0.54895,2.26751 0,0.86988 -0.18563,1.63103 -0.5569,2.28343 -0.37127,0.65241 -0.87784,1.15628 -1.51965,1.51166 -0.64177,0.35538 -1.35521,0.53307 -2.14018,0.53307 z" fill="#141413" />
          <path d="m 585.76596,203.60575 c 0.37748,0 0.66325,-0.0981 0.85732,-0.29439 0.19406,-0.19625 0.29107,-0.46412 0.29107,-0.80357 0,-0.56091 0,-1.12183 0,-1.68273 -0.13554,0 -0.27113,0 -0.40672,0 0,0.56621 0,1.13243 0,1.69864 0,0.23602 -0.0665,0.41438 -0.1994,0.53505 -0.1329,0.12067 -0.31366,0.181 -0.54227,0.181 -0.23129,0 -0.41341,-0.0604 -0.5463,-0.181 -0.13294,-0.12067 -0.19935,-0.29903 -0.19935,-0.53505 0,-0.56621 0,-1.13243 0,-1.69864 -0.1356,0 -0.27119,0 -0.40677,0 0,0.5609 0,1.12182 0,1.68273 0,0.3421 0.0971,0.61063 0.29111,0.80556 0.19407,0.19493 0.48114,0.2924 0.86131,0.2924 z" fill="#141413" />
          <path d="m 489.30465,200.82506 c 0,0.9269 0,1.85378 0,2.78069 0.13557,0 0.27115,0 0.40673,0 0,-0.40976 0,-0.8195 0,-1.22925 0.35621,0 0.71243,0 1.06865,0 0,-0.10739 0,-0.21481 0,-0.32222 -0.35622,0 -0.71244,0 -1.06865,0 0,-0.2957 0,-0.59141 0,-0.8871 0.47718,0 0.95435,0 1.43153,0 0,-0.11404 0,-0.22808 0,-0.34212 -0.61276,0 -1.22551,0 -1.83826,0 z" fill="#141413" />
          <path d="m 476.95842,206.94256 c 1.11229,0 2.22455,0 3.33682,0 0,-7.78591 0,-15.57181 0,-23.35772 -1.11227,0 -2.22453,0 -3.33682,0 -2.94751,6.20939 -5.89504,12.41876 -8.84257,18.62815 -2.94751,-6.20939 -5.89503,-12.41876 -8.84255,-18.62815 -1.11228,0 -2.22455,0 -3.33682,0 0,7.78591 0,15.57181 0,23.35772 1.11227,0 2.22454,0 3.33682,0 0,-5.5359 0,-11.07181 0,-16.6077 2.66945,5.53589 5.3389,11.0718 8.00835,16.6077 0.55614,0 1.11228,0 1.66841,0 2.66947,-5.5359 5.33891,-11.07181 8.00836,-16.6077 0,5.53589 0,11.0718 0,16.6077 z" fill="#0088aa" />
          <path d="m 482.71986,206.71397 c 1.11229,0 2.22455,0 3.33682,0 0,-7.78591 0,-15.57181 0,-23.35772 -1.11227,0 -2.22453,0 -3.33682,0 -2.94751,6.20939 -5.89504,12.41876 -8.84257,18.62815 -2.94751,-6.20939 -5.89503,-12.41876 -8.84255,-18.62815 -1.11228,0 -2.22455,0 -3.33682,0 0,7.78591 0,15.57181 0,23.35772 1.11227,0 2.22454,0 3.33682,0 0,-5.5359 0,-11.07181 0,-16.6077 2.66945,5.53589 5.3389,11.0718 8.00835,16.6077 0.55614,0 1.11228,0 1.66841,0 2.66947,-5.5359 5.33891,-11.07181 8.00836,-16.6077 0,5.53589 0,11.0718 0,16.6077 z" fill="#0088aa" />
          <path d="m 566.02448,203.60575 c 0.37748,0 0.66331,-0.0981 0.85732,-0.29439 0.19406,-0.19625 0.29112,-0.46412 0.29112,-0.80357 0,-0.56091 0,-1.12183 0,-1.68273 -0.13559,0 -0.27118,0 -0.40672,0 0,0.56621 0,1.13243 0,1.69864 0,0.23602 -0.0665,0.41438 -0.19941,0.53505 -0.13289,0.12067 -0.31366,0.181 -0.54231,0.181 -0.23123,0 -0.41335,-0.0604 -0.54625,-0.181 -0.13294,-0.12067 -0.19941,-0.29903 -0.19941,-0.53505 0,-0.56621 0,-1.13243 0,-1.69864 -0.13553,0 -0.27112,0 -0.40672,0 0,0.5609 0,1.12182 0,1.68273 0,0.3421 0.097,0.61063 0.29108,0.80556 0.19406,0.19493 0.48117,0.2924 0.8613,0.2924 z" fill="#141413" />
          <path d="m 499.98368,203.60575 c 0.27648,0 0.52636,-0.0578 0.74966,-0.17356 0.22331,-0.11571 0.39878,-0.27908 0.52636,-0.49016 0.1276,-0.21106 0.19137,-0.45264 0.19137,-0.72473 0,-0.27209 -0.0638,-0.51366 -0.19137,-0.72472 -0.12758,-0.21106 -0.30305,-0.37508 -0.52636,-0.49205 -0.2233,-0.11698 -0.47318,-0.17547 -0.74966,-0.17547 -0.27647,0 -0.52636,0.0585 -0.74967,0.17547 -0.22328,0.11697 -0.39871,0.28099 -0.52631,0.49205 -0.12764,0.21106 -0.19141,0.45263 -0.19141,0.72472 0,0.27209 0.0638,0.51367 0.19141,0.72473 0.1276,0.21108 0.30303,0.37445 0.52631,0.49016 0.22331,0.11571 0.4732,0.17356 0.74967,0.17356 z m 0,-0.35093 c -0.19671,0 -0.3755,-0.0426 -0.53633,-0.12779 -0.16083,-0.0852 -0.28775,-0.20598 -0.3808,-0.36236 -0.093,-0.15639 -0.13954,-0.33885 -0.13954,-0.54737 0,-0.20598 0.0472,-0.38779 0.14156,-0.54545 0.0943,-0.15766 0.22195,-0.27844 0.38278,-0.36236 0.16083,-0.0839 0.34093,-0.12589 0.54033,-0.12589 0.19671,0 0.37483,0.0426 0.53431,0.12779 0.15947,0.0852 0.2851,0.20598 0.3768,0.36236 0.0917,0.15639 0.13757,0.33757 0.13757,0.54355 0,0.20852 -0.0463,0.39098 -0.13954,0.54737 -0.0931,0.15638 -0.21998,0.27717 -0.3808,0.36236 -0.16083,0.0852 -0.33962,0.12779 -0.53634,0.12779 z" fill="#141413" />
          <path d="m 537.84647,203.60575 c 0.20736,-7e-5 0.39077,-0.0255 0.5503,-0.0764 0.15952,-0.0509 0.29911,-0.13106 0.41876,-0.24044 0.0944,0.0864 0.18872,0.17287 0.28307,0.25929 0.16214,-3e-5 0.32431,0 0.48644,0 -0.17803,-0.16142 -0.3561,-0.32286 -0.53417,-0.48428 0.0798,-0.12462 0.13563,-0.25242 0.16757,-0.38339 0.0318,-0.13097 0.0482,-0.29435 0.0482,-0.49016 -0.1183,3e-5 -0.23659,0 -0.35489,0 -4e-5,0.14496 -0.009,0.26765 -0.026,0.3681 -0.0174,0.10046 -0.0499,0.18756 -0.0977,0.26131 -0.25249,-0.22879 -0.50498,-0.45757 -0.75747,-0.68637 0.19146,-0.11957 0.32643,-0.22897 0.40484,-0.32815 0.0784,-0.0992 0.11772,-0.21872 0.11772,-0.35858 5e-5,-0.11698 -0.0303,-0.2225 -0.0916,-0.31658 -0.0611,-0.0941 -0.14685,-0.16842 -0.25716,-0.22306 -0.1103,-0.0546 -0.23586,-0.0819 -0.3768,-0.0819 -0.22331,6e-5 -0.40209,0.0567 -0.53639,0.16989 -0.13424,0.11319 -0.20143,0.26389 -0.20148,0.45206 -4e-5,0.11698 0.0303,0.22314 0.0916,0.31847 0.0611,0.0953 0.15813,0.20149 0.29102,0.31842 -0.2207,0.11958 -0.38089,0.24041 -0.4806,0.3625 -0.0998,0.12209 -0.14965,0.26833 -0.14965,0.4387 -10e-5,0.22887 0.0929,0.40621 0.27892,0.53203 0.18607,0.12582 0.42796,0.18869 0.72568,0.18861 z m 0.005,-0.28609 c -0.18082,5e-5 -0.32898,-0.0374 -0.44458,-0.1124 -0.11565,-0.075 -0.1734,-0.18241 -0.1734,-0.32227 5e-5,-0.12714 0.04,-0.23586 0.11975,-0.32616 0.0798,-0.0903 0.20875,-0.17743 0.38686,-0.2614 0.27638,0.2555 0.55276,0.51097 0.82914,0.76647 -0.0824,0.0814 -0.18476,0.14436 -0.30706,0.18889 -0.12229,0.0446 -0.25922,0.0668 -0.41071,0.0668 z m -0.0674,-1.37698 c -0.1196,-0.10677 -0.20466,-0.1932 -0.25515,-0.25929 -0.0504,-0.0662 -0.0757,-0.13984 -0.0757,-0.22124 5e-5,-0.10679 0.0332,-0.19071 0.0998,-0.25177 0.0665,-0.061 0.15818,-0.0916 0.27513,-0.0916 0.1143,-3e-5 0.2047,0.031 0.27113,0.0934 0.0665,0.0623 0.0996,0.14555 0.0996,0.24982 0,0.0941 -0.0318,0.17611 -0.0958,0.24605 -0.0638,0.07 -0.17017,0.14818 -0.31905,0.23467 z" fill="#141413" />
          <path d="m 518.24347,200.82506 c 0,0.9269 0,1.85378 0,2.78069 0.13023,0 0.26053,0 0.39077,0 0,-0.65905 0,-1.31808 0,-1.97711 0.30306,0.65903 0.60608,1.31806 0.90914,1.97711 0.0665,0 0.13294,0 0.19941,0 0.30172,-0.65905 0.60343,-1.31808 0.90514,-1.97711 0,0.65903 0,1.31806 0,1.97711 0.1316,0 0.26318,0 0.39478,0 0,-0.92691 0,-1.85379 0,-2.78069 -0.13559,0 -0.27118,0 -0.40672,0 -0.33095,0.72268 -0.66195,1.44536 -0.9929,2.16805 -0.331,-0.72269 -0.66195,-1.44537 -0.9929,-2.16805 -0.13559,0 -0.27118,0 -0.40672,0 z" fill="#141413" />
          <path d="m 604.25926,200.82506 c 0,0.9269 0,1.85378 0,2.78069 0.61132,0 1.22261,0 1.83393,0 0,-0.11272 0,-0.22543 0,-0.33814 -0.47607,0 -0.9521,0 -1.42813,0 0,-0.29439 0,-0.58877 0,-0.88314 0.35537,0 0.71075,0 1.06612,0 0,-0.11271 0,-0.22543 0,-0.33814 -0.35537,0 -0.71075,0 -1.06612,0 0,-0.29304 0,-0.58611 0,-0.87915 0.47603,0 0.95206,0 1.42813,0 0,-0.11404 0,-0.22808 0,-0.34212 -0.61132,0 -1.22261,0 -1.83393,0 z" fill="#141413" />
          <path d="m 548.64966,186.92166 c 0,3.70757 0,7.41515 0,11.12272 0.51982,0 1.03963,0 1.55944,0 0,-2.63615 0,-5.27229 0,-7.90844 1.20931,2.63615 2.41868,5.27229 3.62799,7.90844 0.26521,0 0.53041,0 0.79561,0 1.20406,-2.63615 2.40808,-5.27229 3.61209,-7.90844 0,2.63615 0,5.27229 0,7.90844 0.52516,0 1.05022,0 1.57533,0 0,-3.70757 0,-7.41515 0,-11.12272 -0.541,0 -1.08201,0 -1.62306,0 -1.32072,2.89074 -2.64144,5.78148 -3.96217,8.67222 -1.32073,-2.89074 -2.64144,-5.78148 -3.96216,-8.67222 -0.54101,0 -1.08206,0 -1.62307,0 z" fill="#141413" />
          <path d="m 524.3277,186.92166 c 0,3.70757 0,7.41515 0,11.12272 0.54631,0 1.09261,0 1.63896,0 0,-3.70757 0,-7.41515 0,-11.12272 -0.54635,0 -1.09265,0 -1.63896,0 z" fill="#141413" />
          <path d="m 464.94588,206.94256 c 0,-5.5359 0,-11.07181 0,-16.6077 2.66945,5.53589 5.33891,11.0718 8.00837,16.6077 0.55613,0 1.11227,0 1.6684,0 2.66947,-5.5359 5.33891,-11.07181 8.00836,-16.6077 0,5.53589 0,11.0718 0,16.6077 1.11228,0 2.22454,0 3.33683,0 0,-7.78591 0,-15.57181 0,-23.35772 -1.11229,0 -2.22455,0 -3.33683,0 -2.94751,6.20939 -5.89505,12.41876 -8.84256,18.62815 -2.94751,-6.20939 -5.89504,-12.41876 -8.84257,-18.62815 -1.11227,0 -2.22454,0 -3.33681,0 0,7.78591 0,15.57181 0,23.35772 1.11227,0 2.22454,0 3.33681,0 z" fill="#0088aa" />
          <path d="m 518.88567,186.92166 c -1.49046,0 -2.98093,0 -4.47139,0 0,3.70757 0,7.41515 0,11.12272 0.54106,0 1.08206,0 1.62307,0 0,-1.46394 0,-2.92786 0,-4.39181 0.81155,0 1.62306,0 2.43462,0 0.79031,1.46395 1.58058,2.92787 2.37089,4.39181 0.56225,0 1.1245,0 1.68674,0 -0.81685,-1.50637 -1.6337,-3.01273 -2.45051,-4.5191 0.79561,-0.20155 1.41088,-0.5861 1.84583,-1.15365 0.43494,-0.56753 0.65241,-1.25972 0.65241,-2.07655 0,-1.10326 -0.31823,-1.9413 -0.95475,-2.51415 -0.63647,-0.57284 -1.54878,-0.85927 -2.73691,-0.85927 z m -0.2705,5.36245 c -0.85929,0 -1.71853,0 -2.57782,0 0,-1.33133 0,-2.66266 0,-3.99399 0.85929,0 1.71853,0 2.57782,0 0.73193,0 1.30213,0.15382 1.71053,0.46145 0.40845,0.30765 0.61268,0.82215 0.61268,1.54351 0,0.6577 -0.20953,1.15365 -0.62858,1.48779 -0.41899,0.33416 -0.98389,0.50124 -1.69463,0.50124 z" fill="#141413" />
          <path d="m 506.66499,186.92166 c -1.47987,3.70757 -2.95968,7.41515 -4.43955,11.12272 0.55695,0 1.1139,0 1.6708,0 0.36071,-0.92292 0.72138,-1.84584 1.08205,-2.76875 1.63897,0 3.27792,0 4.91693,0 0.37126,0.92291 0.74258,1.84583 1.11384,2.76875 0.55166,0 1.10326,0 1.65486,0 -1.47982,-3.70757 -2.95969,-7.41515 -4.43949,-11.12272 -0.51981,0 -1.03963,0 -1.55944,0 z m 2.7847,7.00142 c -1.33667,0 -2.67329,0 -4.00996,0 0.66835,-1.73443 1.33667,-3.46888 2.00497,-5.20332 0.66832,1.73444 1.33662,3.46889 2.00499,5.20332 z" fill="#141413" />
          <path d="m 600.09422,186.92166 c -1.47983,3.70757 -2.95968,7.41515 -4.43955,11.12272 0.55695,0 1.1139,0 1.6708,0 0.36072,-0.92292 0.72139,-1.84584 1.08206,-2.76875 1.63895,0 3.27796,0 4.91691,0 0.37128,0.92291 0.74259,1.84583 1.11386,2.76875 0.55164,0 1.10325,0 1.65489,0 -1.47986,-3.70757 -2.95972,-7.41515 -4.43954,-11.12272 -0.51981,0 -1.03962,0 -1.55943,0 z m 2.78469,7.00142 c -1.33662,0 -2.67328,0 -4.00991,0 0.66832,-1.73443 1.33663,-3.46888 2.00493,-5.20332 0.66836,1.73444 1.33667,3.46889 2.00498,5.20332 z" fill="#141413" />
          <path d="m 595.68448,200.82506 c -0.37347,0 -0.74695,0 -1.12044,0 0,0.9269 0,1.85378 0,2.78069 0.13554,0 0.27113,0 0.40672,0 0,-0.366 0,-0.73198 0,-1.09796 0.20336,0 0.40671,0 0.61008,0 0.19805,0.36598 0.39612,0.73196 0.59413,1.09796 0.14088,0 0.28182,0 0.4227,0 -0.2047,-0.3766 -0.40942,-0.7532 -0.61407,-1.12979 0.19936,-0.0504 0.35354,-0.14653 0.46254,-0.28841 0.109,-0.14188 0.16348,-0.31492 0.16348,-0.51914 0,-0.27581 -0.0797,-0.48532 -0.23925,-0.62853 -0.15947,-0.14322 -0.38812,-0.21482 -0.68589,-0.21482 z m -0.0677,1.3406 c -0.21531,0 -0.43066,0 -0.64597,0 0,-0.33282 0,-0.66565 0,-0.99848 0.21531,0 0.43066,0 0.64597,0 0.18341,0 0.32632,0.0385 0.42867,0.11536 0.10236,0.0769 0.15351,0.20554 0.15351,0.38587 0,0.16443 -0.0525,0.28841 -0.15751,0.37195 -0.105,0.0835 -0.24656,0.1253 -0.42467,0.1253 z" fill="#141413" />
          <path d="m 509.94498,200.82506 c -0.37353,0 -0.74702,0 -1.1205,0 0,0.9269 0,1.85378 0,2.78069 0.13559,0 0.27113,0 0.40672,0 0,-0.366 0,-0.73198 0,-1.09796 0.20335,0 0.40672,0 0.61013,0 0.19801,0.36598 0.39606,0.73196 0.59413,1.09796 0.14088,0 0.28177,0 0.42265,0 -0.2047,-0.3766 -0.40937,-0.7532 -0.61407,-1.12979 0.19936,-0.0504 0.35354,-0.14653 0.46254,-0.28841 0.10901,-0.14188 0.16352,-0.31492 0.16352,-0.51914 0,-0.27581 -0.0798,-0.48532 -0.23928,-0.62853 -0.15948,-0.14322 -0.38813,-0.21482 -0.68584,-0.21482 z m -0.0678,1.3406 c -0.21531,0 -0.43066,0 -0.64596,0 0,-0.33282 0,-0.66565 0,-0.99848 0.2153,0 0.43065,0 0.64596,0 0.18346,0 0.32632,0.0385 0.42868,0.11536 0.10235,0.0769 0.1535,0.20554 0.1535,0.38587 0,0.16443 -0.0525,0.28841 -0.15749,0.37195 -0.10502,0.0835 -0.24658,0.1253 -0.42469,0.1253 z" fill="#141413" />
          <path d="m 590.24448,198.28307 c 1.69734,0 3.02335,-0.39782 3.97811,-1.19342 0,-0.52512 0,-1.05022 0,-1.57532 -0.53041,0.45615 -1.10591,0.78765 -1.72648,0.99451 -0.62058,0.20686 -1.32337,0.31029 -2.10838,0.31029 -0.84864,0 -1.60453,-0.17504 -2.26753,-0.52511 -0.66301,-0.35007 -1.18283,-0.85396 -1.5594,-1.51167 -0.3766,-0.65772 -0.5649,-1.4215 -0.5649,-2.29138 0,-0.86986 0.1857,-1.631 0.55696,-2.28341 0.37127,-0.65241 0.88843,-1.15364 1.55144,-1.50372 0.66301,-0.35006 1.42413,-0.5251 2.28343,-0.5251 1.53819,0 2.76874,0.40842 3.69166,1.22524 0,-0.5198 0,-1.0396 0,-1.5594 -1.02898,-0.7744 -2.30732,-1.1616 -3.83491,-1.1616 -1.14564,0 -2.16407,0.23868 -3.05515,0.71605 -0.89108,0.47737 -1.58593,1.1563 -2.0845,2.03678 -0.49861,0.88047 -0.74788,1.89887 -0.74788,3.05516 0,1.15631 0.24927,2.17204 0.74788,3.04721 0.49857,0.87518 1.19342,1.55147 2.0845,2.02883 0.89108,0.47737 1.90951,0.71606 3.05515,0.71606 z" fill="#141413" />
          <path d="m 555.38419,200.82506 c 0,0.9269 0,1.85378 0,2.78069 0.13559,0 0.27113,0 0.40672,0 0,-0.40976 0,-0.8195 0,-1.22925 0.35624,0 0.71243,0 1.06866,0 0,-0.10739 0,-0.21481 0,-0.32222 -0.35623,0 -0.71242,0 -1.06866,0 0,-0.2957 0,-0.59141 0,-0.8871 0.47718,0 0.95437,0 1.43156,0 0,-0.11404 0,-0.22808 0,-0.34212 -0.61278,0 -1.22555,0 -1.83828,0 z" fill="#141413" />
          <path d="m 580.96763,186.92166 c 0,3.70757 0,7.41515 0,11.12272 0.5463,0 1.09266,0 1.63895,0 0,-3.70757 0,-7.41515 0,-11.12272 -0.54629,0 -1.09265,0 -1.63895,0 z" fill="#141413" />
          <path d="m 576.08255,198.28307 c 0.89107,0 1.59651,-0.25725 2.11633,-0.77175 0.51981,-0.51449 0.77972,-1.2279 0.77972,-2.14022 0,-2.81647 0,-5.63296 0,-8.44944 -0.54106,0 -1.08206,0 -1.62306,0 0,2.77936 0,5.55872 0,8.33806 0,1.06083 -0.54636,1.59123 -1.63902,1.59123 -0.22276,0 -0.45878,-0.0212 -0.70804,-0.0636 -0.24936,-0.0425 -0.45353,-0.0955 -0.61267,-0.15912 0,0.46146 0,0.92291 0,1.38438 0.16974,0.0743 0.41905,0.1379 0.74788,0.19094 0.32888,0.053 0.64181,0.0796 0.93886,0.0796 z" fill="#141413" />
          <path d="m 489.30465,186.92166 c 0,3.70757 0,7.41515 0,11.12272 0.5198,0 1.03959,0 1.5594,0 0,-2.63615 0,-5.27229 0,-7.90844 1.20936,2.63615 2.41868,5.27229 3.62804,7.90844 0.26515,0 0.53041,0 0.79556,0 1.20406,-2.63615 2.40808,-5.27229 3.6121,-7.90844 0,2.63615 0,5.27229 0,7.90844 0.52515,0 1.05026,0 1.57532,0 0,-3.70757 0,-7.41515 0,-11.12272 -0.541,0 -1.082,0 -1.62306,0 -1.32072,2.89074 -2.64139,5.78148 -3.96212,8.67222 -1.32073,-2.89074 -2.64144,-5.78148 -3.96219,-8.67222 -0.54102,0 -1.08203,0 -1.62305,0 z" fill="#141413" />
          <path d="m 567.42623,198.28307 c 1.10324,0 2.10044,-0.24135 2.99151,-0.72402 0.89108,-0.48267 1.59123,-1.16425 2.10044,-2.04472 0.50917,-0.8805 0.76378,-1.88828 0.76378,-3.02336 0,-1.13506 -0.25461,-2.14286 -0.76378,-3.02334 -0.50921,-0.88047 -1.20936,-1.56471 -2.10044,-2.05268 -0.89107,-0.48798 -1.88827,-0.73197 -2.99151,-0.73197 -1.10326,0 -2.10045,0.24399 -2.99153,0.73197 -0.89107,0.48797 -1.59121,1.17221 -2.10044,2.05268 -0.50916,0.88048 -0.76376,1.88828 -0.76376,3.02334 0,1.13508 0.2546,2.14286 0.76376,3.02336 0.50923,0.88047 1.20937,1.56205 2.10044,2.04472 0.89108,0.48267 1.88827,0.72402 2.99153,0.72402 z m 0,-1.46394 c -0.78502,0 -1.49841,-0.17769 -2.14018,-0.53307 -0.64182,-0.35538 -1.14834,-0.85925 -1.51965,-1.51166 -0.37127,-0.6524 -0.55695,-1.41355 -0.55695,-2.28343 0,-0.85926 0.18828,-1.61775 0.5649,-2.27545 0.37656,-0.65771 0.88577,-1.1616 1.5276,-1.51168 0.64177,-0.35006 1.3605,-0.5251 2.15611,-0.5251 0.78502,0 1.49576,0.17768 2.13223,0.53305 0.63652,0.35538 1.13774,0.85927 1.50371,1.51167 0.36601,0.65241 0.549,1.40825 0.549,2.26751 0,0.86988 -0.18568,1.63103 -0.55695,2.28343 -0.37127,0.65241 -0.87783,1.15628 -1.5196,1.51166 -0.64181,0.35538 -1.3552,0.53307 -2.14022,0.53307 z" fill="#141413" />
        </g>
      </g>
    </svg>

    <!-- LOGO BLANCO ENCAPSULADO -->
    <svg id="logo-mm-white" viewBox="0 0 52.916665 8.3121501" width="52.916665" height="8.3121501">
      <g id="layer1_white">
        <g id="g3_white" transform="matrix(0.3524096,0,0,0.3524096,-160.67639,-64.616449)">
          <path d="m 575.68787,201.16718 c 0,0.81285 0,1.62571 0,2.43857 0.13689,0 0.27378,0 0.41072,0 0,-0.81286 0,-1.62572 0,-2.43857 0.28841,0 0.57683,0 0.8653,0 0,-0.11404 0,-0.22808 0,-0.34212 -0.71377,0 -1.42755,0 -2.14128,0 0,0.11404 0,0.22808 0,0.34212 0.28842,0 0.57684,0 0.86526,0 z" fill="#ffffff" />
          <path d="m 533.57276,198.28307 c 1.10325,0 2.1004,-0.24135 2.99147,-0.72402 0.89113,-0.48267 1.59127,-1.16425 2.10049,-2.04472 0.50916,-0.8805 0.76377,-1.88828 0.76377,-3.02336 0,-1.13506 -0.25461,-2.14286 -0.76377,-3.02334 -0.50922,-0.88047 -1.20936,-1.56471 -2.10049,-2.05268 -0.89107,-0.48798 -1.88822,-0.73197 -2.99147,-0.73197 -1.10325,0 -2.10044,0.24399 -2.99157,0.73197 -0.89103,0.48797 -1.59122,1.17221 -2.10039,2.05268 -0.50922,0.88048 -0.76381,1.88828 -0.76381,3.02334 0,1.13508 0.25459,2.14286 0.76381,3.02336 0.50917,0.88047 1.20936,1.56205 2.10039,2.04472 0.89113,0.48267 1.88832,0.72402 2.99157,0.72402 z m 0,-1.46394 c -0.78502,0 -1.49846,-0.17769 -2.14023,-0.53307 -0.64177,-0.35538 -1.14833,-0.85925 -1.51959,-1.51166 -0.37132,-0.6524 -0.55696,-1.41355 -0.55696,-2.28343 0,-0.85926 0.18829,-1.61775 0.5649,-2.27545 0.37657,-0.65771 0.88578,-1.1616 1.52755,-1.51168 0.64182,-0.35006 1.36051,-0.5251 2.15617,-0.5251 0.78496,0 1.49576,0.17768 2.13222,0.53305 0.63648,0.35538 1.13769,0.85927 1.50372,1.51167 0.36596,0.65241 0.54895,1.40825 0.54895,2.26751 0,0.86988 -0.18563,1.63103 -0.5569,2.28343 -0.37127,0.65241 -0.87784,1.15628 -1.51965,1.51166 -0.64177,0.35538 -1.35521,0.53307 -2.14018,0.53307 z" fill="#ffffff" />
          <path d="m 585.76596,203.60575 c 0.37748,0 0.66325,-0.0981 0.85732,-0.29439 0.19406,-0.19625 0.29107,-0.46412 0.29107,-0.80357 0,-0.56091 0,-1.12183 0,-1.68273 -0.13554,0 -0.27113,0 -0.40672,0 0,0.56621 0,1.13243 0,1.69864 0,0.23602 -0.0665,0.41438 -0.1994,0.53505 -0.1329,0.12067 -0.31366,0.181 -0.54227,0.181 -0.23129,0 -0.41341,-0.0604 -0.5463,-0.181 -0.13294,-0.12067 -0.19935,-0.29903 -0.19935,-0.53505 0,-0.56621 0,-1.13243 0,-1.69864 -0.1356,0 -0.27119,0 -0.40677,0 0,0.5609 0,1.12182 0,1.68273 0,0.3421 0.0971,0.61063 0.29111,0.80556 0.19407,0.19493 0.48114,0.2924 0.86131,0.2924 z" fill="#ffffff" />
          <path d="m 489.30465,200.82506 c 0,0.9269 0,1.85378 0,2.78069 0.13557,0 0.27115,0 0.40673,0 0,-0.40976 0,-0.8195 0,-1.22925 0.35621,0 0.71243,0 1.06865,0 0,-0.10739 0,-0.21481 0,-0.32222 -0.35622,0 -0.71244,0 -1.06865,0 0,-0.2957 0,-0.59141 0,-0.8871 0.47718,0 0.95435,0 1.43153,0 0,-0.11404 0,-0.22808 0,-0.34212 -0.61276,0 -1.22551,0 -1.83826,0 z" fill="#ffffff" />
          <path d="m 476.95842,206.94256 c 1.11229,0 2.22455,0 3.33682,0 0,-7.78591 0,-15.57181 0,-23.35772 -1.11227,0 -2.22453,0 -3.33682,0 -2.94751,6.20939 -5.89504,12.41876 -8.84257,18.62815 -2.94751,-6.20939 -5.89503,-12.41876 -8.84255,-18.62815 -1.11228,0 -2.22455,0 -3.33682,0 0,7.78591 0,15.57181 0,23.35772 1.11227,0 2.22454,0 3.33682,0 0,-5.5359 0,-11.07181 0,-16.6077 2.66945,5.53589 5.3389,11.0718 8.00835,16.6077 0.55614,0 1.11228,0 1.66841,0 2.66947,-5.5359 5.33891,-11.07181 8.00836,-16.6077 0,5.53589 0,11.0718 0,16.6077 z" fill="#ffffff" />
          <path d="m 482.71986,206.71397 c 1.11229,0 2.22455,0 3.33682,0 0,-7.78591 0,-15.57181 0,-23.35772 -1.11227,0 -2.22453,0 -3.33682,0 -2.94751,6.20939 -5.89504,12.41876 -8.84257,18.62815 -2.94751,-6.20939 -5.89503,-12.41876 -8.84255,-18.62815 -1.11228,0 -2.22455,0 -3.33682,0 0,7.78591 0,15.57181 0,23.35772 1.11227,0 2.22454,0 3.33682,0 0,-5.5359 0,-11.07181 0,-16.6077 2.66945,5.53589 5.3389,11.0718 8.00835,16.6077 0.55614,0 1.11228,0 1.66841,0 2.66947,-5.5359 5.33891,-11.07181 8.00836,-16.6077 0,5.53589 0,11.0718 0,16.6077 z" fill="#ffffff" />
          <path d="m 566.02448,203.60575 c 0.37748,0 0.66331,-0.0981 0.85732,-0.29439 0.19406,-0.19625 0.29112,-0.46412 0.29112,-0.80357 0,-0.56091 0,-1.12183 0,-1.68273 -0.13559,0 -0.27118,0 -0.40672,0 0,0.56621 0,1.13243 0,1.69864 0,0.23602 -0.0665,0.41438 -0.19941,0.53505 -0.13289,0.12067 -0.31366,0.181 -0.54231,0.181 -0.23123,0 -0.41335,-0.0604 -0.54625,-0.181 -0.13294,-0.12067 -0.19941,-0.29903 -0.19941,-0.53505 0,-0.56621 0,-1.13243 0,-1.69864 -0.13553,0 -0.27112,0 -0.40672,0 0,0.5609 0,1.12182 0,1.68273 0,0.3421 0.097,0.61063 0.29108,0.80556 0.19406,0.19493 0.48117,0.2924 0.8613,0.2924 z" fill="#ffffff" />
          <path d="m 499.98368,203.60575 c 0.27648,0 0.52636,-0.0578 0.74966,-0.17356 0.22331,-0.11571 0.39878,-0.27908 0.52636,-0.49016 0.1276,-0.21106 0.19137,-0.45264 0.19137,-0.72473 0,-0.27209 -0.0638,-0.51366 -0.19137,-0.72472 -0.12758,-0.21106 -0.30305,-0.37508 -0.52636,-0.49205 -0.2233,-0.11698 -0.47318,-0.17547 -0.74966,-0.17547 -0.27647,0 -0.52636,0.0585 -0.74967,0.17547 -0.22328,0.11697 -0.39871,0.28099 -0.52631,0.49205 -0.12764,0.21106 -0.19141,0.45263 -0.19141,0.72472 0,0.27209 0.0638,0.51367 0.19141,0.72473 0.1276,0.21108 0.30303,0.37445 0.52631,0.49016 0.22331,0.11571 0.4732,0.17356 0.74967,0.17356 z m 0,-0.35093 c -0.19671,0 -0.3755,-0.0426 -0.53633,-0.12779 -0.16083,-0.0852 -0.28775,-0.20598 -0.3808,-0.36236 -0.093,-0.15639 -0.13954,-0.33885 -0.13954,-0.54737 0,-0.20598 0.0472,-0.38779 0.14156,-0.54545 0.0943,-0.15766 0.22195,-0.27844 0.38278,-0.36236 0.16083,-0.0839 0.34093,-0.12589 0.54033,-0.12589 0.19671,0 0.37483,0.0426 0.53431,0.12779 0.15947,0.0852 0.2851,0.20598 0.3768,0.36236 0.0917,0.15639 0.13757,0.33757 0.13757,0.54355 0,0.20852 -0.0463,0.39098 -0.13954,0.54737 -0.0931,0.15638 -0.21998,0.27717 -0.3808,0.36236 -0.16083,0.0852 -0.33962,0.12779 -0.53634,0.12779 z" fill="#ffffff" />
          <path d="m 537.84647,203.60575 c 0.20736,-7e-5 0.39077,-0.0255 0.5503,-0.0764 0.15952,-0.0509 0.29911,-0.13106 0.41876,-0.24044 0.0944,0.0864 0.18872,0.17287 0.28307,0.25929 0.16214,-3e-5 0.32431,0 0.48644,0 -0.17803,-0.16142 -0.3561,-0.32286 -0.53417,-0.48428 0.0798,-0.12462 0.13563,-0.25242 0.16757,-0.38339 0.0318,-0.13097 0.0482,-0.29435 0.0482,-0.49016 -0.1183,3e-5 -0.23659,0 -0.35489,0 -4e-5,0.14496 -0.009,0.26765 -0.026,0.3681 -0.0174,0.10046 -0.0499,0.18756 -0.0977,0.26131 -0.25249,-0.22879 -0.50498,-0.45757 -0.75747,-0.68637 0.19146,-0.11957 0.32643,-0.22897 0.40484,-0.32815 0.0784,-0.0992 0.11772,-0.21872 0.11772,-0.35858 5e-5,-0.11698 -0.0303,-0.2225 -0.0916,-0.31658 -0.0611,-0.0941 -0.14685,-0.16842 -0.25716,-0.22306 -0.1103,-0.0546 -0.23586,-0.0819 -0.3768,-0.0819 -0.22331,6e-5 -0.40209,0.0567 -0.53639,0.16989 -0.13424,0.11319 -0.20143,0.26389 -0.20148,0.45206 -4e-5,0.11698 0.0303,0.22314 0.0916,0.31847 0.0611,0.0953 0.15813,0.20149 0.29102,0.31842 -0.2207,0.11958 -0.38089,0.24041 -0.4806,0.3625 -0.0998,0.12209 -0.14965,0.26833 -0.14965,0.4387 -10e-5,0.22887 0.0929,0.40621 0.27892,0.53203 0.18607,0.12582 0.42796,0.18869 0.72568,0.18861 z m 0.005,-0.28609 c -0.18082,5e-5 -0.32898,-0.0374 -0.44458,-0.1124 -0.11565,-0.075 -0.1734,-0.18241 -0.1734,-0.32227 5e-5,-0.12714 0.04,-0.23586 0.11975,-0.32616 0.0798,-0.0903 0.20875,-0.17743 0.38686,-0.2614 0.27638,0.2555 0.55276,0.51097 0.82914,0.76647 -0.0824,0.0814 -0.18476,0.14436 -0.30706,0.18889 -0.12229,0.0446 -0.25922,0.0668 -0.41071,0.0668 z m -0.0674,-1.37698 c -0.1196,-0.10677 -0.20466,-0.1932 -0.25515,-0.25929 -0.0504,-0.0662 -0.0757,-0.13984 -0.0757,-0.22124 5e-5,-0.10679 0.0332,-0.19071 0.0998,-0.25177 0.0665,-0.061 0.15818,-0.0916 0.27513,-0.0916 0.1143,-3e-5 0.2047,0.031 0.27113,0.0934 0.0665,0.0623 0.0996,0.14555 0.0996,0.24982 0,0.0941 -0.0318,0.17611 -0.0958,0.24605 -0.0638,0.07 -0.17017,0.14818 -0.31905,0.23467 z" fill="#ffffff" />
          <path d="m 518.24347,200.82506 c 0,0.9269 0,1.85378 0,2.78069 0.13023,0 0.26053,0 0.39077,0 0,-0.65905 0,-1.31808 0,-1.97711 0.30306,0.65903 0.60608,1.31806 0.90914,1.97711 0.0665,0 0.13294,0 0.19941,0 0.30172,-0.65905 0.60343,-1.31808 0.90514,-1.97711 0,0.65903 0,1.31806 0,1.97711 0.1316,0 0.26318,0 0.39478,0 0,-0.92691 0,-1.85379 0,-2.78069 -0.13559,0 -0.27118,0 -0.40672,0 -0.33095,0.72268 -0.66195,1.44536 -0.9929,2.16805 -0.331,-0.72269 -0.66195,-1.44537 -0.9929,-2.16805 -0.13559,0 -0.27118,0 -0.40672,0 z" fill="#ffffff" />
          <path d="m 604.25926,200.82506 c 0,0.9269 0,1.85378 0,2.78069 0.61132,0 1.22261,0 1.83393,0 0,-0.11272 0,-0.22543 0,-0.33814 -0.47607,0 -0.9521,0 -1.42813,0 0,-0.29439 0,-0.58877 0,-0.88314 0.35537,0 0.71075,0 1.06612,0 0,-0.11271 0,-0.22543 0,-0.33814 -0.35537,0 -0.71075,0 -1.06612,0 0,-0.29304 0,-0.58611 0,-0.87915 0.47603,0 0.95206,0 1.42813,0 0,-0.11404 0,-0.22808 0,-0.34212 -0.61132,0 -1.22261,0 -1.83393,0 z" fill="#ffffff" />
          <path d="m 548.64966,186.92166 c 0,3.70757 0,7.41515 0,11.12272 0.51982,0 1.03963,0 1.55944,0 0,-2.63615 0,-5.27229 0,-7.90844 1.20931,2.63615 2.41868,5.27229 3.62799,7.90844 0.26521,0 0.53041,0 0.79561,0 1.20406,-2.63615 2.40808,-5.27229 3.61209,-7.90844 0,2.63615 0,5.27229 0,7.90844 0.52516,0 1.05022,0 1.57533,0 0,-3.70757 0,-7.41515 0,-11.12272 -0.541,0 -1.08201,0 -1.62306,0 -1.32072,2.89074 -2.64144,5.78148 -3.96217,8.67222 -1.32073,-2.89074 -2.64144,-5.78148 -3.96216,-8.67222 -0.54101,0 -1.08206,0 -1.62307,0 z" fill="#ffffff" />
          <path d="m 524.3277,186.92166 c 0,3.70757 0,7.41515 0,11.12272 0.54631,0 1.09261,0 1.63896,0 0,-3.70757 0,-7.41515 0,-11.12272 -0.54635,0 -1.09265,0 -1.63896,0 z" fill="#ffffff" />
          <path d="m 464.94588,206.94256 c 0,-5.5359 0,-11.07181 0,-16.6077 2.66945,5.53589 5.33891,11.0718 8.00837,16.6077 0.55613,0 1.11227,0 1.6684,0 2.66947,-5.5359 5.33891,-11.07181 8.00836,-16.6077 0,5.53589 0,11.0718 0,16.6077 1.11228,0 2.22454,0 3.33683,0 0,-7.78591 0,-15.57181 0,-23.35772 -1.11229,0 -2.22455,0 -3.33683,0 -2.94751,6.20939 -5.89505,12.41876 -8.84256,18.62815 -2.94751,-6.20939 -5.89504,-12.41876 -8.84257,-18.62815 -1.11227,0 -2.22454,0 -3.33681,0 0,7.78591 0,15.57181 0,23.35772 1.11227,0 2.22454,0 3.33681,0 z" fill="#ffffff" />
          <path d="m 518.88567,186.92166 c -1.49046,0 -2.98093,0 -4.47139,0 0,3.70757 0,7.41515 0,11.12272 0.54106,0 1.08206,0 1.62307,0 0,-1.46394 0,-2.92786 0,-4.39181 0.81155,0 1.62306,0 2.43462,0 0.79031,1.46395 1.58058,2.92787 2.37089,4.39181 0.56225,0 1.1245,0 1.68674,0 -0.81685,-1.50637 -1.6337,-3.01273 -2.45051,-4.5191 0.79561,-0.20155 1.41088,-0.5861 1.84583,-1.15365 0.43494,-0.56753 0.65241,-1.25972 0.65241,-2.07655 0,-1.10326 -0.31823,-1.9413 -0.95475,-2.51415 -0.63647,-0.57284 -1.54878,-0.85927 -2.73691,-0.85927 z m -0.2705,5.36245 c -0.85929,0 -1.71853,0 -2.57782,0 0,-1.33133 0,-2.66266 0,-3.99399 0.85929,0 1.71853,0 2.57782,0 0.73193,0 1.30213,0.15382 1.71053,0.46145 0.40845,0.30765 0.61268,0.82215 0.61268,1.54351 0,0.6577 -0.20953,1.15365 -0.62858,1.48779 -0.41899,0.33416 -0.98389,0.50124 -1.69463,0.50124 z" fill="#ffffff" />
          <path d="m 506.66499,186.92166 c -1.47987,3.70757 -2.95968,7.41515 -4.43955,11.12272 0.55695,0 1.1139,0 1.6708,0 0.36071,-0.92292 0.72138,-1.84584 1.08205,-2.76875 1.63897,0 3.27792,0 4.91693,0 0.37126,0.92291 0.74258,1.84583 1.11384,2.76875 0.55166,0 1.10326,0 1.65486,0 -1.47982,-3.70757 -2.95969,-7.41515 -4.43949,-11.12272 -0.51981,0 -1.03963,0 -1.55944,0 z m 2.7847,7.00142 c -1.33667,0 -2.67329,0 -4.00996,0 0.66835,-1.73443 1.33667,-3.46888 2.00497,-5.20332 0.66832,1.73444 1.33662,3.46889 2.00499,5.20332 z" fill="#ffffff" />
          <path d="m 600.09422,186.92166 c -1.47983,3.70757 -2.95968,7.41515 -4.43955,11.12272 0.55695,0 1.1139,0 1.6708,0 0.36072,-0.92292 0.72139,-1.84584 1.08206,-2.76875 1.63895,0 3.27796,0 4.91691,0 0.37128,0.92291 0.74259,1.84583 1.11386,2.76875 0.55164,0 1.11225,0 1.65489,0 -1.47986,-3.70757 -2.95972,-7.41515 -4.43954,-11.12272 -0.51981,0 -1.03962,0 -1.55943,0 z m 2.78469,7.00142 c -1.33662,0 -2.67328,0 -4.00991,0 0.66832,-1.73443 1.33663,-3.46888 2.00493,-5.20332 0.66836,1.73444 1.33667,3.46889 2.00498,5.20332 z" fill="#ffffff" />
          <path d="m 595.68448,200.82506 c -0.37347,0 -0.74695,0 -1.12044,0 0,0.9269 0,1.85378 0,2.78069 0.13554,0 0.27113,0 0.40672,0 0,-0.366 0,-0.73198 0,-1.09796 0.20336,0 0.40671,0 0.61008,0 0.19805,0.36598 0.39612,0.73196 0.59413,1.09796 0.14088,0 0.28182,0 0.4227,0 -0.2047,-0.3766 -0.40942,-0.7532 -0.61407,-1.12979 0.19936,-0.0504 0.35354,-0.14653 0.46254,-0.28841 0.109,-0.14188 0.16348,-0.31492 0.16348,-0.51914 0,-0.27581 -0.0797,-0.48532 -0.23925,-0.62853 -0.15947,-0.14322 -0.38812,-0.21482 -0.68589,-0.21482 z m -0.0677,1.3406 c -0.21531,0 -0.43066,0 -0.64597,0 0,-0.33282 0,-0.66565 0,-0.99848 0.21531,0 0.43066,0 0.64597,0 0.18341,0 0.32632,0.0385 0.42867,0.11536 0.10236,0.0769 0.15351,0.20554 0.15351,0.38587 0,0.16443 -0.0525,0.28841 -0.15751,0.37195 -0.105,0.0835 -0.24656,0.1253 -0.42467,0.1253 z" fill="#ffffff" />
          <path d="m 509.94498,200.82506 c -0.37353,0 -0.74702,0 -1.1205,0 0,0.9269 0,1.85378 0,2.78069 0.13559,0 0.27113,0 0.40672,0 0,-0.366 0,-0.73198 0,-1.09796 0.20335,0 0.40672,0 0.61013,0 0.19801,0.36598 0.39606,0.73196 0.59413,1.09796 0.14088,0 0.28177,0 0.42265,0 -0.2047,-0.3766 -0.40937,-0.7532 -0.61407,-1.12979 0.19936,-0.0504 0.35354,-0.14653 0.46254,-0.28841 0.10901,-0.14188 0.16352,-0.31492 0.16352,-0.51914 0,-0.27581 -0.0798,-0.48532 -0.23928,-0.62853 -0.15948,-0.14322 -0.38813,-0.21482 -0.68584,-0.21482 z m -0.0678,1.3406 c -0.21531,0 -0.43066,0 -0.64596,0 0,-0.33282 0,-0.66565 0,-0.99848 0.2153,0 0.43065,0 0.64596,0 0.18346,0 0.32632,0.0385 0.42868,0.11536 0.10235,0.0769 0.1535,0.20554 0.1535,0.38587 0,0.16443 -0.0525,0.28841 -0.15749,0.37195 -0.10502,0.0835 -0.24658,0.1253 -0.42469,0.1253 z" fill="#ffffff" />
          <path d="m 590.24448,198.28307 c 1.69734,0 3.02335,-0.39782 3.97811,-1.19342 0,-0.52512 0,-1.05022 0,-1.57532 -0.53041,0.45615 -1.10591,0.78765 -1.72648,0.99451 -0.62058,0.20686 -1.32337,0.31029 -2.10838,0.31029 -0.84864,0 -1.60453,-0.17504 -2.26753,-0.52511 -0.66301,-0.35007 -1.18283,-0.85396 -1.5594,-1.51167 -0.3766,-0.65772 -0.5649,-1.4215 -0.5649,-2.29138 0,-0.86986 0.1857,-1.631 0.55696,-2.28341 0.37127,-0.65241 0.88843,-1.15364 1.55144,-1.50372 0.66301,-0.35006 1.42413,-0.5251 2.28343,-0.5251 1.53819,0 2.76874,0.40842 3.69166,1.22524 0,-0.5198 0,-1.0396 0,-1.5594 -1.02898,-0.7744 -2.30732,-1.1616 -3.83491,-1.1616 -1.14564,0 -2.16407,0.23868 -3.05515,0.71605 -0.89108,0.47737 -1.58593,1.1563 -2.0845,2.03678 -0.49861,0.88047 -0.74788,1.89887 -0.74788,3.05516 0,1.15631 0.24927,2.17204 0.74788,3.04721 0.49857,0.87518 1.19342,1.55147 2.0845,2.02883 0.89108,0.47737 1.90951,0.71606 3.05515,0.71606 z" fill="#ffffff" />
          <path d="m 555.38419,200.82506 c 0,0.9269 0,1.85378 0,2.78069 0.13559,0 0.27113,0 0.40672,0 0,-0.40976 0,-0.8195 0,-1.22925 0.35624,0 0.71243,0 1.06866,0 0,-0.10739 0,-0.21481 0,-0.32222 -0.35623,0 -0.71242,0 -1.06866,0 0,-0.2957 0,-0.59141 0,-0.8871 0.47718,0 0.95437,0 1.43156,0 0,-0.11404 0,-0.22808 0,-0.34212 -0.61278,0 -1.22555,0 -1.83828,0 z" fill="#ffffff" />
          <path d="m 580.96763,186.92166 c 0,3.70757 0,7.41515 0,11.12272 0.5463,0 1.09266,0 1.63895,0 0,-3.70757 0,-7.41515 0,-11.12272 -0.54629,0 -1.09265,0 -1.63895,0 z" fill="#ffffff" />
          <path d="m 576.08255,198.28307 c 0.89107,0 1.59651,-0.25725 2.11633,-0.77175 0.51981,-0.51449 0.77972,-1.2279 0.77972,-2.14022 0,-2.81647 0,-5.63296 0,-8.44944 -0.54106,0 -1.08206,0 -1.62306,0 0,2.77936 0,5.55872 0,8.33806 0,1.06083 -0.54636,1.59123 -1.63902,1.59123 -0.22276,0 -0.45878,-0.0212 -0.70804,-0.0636 -0.24936,-0.0425 -0.45353,-0.0955 -0.61267,-0.15912 0,0.46146 0,0.92291 0,1.38438 0.16974,0.0743 0.41905,0.1379 0.74788,0.19094 0.32888,0.053 0.64181,0.0796 0.93886,0.0796 z" fill="#ffffff" />
          <path d="m 489.30465,186.92166 c 0,3.70757 0,7.41515 0,11.12272 0.5198,0 1.03959,0 1.5594,0 0,-2.63615 0,-5.27229 0,-7.90844 1.20936,2.63615 2.41868,5.27229 3.62804,7.90844 0.26515,0 0.53041,0 0.79556,0 1.20406,-2.63615 2.40808,-5.27229 3.6121,-7.90844 0,2.63615 0,5.27229 0,7.90844 0.52515,0 1.05026,0 1.57532,0 0,-3.70757 0,-7.41515 0,-11.12272 -0.541,0 -1.082,0 -1.62306,0 -1.32072,2.89074 -2.64139,5.78148 -3.96212,8.67222 -1.32073,-2.89074 -2.64144,-5.78148 -3.96219,-8.67222 -0.54102,0 -1.08203,0 -1.62305,0 z" fill="#ffffff" />
          <path d="m 567.42623,198.28307 c 1.10324,0 2.10044,-0.24135 2.99151,-0.72402 0.89108,-0.48267 1.59123,-1.16425 2.10044,-2.04472 0.50917,-0.8805 0.76378,-1.88828 0.76378,-3.02336 0,-1.13506 -0.25461,-2.14286 -0.76378,-3.02334 -0.50921,-0.88047 -1.20936,-1.56471 -2.10044,-2.05268 -0.89107,-0.48798 -1.88827,-0.73197 -2.99151,-0.73197 -1.10326,0 -2.10045,0.24399 -2.99153,0.73197 -0.89107,0.48797 -1.59121,1.17221 -2.10044,2.05268 -0.50916,0.88048 -0.76376,1.88828 -0.76376,3.02334 0,1.13508 0.2546,2.14286 0.76376,3.02336 0.50923,0.88047 1.20937,1.56205 2.10044,2.04472 0.89108,0.48267 1.88827,0.72402 2.99153,0.72402 z m 0,-1.46394 c -0.78502,0 -1.49841,-0.17769 -2.14022,-0.53307 -0.64181,-0.35538 -1.14835,-0.85925 -1.5196,-1.51166 -0.37127,-0.6524 -0.55695,-1.41355 -0.55695,-2.28343 0,-0.85926 0.18827,-1.61775 0.56495,-2.27545 0.37656,-0.65771 0.88577,-1.1616 1.5276,-1.51168 0.64177,-0.35006 1.3605,-0.5251 2.15611,-0.5251 0.78502,0 1.49576,0.17768 2.13223,0.53305 0.63652,0.35538 1.13774,0.85927 1.50371,1.51167 0.36601,0.65241 0.549,1.40825 0.549,2.26751 0,0.86988 -0.18568,1.63103 -0.55695,2.28343 -0.37127,0.65241 -0.87783,1.15628 -1.5196,1.51166 -0.64181,-0.35538 -1.3552,-0.53307 -2.14022,-0.53307 z" fill="#ffffff" />
        </g>
      </g>
    </svg>

    <!-- Componente Base de Diapositiva: Fiel a la Estética de Contenido de Tech Ethos -->
    <g id="cylindo-slide-content-base">
      <!-- Fondo Off-white cálido de Tech Ethos -->
      <rect width="1920" height="1080" fill="#FAF9F5" />
      <!-- Barra superior decorativa Teal MM -->
      <rect x="0" y="0" width="1920" height="12" fill="#0088AA" />
      <!-- Pestaña de navegación en el borde inferior derecho -->
      <rect x="1820" y="1040" width="100" height="40" fill="#0088AA" />
      <!-- Línea inferior gris sutil de pie de página -->
      <line x1="100" y1="1020" x2="1820" y2="1020" stroke="#E2E2EB" stroke-width="1.5" />
    </g>

    <!-- Componente Base de Diapositiva de Capítulo / Portadas: -->
    <!-- Fondo claro con una franja superior de color Teal de marca para equilibrar visualmente la presentación -->
    <g id="cylindo-slide-chapter-base">
      <!-- Fondo Off-white general -->
      <rect width="1920" height="1080" fill="#FAF9F5" />
      <!-- Franja superior de marca en Teal Oficial MM (220px de altura) -->
      <rect x="0" y="0" width="1920" height="220" fill="#0088AA" />
      <!-- Línea sutil blanca separadora dentro de la franja -->
      <line x1="0" y1="220" x2="1920" y2="220" stroke="#007799" stroke-width="2" />
      <!-- Pestaña de navegación en el borde inferior derecho en Teal -->
      <rect x="1820" y="1040" width="100" height="40" fill="#0088AA" />
      <!-- Línea inferior gris de pie de página -->
      <line x1="100" y1="1020" x2="1820" y2="1020" stroke="#E2E2EB" stroke-width="1.5" />
    </g>
  </defs>

  <!-- Capas de contenido en grupos estructurados y trasladados a cada página correspondiente -->
  <!-- ==================== FILA 1 (y: 0) ==================== -->
  
  <!-- PAGINA 1: PORTADA GENERAL -->
  <g id="s1" transform="translate(0, 0)">
    <use href="#cylindo-slide-chapter-base" />
    <g transform="translate(100, 130)">
      <text x="0" y="0" class="text-cylindo-title-white" font-size="44">Brand Visual Systems: Building Consistency</text>
    </g>
    <g transform="translate(100, 380)">
      <rect width="1720" height="440" fill="#F4F5F7" stroke="#E2E2EB" stroke-width="2" />
      <rect width="1720" height="8" fill="#0088AA" />
      <text x="860" y="230" class="text-cylindo-body-bold" font-size="24" fill="#666666" text-anchor="middle">HERO LIFESTYLE INTERIOR SPACE REFERENCE (1720 x 440)</text>
      <text x="0" y="520" class="text-cylindo-body-bold" font-size="28" fill="#141413">A Comprehensive Framework for Scalable Product Presentation</text>
      <text x="0" y="560" class="text-cylindo-body-regular" font-size="18">Developing operational standards across Photography, 3D Rendering, and Generative AI workflows.</text>
    </g>
    <text x="100" y="1005" class="text-cylindo-header-footer">MARIO MOJICA AFM — BRAND SYSTEM GUIDELINE</text>
  </g>

  <!-- PAGINA 2: INTRODUCCIÓN -->
  <g id="s2" transform="translate(2020, 0)">
    <use href="#cylindo-slide-content-base" />
    <text x="100" y="150" class="text-cylindo-subtitle" font-size="18">01. INTRODUCTION</text>
    <text x="100" y="220" class="text-cylindo-title" font-size="44">The Scaling Challenge</text>
    <g transform="translate(100, 300)">
      <foreignObject width="800" height="600">
        <div xmlns="http://www.w3.org/1999/xhtml" style="font-family:'Prompt',sans-serif;font-size:22px;color:#666666;line-height:1.7;">
          <p style="margin-bottom:24px;">Over the past decade, Cylindo has worked with more than 300+ furniture retailers and manufacturers to produce visual content at scale across millions of product variations, channels, and customer touchpoints.</p>
          <p style="margin-bottom:24px;"><strong style="color:#141413; font-weight:700;">Consistency is the new limit.</strong> Most teams do not struggle to create visuals, but in creating visuals that remain consistent once production scales.</p>
          <p>Photography, 3D rendering, AI image generation, and hybrid workflows are all becoming part of the same content ecosystem. Consistency does not break because teams lack talent. It breaks because there is no shared system guiding how visual decisions are made.</p>
        </div>
      </foreignObject>
    </g>
    <g transform="translate(1000, 300)">
      <rect width="820" height="600" fill="#F4F5F7" stroke="#E2E2EB" stroke-width="2" />
      <rect width="820" height="8" fill="#0088AA" />
      <text x="410" y="320" class="text-cylindo-body-bold" font-size="20" fill="#666666" text-anchor="middle">ECOSYSTEM ENGINE GRAPH (820 x 600)</text>
    </g>
    <text x="100" y="1005" class="text-cylindo-header-footer">Brand Visual Systems — A Comprehensive Framework</text>
  </g>

  <!-- PAGINA 3: SECCIÓN 1 -->
  <g id="s3" transform="translate(4040, 0)">
    <use href="#cylindo-slide-chapter-base" />
    <g transform="translate(100, 130)">
      <text x="0" y="0" class="text-cylindo-title-white" font-size="44">CHAPTER 01: Brand Foundations</text>
    </g>
    <g transform="translate(100, 360)">
      <text x="0" y="0" class="text-cylindo-subtitle" font-size="28">Strategic Guardrails for Visual Continuity</text>
      <foreignObject x="0" y="60" width="1000" height="400">
        <div xmlns="http://www.w3.org/1999/xhtml" style="font-family:'Prompt',sans-serif;font-size:22px;color:#666666;line-height:1.7;">
          <p>This chapter establishes the core guidelines that govern all branding decisions. By structuring visual communication, we build a scalable and recognizable identity that adapts smoothly to retail models, digital platforms, and production pipelines.</p>
        </div>
      </foreignObject>
    </g>
    <text x="100" y="1005" class="text-cylindo-header-footer">01 / BRAND FOUNDATIONS</text>
  </g>

  <!-- PAGINA 4: VERBAL CONSISTENCY -->
  <g id="s4" transform="translate(6060, 0)">
    <use href="#cylindo-slide-content-base" />
    <text x="100" y="150" class="text-cylindo-subtitle" font-size="18">01. BRAND FOUNDATIONS</text>
    <text x="100" y="220" class="text-cylindo-title" font-size="44">Verbal Consistency &amp; Standards</text>
    <g transform="translate(100, 320)">
      <g transform="translate(0, 0)">
        <rect width="520" height="580" fill="#F4F5F7" stroke="#E2E2EB" stroke-width="2" />
        <rect width="520" height="8" fill="#0088AA" />
        <text x="40" y="80" class="text-cylindo-body-bold" font-size="24">Vocabulary Standards</text>
        <foreignObject x="40" y="130" width="440" height="400">
          <div xmlns="http://www.w3.org/1999/xhtml" style="font-family:'Prompt',sans-serif;font-size:18px;color:#666666;line-height:1.6;">
            Consistent terminology for finishes, fabrics, materials, dimensions, and product features. Eliminates translation errors between design files and retail endpoints.
          </div>
        </foreignObject>
      </g>
      <g transform="translate(600, 0)">
        <rect width="520" height="580" fill="#F4F5F7" stroke="#E2E2EB" stroke-width="2" />
        <rect width="520" height="8" fill="#0088AA" />
        <text x="40" y="80" class="text-cylindo-body-bold" font-size="24">Product Naming</text>
        <foreignObject x="40" y="130" width="440" height="400">
          <div xmlns="http://www.w3.org/1999/xhtml" style="font-family:'Prompt',sans-serif;font-size:18px;color:#666666;line-height:1.6;">
            Clear rules for how products, variants, configurations, and collections are named across channels. Maps 1:1 to structural parameters of CAD models.
          </div>
        </foreignObject>
      </g>
      <g transform="translate(1200, 0)">
        <rect width="520" height="580" fill="#F4F5F7" stroke="#E2E2EB" stroke-width="2" />
        <rect width="520" height="8" fill="#0088AA" />
        <text x="40" y="80" class="text-cylindo-body-bold" font-size="24">Channel Modulation</text>
        <foreignObject x="40" y="130" width="440" height="400">
          <div xmlns="http://www.w3.org/1999/xhtml" style="font-family:'Prompt',sans-serif;font-size:18px;color:#666666;line-height:1.6;">
            Guidance for adapting copy across PDPs, social channels, and marketplaces without diluting the core brand guidelines.
          </div>
        </foreignObject>
      </g>
    </g>
  </g>

  <!-- PAGINA 5: SECCIÓN 2 -->
  <g id="s5" transform="translate(8080, 0)">
    <use href="#cylindo-slide-chapter-base" />
    <g transform="translate(100, 130)">
      <text x="0" y="0" class="text-cylindo-title-white" font-size="44">CHAPTER 02: Visual Principles</text>
    </g>
    <g transform="translate(100, 360)">
      <text x="0" y="0" class="text-cylindo-subtitle" font-size="28">The Psychology of the Hesitation Gap</text>
      <foreignObject x="0" y="60" width="1000" height="400">
        <div xmlns="http://www.w3.org/1999/xhtml" style="font-family:'Prompt',sans-serif;font-size:22px;color:#666666;line-height:1.7;">
          <p>Understanding how visual realism builds trust. By standardizing photorealism, materials, and environment lighting, we close the customer's hesitation gap during remote online evaluations.</p>
        </div>
      </foreignObject>
    </g>
    <text x="100" y="1005" class="text-cylindo-header-footer">02 / VISUAL PRINCIPLES</text>
  </g>

  <!-- PAGINA 6: REALISM & POLISH -->
  <g id="s6" transform="translate(10100, 0)">
    <use href="#cylindo-slide-content-base" />
    <text x="100" y="150" class="text-cylindo-subtitle" font-size="18">02. VISUAL PRINCIPLES</text>
    <text x="100" y="220" class="text-cylindo-title" font-size="44">Balancing Realism and Polish</text>
    <g transform="translate(100, 300)">
      <foreignObject width="800" height="600">
        <div xmlns="http://www.w3.org/1999/xhtml" style="font-family:'Prompt',sans-serif;font-size:22px;color:#666666;line-height:1.7;">
          <p style="margin-bottom:24px;"><strong style="color:#141413; font-weight:700;">Lifestyle Context:</strong> Imagery should place products in realistic, in-context environments that help customers imagine the item in their own homes. The goal is to show aspiration without making the scene feel unreachable.</p>
          <p style="margin-bottom:24px;"><strong style="color:#141413; font-weight:700;">Evaluation Requirements:</strong> Furniture purchases rely heavily on the customer’s ability to evaluate materials, scale, finishes, and configuration options. Visuals must support those decisions clearly, not simply decorate the page.</p>
        </div>
      </foreignObject>
    </g>
    <g transform="translate(1000, 300)">
      <rect width="820" height="600" fill="#F4F5F7" stroke="#E2E2EB" stroke-width="2" />
      <text x="410" y="320" class="text-cylindo-body-bold" font-size="20" fill="#666666" text-anchor="middle">STYLING INTERIOR MODEL (820 x 600)</text>
    </g>
  </g>

  <!-- PAGINA 7: IMAGERY & PERCEIVED QUALITY -->
  <g id="s7" transform="translate(12120, 0)">
    <use href="#cylindo-slide-content-base" />
    <text x="100" y="150" class="text-cylindo-subtitle" font-size="18">02. VISUAL PRINCIPLES</text>
    <text x="100" y="220" class="text-cylindo-title" font-size="44">Imagery and Perceived Quality</text>
    <g transform="translate(100, 320)">
      <g transform="translate(0, 0)">
        <circle cx="20" cy="30" r="10" fill="#0088AA" />
        <text x="50" y="38" class="text-cylindo-body-bold" font-size="22">Digital Craftsmanship</text>
        <text x="50" y="70" class="text-cylindo-body-regular" font-size="18">The quality of the image directly influences product perception. Poor presentation lowers value.</text>
        <line x1="0" y1="100" x2="1720" y2="100" stroke="#E2E2EB" stroke-width="1.5" />
      </g>
      <g transform="translate(0, 140)">
        <circle cx="20" cy="30" r="10" fill="#0088AA" />
        <text x="50" y="38" class="text-cylindo-body-bold" font-size="22">The White-Glove Standard</text>
        <text x="50" y="70" class="text-cylindo-body-regular" font-size="18">Online visuals must replicate the premium care, detail, and confidence of physical showrooms.</text>
        <line x1="0" y1="100" x2="1720" y2="100" stroke="#E2E2EB" stroke-width="1.5" />
      </g>
      <g transform="translate(0, 280)">
        <circle cx="20" cy="30" r="10" fill="#0088AA" />
        <text x="50" y="38" class="text-cylindo-body-bold" font-size="22">Justifying Price Points</text>
        <text x="50" y="70" class="text-cylindo-body-regular" font-size="18">Visible quality (seams, wood grain alignment) helps customers validate higher pricing.</text>
        <line x1="0" y1="100" x2="1720" y2="100" stroke="#E2E2EB" stroke-width="1.5" />
      </g>
    </g>
  </g>

  <!-- PAGINA 8: TABLA DE PRINCIPIOS -->
  <g id="s8" transform="translate(14140, 0)">
    <use href="#cylindo-slide-content-base" />
    <text x="100" y="150" class="text-cylindo-subtitle" font-size="18">02. VISUAL PRINCIPLES</text>
    <text x="100" y="220" class="text-cylindo-title" font-size="44">Visual Trust Principles</text>
    <g transform="translate(100, 320)">
      <rect width="1720" height="70" class="table-header" />
      <text x="40" y="45" class="text-cylindo-body-bold-white" font-size="22">Principle</text>
      <text x="450" y="45" class="text-cylindo-body-bold-white" font-size="22">Strategic Outcome</text>
      <text x="950" y="45" class="text-cylindo-body-bold-white" font-size="22">Practical Application</text>
      <g transform="translate(0, 70)">
        <rect width="1720" height="120" class="table-row-even" />
        <text x="40" y="70" class="text-cylindo-body-bold" font-size="20">Trust Building</text>
        <text x="450" y="70" class="text-cylindo-body-regular" font-size="18">Compensates for the lack of physical touch.</text>
        <text x="950" y="70" class="text-cylindo-body-regular" font-size="18">Show enough detail, angles, and context for purchase.</text>
        <line x1="0" y1="120" x2="1720" y2="120" stroke="#E2E2EB" stroke-width="1" />
      </g>
      <g transform="translate(0, 190)">
        <rect width="1720" height="120" class="table-row-odd" />
        <text x="40" y="70" class="text-cylindo-body-bold" font-size="20">Realism</text>
        <text x="450" y="70" class="text-cylindo-body-regular" font-size="18">Supports material and scale evaluation.</text>
        <text x="950" y="70" class="text-cylindo-body-regular" font-size="18">Use realistic room scenes and physically plausible lighting.</text>
        <line x1="0" y1="120" x2="1720" y2="120" stroke="#E2E2EB" stroke-width="1" />
      </g>
      <g transform="translate(0, 310)">
        <rect width="1720" height="120" class="table-row-even" />
        <text x="40" y="70" class="text-cylindo-body-bold" font-size="20">Accuracy</text>
        <text x="450" y="70" class="text-cylindo-body-regular" font-size="18">Protects brand trust and loyalty.</text>
        <text x="950" y="70" class="text-cylindo-body-regular" font-size="18">Ensure the product shown online matches what customers expect.</text>
        <line x1="0" y1="120" x2="1720" y2="120" stroke="#E2E2EB" stroke-width="1" />
      </g>
    </g>
  </g>

  <!-- PAGINA 9: SECCIÓN 3 -->
  <g id="s9" transform="translate(16160, 0)">
    <use href="#cylindo-slide-chapter-base" />
    <g transform="translate(100, 130)">
      <text x="0" y="0" class="text-cylindo-title-white" font-size="44">CHAPTER 03: Design System Architecture</text>
    </g>
    <g transform="translate(100, 360)">
      <text x="0" y="0" class="text-cylindo-subtitle" font-size="28">Structural Clarity for Scaling Asset Production</text>
      <foreignObject x="0" y="60" width="1000" height="400">
        <div xmlns="http://www.w3.org/1999/xhtml" style="font-family:'Prompt',sans-serif;font-size:22px;color:#666666;line-height:1.7;">
          <p>Structuring modular elements, layouts, and components that allow design teams to quickly adapt contents for multiple channels while maintaining strict design consistency.</p>
        </div>
      </foreignObject>
    </g>
    <text x="100" y="1005" class="text-cylindo-header-footer">03 / DESIGN SYSTEM ARCHITECTURE</text>
  </g>

  <!-- ==================== FILA 2 (y: 1200) ==================== -->

  <!-- PAGINA 10: LAYOUT LOGIC -->
  <g id="s10" transform="translate(0, 1200)">
    <use href="#cylindo-slide-content-base" />
    <text x="100" y="150" class="text-cylindo-subtitle" font-size="18">03. DESIGN SYSTEM ARCHITECTURE</text>
    <text x="100" y="220" class="text-cylindo-title" font-size="44">Layout Logic and Visual Flow</text>
    <g transform="translate(100, 300)">
      <rect width="800" height="600" fill="#F4F5F7" stroke="#E2E2EB" stroke-width="2" rx="6" />
      <text x="400" y="310" class="text-cylindo-body-bold" font-size="20" fill="#666666" text-anchor="middle">LIFESTYLE COMPOSITION ENGINE (800 x 600)</text>
      <g transform="translate(860, 0)">
        <foreignObject width="860" height="100">
          <div xmlns="http://www.w3.org/1999/xhtml" style="font-family:'Prompt',sans-serif;font-size:18px;color:#666666;line-height:1.6;">
            In furniture e-commerce, layout logic is about standardized visual presentation as much as interface design. It ensures customers can compare products accurately.
          </div>
        </foreignObject>
        <g transform="translate(0, 100)">
          <rect width="860" height="140" fill="#EBF7FA" stroke="#BCE5ED" stroke-width="1.5" rx="8" />
          <rect width="8" height="140" fill="#0088AA" rx="4" />
          <text x="40" y="45" class="text-cylindo-body-bold" font-size="20" fill="#006680">Standardized Product Presentation</text>
          <text x="40" y="80" class="text-cylindo-body-regular" font-size="16" fill="#445566">Products should be framed, scaled, and presented consistently so customers can compare silhouettes.</text>
        </g>
        <g transform="translate(0, 260)">
          <rect width="860" height="140" fill="#EBF7FA" stroke="#BCE5ED" stroke-width="1.5" rx="8" />
          <rect width="8" height="140" fill="#0088AA" rx="4" />
          <text x="40" y="45" class="text-cylindo-body-bold" font-size="20" fill="#006680">Predictable Visual Discovery</text>
          <text x="40" y="80" class="text-cylindo-body-regular" font-size="16" fill="#445566">Product galleries should follow a consistent sequence: hero image, alternate angles, detail shots, and room-view tools.</text>
        </g>
        <g transform="translate(0, 420)">
          <rect width="860" height="140" fill="#EBF7FA" stroke="#BCE5ED" stroke-width="1.5" rx="8" />
          <rect width="8" height="140" fill="#0088AA" rx="4" />
          <text x="40" y="45" class="text-cylindo-body-bold" font-size="20" fill="#006680">Imagery Behavior Consistency</text>
          <text x="40" y="80" class="text-cylindo-body-regular" font-size="16" fill="#445566">Interactive features such as zoom, 360 views, configurators, or room-view tools should behave consistently.</text>
        </g>
      </g>
    </g>
    <text x="100" y="1005" class="text-cylindo-header-footer">Brand Visual Systems — A Comprehensive Framework</text>
  </g>

  <!-- PAGINA 11: REUSABLE COMPONENTS -->
  <g id="s11" transform="translate(2020, 1200)">
    <use href="#cylindo-slide-content-base" />
    <text x="100" y="150" class="text-cylindo-subtitle" font-size="18">03. DESIGN SYSTEM ARCHITECTURE</text>
    <text x="100" y="220" class="text-cylindo-title" font-size="44">Reusable Visual Components</text>
    <g transform="translate(100, 320)">
      <g transform="translate(0, 0)">
        <rect width="520" height="580" fill="#F4F5F7" stroke="#E2E2EB" stroke-width="2" />
        <rect width="520" height="8" fill="#0088AA" />
        <text x="40" y="80" class="text-cylindo-body-bold" font-size="24">Interactive Galleries</text>
        <text x="40" y="140" class="text-cylindo-body-regular" font-size="18">
          Unified UI components for image zoom, 360-degree spinners, and AR anchor buttons.
        </text>
      </g>
      <g transform="translate(600, 0)">
        <rect width="520" height="580" fill="#F4F5F7" stroke="#E2E2EB" stroke-width="2" />
        <rect width="520" height="8" fill="#0088AA" />
        <text x="40" y="80" class="text-cylindo-body-bold" font-size="24">Material Selectors</text>
        <text x="40" y="140" class="text-cylindo-body-regular" font-size="18">
          Standardized visual selectors to compare fabric weaves, leather finishes, and wood grains side by side.
        </text>
      </g>
      <g transform="translate(1200, 0)">
        <rect width="520" height="580" fill="#F4F5F7" stroke="#E2E2EB" stroke-width="2" />
        <rect width="520" height="8" fill="#0088AA" />
        <text x="40" y="80" class="text-cylindo-body-bold" font-size="24">Ambient Templates</text>
        <text x="40" y="140" class="text-cylindo-body-regular" font-size="18">
          Pre-approved lifestyle scenes that ensure products are rendered in a consistent, on-brand context.
        </text>
      </g>
    </g>
  </g>

  <!-- PAGINA 12: SECCIÓN 4 -->
  <g id="s12" transform="translate(4040, 1200)">
    <use href="#cylindo-slide-chapter-base" />
    <g transform="translate(100, 130)">
      <text x="0" y="0" class="text-cylindo-title-white" font-size="44">CHAPTER 04: Spatial &amp; Environmental Logic</text>
    </g>
    <g transform="translate(100, 360)">
      <text x="0" y="0" class="text-cylindo-subtitle" font-size="28">Constructing the Brand World in 3D Space</text>
      <foreignObject x="0" y="60" width="1000" height="400">
        <div xmlns="http://www.w3.org/1999/xhtml" style="font-family:'Prompt',sans-serif;font-size:22px;color:#666666;line-height:1.7;">
          <p>Rules that determine how 3D spaces are set up. Defining ceiling heights, architectural finishes, floor surfaces, and ambient elements to ground the product naturally.</p>
        </div>
      </foreignObject>
    </g>
    <text x="100" y="1005" class="text-cylindo-header-footer">04 / SPATIAL LOGIC</text>
  </g>

  <!-- PAGINA 13: SCENE DENSITY -->
  <g id="s13" transform="translate(6060, 1200)">
    <use href="#cylindo-slide-content-base" />
    <text x="100" y="150" class="text-cylindo-subtitle" font-size="18">04. SPATIAL &amp; ENVIRONMENTAL LOGIC</text>
    <text x="100" y="220" class="text-cylindo-title" font-size="44">Environmental Variables &amp; Logic</text>
    <g transform="translate(100, 300)">
      <rect width="1720" height="70" class="table-header" />
      <text x="40" y="45" class="text-cylindo-body-bold-white" font-size="22">Variable</text>
      <text x="400" y="45" class="text-cylindo-body-bold-white" font-size="22">Principle</text>
      <text x="900" y="45" class="text-cylindo-body-bold-white" font-size="22">Example Execution</text>
      <g transform="translate(0, 70)">
        <rect width="1720" height="110" class="table-row-even" />
        <text x="40" y="65" class="text-cylindo-body-bold" font-size="20">Room Types</text>
        <text x="400" y="65" class="text-cylindo-body-regular" font-size="18">Define the architectural backdrop.</text>
        <text x="900" y="65" class="text-cylindo-body-regular" font-size="18">Limit scenes to 3 templates (e.g. Urban Loft, Studio). Floor oak.</text>
        <line x1="0" y1="110" x2="1720" y2="110" stroke="#E2E2EB" stroke-width="1" />
      </g>
      <g transform="translate(0, 180)">
        <rect width="1720" height="110" class="table-row-odd" />
        <text x="40" y="65" class="text-cylindo-body-bold" font-size="20">Stability</text>
        <text x="400" y="65" class="text-cylindo-body-regular" font-size="18">Spaces must feel physically plausible.</text>
        <text x="900" y="65" class="text-cylindo-body-regular" font-size="18">Ceiling heights fixed 2.4 - 2.8m. Vertical lines remain straight.</text>
        <line x1="0" y1="110" x2="1720" y2="110" stroke="#E2E2EB" stroke-width="1" />
      </g>
      <g transform="translate(0, 290)">
        <rect width="1720" height="110" class="table-row-even" />
        <text x="40" y="65" class="text-cylindo-body-bold" font-size="20">Product Anchoring</text>
        <text x="400" y="65" class="text-cylindo-body-regular" font-size="18">Ground objects to avoid floating.</text>
        <text x="900" y="65" class="text-cylindo-body-regular" font-size="18">Use explicit contact shadows on the floor/rug planes.</text>
        <line x1="0" y1="110" x2="1720" y2="110" stroke="#E2E2EB" stroke-width="1" />
      </g>
      <g transform="translate(0, 400)">
        <rect width="1720" height="110" class="table-row-odd" />
        <text x="40" y="65" class="text-cylindo-body-bold" font-size="20">Scene Density</text>
        <text x="400" y="65" class="text-cylindo-body-regular" font-size="18">Manage visual noise and focus.</text>
        <text x="900" y="65" class="text-cylindo-body-regular" font-size="18">Limit minimal scenes to no more than 5 intentional props.</text>
        <line x1="0" y1="110" x2="1720" y2="110" stroke="#E2E2EB" stroke-width="1" />
      </g>
    </g>
  </g>

  <!-- PAGINA 14: SECCIÓN 5 -->
  <g id="s14" transform="translate(8080, 1200)">
    <use href="#cylindo-slide-chapter-base" />
    <g transform="translate(100, 130)">
      <text x="0" y="0" class="text-cylindo-title-white" font-size="44">CHAPTER 05: Composition &amp; Camera Standards</text>
    </g>
    <g transform="translate(100, 360)">
      <text x="0" y="0" class="text-cylindo-subtitle" font-size="28">Defining the Viewer's Journey Through Perspective</text>
      <foreignObject x="0" y="60" width="1000" height="400">
        <div xmlns="http://www.w3.org/1999/xhtml" style="font-family:'Prompt',sans-serif;font-size:22px;color:#666666;line-height:1.7;">
          <p>Rules that determine focal length, camera heights, framing margins, and angles. Ensures that products are viewed in an honest, appealing, and consistent format.</p>
        </div>
      </foreignObject>
    </g>
    <text x="100" y="1005" class="text-cylindo-header-footer">05 / CAMERA STANDARDS</text>
  </g>

  <!-- PAGINA 15: CAMERA STANDARDS TABLE -->
  <g id="s15" transform="translate(10100, 1200)">
    <use href="#cylindo-slide-content-base" />
    <text x="100" y="150" class="text-cylindo-subtitle" font-size="18">05. COMPOSITION &amp; CAMERA STANDARDS</text>
    <text x="100" y="220" class="text-cylindo-title" font-size="44">Camera Boundaries &amp; Lenses</text>
    <g transform="translate(100, 300)">
      <rect width="1720" height="70" class="table-header" />
      <text x="40" y="45" class="text-cylindo-body-bold-white" font-size="22">Camera Area</text>
      <text x="450" y="45" class="text-cylindo-body-bold-white" font-size="22">Practical Standard</text>
      <text x="950" y="45" class="text-cylindo-body-bold-white" font-size="22">Expected Outcome</text>
      <g transform="translate(0, 70)">
        <rect width="1720" height="120" class="table-row-even" />
        <text x="40" y="70" class="text-cylindo-body-bold" font-size="20">Interior Perspective</text>
        <text x="450" y="70" class="text-cylindo-body-regular" font-size="18">Use natural, eye-level human viewpoints.</text>
        <text x="950" y="70" class="text-cylindo-body-regular" font-size="18">Creates spatial trust and relatability.</text>
        <line x1="0" y1="120" x2="1720" y2="120" stroke="#E2E2EB" stroke-width="1" />
      </g>
      <g transform="translate(0, 190)">
        <rect width="1720" height="120" class="table-row-odd" />
        <text x="40" y="70" class="text-cylindo-body-bold" font-size="20">Detail Perspective</text>
        <text x="450" y="70" class="text-cylindo-body-regular" font-size="18">Macro focus on finishes, seams, or textures.</text>
        <text x="950" y="70" class="text-cylindo-body-regular" font-size="18">Allows physical quality evaluation online.</text>
        <line x1="0" y1="120" x2="1720" y2="120" stroke="#E2E2EB" stroke-width="1" />
      </g>
      <g transform="translate(0, 310)">
        <rect width="1720" height="120" class="table-row-even" />
        <text x="40" y="70" class="text-cylindo-body-bold" font-size="20">Hero Framing</text>
        <text x="450" y="70" class="text-cylindo-body-regular" font-size="18">Keep product dominant, centered, and clear.</text>
        <text x="950" y="70" class="text-cylindo-body-regular" font-size="18">Ensures clear focus on the item cataloged.</text>
        <line x1="0" y1="120" x2="1720" y2="120" stroke="#E2E2EB" stroke-width="1" />
      </g>
    </g>
  </g>

  <!-- PAGINA 16: SECCIÓN 6 -->
  <g id="s16" transform="translate(12120, 1200)">
    <use href="#cylindo-slide-chapter-base" />
    <g transform="translate(100, 130)">
      <text x="0" y="0" class="text-cylindo-title-white" font-size="44">CHAPTER 06: Color &amp; Material Governance</text>
    </g>
    <g transform="translate(100, 360)">
      <text x="0" y="0" class="text-cylindo-subtitle" font-size="28">The Foundation of Digital Quality and Reality</text>
      <foreignObject x="0" y="60" width="1000" height="400">
        <div xmlns="http://www.w3.org/1999/xhtml" style="font-family:'Prompt',sans-serif;font-size:22px;color:#666666;line-height:1.7;">
          <p>Defining rules for material rendering, wood grain direction, stitch spacing, and texture resolution. Ensures color accuracy and material honesty across channels.</p>
        </div>
      </foreignObject>
    </g>
    <text x="100" y="1005" class="text-cylindo-header-footer">06 / MATERIAL GOVERNANCE</text>
  </g>

  <!-- PAGINA 17: COLOR DISCIPLINE -->
  <g id="s17" transform="translate(14140, 1200)">
    <use href="#cylindo-slide-content-base" />
    <text x="100" y="150" class="text-cylindo-subtitle" font-size="18">06. COLOR &amp; MATERIAL GOVERNANCE</text>
    <text x="100" y="220" class="text-cylindo-title" font-size="44">Color Discipline &amp; Sg. Temperature</text>
    <g transform="translate(100, 300)">
      <foreignObject width="800" height="600">
        <div xmlns="http://www.w3.org/1999/xhtml" style="font-family:'Prompt',sans-serif;font-size:22px;color:#666666;line-height:1.7;">
          <p style="margin-bottom:24px;"><strong style="color:#141413; font-weight:700;">Neutral Temperature:</strong> Establish how neutral tones should appear, whether warm, cool, soft, or natural, to support the desired brand mood consistently across high-volume production lines.</p>
          <p style="margin-bottom:24px;"><strong style="color:#141413; font-weight:700;">Exclusions:</strong> Identify finishes, over-processed effects, artificial lighting patterns, or color treatments that are explicitly off-brand.</p>
        </div>
      </foreignObject>
    </g>
    <g transform="translate(1000, 300)">
      <rect width="820" height="600" fill="#F4F5F7" stroke="#E2E2EB" stroke-width="2" />
      <text x="410" y="320" class="text-cylindo-body-bold" font-size="20" fill="#666666" text-anchor="middle">APPROVED COLOR PALETTES (820 x 600)</text>
    </g>
  </g>

  <!-- PAGINA 18: SECCIÓN 7 -->
  <g id="s18" transform="translate(16160, 1200)">
    <use href="#cylindo-slide-chapter-base" />
    <g transform="translate(100, 130)">
      <text x="0" y="0" class="text-cylindo-title-white" font-size="44">CHAPTER 07: Imagery Qualification Standards</text>
    </g>
    <g transform="translate(100, 360)">
      <text x="0" y="0" class="text-cylindo-subtitle" font-size="28">Objective Quality Control and Approval Criteria</text>
      <foreignObject x="0" y="60" width="1000" height="400">
        <div xmlns="http://www.w3.org/1999/xhtml" style="font-family:'Prompt',sans-serif;font-size:22px;color:#666666;line-height:1.7;">
          <p>Criteria for scoring and approving final imagery. Quality control standards for shadows, contrast, noise, details, and context realism.</p>
        </div>
      </foreignObject>
    </g>
    <text x="100" y="1005" class="text-cylindo-header-footer">07 / IMAGERY QUALIFICATION</text>
  </g>

  <!-- ==================== FILA 3 (y: 2400) ==================== -->

  <!-- PAGINA 19: PROP LOGIC -->
  <g id="s19" transform="translate(0, 2400)">
    <use href="#cylindo-slide-content-base" />
    <text x="100" y="150" class="text-cylindo-subtitle" font-size="18">07. IMAGERY QUALIFICATION STANDARDS</text>
    <text x="100" y="220" class="text-cylindo-title" font-size="44">Prop &amp; Background Constraints</text>
    <g transform="translate(100, 320)">
      <g transform="translate(0, 0)">
        <rect width="520" height="580" fill="#F4F5F7" stroke="#E2E2EB" stroke-width="2" />
        <rect width="520" height="8" fill="#0088AA" />
        <text x="40" y="80" class="text-cylindo-body-bold" font-size="24">Prop Restraint</text>
        <text x="40" y="140" class="text-cylindo-body-regular" font-size="18">
          Limit props strictly to items that support scale and shape, without cluttering the scene.
        </text>
      </g>
      <g transform="translate(600, 0)">
        <rect width="520" height="580" fill="#F4F5F7" stroke="#E2E2EB" stroke-width="2" />
        <rect width="520" height="8" fill="#0088AA" />
        <text x="40" y="80" class="text-cylindo-body-bold" font-size="24">The Lived-In Rule</text>
        <text x="40" y="140" class="text-cylindo-body-regular" font-size="18">
          Allow for natural, human moments (folded books, throw blankets) while rejecting sterile look.
        </text>
      </g>
      <g transform="translate(1200, 0)">
        <rect width="520" height="580" fill="#F4F5F7" stroke="#E2E2EB" stroke-width="2" />
        <rect width="520" height="8" fill="#0088AA" />
        <text x="40" y="80" class="text-cylindo-body-bold" font-size="24">Material Accuracy</text>
        <text x="40" y="140" class="text-cylindo-body-regular" font-size="18">
          Check environmental textures. Prop shadows should match the direction of primary source.
        </text>
      </g>
    </g>
  </g>

  <!-- PAGINA 20: EMOTIONAL TONE ALIGNMENT -->
  <g id="s20" transform="translate(2020, 2400)">
    <use href="#cylindo-slide-content-base" />
    <text x="100" y="150" class="text-cylindo-subtitle" font-size="18">07. IMAGERY QUALIFICATION STANDARDS</text>
    <text x="100" y="220" class="text-cylindo-title" font-size="44">Emotional Tone Alignment</text>
    <g transform="translate(100, 300)">
      <foreignObject width="800" height="600">
        <div xmlns="http://www.w3.org/1999/xhtml" style="font-family:'Prompt',sans-serif;font-size:22px;color:#666666;line-height:1.7;">
          <p style="margin-bottom:24px;"><strong style="color:#141413; font-weight:700;">Tonally Correct:</strong> Every asset must feel aligned with the broader mood, not just technically accurate. Flat rendering, cold shadows, or stiff styling are rejected.</p>
          <p>Tone alignment secures that visual warmth, texture, and scene mood match intended premium positioning.</p>
        </div>
      </foreignObject>
    </g>
    <g transform="translate(1000, 300)">
      <rect width="820" height="600" fill="#F4F5F7" stroke="#E2E2EB" stroke-width="2" />
      <text x="410" y="320" class="text-cylindo-body-bold" font-size="20" fill="#666666" text-anchor="middle">MOOD GRID REFERENCE (820 x 600)</text>
    </g>
  </g>

  <!-- PAGINA 21: SECCIÓN 8 -->
  <g id="s21" transform="translate(4040, 2400)">
    <use href="#cylindo-slide-chapter-base" />
    <g transform="translate(100, 130)">
      <text x="0" y="0" class="text-cylindo-title-white" font-size="44">CHAPTER 08: AI &amp; Automation Readiness</text>
    </g>
    <g transform="translate(100, 360)">
      <text x="0" y="0" class="text-cylindo-subtitle" font-size="28">Scaling Visual Production Without Brand Randomness</text>
      <foreignObject x="0" y="60" width="1000" height="400">
        <div xmlns="http://www.w3.org/1999/xhtml" style="font-family:'Prompt',sans-serif;font-size:22px;color:#666666;line-height:1.7;">
          <p>Guidelines for integrating Generative AI models into production pipelines. How to structure prompts, models, and checkpoints to maintain architectural and branding control.</p>
        </div>
      </foreignObject>
    </g>
    <text x="100" y="1005" class="text-cylindo-header-footer">08 / AI AND AUTOMATION</text>
  </g>

  <!-- PAGINA 22: SECCIÓN 9 -->
  <g id="s22" transform="translate(6060, 2400)">
    <use href="#cylindo-slide-chapter-base" />
    <g transform="translate(100, 130)">
      <text x="0" y="0" class="text-cylindo-title-white" font-size="44">CHAPTER 09: Governance and Evolution</text>
    </g>
    <g transform="translate(100, 360)">
      <text x="0" y="0" class="text-cylindo-subtitle" font-size="28">Maintaining the Visual System Over Time</text>
      <foreignObject x="0" y="60" width="1000" height="400">
        <div xmlns="http://www.w3.org/1999/xhtml" style="font-family:'Prompt',sans-serif;font-size:22px;color:#666666;line-height:1.7;">
          <p>Establishing review cycles, documentation versioning, and onboarding systems to protect visual continuity as technologies and pipelines evolve.</p>
        </div>
      </foreignObject>
    </g>
    <text x="100" y="1005" class="text-cylindo-header-footer">09 / GOVERNANCE</text>
  </g>

  <!-- PAGINA 23: CASE STUDY INTRO -->
  <g id="s23" transform="translate(8080, 2400)">
    <use href="#cylindo-slide-content-base" />
    <text x="100" y="150" class="text-cylindo-subtitle" font-size="18">09. GOVERNANCE &amp; CASE STUDY</text>
    <text x="100" y="220" class="text-cylindo-title" font-size="44">Case Analysis: Lulu &amp; Georgia</text>
    <g transform="translate(100, 300)">
      <foreignObject width="800" height="600">
        <div xmlns="http://www.w3.org/1999/xhtml" style="font-family:'Prompt',sans-serif;font-size:22px;color:#666666;line-height:1.7;">
          <p style="margin-bottom:24px;"><strong style="color:#141413; font-weight:700;">Elevated Heritage:</strong> Lulu &amp; Georgia served as a prime example of codifying an aesthetic to support rapid digital growth. By establishing structured rules, they bridged the gap between physical photography, 3D render, and AI.</p>
        </div>
      </foreignObject>
    </g>
    <g transform="translate(1000, 300)">
      <rect width="820" height="600" fill="#F4F5F7" stroke="#E2E2EB" stroke-width="2" />
      <text x="410" y="320" class="text-cylindo-body-bold" font-size="20" fill="#666666" text-anchor="middle">LULU &amp; GEORGIA BRAND WORLD (820 x 600)</text>
    </g>
  </g>

  <!-- PAGINA 24: THE SOLUTION -->
  <g id="s24" transform="translate(10100, 2400)">
    <use href="#cylindo-slide-content-base" />
    <text x="100" y="150" class="text-cylindo-subtitle" font-size="18">09. CASE STUDY</text>
    <text x="100" y="220" class="text-cylindo-title" font-size="44">The Solution: Codified Rules</text>
    <g transform="translate(100, 320)">
      <g transform="translate(0, 0)">
        <rect width="520" height="580" fill="#F4F5F7" stroke="#E2E2EB" stroke-width="2" />
        <rect width="520" height="8" fill="#0088AA" />
        <text x="40" y="80" class="text-cylindo-body-bold" font-size="24">Color Discipline</text>
        <text x="40" y="140" class="text-cylindo-body-regular" font-size="18">
          Enforced strict palette of warm, muted, earthy tones while excluding cool artificial elements.
        </text>
      </g>
      <g transform="translate(600, 0)">
        <rect width="520" height="580" fill="#F4F5F7" stroke="#E2E2EB" stroke-width="2" />
        <rect width="520" height="8" fill="#0088AA" />
        <text x="40" y="80" class="text-cylindo-body-bold" font-size="24">Styling Logic</text>
        <text x="40" y="140" class="text-cylindo-body-regular" font-size="18">
          Defined "collected" scenes through layered, asymmetrical compositions rather than showroom-style.
        </text>
      </g>
      <g transform="translate(1200, 0)">
        <rect width="520" height="580" fill="#F4F5F7" stroke="#E2E2EB" stroke-width="2" />
        <rect width="520" height="8" fill="#0088AA" />
        <text x="40" y="80" class="text-cylindo-body-bold" font-size="24">Natural Light</text>
        <text x="40" y="140" class="text-cylindo-body-regular" font-size="18">
          Prioritized natural directional light to build character and scale in the digital environment.
        </text>
      </g>
    </g>
  </g>

  <!-- PAGINA 25: THE RESULTS -->
  <g id="s25" transform="translate(12120, 2400)">
    <use href="#cylindo-slide-content-base" />
    <text x="100" y="150" class="text-cylindo-subtitle" font-size="18">09. CASE STUDY</text>
    <text x="100" y="220" class="text-cylindo-title" font-size="44">Lulu &amp; Georgia: The Results</text>
    <g transform="translate(100, 300)">
      <foreignObject width="800" height="600">
        <div xmlns="http://www.w3.org/1999/xhtml" style="font-family:'Prompt',sans-serif;font-size:22px;color:#666666;line-height:1.7;">
          <p style="margin-bottom:24px;"><strong style="color:#141413; font-weight:700;">Scale &amp; Cohesion:</strong> By transforming guidelines into a functional system, L&amp;G scaled asset volume for more SKUs without a loss of brand integrity.</p>
          <p>Customer experience remains cohesive, protecting premium perception across photography and 3D configs.</p>
        </div>
      </foreignObject>
    </g>
    <g transform="translate(1000, 300)">
      <rect width="820" height="600" fill="#F4F5F7" stroke="#E2E2EB" stroke-width="2" />
      <text x="410" y="320" class="text-cylindo-body-bold" font-size="20" fill="#666666" text-anchor="middle">L&amp;G CONTENT MATRIX (820 x 600)</text>
    </g>
  </g>

  <!-- PAGINA 26: CONCLUSION -->
  <g id="s26" transform="translate(14140, 2400)">
    <use href="#cylindo-slide-content-base" />
    <text x="100" y="150" class="text-cylindo-subtitle" font-size="18">CONCLUSION</text>
    <text x="100" y="220" class="text-cylindo-title" font-size="44">The Imperative of Visual Infrastructure</text>
    <g transform="translate(100, 300)">
      <foreignObject width="1720" height="600">
        <div xmlns="http://www.w3.org/1999/xhtml" style="font-family:'Prompt',sans-serif;font-size:26px;color:#666666;line-height:1.8;">
          <p style="margin-bottom:30px;">The challenge for modern furniture brands is no longer simply "producing content" but producing consistent, high-quality, on-brand content at a scale that meets the demands of the digital-first consumer.</p>
          <p style="margin-bottom:30px;"><strong style="color:#141413; font-weight:700;">A visual brand system is the infrastructure</strong> that reduces ambiguity, shortens production cycles, and protects perceived quality across all rendering, photography, and AI workflows.</p>
          <p>Organizations that build structured visual systems will be best positioned to create consistent, trustworthy customer experiences across every channel, campaign, and technology.</p>
        </div>
      </foreignObject>
    </g>
  </g>

  <!-- PAGINA 27: CALL TO ACTION -->
  <g id="s27" transform="translate(16160, 2400)">
    <rect width="1920" height="1080" fill="#141413" />
    <rect width="1920" height="12" fill="#0088AA" />
    <g transform="translate(180, 240)">
      <text x="0" y="0" class="text-cylindo-title-white" font-size="64">See Cylindo in action</text>
      <text x="0" y="70" class="text-cylindo-body-regular-white" font-size="24">Ready to turn visual consistency into a scalable system?</text>
      <text x="0" y="110" class="text-cylindo-body-regular-white" font-size="24" opacity="0.8">Book a demo to see how your product visuals can work harder.</text>
      <g transform="translate(0, 180)">
        <rect width="360" height="70" fill="#0088AA" rx="5" />
        <text x="180" y="42" class="text-cylindo-body-bold-white" font-size="20" text-anchor="middle">BOOK A DEMO</text>
      </g>
    </g>
    <g transform="translate(180, 780)">
      <line x1="0" y1="0" x2="1560" y2="0" stroke="#555555" stroke-width="1.5" />
      <text x="0" y="50" class="text-cylindo-body-bold-white" font-size="24">Mario Mojica</text>
      <text x="0" y="80" class="text-cylindo-body-regular-white" font-size="18" opacity="0.6">Algorithmic Furniture Manufacturing (AFM) — 2026</text>
    </g>
    <rect x="1820" y="1040" width="100" height="40" fill="#0088AA" />
  </g>

  <!-- Inyección de logos en cabeceras superiores derechas -->
  <g id="injected-logos-layer">
    <!-- Fila 1 -->
    <use href="#logo-mm-white" x="1520" y="50" width="300" height="47.1" /> <!-- P1 (Portada) -->
    <use href="#logo-mm-dark" x="3540" y="50" width="300" height="47.1" /> <!-- P2 -->
    <use href="#logo-mm-white" x="5560" y="50" width="300" height="47.1" /> <!-- P3 -->
    <use href="#logo-mm-dark" x="7580" y="50" width="300" height="47.1" /> <!-- P4 -->
    <use href="#logo-mm-white" x="9600" y="50" width="300" height="47.1" /> <!-- P5 -->
    <use href="#logo-mm-dark" x="11620" y="50" width="300" height="47.1" /> <!-- P6 -->
    <use href="#logo-mm-dark" x="13640" y="50" width="300" height="47.1" /> <!-- P7 -->
    <use href="#logo-mm-dark" x="15660" y="50" width="300" height="47.1" /> <!-- P8 -->
    <use href="#logo-mm-white" x="17680" y="50" width="300" height="47.1" /> <!-- P9 -->

    <!-- Fila 2 -->
    <use href="#logo-mm-dark" x="1520" y="1250" width="300" height="47.1" /> <!-- P10 -->
    <use href="#logo-mm-dark" x="3540" y="1250" width="300" height="47.1" /> <!-- P11 -->
    <use href="#logo-mm-white" x="5560" y="1250" width="300" height="47.1" /> <!-- P12 -->
    <use href="#logo-mm-dark" x="7580" y="1250" width="300" height="47.1" /> <!-- P13 -->
    <use href="#logo-mm-white" x="9600" y="1250" width="300" height="47.1" /> <!-- P14 -->
    <use href="#logo-mm-dark" x="11620" y="1250" width="300" height="47.1" /> <!-- P15 -->
    <use href="#logo-mm-white" x="13640" y="1250" width="300" height="47.1" /> <!-- P16 -->
    <use href="#logo-mm-dark" x="15660" y="1250" width="300" height="47.1" /> <!-- P17 -->
    <use href="#logo-mm-white" x="17680" y="1250" width="300" height="47.1" /> <!-- P18 -->

    <!-- Fila 3 -->
    <use href="#logo-mm-dark" x="1520" y="2450" width="300" height="47.1" /> <!-- P19 -->
    <use href="#logo-mm-dark" x="3540" y="2450" width="300" height="47.1" /> <!-- P20 -->
    <use href="#logo-mm-white" x="5560" y="2450" width="300" height="47.1" /> <!-- P21 -->
    <use href="#logo-mm-white" x="7580" y="2450" width="300" height="47.1" /> <!-- P22 -->
    <use href="#logo-mm-dark" x="9600" y="2450" width="300" height="47.1" /> <!-- P23 -->
    <use href="#logo-mm-dark" x="11620" y="2450" width="300" height="47.1" /> <!-- P24 -->
    <use href="#logo-mm-dark" x="13640" y="2450" width="300" height="47.1" /> <!-- P25 -->
    <use href="#logo-mm-dark" x="15660" y="2450" width="300" height="47.1" /> <!-- P26 -->
    <use href="#logo-mm-white" x="17680" y="2450" width="300" height="47.1" /> <!-- P27 -->
  </g>

</svg>
