<?xml version="1.0" encoding="UTF-8" standalone="no"?>
<!-- Created with Inkscape (http://www.inkscape.org/) -->

<svg
   width="200"
   height="31.416"
   viewBox="0 0 52.916665 8.3121501"
   version="1.1"
   id="svg1"
   inkscape:version="1.4.2 (f4327f4, 2025-05-13)"
   sodipodi:docname="Logo_vertical_color_en.svg"
   xmlns:inkscape="http://www.inkscape.org/namespaces/inkscape"
   xmlns:sodipodi="http://sodipodi.sourceforge.net/DTD/sodipodi-0.dtd"
   xmlns="http://www.w3.org/2000/svg"
   xmlns:svg="http://www.w3.org/2000/svg">
  <sodipodi:namedview
     id="namedview1"
     pagecolor="#ffffff"
     bordercolor="#000000"
     borderopacity="0.25"
     inkscape:showpageshadow="2"
     inkscape:pageopacity="0.0"
     inkscape:pagecheckerboard="0"
     inkscape:deskcolor="#d1d1d1"
     inkscape:document-units="mm"
     inkscape:zoom="6.112823"
     inkscape:cx="84.985284"
     inkscape:cy="32.309131"
     inkscape:window-width="2560"
     inkscape:window-height="1494"
     inkscape:window-x="2869"
     inkscape:window-y="-11"
     inkscape:window-maximized="1"
     inkscape:current-layer="layer1" />
  <defs
     id="defs1" />
  <g
     inkscape:label="Capa 1"
     inkscape:groupmode="layer"
     id="layer1">
    <path
       d="m 42.201542,6.2767964 c 0,0.2864562 0,0.5729158 0,0.8593755 0.04824,0 0.09648,0 0.144742,0 0,-0.2864597 0,-0.5729193 0,-0.8593755 0.101638,0 0.20328,0 0.30494,0 0,-0.040189 0,-0.080377 0,-0.1205663 -0.25154,0 -0.503083,0 -0.754608,0 0,0.040189 0,0.080377 0,0.1205663 0.101642,0 0.203284,0 0.304926,0 z"
       stroke="#000000"
       stroke-width="0"
       fill="#000000"
       fill-opacity="1"
       id="path1" />
    <path
       d="m 27.359773,5.2604084 c 0.388796,0 0.740201,-0.085054 1.054223,-0.2551516 0.314042,-0.1700976 0.560778,-0.4102929 0.740233,-0.720579 0.179432,-0.3102966 0.269159,-0.665448 0.269159,-1.0654611 0,-0.400006 -0.08973,-0.7551644 -0.269159,-1.065454 C 28.974774,1.8434766 28.728038,1.6023439 28.413996,1.4303786 28.099974,1.2584097 27.748569,1.1724253 27.359773,1.1724253 c -0.388796,0 -0.740215,0.085984 -1.054258,0.2579533 -0.314008,0.1719653 -0.560761,0.413098 -0.740198,0.7233841 -0.179454,0.3102896 -0.269174,0.665448 -0.269174,1.065454 0,0.4000131 0.08972,0.7551645 0.269174,1.0654611 0.179437,0.3102861 0.42619,0.5504814 0.740198,0.720579 0.314043,0.1700975 0.665462,0.2551516 1.054258,0.2551516 z m 0,-0.5159065 c -0.276649,0 -0.528072,-0.06262 -0.754238,-0.187859 C 26.379369,4.4314036 26.200853,4.2538349 26.070017,4.0239194 25.93916,3.7940074 25.873739,3.5257708 25.873739,3.2192167 c 0,-0.3028114 0.06635,-0.5701106 0.199076,-0.8018904 0.132707,-0.2317833 0.312158,-0.409359 0.538324,-0.5327305 0.226183,-0.1233645 0.479456,-0.1850503 0.759855,-0.1850503 0.276627,0 0.52712,0.062616 0.751414,0.1878519 0.224302,0.1252394 0.400933,0.302815 0.529926,0.532727 0.128968,0.2299156 0.193455,0.4962809 0.193455,0.7990923 0,0.3065541 -0.06542,0.5747907 -0.196257,0.8047027 -0.130839,0.2299155 -0.309359,0.4074842 -0.535539,0.5327235 -0.226166,0.1252393 -0.477589,0.187859 -0.75422,0.187859 z"
       stroke="#000000"
       stroke-width="0"
       fill="#000000"
       fill-opacity="1"
       id="path2" />
    <path
       d="m 45.753158,7.1361719 c 0.133027,0 0.233735,-0.034571 0.302127,-0.1037458 0.06839,-0.06916 0.102576,-0.1635604 0.102576,-0.2831858 0,-0.1976701 0,-0.3953437 0,-0.5930102 -0.04776,0 -0.09555,0 -0.143332,0 0,0.1995378 0,0.3990792 0,0.598617 0,0.083176 -0.02344,0.1460315 -0.07027,0.1885568 -0.04684,0.042525 -0.110537,0.063786 -0.191101,0.063786 -0.08151,0 -0.14569,-0.021285 -0.192522,-0.063786 -0.04685,-0.042525 -0.07025,-0.1053811 -0.07025,-0.1885568 0,-0.1995378 0,-0.3990792 0,-0.598617 -0.04779,0 -0.09557,0 -0.143349,0 0,0.1976665 0,0.3953401 0,0.5930102 0,0.1205593 0.03422,0.2151918 0.10259,0.283887 0.06839,0.068695 0.169558,0.1030446 0.303534,0.1030446 z"
       stroke="#000000"
       stroke-width="0"
       fill="#000000"
       fill-opacity="1"
       id="path3" />
    <path
       d="m 11.759266,6.1562301 c 0,0.3266484 0,0.6532898 0,0.9799418 0.04778,0 0.09556,0 0.143336,0 0,-0.1444033 0,-0.2887997 0,-0.4331995 0.125531,0 0.251067,0 0.376602,0 0,-0.037845 0,-0.075701 0,-0.1135534 -0.125535,0 -0.251071,0 -0.376602,0 0,-0.1042075 0,-0.2084186 0,-0.3126226 0.168162,0 0.336322,0 0.504484,0 0,-0.040189 0,-0.080377 0,-0.1205663 -0.215942,0 -0.431881,0 -0.64782,0 z"
       stroke="#000000"
       stroke-width="0"
       fill="#000000"
       fill-opacity="1"
       id="path4" />
    <path
       d="m 38.796071,7.1361719 c 0.133027,0 0.233756,-0.034571 0.302127,-0.1037458 0.06839,-0.06916 0.102594,-0.1635604 0.102594,-0.2831858 0,-0.1976701 0,-0.3953437 0,-0.5930102 -0.04778,0 -0.09557,0 -0.143332,0 0,0.1995378 0,0.3990792 0,0.598617 0,0.083176 -0.02343,0.1460315 -0.07027,0.1885568 -0.04683,0.042525 -0.110537,0.063786 -0.191115,0.063786 -0.08149,0 -0.145669,-0.021285 -0.192504,-0.063786 -0.04685,-0.042525 -0.07027,-0.1053811 -0.07027,-0.1885568 0,-0.1995378 0,-0.3990792 0,-0.598617 -0.04776,0 -0.09555,0 -0.143332,0 0,0.1976665 0,0.3953401 0,0.5930102 0,0.1205593 0.03418,0.2151918 0.102579,0.283887 0.06839,0.068695 0.169569,0.1030446 0.303531,0.1030446 z"
       stroke="#000000"
       stroke-width="0"
       fill="#000000"
       fill-opacity="1"
       id="path6" />
    <path
       d="m 15.522659,7.1361719 c 0.09743,0 0.185494,-0.020369 0.264187,-0.061164 0.0787,-0.040777 0.140534,-0.09835 0.185494,-0.1727371 0.04497,-0.07438 0.06744,-0.1595147 0.06744,-0.2554018 0,-0.095887 -0.02248,-0.1810187 -0.06744,-0.2553983 -0.04496,-0.07438 -0.106797,-0.1321818 -0.185494,-0.1734031 -0.07869,-0.041225 -0.166753,-0.061837 -0.264187,-0.061837 -0.09743,0 -0.185495,0.020616 -0.264191,0.061837 -0.07869,0.041221 -0.140509,0.099024 -0.185477,0.1734031 -0.04498,0.07438 -0.06746,0.1595112 -0.06746,0.2553983 0,0.095887 0.02248,0.1810222 0.06746,0.2554018 0.04497,0.074387 0.106791,0.1319598 0.185477,0.1727371 0.0787,0.040777 0.16676,0.061164 0.264191,0.061164 z m 0,-0.1236711 c -0.06932,0 -0.13233,-0.015013 -0.189008,-0.045034 -0.05668,-0.030025 -0.101406,-0.072589 -0.134198,-0.1276992 -0.03277,-0.055113 -0.04917,-0.1194139 -0.04917,-0.1928984 0,-0.072589 0.01663,-0.1366609 0.04989,-0.1922218 0.03323,-0.055561 0.07822,-0.098125 0.134895,-0.1276992 0.05668,-0.029567 0.120147,-0.044365 0.190418,-0.044365 0.06932,0 0.132094,0.015013 0.188296,0.045034 0.0562,0.030025 0.100472,0.072589 0.132788,0.1276992 0.03232,0.055113 0.04848,0.1189629 0.04848,0.1915522 0,0.073485 -0.01632,0.1377851 -0.04917,0.1928984 -0.03281,0.05511 -0.07752,0.097677 -0.134198,0.1276992 -0.05668,0.030025 -0.119685,0.045034 -0.189011,0.045034 z"
       stroke="#000000"
       stroke-width="0"
       fill="#000000"
       fill-opacity="1"
       id="path7" />
    <path
       d="m 28.865869,7.1361719 c 0.07308,-2.47e-5 0.137711,-0.00899 0.193931,-0.026924 0.05622,-0.017938 0.10541,-0.046187 0.147575,-0.084733 0.03327,0.030448 0.06651,0.060921 0.09976,0.091376 0.05714,-1.05e-5 0.11429,0 0.171426,0 -0.06274,-0.056886 -0.125493,-0.1137789 -0.188247,-0.1706649 0.02812,-0.043917 0.0478,-0.088955 0.05905,-0.1351103 0.01121,-0.046155 0.01699,-0.1037318 0.01699,-0.1727371 -0.04169,1.06e-5 -0.08338,0 -0.125067,0 -1.4e-5,0.051085 -0.0032,0.094322 -0.0092,0.129722 -0.0061,0.035403 -0.01759,0.066098 -0.03443,0.092088 -0.08898,-0.080628 -0.17796,-0.161252 -0.26694,-0.2418833 0.06747,-0.042138 0.115038,-0.080691 0.14267,-0.1156432 0.02763,-0.034959 0.04149,-0.077079 0.04149,-0.1263671 1.7e-5,-0.041225 -0.01068,-0.078411 -0.03228,-0.1115658 -0.02153,-0.033162 -0.05175,-0.059353 -0.09063,-0.078608 -0.03887,-0.019242 -0.08312,-0.028862 -0.132788,-0.028862 -0.0787,2.11e-5 -0.1417,0.019982 -0.189029,0.059871 -0.04731,0.039889 -0.07099,0.092997 -0.071,0.1593103 -1.4e-5,0.041225 0.01068,0.078637 0.03228,0.1122319 0.02153,0.033585 0.05573,0.071007 0.102558,0.1122143 -0.07778,0.042141 -0.134229,0.084723 -0.169368,0.1277484 -0.03517,0.043026 -0.05274,0.094562 -0.05274,0.1546021 -3.6e-5,0.080656 0.03274,0.1431523 0.09829,0.1874925 0.06557,0.04434 0.150817,0.066496 0.255736,0.066468 z m 0.0018,-0.1008208 c -0.06372,1.76e-5 -0.115935,-0.01318 -0.156674,-0.039611 -0.04076,-0.026431 -0.06111,-0.064283 -0.06111,-0.113571 1.8e-5,-0.044805 0.0141,-0.083119 0.0422,-0.1149419 0.02812,-0.031823 0.07357,-0.062528 0.136334,-0.09212 0.0974,0.090041 0.194797,0.1800707 0.292196,0.2701114 -0.02904,0.028686 -0.06511,0.050874 -0.10821,0.066567 -0.0431,0.015718 -0.09135,0.023541 -0.144739,0.023541 z m -0.02375,-0.485261 c -0.04215,-0.037627 -0.07212,-0.068086 -0.08992,-0.091376 -0.01776,-0.02333 -0.02668,-0.049281 -0.02668,-0.077967 1.8e-5,-0.037634 0.0117,-0.067208 0.03517,-0.088726 0.02343,-0.021497 0.05574,-0.032281 0.09696,-0.032281 0.04028,-1.06e-5 0.07214,0.010925 0.09555,0.032915 0.02344,0.021955 0.0351,0.051293 0.0351,0.088039 0,0.033162 -0.01121,0.062063 -0.03376,0.08671 -0.02248,0.024669 -0.05997,0.05222 -0.112436,0.0827 z"
       stroke="#000000"
       stroke-width="0"
       fill="#000000"
       fill-opacity="1"
       id="path8" />
    <path
       d="m 21.957584,6.1562301 c 0,0.3266484 0,0.6532898 0,0.9799418 0.04589,0 0.09181,0 0.137711,0 0,-0.2322555 0,-0.464504 0,-0.6967525 0.106801,0.2322485 0.213588,0.464497 0.32039,0.6967525 0.02343,0 0.04685,0 0.07027,0 0.106329,-0.2322555 0.212654,-0.464504 0.31898,-0.6967525 0,0.2322485 0,0.464497 0,0.6967525 0.04638,0 0.09275,0 0.139124,0 0,-0.326652 0,-0.6532934 0,-0.9799418 -0.04778,0 -0.09557,0 -0.143332,0 -0.11663,0.2546793 -0.233278,0.5093587 -0.349908,0.7640416 -0.116647,-0.2546829 -0.233277,-0.5093623 -0.349907,-0.7640416 -0.04778,0 -0.09557,0 -0.143332,0 z"
       stroke="#000000"
       stroke-width="0"
       fill="#000000"
       fill-opacity="1"
       id="path9" />
    <path
       d="m 52.270374,6.1562301 c 0,0.3266484 0,0.6532898 0,0.9799418 0.215435,0 0.43086,0 0.646295,0 0,-0.039724 0,-0.079444 0,-0.1191638 -0.167772,0 -0.33553,0 -0.503287,0 0,-0.1037458 0,-0.2074882 0,-0.311227 0.125236,0 0.250475,0 0.375711,0 0,-0.03972 0,-0.079444 0,-0.1191638 -0.125236,0 -0.250475,0 -0.375711,0 0,-0.1032701 0,-0.2065508 0,-0.3098209 0.167757,0 0.335515,0 0.503287,0 0,-0.040189 0,-0.080377 0,-0.1205663 -0.215435,0 -0.43086,0 -0.646295,0 z"
       stroke="#000000"
       stroke-width="0"
       fill="#000000"
       fill-opacity="1"
       id="path10" />
    <path
       d="m 32.673017,1.2565384 c 0,1.3065833 0,2.6131701 0,3.9197533 0.18319,0 0.366376,0 0.549562,0 0,-0.9290045 0,-1.8580056 0,-2.7870101 0.426172,0.9290045 0.852366,1.8580056 1.278538,2.7870101 0.09346,0 0.186922,0 0.280381,0 0.424322,-0.9290045 0.84863,-1.8580056 1.272935,-2.7870101 0,0.9290045 0,1.8580056 0,2.7870101 0.185072,0 0.370108,0 0.555162,0 0,-1.3065832 0,-2.61317 0,-3.9197533 -0.190654,0 -0.381311,0 -0.571982,0 C 35.572178,2.275263 35.106744,3.2939875 34.641306,4.312712 34.175868,3.2939875 33.710437,2.275263 33.245003,1.2565384 c -0.190657,0 -0.381329,0 -0.571986,0 z"
       stroke="#000000"
       stroke-width="0"
       fill="#000000"
       fill-opacity="1"
       id="path11" />
    <path
       d="m 24.101725,1.2565384 c 0,1.3065833 0,2.6131701 0,3.9197533 0.192525,0 0.385046,0 0.577585,0 0,-1.3065832 0,-2.61317 0,-3.9197533 -0.192539,0 -0.38506,0 -0.577585,0 z"
       stroke="#000000"
       stroke-width="0"
       fill="#000000"
       fill-opacity="1"
       id="path12" />
    <path
       d="m 22.183901,1.2565384 c -0.525252,0 -1.050508,0 -1.57576,0 0,1.3065833 0,2.6131701 0,3.9197533 0.190674,0 0.381328,0 0.571985,0 0,-0.5159065 0,-1.0318059 0,-1.547716 0.285998,0 0.571982,0 0.857984,0 0.278512,0.5159101 0.557011,1.0318095 0.835524,1.547716 0.198142,0 0.396285,0 0.594423,0 -0.287865,-0.5308592 -0.575731,-1.0617149 -0.863583,-1.5925742 0.280381,-0.071028 0.497208,-0.2065473 0.650488,-0.4065573 0.153277,-0.200003 0.229916,-0.4439374 0.229916,-0.7317962 0,-0.3887994 -0.112147,-0.6841327 -0.336463,-0.8860106 -0.224298,-0.2018743 -0.545805,-0.302815 -0.964514,-0.302815 z m -0.09533,1.8897789 c -0.302822,0 -0.605627,0 -0.908449,0 0,-0.4691735 0,-0.938347 0,-1.4075204 0.302822,0 0.605627,0 0.908449,0 0.257939,0 0.458883,0.054208 0.602807,0.1626194 0.143942,0.1084188 0.215914,0.2897335 0.215914,0.5439477 0,0.2317798 -0.07384,0.4065574 -0.221518,0.5243115 -0.147656,0.1177612 -0.346732,0.1766418 -0.597203,0.1766418 z"
       stroke="#000000"
       stroke-width="0"
       fill="#000000"
       fill-opacity="1"
       id="path14" />
    <path
       d="m 17.877216,1.2565384 c -0.52152,1.3065833 -1.043019,2.6131701 -1.56454,3.9197533 0.196275,0 0.392549,0 0.588806,0 0.127118,-0.3252458 0.254222,-0.6504917 0.381325,-0.975734 0.577589,0 1.155171,0 1.732774,0 0.130835,0.3252423 0.261692,0.6504882 0.392527,0.975734 0.194411,0 0.3888,0 0.583189,0 -0.521503,-1.3065832 -1.043023,-2.61317 -1.564519,-3.9197533 -0.183186,0 -0.366376,0 -0.549562,0 z m 0.981355,2.4673677 c -0.471055,0 -0.942093,0 -1.413148,0 0.235533,-0.6112298 0.471055,-1.2224667 0.706571,-1.8337 0.235522,0.6112333 0.471037,1.2224702 0.706577,1.8337 z"
       stroke="#000000"
       stroke-width="0"
       fill="#000000"
       fill-opacity="1"
       id="path15" />
    <path
       d="m 50.802574,1.2565384 c -0.521506,1.3065833 -1.04302,2.6131701 -1.56454,3.9197533 0.196275,0 0.392549,0 0.588806,0 0.127121,-0.3252458 0.254225,-0.6504917 0.381328,-0.975734 0.577582,0 1.155185,0 1.732767,0 0.130842,0.3252423 0.261695,0.6504882 0.392535,0.975734 0.194403,0 0.388795,0 0.583199,0 -0.521517,-1.3065832 -1.043034,-2.61317 -1.564537,-3.9197533 -0.183186,0 -0.366372,0 -0.549558,0 z m 0.981352,2.4673677 c -0.471038,0 -0.94209,0 -1.413131,0 0.235522,-0.6112298 0.471041,-1.2224667 0.706556,-1.8337 0.235537,0.6112333 0.471056,1.2224702 0.706575,1.8337 z"
       stroke="#000000"
       stroke-width="0"
       fill="#000000"
       fill-opacity="1"
       id="path16" />
    <path
       d="m 49.248539,6.1562301 c -0.131614,0 -0.263232,0 -0.394853,0 0,0.3266484 0,0.6532898 0,0.9799418 0.04776,0 0.09555,0 0.143332,0 0,-0.1289819 0,-0.2579568 0,-0.3869316 0.07167,0 0.143328,0 0.214998,0 0.06979,0.1289748 0.139596,0.2579497 0.209377,0.3869316 0.04965,0 0.09932,0 0.148963,0 -0.07214,-0.1327174 -0.144283,-0.2654349 -0.216404,-0.3981488 0.07026,-0.017762 0.124591,-0.051639 0.163004,-0.1016385 0.03841,-0.05 0.05761,-0.1109808 0.05761,-0.1829499 0,-0.097198 -0.02809,-0.1710314 -0.08431,-0.2215 -0.0562,-0.050472 -0.136778,-0.075705 -0.241715,-0.075705 z m -0.02386,0.4724403 c -0.07588,0 -0.151769,0 -0.227646,0 0,-0.117289 0,-0.2345815 0,-0.351874 0.07588,0 0.151769,0 0.227646,0 0.06464,0 0.114998,0.013568 0.151068,0.040654 0.03607,0.0271 0.0541,0.072434 0.0541,0.1359843 0,0.057947 -0.0185,0.1016385 -0.05551,0.1310788 -0.037,0.029426 -0.08689,0.044157 -0.149658,0.044157 z"
       stroke="#000000"
       stroke-width="0"
       fill="#000000"
       fill-opacity="1"
       id="path17" />
    <path
       d="m 19.033116,6.1562301 c -0.131635,0 -0.263257,0 -0.394875,0 0,0.3266484 0,0.6532898 0,0.9799418 0.04778,0 0.09555,0 0.143332,0 0,-0.1289819 0,-0.2579568 0,-0.3869316 0.07166,0 0.143333,0 0.215016,0 0.06978,0.1289748 0.139576,0.2579497 0.209377,0.3869316 0.04965,0 0.0993,0 0.148946,0 -0.07214,-0.1327174 -0.144266,-0.2654349 -0.216404,-0.3981488 0.07026,-0.017762 0.124591,-0.051639 0.163004,-0.1016385 0.03842,-0.05 0.05763,-0.1109808 0.05763,-0.1829499 0,-0.097198 -0.02812,-0.1710314 -0.08432,-0.2215 -0.0562,-0.050472 -0.136781,-0.075705 -0.241697,-0.075705 z m -0.02389,0.4724403 c -0.07588,0 -0.151769,0 -0.227642,0 0,-0.117289 0,-0.2345815 0,-0.351874 0.07587,0 0.151765,0 0.227642,0 0.06465,0 0.114998,0.013568 0.151071,0.040654 0.03607,0.0271 0.0541,0.072434 0.0541,0.1359843 0,0.057947 -0.0185,0.1016385 -0.0555,0.1310788 -0.03701,0.029426 -0.0869,0.044157 -0.149665,0.044157 z"
       stroke="#000000"
       stroke-width="0"
       fill="#000000"
       fill-opacity="1"
       id="path18" />
    <path
       d="m 47.331431,5.2604084 c 0.598159,0 1.065458,-0.1401956 1.401924,-0.4205727 0,-0.1850573 0,-0.3701076 0,-0.5551579 -0.186921,0.1607517 -0.389733,0.2775755 -0.608428,0.3504749 -0.218698,0.0729 -0.466368,0.1093492 -0.743013,0.1093492 -0.299069,0 -0.565452,-0.061686 -0.7991,-0.1850538 C 46.349163,4.43608 46.165974,4.2585044 46.033267,4.0267211 45.900549,3.7949342 45.834191,3.5257708 45.834191,3.2192167 c 0,-0.306547 0.06544,-0.57478 0.196278,-0.8046956 0.130839,-0.2299155 0.313091,-0.4065538 0.546742,-0.5299253 0.233651,-0.1233645 0.501877,-0.1850503 0.804703,-0.1850503 0.542073,0 0.97573,0.1439311 1.300976,0.4317863 0,-0.1831825 0,-0.366365 0,-0.5495475 -0.362622,-0.272906 -0.813122,-0.409359 -1.351459,-0.409359 -0.403734,0 -0.762639,0.084113 -1.076664,0.2523429 -0.314025,0.1682298 -0.558897,0.4074912 -0.734598,0.7177808 -0.175715,0.3102861 -0.26356,0.66918 -0.26356,1.0766677 0,0.4074948 0.08785,0.7654478 0.26356,1.0738661 0.175701,0.3084218 0.420573,0.5467529 0.734598,0.7149792 0.314025,0.1682297 0.67293,0.2523464 1.076664,0.2523464 z"
       stroke="#000000"
       stroke-width="0"
       fill="#000000"
       fill-opacity="1"
       id="path19" />
    <path
       d="m 35.04633,6.1562301 c 0,0.3266484 0,0.6532898 0,0.9799418 0.04778,0 0.09555,0 0.143332,0 0,-0.1444033 0,-0.2887997 0,-0.4331995 0.125543,0 0.251067,0 0.376606,0 0,-0.037845 0,-0.075701 0,-0.1135534 -0.125539,0 -0.251063,0 -0.376606,0 0,-0.1042075 0,-0.2084186 0,-0.3126226 0.168163,0 0.336329,0 0.504496,0 0,-0.040189 0,-0.080377 0,-0.1205663 -0.21595,0 -0.431896,0 -0.647828,0 z"
       stroke="#000000"
       stroke-width="0"
       fill="#000000"
       fill-opacity="1"
       id="path20" />
    <path
       d="m 44.06218,1.2565384 c 0,1.3065833 0,2.6131701 0,3.9197533 0.192521,0 0.385064,0 0.577582,0 0,-1.3065832 0,-2.61317 0,-3.9197533 -0.192518,0 -0.385061,0 -0.577582,0 z"
       stroke="#000000"
       stroke-width="0"
       fill="#000000"
       fill-opacity="1"
       id="path21" />
    <path
       d="m 42.340631,5.2604084 c 0.314022,0 0.562625,-0.090657 0.745815,-0.2719721 0.183186,-0.1813112 0.274781,-0.4327238 0.274781,-0.7542341 0,-0.9925511 0,-1.9851092 0,-2.9776638 -0.190675,0 -0.381328,0 -0.571982,0 0,0.9794732 0,1.9589463 0,2.9384124 0,0.3738467 -0.192543,0.5607647 -0.577606,0.5607647 -0.0785,0 -0.161679,-0.00747 -0.249521,-0.022413 -0.08788,-0.014977 -0.159828,-0.033655 -0.21591,-0.056075 0,0.1626229 0,0.3252423 0,0.4878688 0.05982,0.026184 0.147677,0.048597 0.26356,0.067289 0.1159,0.018678 0.22618,0.028052 0.330863,0.028052 z"
       stroke="#000000"
       stroke-width="0"
       fill="#000000"
       fill-opacity="1"
       id="path22" />
    <path
       d="m 11.759266,1.2565384 c 0,1.3065833 0,2.6131701 0,3.9197533 0.183182,0 0.366361,0 0.549548,0 0,-0.9290045 0,-1.8580056 0,-2.7870101 0.42619,0.9290045 0.852366,1.8580056 1.278556,2.7870101 0.09344,0 0.186921,0 0.280363,0 0.424322,-0.9290045 0.84863,-1.8580056 1.272938,-2.7870101 0,0.9290045 0,1.8580056 0,2.7870101 0.185068,0 0.370122,0 0.555158,0 0,-1.3065832 0,-2.61317 0,-3.9197533 -0.190653,0 -0.381307,0 -0.571982,0 C 14.658413,2.275263 14.192996,3.2939875 13.727558,4.312712 13.26212,3.2939875 12.796689,2.275263 12.331244,1.2565384 c -0.19066,0 -0.381317,0 -0.571978,0 z"
       stroke="#000000"
       stroke-width="0"
       fill="#000000"
       fill-opacity="1"
       id="path23" />
    <path
       d="m 39.290061,5.2604084 c 0.388792,0 0.740215,-0.085054 1.054237,-0.2551516 0.314025,-0.1700976 0.560764,-0.4102929 0.740215,-0.720579 0.179436,-0.3102966 0.269163,-0.665448 0.269163,-1.0654611 0,-0.400006 -0.08973,-0.7551644 -0.269163,-1.065454 C 40.905062,1.8434766 40.658323,1.6023439 40.344298,1.4303786 40.030276,1.2584097 39.678853,1.1724253 39.290061,1.1724253 c -0.3888,0 -0.740219,0.085984 -1.054244,0.2579533 -0.314022,0.1719653 -0.560758,0.413098 -0.740215,0.7233841 -0.179433,0.3102896 -0.269157,0.665448 -0.269157,1.065454 0,0.4000131 0.08972,0.7551645 0.269157,1.0654611 0.179457,0.3102861 0.426193,0.5504814 0.740215,0.720579 0.314025,0.1700975 0.665444,0.2551516 1.054244,0.2551516 z m 0,-0.5159065 c -0.276649,0 -0.528054,-0.06262 -0.75422,-0.187859 -0.226184,-0.1252393 -0.404686,-0.302808 -0.535539,-0.5327235 -0.13084,-0.229912 -0.196275,-0.4981486 -0.196275,-0.8047027 0,-0.3028114 0.06635,-0.5701106 0.199076,-0.8018904 0.132704,-0.2317833 0.312154,-0.409359 0.538341,-0.5327305 0.226166,-0.1233645 0.479453,-0.1850503 0.759834,-0.1850503 0.276649,0 0.52712,0.062616 0.751418,0.1878519 0.224316,0.1252394 0.400951,0.302815 0.529922,0.532727 0.128986,0.2299156 0.193473,0.4962809 0.193473,0.7990923 0,0.3065541 -0.06544,0.5747907 -0.196275,0.8047027 -0.130839,0.2299155 -0.309355,0.4074842 -0.535521,0.5327235 -0.22618,0.1252393 -0.477586,0.187859 -0.754234,0.187859 z"
       stroke="#000000"
       stroke-width="0"
       fill="#000000"
       fill-opacity="1"
       id="path24" />
    <g
       id="g1"
       transform="matrix(0.14665148,0,0,0.14665148,20.758266,-19.89578)"
       style="stroke-width:6.81889">
      <path
         d="m -119.68615,192.34671 c 0,-13.43339 0,-26.86674 0,-40.3001 6.47766,13.43336 12.95533,26.86671 19.43301,40.3001 1.349518,0 2.699029,0 4.04854,0 6.477673,-13.43339 12.955346,-26.86674 19.43301,-40.3001 0,13.43336 0,26.86671 0,40.3001 2.699031,0 5.398053,0 8.097104,0 0,-18.89321 0,-37.78643 0,-56.67962 -2.699051,0 -5.398073,0 -8.097104,0 -7.152433,15.06763 -14.304857,30.13526 -21.457281,45.20291 -7.152429,-15.06765 -14.304869,-30.13528 -21.457279,-45.20291 -2.69903,0 -5.39806,0 -8.09709,0 0,18.89319 0,37.78641 0,56.67962 2.69903,0 5.39806,0 8.09709,0 z"
         stroke="#000000"
         stroke-width="0"
         fill="#000000"
         fill-opacity="1"
         id="path1420-2-8-1"
         style="fill:#0088aa;fill-opacity:1" />
      <path
         d="m -90.536637,192.34671 c 2.699031,0 5.398062,0 8.097084,0 0,-18.89321 0,-37.78643 0,-56.67962 -2.699022,0 -5.398053,0 -8.097084,0 -7.152434,15.06763 -14.304853,30.13526 -21.457273,45.20291 -7.15243,-15.06765 -14.30486,-30.13528 -21.45729,-45.20291 -2.69903,0 -5.39807,0 -8.09709,0 0,18.89319 0,37.78641 0,56.67962 2.69902,0 5.39806,0 8.09709,0 0,-13.43339 0,-26.86674 0,-40.3001 6.47767,13.43336 12.95535,26.86671 19.43301,40.3001 1.34952,0 2.69902,0 4.04854,0 6.47768,-13.43339 12.955339,-26.86674 19.433013,-40.3001 0,13.43336 0,26.86671 0,40.3001 z"
         stroke="#000000"
         stroke-width="0"
         fill="#000000"
         fill-opacity="1"
         id="path1422-4-2-8"
         style="fill:#0088aa;fill-opacity:1" />
    </g>
  </g>
</svg>
