<?xml version="1.0" encoding="UTF-8" standalone="no"?>
<!-- Created with Inkscape (http://www.inkscape.org/) -->

<svg
   width="40.391998"
   height="31.416"
   viewBox="0 0 10.687049 8.3121501"
   version="1.1"
   id="svg1"
   inkscape:version="1.4.2 (f4327f4, 2025-05-13)"
   sodipodi:docname="Logosimbolo.svg"
   xmlns:inkscape="http://www.inkscape.org/namespaces/inkscape"
   xmlns:sodipodi="http://sodipodi.sourceforge.net/DTD/sodipodi-0.dtd"
   xmlns="http://www.w3.org/2000/svg"
   xmlns:svg="http://www.w3.org/2000/svg">
  <sodipodi:namedview
     id="namedview1"
     pagecolor="#ffffff"
     bordercolor="#000000"
     borderopacity="0.25"
     inkscape:showpageshadow="2"
     inkscape:pageopacity="0.0"
     inkscape:pagecheckerboard="0"
     inkscape:deskcolor="#d1d1d1"
     inkscape:document-units="mm"
     inkscape:zoom="17.289674"
     inkscape:cx="22.759249"
     inkscape:cy="14.37274"
     inkscape:window-width="2560"
     inkscape:window-height="1494"
     inkscape:window-x="2869"
     inkscape:window-y="-11"
     inkscape:window-maximized="1"
     inkscape:current-layer="layer1" />
  <defs
     id="defs1" />
  <g
     inkscape:label="Capa 1"
     inkscape:groupmode="layer"
     id="layer1">
    <g
       id="g1"
       transform="matrix(0.14665148,0,0,0.14665148,20.758266,-19.89578)"
       style="stroke-width:6.81889">
      <path
         d="m -119.68615,192.34671 c 0,-13.43339 0,-26.86674 0,-40.3001 6.47766,13.43336 12.95533,26.86671 19.43301,40.3001 1.349518,0 2.699029,0 4.04854,0 6.477673,-13.43339 12.955346,-26.86674 19.43301,-40.3001 0,13.43336 0,26.86671 0,40.3001 2.699031,0 5.398053,0 8.097104,0 0,-18.89321 0,-37.78643 0,-56.67962 -2.699051,0 -5.398073,0 -8.097104,0 -7.152433,15.06763 -14.304857,30.13526 -21.457281,45.20291 -7.152429,-15.06765 -14.304869,-30.13528 -21.457279,-45.20291 -2.69903,0 -5.39806,0 -8.09709,0 0,18.89319 0,37.78641 0,56.67962 2.69903,0 5.39806,0 8.09709,0 z"
         stroke="#000000"
         stroke-width="0"
         fill="#000000"
         fill-opacity="1"
         id="path1420-2-8-1"
         style="fill:#0088aa;fill-opacity:1" />
      <path
         d="m -90.536637,192.34671 c 2.699031,0 5.398062,0 8.097084,0 0,-18.89321 0,-37.78643 0,-56.67962 -2.699022,0 -5.398053,0 -8.097084,0 -7.152434,15.06763 -14.304853,30.13526 -21.457273,45.20291 -7.15243,-15.06765 -14.30486,-30.13528 -21.45729,-45.20291 -2.69903,0 -5.39807,0 -8.09709,0 0,18.89319 0,37.78641 0,56.67962 2.69902,0 5.39806,0 8.09709,0 0,-13.43339 0,-26.86674 0,-40.3001 6.47767,13.43336 12.95535,26.86671 19.43301,40.3001 1.34952,0 2.69902,0 4.04854,0 6.47768,-13.43339 12.955339,-26.86674 19.433013,-40.3001 0,13.43336 0,26.86671 0,40.3001 z"
         stroke="#000000"
         stroke-width="0"
         fill="#000000"
         fill-opacity="1"
         id="path1422-4-2-8"
         style="fill:#0088aa;fill-opacity:1" />
    </g>
  </g>
</svg>
