<?xml version="1.0" encoding="UTF-8" standalone="no"?>
<!-- Created with Inkscape (http://www.inkscape.org/) -->

<svg
   width="200"
   height="31.416"
   viewBox="0 0 52.916665 8.3121501"
   version="1.1"
   id="svg1"
   inkscape:version="1.4.2 (f4327f4, 2025-05-13)"
   sodipodi:docname="Logo_vertical_color_en.svg"
   xmlns:inkscape="http://www.inkscape.org/namespaces/inkscape"
   xmlns:sodipodi="http://sodipodi.sourceforge.net/DTD/sodipodi-0.dtd"
   xmlns="http://www.w3.org/2000/svg"
   xmlns:svg="http://www.w3.org/2000/svg">
  <sodipodi:namedview
     id="namedview1"
     pagecolor="#ffffff"
     bordercolor="#000000"
     borderopacity="0.25"
     inkscape:showpageshadow="2"
     inkscape:pageopacity="0.0"
     inkscape:pagecheckerboard="0"
     inkscape:deskcolor="#d1d1d1"
     inkscape:document-units="mm"
     inkscape:zoom="6.112823"
     inkscape:cx="91.692496"
     inkscape:cy="24.783966"
     inkscape:window-width="2560"
     inkscape:window-height="1494"
     inkscape:window-x="2869"
     inkscape:window-y="-11"
     inkscape:window-maximized="1"
     inkscape:current-layer="layer1" />
  <defs
     id="defs1" />
  <g
     inkscape:label="Capa 1"
     inkscape:groupmode="layer"
     id="layer1">
    <g
       id="g3"
       transform="matrix(0.3524096,0,0,0.3524096,-160.67639,-64.616449)">
      <path
         d="m 575.68787,201.16718 c 0,0.81285 0,1.62571 0,2.43857 0.13689,0 0.27378,0 0.41072,0 0,-0.81286 0,-1.62572 0,-2.43857 0.28841,0 0.57683,0 0.8653,0 0,-0.11404 0,-0.22808 0,-0.34212 -0.71377,0 -1.42755,0 -2.14128,0 0,0.11404 0,0.22808 0,0.34212 0.28842,0 0.57684,0 0.86526,0 z"
         stroke="#000000"
         stroke-width="0"
         fill="#000000"
         fill-opacity="1"
         id="path1" />
      <path
         d="m 533.57276,198.28307 c 1.10325,0 2.1004,-0.24135 2.99147,-0.72402 0.89113,-0.48267 1.59127,-1.16425 2.10049,-2.04472 0.50916,-0.8805 0.76377,-1.88828 0.76377,-3.02336 0,-1.13506 -0.25461,-2.14286 -0.76377,-3.02334 -0.50922,-0.88047 -1.20936,-1.56471 -2.10049,-2.05268 -0.89107,-0.48798 -1.88822,-0.73197 -2.99147,-0.73197 -1.10325,0 -2.10044,0.24399 -2.99157,0.73197 -0.89103,0.48797 -1.59122,1.17221 -2.10039,2.05268 -0.50922,0.88048 -0.76381,1.88828 -0.76381,3.02334 0,1.13508 0.25459,2.14286 0.76381,3.02336 0.50917,0.88047 1.20936,1.56205 2.10039,2.04472 0.89113,0.48267 1.88832,0.72402 2.99157,0.72402 z m 0,-1.46394 c -0.78502,0 -1.49846,-0.17769 -2.14023,-0.53307 -0.64177,-0.35538 -1.14833,-0.85925 -1.51959,-1.51166 -0.37132,-0.6524 -0.55696,-1.41355 -0.55696,-2.28343 0,-0.85926 0.18829,-1.61775 0.5649,-2.27545 0.37657,-0.65771 0.88578,-1.1616 1.52755,-1.51168 0.64182,-0.35006 1.36051,-0.5251 2.15617,-0.5251 0.78496,0 1.49576,0.17768 2.13222,0.53305 0.63648,0.35538 1.13769,0.85927 1.50372,1.51167 0.36596,0.65241 0.54895,1.40825 0.54895,2.26751 0,0.86988 -0.18563,1.63103 -0.5569,2.28343 -0.37127,0.65241 -0.87784,1.15628 -1.51965,1.51166 -0.64177,0.35538 -1.35521,0.53307 -2.14018,0.53307 z"
         stroke="#000000"
         stroke-width="0"
         fill="#000000"
         fill-opacity="1"
         id="path2" />
      <path
         d="m 585.76596,203.60575 c 0.37748,0 0.66325,-0.0981 0.85732,-0.29439 0.19406,-0.19625 0.29107,-0.46412 0.29107,-0.80357 0,-0.56091 0,-1.12183 0,-1.68273 -0.13554,0 -0.27113,0 -0.40672,0 0,0.56621 0,1.13243 0,1.69864 0,0.23602 -0.0665,0.41438 -0.1994,0.53505 -0.1329,0.12067 -0.31366,0.181 -0.54227,0.181 -0.23129,0 -0.41341,-0.0604 -0.5463,-0.181 -0.13294,-0.12067 -0.19935,-0.29903 -0.19935,-0.53505 0,-0.56621 0,-1.13243 0,-1.69864 -0.1356,0 -0.27119,0 -0.40677,0 0,0.5609 0,1.12182 0,1.68273 0,0.3421 0.0971,0.61063 0.29111,0.80556 0.19407,0.19493 0.48114,0.2924 0.86131,0.2924 z"
         stroke="#000000"
         stroke-width="0"
         fill="#000000"
         fill-opacity="1"
         id="path3" />
      <path
         d="m 489.30465,200.82506 c 0,0.9269 0,1.85378 0,2.78069 0.13557,0 0.27115,0 0.40673,0 0,-0.40976 0,-0.8195 0,-1.22925 0.35621,0 0.71243,0 1.06865,0 0,-0.10739 0,-0.21481 0,-0.32222 -0.35622,0 -0.71244,0 -1.06865,0 0,-0.2957 0,-0.59141 0,-0.8871 0.47718,0 0.95435,0 1.43153,0 0,-0.11404 0,-0.22808 0,-0.34212 -0.61276,0 -1.22551,0 -1.83826,0 z"
         stroke="#000000"
         stroke-width="0"
         fill="#000000"
         fill-opacity="1"
         id="path4" />
      <path
         d="m 476.95842,206.94256 c 1.11229,0 2.22455,0 3.33682,0 0,-7.78591 0,-15.57181 0,-23.35772 -1.11227,0 -2.22453,0 -3.33682,0 -2.94751,6.20939 -5.89504,12.41876 -8.84257,18.62815 -2.94751,-6.20939 -5.89503,-12.41876 -8.84255,-18.62815 -1.11228,0 -2.22455,0 -3.33682,0 0,7.78591 0,15.57181 0,23.35772 1.11227,0 2.22454,0 3.33682,0 0,-5.5359 0,-11.07181 0,-16.6077 2.66945,5.53589 5.3389,11.0718 8.00835,16.6077 0.55614,0 1.11228,0 1.66841,0 2.66947,-5.5359 5.33891,-11.07181 8.00836,-16.6077 0,5.53589 0,11.0718 0,16.6077 z"
         stroke="#000000"
         stroke-width="0"
         fill="#000000"
         fill-opacity="1"
         id="path5"
         style="fill:#0088aa" />
      <path
         d="m 482.71986,206.71397 c 1.11229,0 2.22455,0 3.33682,0 0,-7.78591 0,-15.57181 0,-23.35772 -1.11227,0 -2.22453,0 -3.33682,0 -2.94751,6.20939 -5.89504,12.41876 -8.84257,18.62815 -2.94751,-6.20939 -5.89503,-12.41876 -8.84255,-18.62815 -1.11228,0 -2.22455,0 -3.33682,0 0,7.78591 0,15.57181 0,23.35772 1.11227,0 2.22454,0 3.33682,0 0,-5.5359 0,-11.07181 0,-16.6077 2.66945,5.53589 5.3389,11.0718 8.00835,16.6077 0.55614,0 1.11228,0 1.66841,0 2.66947,-5.5359 5.33891,-11.07181 8.00836,-16.6077 0,5.53589 0,11.0718 0,16.6077 z"
         stroke="#000000"
         stroke-width="0"
         fill="#000000"
         fill-opacity="1"
         id="path5-2"
         style="fill:#0088aa" />
      <path
         d="m 566.02448,203.60575 c 0.37748,0 0.66331,-0.0981 0.85732,-0.29439 0.19406,-0.19625 0.29112,-0.46412 0.29112,-0.80357 0,-0.56091 0,-1.12183 0,-1.68273 -0.13559,0 -0.27118,0 -0.40672,0 0,0.56621 0,1.13243 0,1.69864 0,0.23602 -0.0665,0.41438 -0.19941,0.53505 -0.13289,0.12067 -0.31366,0.181 -0.54231,0.181 -0.23123,0 -0.41335,-0.0604 -0.54625,-0.181 -0.13294,-0.12067 -0.19941,-0.29903 -0.19941,-0.53505 0,-0.56621 0,-1.13243 0,-1.69864 -0.13553,0 -0.27112,0 -0.40672,0 0,0.5609 0,1.12182 0,1.68273 0,0.3421 0.097,0.61063 0.29108,0.80556 0.19406,0.19493 0.48117,0.2924 0.8613,0.2924 z"
         stroke="#000000"
         stroke-width="0"
         fill="#000000"
         fill-opacity="1"
         id="path6" />
      <path
         d="m 499.98368,203.60575 c 0.27648,0 0.52636,-0.0578 0.74966,-0.17356 0.22331,-0.11571 0.39878,-0.27908 0.52636,-0.49016 0.1276,-0.21106 0.19137,-0.45264 0.19137,-0.72473 0,-0.27209 -0.0638,-0.51366 -0.19137,-0.72472 -0.12758,-0.21106 -0.30305,-0.37508 -0.52636,-0.49205 -0.2233,-0.11698 -0.47318,-0.17547 -0.74966,-0.17547 -0.27647,0 -0.52636,0.0585 -0.74967,0.17547 -0.22328,0.11697 -0.39871,0.28099 -0.52631,0.49205 -0.12764,0.21106 -0.19141,0.45263 -0.19141,0.72472 0,0.27209 0.0638,0.51367 0.19141,0.72473 0.1276,0.21108 0.30303,0.37445 0.52631,0.49016 0.22331,0.11571 0.4732,0.17356 0.74967,0.17356 z m 0,-0.35093 c -0.19671,0 -0.3755,-0.0426 -0.53633,-0.12779 -0.16083,-0.0852 -0.28775,-0.20598 -0.3808,-0.36236 -0.093,-0.15639 -0.13954,-0.33885 -0.13954,-0.54737 0,-0.20598 0.0472,-0.38779 0.14156,-0.54545 0.0943,-0.15766 0.22195,-0.27844 0.38278,-0.36236 0.16083,-0.0839 0.34093,-0.12589 0.54033,-0.12589 0.19671,0 0.37483,0.0426 0.53431,0.12779 0.15947,0.0852 0.2851,0.20598 0.3768,0.36236 0.0917,0.15639 0.13757,0.33757 0.13757,0.54355 0,0.20852 -0.0463,0.39098 -0.13954,0.54737 -0.0931,0.15638 -0.21998,0.27717 -0.3808,0.36236 -0.16083,0.0852 -0.33962,0.12779 -0.53634,0.12779 z"
         stroke="#000000"
         stroke-width="0"
         fill="#000000"
         fill-opacity="1"
         id="path7" />
      <path
         d="m 537.84647,203.60575 c 0.20736,-7e-5 0.39077,-0.0255 0.5503,-0.0764 0.15952,-0.0509 0.29911,-0.13106 0.41876,-0.24044 0.0944,0.0864 0.18872,0.17287 0.28307,0.25929 0.16214,-3e-5 0.32431,0 0.48644,0 -0.17803,-0.16142 -0.3561,-0.32286 -0.53417,-0.48428 0.0798,-0.12462 0.13563,-0.25242 0.16757,-0.38339 0.0318,-0.13097 0.0482,-0.29435 0.0482,-0.49016 -0.1183,3e-5 -0.23659,0 -0.35489,0 -4e-5,0.14496 -0.009,0.26765 -0.026,0.3681 -0.0174,0.10046 -0.0499,0.18756 -0.0977,0.26131 -0.25249,-0.22879 -0.50498,-0.45757 -0.75747,-0.68637 0.19146,-0.11957 0.32643,-0.22897 0.40484,-0.32815 0.0784,-0.0992 0.11772,-0.21872 0.11772,-0.35858 5e-5,-0.11698 -0.0303,-0.2225 -0.0916,-0.31658 -0.0611,-0.0941 -0.14685,-0.16842 -0.25716,-0.22306 -0.1103,-0.0546 -0.23586,-0.0819 -0.3768,-0.0819 -0.22331,6e-5 -0.40209,0.0567 -0.53639,0.16989 -0.13424,0.11319 -0.20143,0.26389 -0.20148,0.45206 -4e-5,0.11698 0.0303,0.22314 0.0916,0.31847 0.0611,0.0953 0.15813,0.20149 0.29102,0.31842 -0.2207,0.11958 -0.38089,0.24041 -0.4806,0.3625 -0.0998,0.12209 -0.14965,0.26833 -0.14965,0.4387 -10e-5,0.22887 0.0929,0.40621 0.27892,0.53203 0.18607,0.12582 0.42796,0.18869 0.72568,0.18861 z m 0.005,-0.28609 c -0.18082,5e-5 -0.32898,-0.0374 -0.44458,-0.1124 -0.11565,-0.075 -0.1734,-0.18241 -0.1734,-0.32227 5e-5,-0.12714 0.04,-0.23586 0.11975,-0.32616 0.0798,-0.0903 0.20875,-0.17743 0.38686,-0.2614 0.27638,0.2555 0.55276,0.51097 0.82914,0.76647 -0.0824,0.0814 -0.18476,0.14436 -0.30706,0.18889 -0.12229,0.0446 -0.25922,0.0668 -0.41071,0.0668 z m -0.0674,-1.37698 c -0.1196,-0.10677 -0.20466,-0.1932 -0.25515,-0.25929 -0.0504,-0.0662 -0.0757,-0.13984 -0.0757,-0.22124 5e-5,-0.10679 0.0332,-0.19071 0.0998,-0.25177 0.0665,-0.061 0.15818,-0.0916 0.27513,-0.0916 0.1143,-3e-5 0.2047,0.031 0.27113,0.0934 0.0665,0.0623 0.0996,0.14555 0.0996,0.24982 0,0.0941 -0.0318,0.17611 -0.0958,0.24605 -0.0638,0.07 -0.17017,0.14818 -0.31905,0.23467 z"
         stroke="#000000"
         stroke-width="0"
         fill="#000000"
         fill-opacity="1"
         id="path8" />
      <path
         d="m 518.24347,200.82506 c 0,0.9269 0,1.85378 0,2.78069 0.13023,0 0.26053,0 0.39077,0 0,-0.65905 0,-1.31808 0,-1.97711 0.30306,0.65903 0.60608,1.31806 0.90914,1.97711 0.0665,0 0.13294,0 0.19941,0 0.30172,-0.65905 0.60343,-1.31808 0.90514,-1.97711 0,0.65903 0,1.31806 0,1.97711 0.1316,0 0.26318,0 0.39478,0 0,-0.92691 0,-1.85379 0,-2.78069 -0.13559,0 -0.27118,0 -0.40672,0 -0.33095,0.72268 -0.66195,1.44536 -0.9929,2.16805 -0.331,-0.72269 -0.66195,-1.44537 -0.9929,-2.16805 -0.13559,0 -0.27118,0 -0.40672,0 z"
         stroke="#000000"
         stroke-width="0"
         fill="#000000"
         fill-opacity="1"
         id="path9" />
      <path
         d="m 604.25926,200.82506 c 0,0.9269 0,1.85378 0,2.78069 0.61132,0 1.22261,0 1.83393,0 0,-0.11272 0,-0.22543 0,-0.33814 -0.47607,0 -0.9521,0 -1.42813,0 0,-0.29439 0,-0.58877 0,-0.88314 0.35537,0 0.71075,0 1.06612,0 0,-0.11271 0,-0.22543 0,-0.33814 -0.35537,0 -0.71075,0 -1.06612,0 0,-0.29304 0,-0.58611 0,-0.87915 0.47603,0 0.95206,0 1.42813,0 0,-0.11404 0,-0.22808 0,-0.34212 -0.61132,0 -1.22261,0 -1.83393,0 z"
         stroke="#000000"
         stroke-width="0"
         fill="#000000"
         fill-opacity="1"
         id="path10" />
      <path
         d="m 548.64966,186.92166 c 0,3.70757 0,7.41515 0,11.12272 0.51982,0 1.03963,0 1.55944,0 0,-2.63615 0,-5.27229 0,-7.90844 1.20931,2.63615 2.41868,5.27229 3.62799,7.90844 0.26521,0 0.53041,0 0.79561,0 1.20406,-2.63615 2.40808,-5.27229 3.61209,-7.90844 0,2.63615 0,5.27229 0,7.90844 0.52516,0 1.05022,0 1.57533,0 0,-3.70757 0,-7.41515 0,-11.12272 -0.541,0 -1.08201,0 -1.62306,0 -1.32072,2.89074 -2.64144,5.78148 -3.96217,8.67222 -1.32073,-2.89074 -2.64144,-5.78148 -3.96216,-8.67222 -0.54101,0 -1.08206,0 -1.62307,0 z"
         stroke="#000000"
         stroke-width="0"
         fill="#000000"
         fill-opacity="1"
         id="path11" />
      <path
         d="m 524.3277,186.92166 c 0,3.70757 0,7.41515 0,11.12272 0.54631,0 1.09261,0 1.63896,0 0,-3.70757 0,-7.41515 0,-11.12272 -0.54635,0 -1.09265,0 -1.63896,0 z"
         stroke="#000000"
         stroke-width="0"
         fill="#000000"
         fill-opacity="1"
         id="path12" />
      <path
         d="m 464.94588,206.94256 c 0,-5.5359 0,-11.07181 0,-16.6077 2.66945,5.53589 5.33891,11.0718 8.00837,16.6077 0.55613,0 1.11227,0 1.6684,0 2.66947,-5.5359 5.33891,-11.07181 8.00836,-16.6077 0,5.53589 0,11.0718 0,16.6077 1.11228,0 2.22454,0 3.33683,0 0,-7.78591 0,-15.57181 0,-23.35772 -1.11229,0 -2.22455,0 -3.33683,0 -2.94751,6.20939 -5.89505,12.41876 -8.84256,18.62815 -2.94751,-6.20939 -5.89504,-12.41876 -8.84257,-18.62815 -1.11227,0 -2.22454,0 -3.33681,0 0,7.78591 0,15.57181 0,23.35772 1.11227,0 2.22454,0 3.33681,0 z"
         stroke="#000000"
         stroke-width="0"
         fill="#000000"
         fill-opacity="1"
         id="path13"
         style="fill:#0088aa" />
      <path
         d="m 518.88567,186.92166 c -1.49046,0 -2.98093,0 -4.47139,0 0,3.70757 0,7.41515 0,11.12272 0.54106,0 1.08206,0 1.62307,0 0,-1.46394 0,-2.92786 0,-4.39181 0.81155,0 1.62306,0 2.43462,0 0.79031,1.46395 1.58058,2.92787 2.37089,4.39181 0.56225,0 1.1245,0 1.68674,0 -0.81685,-1.50637 -1.6337,-3.01273 -2.45051,-4.5191 0.79561,-0.20155 1.41088,-0.5861 1.84583,-1.15365 0.43494,-0.56753 0.65241,-1.25972 0.65241,-2.07655 0,-1.10326 -0.31823,-1.9413 -0.95475,-2.51415 -0.63647,-0.57284 -1.54878,-0.85927 -2.73691,-0.85927 z m -0.2705,5.36245 c -0.85929,0 -1.71853,0 -2.57782,0 0,-1.33133 0,-2.66266 0,-3.99399 0.85929,0 1.71853,0 2.57782,0 0.73193,0 1.30213,0.15382 1.71053,0.46145 0.40845,0.30765 0.61268,0.82215 0.61268,1.54351 0,0.6577 -0.20953,1.15365 -0.62858,1.48779 -0.41899,0.33416 -0.98389,0.50124 -1.69463,0.50124 z"
         stroke="#000000"
         stroke-width="0"
         fill="#000000"
         fill-opacity="1"
         id="path14" />
      <path
         d="m 506.66499,186.92166 c -1.47987,3.70757 -2.95968,7.41515 -4.43955,11.12272 0.55695,0 1.1139,0 1.6708,0 0.36071,-0.92292 0.72138,-1.84584 1.08205,-2.76875 1.63897,0 3.27792,0 4.91693,0 0.37126,0.92291 0.74258,1.84583 1.11384,2.76875 0.55166,0 1.10326,0 1.65486,0 -1.47982,-3.70757 -2.95969,-7.41515 -4.43949,-11.12272 -0.51981,0 -1.03963,0 -1.55944,0 z m 2.7847,7.00142 c -1.33667,0 -2.67329,0 -4.00996,0 0.66835,-1.73443 1.33667,-3.46888 2.00497,-5.20332 0.66832,1.73444 1.33662,3.46889 2.00499,5.20332 z"
         stroke="#000000"
         stroke-width="0"
         fill="#000000"
         fill-opacity="1"
         id="path15" />
      <path
         d="m 600.09422,186.92166 c -1.47983,3.70757 -2.95968,7.41515 -4.43955,11.12272 0.55695,0 1.1139,0 1.6708,0 0.36072,-0.92292 0.72139,-1.84584 1.08206,-2.76875 1.63895,0 3.27796,0 4.91691,0 0.37128,0.92291 0.74259,1.84583 1.11386,2.76875 0.55164,0 1.10325,0 1.65489,0 -1.47986,-3.70757 -2.95972,-7.41515 -4.43954,-11.12272 -0.51981,0 -1.03962,0 -1.55943,0 z m 2.78469,7.00142 c -1.33662,0 -2.67328,0 -4.00991,0 0.66832,-1.73443 1.33663,-3.46888 2.00493,-5.20332 0.66836,1.73444 1.33667,3.46889 2.00498,5.20332 z"
         stroke="#000000"
         stroke-width="0"
         fill="#000000"
         fill-opacity="1"
         id="path16" />
      <path
         d="m 595.68448,200.82506 c -0.37347,0 -0.74695,0 -1.12044,0 0,0.9269 0,1.85378 0,2.78069 0.13554,0 0.27113,0 0.40672,0 0,-0.366 0,-0.73198 0,-1.09796 0.20336,0 0.40671,0 0.61008,0 0.19805,0.36598 0.39612,0.73196 0.59413,1.09796 0.14088,0 0.28182,0 0.4227,0 -0.2047,-0.3766 -0.40942,-0.7532 -0.61407,-1.12979 0.19936,-0.0504 0.35354,-0.14653 0.46254,-0.28841 0.109,-0.14188 0.16348,-0.31492 0.16348,-0.51914 0,-0.27581 -0.0797,-0.48532 -0.23925,-0.62853 -0.15947,-0.14322 -0.38812,-0.21482 -0.68589,-0.21482 z m -0.0677,1.3406 c -0.21531,0 -0.43066,0 -0.64597,0 0,-0.33282 0,-0.66565 0,-0.99848 0.21531,0 0.43066,0 0.64597,0 0.18341,0 0.32632,0.0385 0.42867,0.11536 0.10236,0.0769 0.15351,0.20554 0.15351,0.38587 0,0.16443 -0.0525,0.28841 -0.15751,0.37195 -0.105,0.0835 -0.24656,0.1253 -0.42467,0.1253 z"
         stroke="#000000"
         stroke-width="0"
         fill="#000000"
         fill-opacity="1"
         id="path17" />
      <path
         d="m 509.94498,200.82506 c -0.37353,0 -0.74702,0 -1.1205,0 0,0.9269 0,1.85378 0,2.78069 0.13559,0 0.27113,0 0.40672,0 0,-0.366 0,-0.73198 0,-1.09796 0.20335,0 0.40672,0 0.61013,0 0.19801,0.36598 0.39606,0.73196 0.59413,1.09796 0.14088,0 0.28177,0 0.42265,0 -0.2047,-0.3766 -0.40937,-0.7532 -0.61407,-1.12979 0.19936,-0.0504 0.35354,-0.14653 0.46254,-0.28841 0.10901,-0.14188 0.16352,-0.31492 0.16352,-0.51914 0,-0.27581 -0.0798,-0.48532 -0.23928,-0.62853 -0.15948,-0.14322 -0.38813,-0.21482 -0.68584,-0.21482 z m -0.0678,1.3406 c -0.21531,0 -0.43066,0 -0.64596,0 0,-0.33282 0,-0.66565 0,-0.99848 0.2153,0 0.43065,0 0.64596,0 0.18346,0 0.32632,0.0385 0.42868,0.11536 0.10235,0.0769 0.1535,0.20554 0.1535,0.38587 0,0.16443 -0.0525,0.28841 -0.15749,0.37195 -0.10502,0.0835 -0.24658,0.1253 -0.42469,0.1253 z"
         stroke="#000000"
         stroke-width="0"
         fill="#000000"
         fill-opacity="1"
         id="path18" />
      <path
         d="m 590.24448,198.28307 c 1.69734,0 3.02335,-0.39782 3.97811,-1.19342 0,-0.52512 0,-1.05022 0,-1.57532 -0.53041,0.45615 -1.10591,0.78765 -1.72648,0.99451 -0.62058,0.20686 -1.32337,0.31029 -2.10838,0.31029 -0.84864,0 -1.60453,-0.17504 -2.26753,-0.52511 -0.66301,-0.35007 -1.18283,-0.85396 -1.5594,-1.51167 -0.3766,-0.65772 -0.5649,-1.4215 -0.5649,-2.29138 0,-0.86986 0.1857,-1.631 0.55696,-2.28341 0.37127,-0.65241 0.88843,-1.15364 1.55144,-1.50372 0.66301,-0.35006 1.42413,-0.5251 2.28343,-0.5251 1.53819,0 2.76874,0.40842 3.69166,1.22524 0,-0.5198 0,-1.0396 0,-1.5594 -1.02898,-0.7744 -2.30732,-1.1616 -3.83491,-1.1616 -1.14564,0 -2.16407,0.23868 -3.05515,0.71605 -0.89108,0.47737 -1.58593,1.1563 -2.0845,2.03678 -0.49861,0.88047 -0.74788,1.89887 -0.74788,3.05516 0,1.15631 0.24927,2.17204 0.74788,3.04721 0.49857,0.87518 1.19342,1.55147 2.0845,2.02883 0.89108,0.47737 1.90951,0.71606 3.05515,0.71606 z"
         stroke="#000000"
         stroke-width="0"
         fill="#000000"
         fill-opacity="1"
         id="path19" />
      <path
         d="m 555.38419,200.82506 c 0,0.9269 0,1.85378 0,2.78069 0.13559,0 0.27113,0 0.40672,0 0,-0.40976 0,-0.8195 0,-1.22925 0.35624,0 0.71243,0 1.06866,0 0,-0.10739 0,-0.21481 0,-0.32222 -0.35623,0 -0.71242,0 -1.06866,0 0,-0.2957 0,-0.59141 0,-0.8871 0.47718,0 0.95437,0 1.43156,0 0,-0.11404 0,-0.22808 0,-0.34212 -0.61278,0 -1.22555,0 -1.83828,0 z"
         stroke="#000000"
         stroke-width="0"
         fill="#000000"
         fill-opacity="1"
         id="path20" />
      <path
         d="m 580.96763,186.92166 c 0,3.70757 0,7.41515 0,11.12272 0.5463,0 1.09266,0 1.63895,0 0,-3.70757 0,-7.41515 0,-11.12272 -0.54629,0 -1.09265,0 -1.63895,0 z"
         stroke="#000000"
         stroke-width="0"
         fill="#000000"
         fill-opacity="1"
         id="path21" />
      <path
         d="m 576.08255,198.28307 c 0.89107,0 1.59651,-0.25725 2.11633,-0.77175 0.51981,-0.51449 0.77972,-1.2279 0.77972,-2.14022 0,-2.81647 0,-5.63296 0,-8.44944 -0.54106,0 -1.08206,0 -1.62306,0 0,2.77936 0,5.55872 0,8.33806 0,1.06083 -0.54636,1.59123 -1.63902,1.59123 -0.22276,0 -0.45878,-0.0212 -0.70804,-0.0636 -0.24936,-0.0425 -0.45353,-0.0955 -0.61267,-0.15912 0,0.46146 0,0.92291 0,1.38438 0.16974,0.0743 0.41905,0.1379 0.74788,0.19094 0.32888,0.053 0.64181,0.0796 0.93886,0.0796 z"
         stroke="#000000"
         stroke-width="0"
         fill="#000000"
         fill-opacity="1"
         id="path22" />
      <path
         d="m 489.30465,186.92166 c 0,3.70757 0,7.41515 0,11.12272 0.5198,0 1.03959,0 1.5594,0 0,-2.63615 0,-5.27229 0,-7.90844 1.20936,2.63615 2.41868,5.27229 3.62804,7.90844 0.26515,0 0.53041,0 0.79556,0 1.20406,-2.63615 2.40808,-5.27229 3.6121,-7.90844 0,2.63615 0,5.27229 0,7.90844 0.52515,0 1.05026,0 1.57532,0 0,-3.70757 0,-7.41515 0,-11.12272 -0.541,0 -1.082,0 -1.62306,0 -1.32072,2.89074 -2.64139,5.78148 -3.96212,8.67222 -1.32073,-2.89074 -2.64144,-5.78148 -3.96219,-8.67222 -0.54102,0 -1.08203,0 -1.62305,0 z"
         stroke="#000000"
         stroke-width="0"
         fill="#000000"
         fill-opacity="1"
         id="path23" />
      <path
         d="m 567.42623,198.28307 c 1.10324,0 2.10044,-0.24135 2.99151,-0.72402 0.89108,-0.48267 1.59123,-1.16425 2.10044,-2.04472 0.50917,-0.8805 0.76378,-1.88828 0.76378,-3.02336 0,-1.13506 -0.25461,-2.14286 -0.76378,-3.02334 -0.50921,-0.88047 -1.20936,-1.56471 -2.10044,-2.05268 -0.89107,-0.48798 -1.88827,-0.73197 -2.99151,-0.73197 -1.10326,0 -2.10045,0.24399 -2.99153,0.73197 -0.89107,0.48797 -1.59121,1.17221 -2.10044,2.05268 -0.50916,0.88048 -0.76376,1.88828 -0.76376,3.02334 0,1.13508 0.2546,2.14286 0.76376,3.02336 0.50923,0.88047 1.20937,1.56205 2.10044,2.04472 0.89108,0.48267 1.88827,0.72402 2.99153,0.72402 z m 0,-1.46394 c -0.78502,0 -1.49841,-0.17769 -2.14018,-0.53307 -0.64182,-0.35538 -1.14834,-0.85925 -1.51965,-1.51166 -0.37127,-0.6524 -0.55695,-1.41355 -0.55695,-2.28343 0,-0.85926 0.18828,-1.61775 0.5649,-2.27545 0.37656,-0.65771 0.88577,-1.1616 1.5276,-1.51168 0.64177,-0.35006 1.3605,-0.5251 2.15611,-0.5251 0.78502,0 1.49576,0.17768 2.13223,0.53305 0.63652,0.35538 1.13774,0.85927 1.50371,1.51167 0.36601,0.65241 0.549,1.40825 0.549,2.26751 0,0.86988 -0.18568,1.63103 -0.55695,2.28343 -0.37127,0.65241 -0.87783,1.15628 -1.5196,1.51166 -0.64181,0.35538 -1.3552,0.53307 -2.14022,0.53307 z"
         stroke="#000000"
         stroke-width="0"
         fill="#000000"
         fill-opacity="1"
         id="path24" />
    </g>
  </g>
</svg>
