<?xml version="1.0" encoding="UTF-8" standalone="no"?>
<!-- Created with Inkscape (http://www.inkscape.org/) -->

<svg
   width="671"
   height="352"
   viewBox="0 0 177.53541 93.133333"
   version="1.1"
   id="svg5"
   inkscape:version="1.2.2 (732a01da63, 2022-12-09)"
   sodipodi:docname="Logo_mm.svg"
   xml:space="preserve"
   xmlns:inkscape="http://www.inkscape.org/namespaces/inkscape"
   xmlns:sodipodi="http://sodipodi.sourceforge.net/DTD/sodipodi-0.dtd"
   xmlns="http://www.w3.org/2000/svg"
   xmlns:svg="http://www.w3.org/2000/svg"><sodipodi:namedview
     id="namedview7"
     pagecolor="#ffffff"
     bordercolor="#000000"
     borderopacity="0.25"
     inkscape:showpageshadow="2"
     inkscape:pageopacity="0.0"
     inkscape:pagecheckerboard="0"
     inkscape:deskcolor="#d1d1d1"
     inkscape:document-units="mm"
     showgrid="false"
     inkscape:zoom="1.8707912"
     inkscape:cx="327.93612"
     inkscape:cy="185.48302"
     inkscape:window-width="1920"
     inkscape:window-height="1017"
     inkscape:window-x="1358"
     inkscape:window-y="-8"
     inkscape:window-maximized="1"
     inkscape:current-layer="layer1"
     showguides="true" /><defs
     id="defs2"><clipPath
       clipPathUnits="userSpaceOnUse"
       id="clipPath12137"><rect
         style="fill:#000000;stroke-width:0.264583"
         id="rect12139"
         width="170.80872"
         height="110.80566"
         x="786.84015"
         y="169.60866" /></clipPath></defs><g
     inkscape:label="Capa 1"
     inkscape:groupmode="layer"
     id="layer1"
     transform="translate(-220.00001)"><g
       id="g946"
       transform="translate(-16.120751,-33.882893)"><g
         id="g1531"
         transform="matrix(0.63134768,0,0,0.63134768,466.71937,-42.951556)"><path
           d="m -174.12764,269.02081 c 0.90787,0 1.59515,-0.23601 2.0619,-0.70797 0.4667,-0.47199 0.70009,-1.11622 0.70009,-1.93267 0,-1.34901 0,-2.69799 0,-4.04704 -0.32607,0 -0.65217,0 -0.97822,0 0,1.36178 0,2.72354 0,4.08532 0,0.56766 -0.15983,0.99661 -0.47948,1.2868 -0.31969,0.29022 -0.75445,0.43535 -1.30429,0.43535 -0.55623,0 -0.99417,-0.14513 -1.31384,-0.43535 -0.31969,-0.29019 -0.47953,-0.71914 -0.47953,-1.2868 0,-1.36178 0,-2.72354 0,-4.08532 -0.32604,0 -0.65214,0 -0.97819,0 0,1.34905 0,2.69803 0,4.04704 0,0.8228 0.23336,1.46862 0.70006,1.93741 0.46675,0.46884 1.15726,0.70323 2.0715,0.70323 z"
           stroke="#000000"
           stroke-width="0"
           fill="#000000"
           fill-opacity="1"
           id="path1400" /><path
           d="m -235.13509,269.02081 c 0.49869,-1.6e-4 0.93985,-0.0614 1.3235,-0.18388 0.38363,-0.1224 0.71935,-0.31515 1.00713,-0.57822 0.22692,0.20791 0.45382,0.41576 0.68072,0.62365 0.39001,-1.1e-4 0.78,-2.4e-4 1.17,0 -0.42825,-0.38825 -0.85649,-0.77648 -1.28475,-1.1647 0.19191,-0.29972 0.32625,-0.60709 0.40307,-0.92207 0.0768,-0.31499 0.11529,-0.70795 0.11544,-1.17888 -0.28452,1.1e-4 -0.56903,1.6e-4 -0.85355,2.7e-4 -9e-5,0.34858 -0.021,0.64367 -0.0626,0.88526 -0.0416,0.2416 -0.12002,0.45107 -0.23515,0.6285 -0.60721,-0.55026 -1.21442,-1.10051 -1.82163,-1.65079 0.46041,-0.28758 0.78494,-0.55063 0.97362,-0.78923 0.18869,-0.23855 0.28307,-0.52607 0.28317,-0.86241 8e-5,-0.28133 -0.0734,-0.53512 -0.22037,-0.76136 -0.14697,-0.22625 -0.35308,-0.40508 -0.6184,-0.5365 -0.26528,-0.13142 -0.56735,-0.19706 -0.90621,-0.19698 -0.53705,1.6e-4 -0.96705,0.13637 -1.28999,0.4086 -0.32294,0.27228 -0.4845,0.63465 -0.48463,1.08725 -8e-5,0.2813 0.0734,0.53665 0.22034,0.76594 0.14699,0.22929 0.38028,0.48456 0.69987,0.76581 -0.53075,0.28758 -0.91604,0.57819 -1.15589,0.8718 -0.23982,0.29366 -0.35982,0.64535 -0.35992,1.05511 -1.8e-4,0.55044 0.22348,0.97695 0.67094,1.27955 0.44744,0.30263 1.0292,0.45381 1.74527,0.45363 z m 0.01,-0.68805 c -0.43476,1.4e-4 -0.79117,-0.09 -1.06924,-0.27029 -0.27805,-0.1804 -0.41704,-0.43871 -0.41693,-0.7751 10e-5,-0.30578 0.0961,-0.56727 0.28794,-0.78444 0.19186,-0.21714 0.50202,-0.42672 0.93042,-0.62865 0.66475,0.61444 1.32948,1.22891 1.99422,1.84335 -0.19826,0.19577 -0.44445,0.34722 -0.73856,0.45432 -0.29417,0.1071 -0.62341,0.16071 -0.98785,0.16081 z m -0.16207,-3.31168 c -0.28762,-0.2568 -0.49216,-0.46463 -0.61356,-0.62362 -0.12144,-0.15899 -0.18215,-0.33634 -0.18208,-0.53205 8e-5,-0.25686 0.0801,-0.45868 0.23994,-0.60555 0.15989,-0.1468 0.38048,-0.22027 0.6618,-0.22032 0.2749,-8e-5 0.49227,0.0747 0.65205,0.22455 0.15981,0.14983 0.23966,0.35007 0.23958,0.60084 -7e-5,0.22627 -0.0769,0.42352 -0.23035,0.59174 -0.15348,0.16825 -0.40928,0.3564 -0.76738,0.56441 z"
           stroke="#000000"
           stroke-width="0"
           fill="#000000"
           fill-opacity="1"
           id="path1402" /><path
           d="m -341.26598,269.02081 c 0.66492,0 1.26591,-0.13914 1.80295,-0.4174 0.53706,-0.27827 0.95902,-0.6712 1.26591,-1.17883 0.30689,-0.50763 0.46033,-1.08863 0.46033,-1.74302 0,-0.65439 -0.15344,-1.23542 -0.46033,-1.743 -0.30689,-0.50763 -0.72885,-0.90207 -1.26591,-1.18345 -0.53704,-0.28131 -1.13803,-0.42198 -1.80295,-0.42198 -0.66492,0 -1.26591,0.14067 -1.80296,0.42198 -0.53705,0.28138 -0.95902,0.67582 -1.26591,1.18345 -0.30688,0.50758 -0.46032,1.08861 -0.46032,1.743 0,0.65439 0.15344,1.23539 0.46032,1.74302 0.30689,0.50763 0.72886,0.90056 1.26591,1.17883 0.53705,0.27826 1.13804,0.4174 1.80296,0.4174 z m 0,-0.84396 c -0.47312,0 -0.90308,-0.10248 -1.28988,-0.30732 -0.38681,-0.20492 -0.6921,-0.49538 -0.91587,-0.87154 -0.22377,-0.37613 -0.33566,-0.81494 -0.33566,-1.31643 0,-0.49541 0.11349,-0.93268 0.34046,-1.31183 0.22696,-0.37917 0.53385,-0.66971 0.92066,-0.87151 0.3868,-0.20183 0.81996,-0.30276 1.29947,-0.30276 0.47312,0 0.90148,0.10244 1.28509,0.30734 0.3836,0.20489 0.68569,0.49538 0.90627,0.87151 0.22058,0.37613 0.33086,0.81184 0.33086,1.30725 0,0.50149 -0.11189,0.9403 -0.33565,1.31643 -0.22378,0.37616 -0.52907,0.66662 -0.91586,0.87154 -0.38681,0.20484 -0.81678,0.30732 -1.28989,0.30732 z"
           stroke="#000000"
           stroke-width="0"
           fill="#000000"
           fill-opacity="1"
           id="path1404" /><path
           d="m -109.55454,262.33313 c -0.89826,0 -1.79657,0 -2.69483,0 0,2.22922 0,4.45846 0,6.68768 0.32604,0 0.65214,0 0.97821,0 0,-0.88021 0,-1.76043 0,-2.64064 0.48909,0 0.9782,0 1.46728,0 0.4763,0.88021 0.95263,1.76043 1.42893,2.64064 0.33885,0 0.67773,0 1.01661,0 -0.49234,-0.90572 -0.98465,-1.81147 -1.47693,-2.71716 0.47951,-0.12121 0.85035,-0.35243 1.11247,-0.69366 0.26212,-0.34121 0.3932,-0.7574 0.3932,-1.24857 0,-0.66331 -0.19183,-1.16721 -0.57542,-1.51164 -0.38359,-0.34441 -0.93345,-0.51665 -1.64952,-0.51665 z m -0.16304,3.22423 c -0.51786,0 -1.03576,0 -1.55358,0 0,-0.80047 0,-1.60094 0,-2.40143 0.51782,0 1.03572,0 1.55358,0 0.44117,0 0.78481,0.0925 1.03095,0.27747 0.24617,0.18499 0.36923,0.49434 0.36923,0.92802 0,0.39547 -0.12626,0.69366 -0.3788,0.89458 -0.25255,0.2009 -0.59299,0.30136 -1.02138,0.30136 z"
           stroke="#000000"
           stroke-width="0"
           fill="#000000"
           fill-opacity="1"
           id="path1406" /><path
           d="m -153.26818,263.15593 c 0,1.95498 0,3.90993 0,5.86488 0.32925,0 0.6585,0 0.9878,0 0,-1.95495 0,-3.9099 0,-5.86488 0.69368,0 1.38737,0 2.08108,0 0,-0.27424 0,-0.54851 0,-0.8228 -1.71667,0 -3.43334,0 -5.14996,0 0,0.27429 0,0.54856 0,0.8228 0.69369,0 1.3874,0 2.08108,0 z"
           stroke="#000000"
           stroke-width="0"
           fill="#000000"
           fill-opacity="1"
           id="path1408" /><path
           d="m -197.33667,262.33313 c 0,2.22922 0,4.45846 0,6.68768 0.32605,0 0.65212,0 0.97819,0 0,-0.98544 0,-1.9709 0,-2.95635 0.85672,0 1.71345,0 2.57016,0 0,-0.25836 0,-0.51662 0,-0.77499 -0.85671,0 -1.71344,0 -2.57016,0 0,-0.7112 0,-1.42237 0,-2.13354 1.14763,0 2.29526,0 3.44289,0 0,-0.27424 0,-0.54851 0,-0.8228 -1.4737,0 -2.94741,0 -4.42108,0 z"
           stroke="#000000"
           stroke-width="0"
           fill="#000000"
           fill-opacity="1"
           id="path1410" /><path
           d="m -274.64057,262.33313 c -0.8919,2.22922 -1.78379,4.45846 -2.67567,6.68768 0.33566,0 0.67131,0 1.00697,0 0.21738,-0.55491 0.43476,-1.10982 0.65214,-1.66473 0.98779,0 1.97558,0 2.96338,0 0.22376,0.55491 0.44752,1.10982 0.6713,1.66473 0.33246,0 0.66491,0 0.99737,0 -0.89187,-2.22922 -1.78376,-4.45846 -2.67566,-6.68768 -0.31327,0 -0.62655,0 -0.93983,0 z m 1.67829,4.2097 c -0.80559,0 -1.61116,0 -2.41676,0 0.40281,-1.04288 0.8056,-2.08571 1.20838,-3.12856 0.40279,1.04285 0.80559,2.08568 1.20838,3.12856 z"
           stroke="#000000"
           stroke-width="0"
           fill="#000000"
           fill-opacity="1"
           id="path1412" /><path
           d="m -300.30472,262.33313 c 0,2.22922 0,4.45846 0,6.68768 0.31329,0 0.62658,0 0.93986,0 0,-1.58501 0,-3.17002 0,-4.75501 0.72884,1.58499 1.45769,3.17 2.18655,4.75501 0.15984,0 0.31969,0 0.47952,0 0.72565,-1.58501 1.4513,-3.17002 2.17697,-4.75501 0,1.58499 0,3.17 0,4.75501 0.31646,0 0.63296,0 0.94943,0 0,-2.22922 0,-4.45846 0,-6.68768 -0.32607,0 -0.65212,0 -0.97821,0 -0.79598,1.7381 -1.59197,3.47617 -2.38796,5.21427 -0.79598,-1.7381 -1.59197,-3.47617 -2.38794,-5.21427 -0.32608,0 -0.65214,0 -0.97822,0 z"
           stroke="#000000"
           stroke-width="0"
           fill="#000000"
           fill-opacity="1"
           id="path1414" /><path
           d="m -318.7858,262.33313 c -0.89828,0 -1.79655,0 -2.69484,0 0,2.22922 0,4.45846 0,6.68768 0.32607,0 0.65213,0 0.9782,0 0,-0.88021 0,-1.76043 0,-2.64064 0.4891,0 0.97821,0 1.46731,0 0.47631,0.88021 0.95262,1.76043 1.42893,2.64064 0.33885,0 0.67771,0 1.01656,0 -0.49229,-0.90572 -0.98459,-1.81147 -1.47689,-2.71716 0.47952,-0.12121 0.85033,-0.35243 1.11247,-0.69366 0.26213,-0.34121 0.39319,-0.7574 0.39319,-1.24857 0,-0.66331 -0.1918,-1.16721 -0.5754,-1.51164 -0.38361,-0.34441 -0.93345,-0.51665 -1.64953,-0.51665 z m -0.16303,3.22423 c -0.51787,0 -1.03574,0 -1.55361,0 0,-0.80047 0,-1.60094 0,-2.40143 0.51787,0 1.03574,0 1.55361,0 0.44116,0 0.78481,0.0925 1.03095,0.27747 0.24615,0.18499 0.36923,0.49434 0.36923,0.92802 0,0.39547 -0.12627,0.69366 -0.37882,0.89458 -0.25254,0.2009 -0.59299,0.30136 -1.02136,0.30136 z"
           stroke="#000000"
           stroke-width="0"
           fill="#000000"
           fill-opacity="1"
           id="path1416" /><path
           d="m -365.08881,262.33313 c 0,2.22922 0,4.45846 0,6.68768 0.32608,0 0.65214,0 0.97821,0 0,-0.98544 0,-1.9709 0,-2.95635 0.85672,0 1.71344,0 2.57016,0 0,-0.25836 0,-0.51662 0,-0.77499 -0.85672,0 -1.71344,0 -2.57016,0 0,-0.7112 0,-1.42237 0,-2.13354 1.14762,0 2.29525,0 3.44288,0 0,-0.27424 0,-0.54851 0,-0.8228 -1.4737,0 -2.9474,0 -4.42109,0 z"
           stroke="#000000"
           stroke-width="0"
           fill="#000000"
           fill-opacity="1"
           id="path1418" /><path
           d="m -248.72343,215.5195 c 0,-22.19021 0,-44.38034 0,-66.57049 10.70025,22.19015 21.40053,44.38028 32.10079,66.57049 2.22923,0 4.45845,0 6.68766,0 10.70027,-22.19021 21.40054,-44.38034 32.1008,-66.57049 0,22.19015 0,44.38028 0,66.57049 4.45844,0 8.91688,0 13.37535,0 0,-31.20911 0,-62.41823 0,-93.62732 -4.45847,0 -8.91691,0 -13.37535,0 -11.81489,24.88976 -23.62976,49.77951 -35.44462,74.66929 -11.81488,-24.88978 -23.62977,-49.77953 -35.44463,-74.66929 -4.45844,0 -8.91688,0 -13.37532,0 0,31.20909 0,62.41821 0,93.62732 4.45844,0 8.91688,0 13.37532,0 z"
           stroke="#000000"
           stroke-width="0"
           fill="#000000"
           fill-opacity="1"
           id="path1420" /><path
           d="m -200.57225,215.5195 c 4.45845,0 8.9169,0 13.37533,0 0,-31.20911 0,-62.41823 0,-93.62732 -4.45843,0 -8.91688,0 -13.37533,0 -11.81487,24.88976 -23.62975,49.77951 -35.4446,74.66929 -11.81488,-24.88978 -23.62976,-49.77953 -35.44463,-74.66929 -4.45846,0 -8.91691,0 -13.37534,0 0,31.20909 0,62.41821 0,93.62732 4.45843,0 8.91688,0 13.37534,0 0,-22.19021 0,-44.38034 0,-66.57049 10.70026,22.19015 21.40053,44.38028 32.10078,66.57049 2.22924,0 4.45844,0 6.68766,0 10.70028,-22.19021 21.40053,-44.38034 32.10079,-66.57049 0,22.19015 0,44.38028 0,66.57049 z"
           stroke="#000000"
           stroke-width="0"
           fill="#000000"
           fill-opacity="1"
           id="path1422" /><path
           d="m -222.36121,228.89482 c 0,8.91688 0,17.83376 0,26.75064 1.25015,0 2.5003,0 3.75046,0 0,-6.34002 0,-12.68007 0,-19.02012 2.90852,6.34005 5.81701,12.6801 8.72553,19.02012 0.63784,0 1.27567,0 1.9135,0 2.89574,-6.34002 5.7915,-12.68007 8.68724,-19.02012 0,6.34005 0,12.6801 0,19.02012 1.26293,0 2.52582,0 3.78874,0 0,-8.91688 0,-17.83376 0,-26.75064 -1.30118,0 -2.60235,0 -3.90355,0 -3.1764,6.95238 -6.35278,13.90473 -9.52918,20.8571 -3.1764,-6.95237 -6.35279,-13.90472 -9.52922,-20.8571 -1.30117,0 -2.60233,0 -3.90352,0 z"
           stroke="#000000"
           stroke-width="0"
           fill="#000000"
           fill-opacity="1"
           id="path1424" /><path
           d="m -177.20273,256.21953 c 2.65338,0 5.05164,-0.58044 7.19474,-1.7413 2.14312,-1.16083 3.82701,-2.80006 5.05163,-4.91768 1.22463,-2.11759 1.83698,-4.54133 1.83698,-7.27128 0,-2.72992 -0.61235,-5.15366 -1.83698,-7.27128 -1.22462,-2.11762 -2.90851,-3.76322 -5.05163,-4.93683 -2.1431,-1.17361 -4.54136,-1.76038 -7.19474,-1.76038 -2.65337,0 -5.05162,0.58677 -7.19475,1.76038 -2.14311,1.17361 -3.82698,2.81921 -5.05163,4.93683 -1.22464,2.11762 -1.83695,4.54136 -1.83695,7.27128 0,2.72995 0.61231,5.15369 1.83695,7.27128 1.22465,2.11762 2.90852,3.75685 5.05163,4.91768 2.14313,1.16086 4.54138,1.7413 7.19475,1.7413 z m 0,-3.52086 c -1.88801,0 -3.60374,-0.42733 -5.1473,-1.28201 -1.54357,-0.85466 -2.76181,-2.06659 -3.65477,-3.63564 -0.89297,-1.56909 -1.33945,-3.39966 -1.33945,-5.49175 0,-2.06658 0.45285,-3.89078 1.35857,-5.47261 0.90571,-1.58179 2.13037,-2.79369 3.6739,-3.63562 1.54357,-0.8419 3.2721,-1.26288 5.18557,-1.26288 1.88799,0 3.59738,0.4273 5.12821,1.28204 1.53077,0.85468 2.73629,2.06655 3.61645,3.63561 0.88022,1.56906 1.32035,3.38688 1.32035,5.45346 0,2.09209 -0.44648,3.92266 -1.33945,5.49175 -0.89297,1.56905 -2.11122,2.78098 -3.65479,3.63564 -1.54353,0.85468 -3.2593,1.28201 -5.14729,1.28201 z"
           stroke="#000000"
           stroke-width="0"
           fill="#000000"
           fill-opacity="1"
           id="path1426" /><path
           d="m -156.38388,256.21953 c 2.1431,0 3.83971,-0.6187 5.08987,-1.8561 1.25015,-1.23738 1.87523,-2.95318 1.87523,-5.14729 0,-6.77375 0,-13.54756 0,-20.32132 -1.30117,0 -2.60236,0 -3.90353,0 0,6.68446 0,13.36897 0,20.05341 0,2.55132 -1.31395,3.82698 -3.94182,3.82698 -0.53578,0 -1.10341,-0.051 -1.70299,-0.15306 -0.59954,-0.10205 -1.09069,-0.22963 -1.47338,-0.38269 0,1.10982 0,2.21964 0,3.32946 0.4082,0.17859 1.00777,0.33168 1.79864,0.45926 0.79094,0.12756 1.54358,0.19135 2.25798,0.19135 z"
           stroke="#000000"
           stroke-width="0"
           fill="#000000"
           fill-opacity="1"
           id="path1428" /><path
           d="m -144.63501,228.89482 c 0,8.91688 0,17.83376 0,26.75064 1.3139,0 2.62779,0 3.94174,0 0,-8.91688 0,-17.83376 0,-26.75064 -1.31395,0 -2.62784,0 -3.94174,0 z"
           stroke="#000000"
           stroke-width="0"
           fill="#000000"
           fill-opacity="1"
           id="path1430" /><path
           d="m -122.3237,256.21953 c 4.08212,0 7.2713,-0.95676 9.56749,-2.87025 0,-1.26291 0,-2.52582 0,-3.78873 -1.27566,1.09707 -2.65975,1.89436 -4.15232,2.39189 -1.49248,0.49752 -3.18278,0.74623 -5.07074,0.74623 -2.04104,0 -3.85886,-0.42095 -5.45348,-1.26291 -1.59457,-0.84193 -2.84472,-2.05378 -3.75042,-3.63559 -0.90572,-1.58184 -1.35861,-3.41881 -1.35861,-5.5109 0,-2.09209 0.44649,-3.92263 1.33946,-5.49172 0.89297,-1.56906 2.13677,-2.77458 3.73134,-3.61651 1.59453,-0.8419 3.42513,-1.26288 5.49171,-1.26288 3.69943,0 6.65896,0.98221 8.87863,2.94674 0,-1.25013 0,-2.50025 0,-3.75044 -2.47481,-1.86248 -5.54914,-2.79368 -9.22306,-2.79368 -2.75545,0 -5.20467,0.57404 -7.34782,1.72215 -2.14313,1.14808 -3.81424,2.78093 -5.01336,4.89852 -1.19911,2.11762 -1.79866,4.56689 -1.79866,7.34782 0,2.78093 0.59955,5.22388 1.79866,7.3287 1.19912,2.10483 2.87023,3.73131 5.01336,4.87944 2.14315,1.14805 4.59237,1.72212 7.34782,1.72212 z"
           stroke="#000000"
           stroke-width="0"
           fill="#000000"
           fill-opacity="1"
           id="path1432" /><path
           d="m -98.634625,228.89482 c -3.559095,8.91688 -7.118225,17.83376 -10.677295,26.75064 1.33946,0 2.67888,0 4.01834,0 0.86743,-2.21964 1.7349,-4.43925 2.60236,-6.65895 3.941815,0 7.883585,0 11.825395,0 0.89294,2.2197 1.78591,4.43931 2.67888,6.65895 1.3267,0 2.6534,0 3.98005,0 -3.55907,-8.91688 -7.11816,-17.83376 -10.67729,-26.75064 -1.25015,0 -2.50026,0 -3.75044,0 z m 6.69724,16.83877 c -3.21466,0 -6.42932,0 -9.644045,0 1.607355,-4.17145 3.214725,-8.34281 4.822015,-12.51429 1.60737,4.17148 3.21469,8.34284 4.82203,12.51429 z"
           stroke="#000000"
           stroke-width="0"
           fill="#000000"
           fill-opacity="1"
           id="path1434" /><path
           d="m -365.08881,228.89482 c 0,8.91688 0,17.83376 0,26.75064 1.25016,0 2.50031,0 3.75046,0 0,-6.34002 0,-12.68007 0,-19.02012 2.90851,6.34005 5.81702,12.6801 8.72554,19.02012 0.63783,0 1.27566,0 1.91349,0 2.89576,-6.34002 5.79152,-12.68007 8.68727,-19.02012 0,6.34005 0,12.6801 0,19.02012 1.26291,0 2.52582,0 3.78872,0 0,-8.91688 0,-17.83376 0,-26.75064 -1.30118,0 -2.60235,0 -3.90353,0 -3.1764,6.95238 -6.3528,13.90473 -9.52921,20.8571 -3.1764,-6.95237 -6.3528,-13.90472 -9.52921,-20.8571 -1.30118,0 -2.60235,0 -3.90353,0 z"
           stroke="#000000"
           stroke-width="0"
           fill="#000000"
           fill-opacity="1"
           id="path1436" /><path
           d="m -323.33634,228.89482 c -3.5591,8.91688 -7.1182,17.83376 -10.6773,26.75064 1.33945,0 2.67889,0 4.01834,0 0.86744,-2.21964 1.73489,-4.43925 2.60235,-6.65895 3.9418,0 7.8836,0 11.8254,0 0.89296,2.2197 1.78592,4.43931 2.67889,6.65895 1.3267,0 2.65339,0 3.98007,0 -3.5591,-8.91688 -7.1182,-17.83376 -10.6773,-26.75064 -1.25015,0 -2.5003,0 -3.75045,0 z m 6.69723,16.83877 c -3.21466,0 -6.42934,0 -9.64401,0 1.60733,-4.17145 3.21467,-8.34281 4.82201,-12.51429 1.60734,4.17148 3.21467,8.34284 4.822,12.51429 z"
           stroke="#000000"
           stroke-width="0"
           fill="#000000"
           fill-opacity="1"
           id="path1438" /><path
           d="m -293.94505,228.89482 c -3.58464,0 -7.16923,0 -10.75384,0 0,8.91688 0,17.83376 0,26.75064 1.30117,0 2.60235,0 3.90352,0 0,-3.52081 0,-7.04162 0,-10.56245 1.95176,0 3.90354,0 5.85529,0 1.90076,3.52083 3.80148,7.04164 5.70222,10.56245 1.3522,0 2.70441,0 4.05662,0 -1.96453,-3.62288 -3.92906,-7.24574 -5.89357,-10.86863 1.9135,-0.48477 3.39327,-1.40962 4.43932,-2.7746 1.04604,-1.36494 1.56905,-3.02964 1.56905,-4.9942 0,-2.6534 -0.76539,-4.66889 -2.29619,-6.04663 -1.53079,-1.37771 -3.72493,-2.06658 -6.58242,-2.06658 z m -0.6506,12.89696 c -2.06657,0 -4.13316,0 -6.19972,0 0,-3.20191 0,-6.40385 0,-9.60573 2.06656,0 4.13315,0 6.19972,0 1.76041,0 3.13177,0.36992 4.11402,1.1098 0.98226,0.73988 1.47339,1.97728 1.47339,3.71218 0,1.58184 -0.50388,2.77458 -1.51166,3.57825 -1.00777,0.80365 -2.36635,1.2055 -4.07575,1.2055 z"
           stroke="#000000"
           stroke-width="0"
           fill="#000000"
           fill-opacity="1"
           id="path1440" /><path
           d="m -280.85675,228.89482 c 0,8.91688 0,17.83376 0,26.75064 1.31392,0 2.62786,0 3.9418,0 0,-8.91688 0,-17.83376 0,-26.75064 -1.31394,0 -2.62788,0 -3.9418,0 z"
           stroke="#000000"
           stroke-width="0"
           fill="#000000"
           fill-opacity="1"
           id="path1442" /><path
           d="m -258.62194,256.21953 c 2.65339,0 5.05162,-0.58044 7.19474,-1.7413 2.14312,-1.16083 3.827,-2.80006 5.05163,-4.91768 1.22464,-2.11759 1.83695,-4.54133 1.83695,-7.27128 0,-2.72992 -0.61231,-5.15366 -1.83695,-7.27128 -1.22463,-2.11762 -2.90851,-3.76322 -5.05163,-4.93683 -2.14312,-1.17361 -4.54135,-1.76038 -7.19474,-1.76038 -2.65338,0 -5.05164,0.58677 -7.19474,1.76038 -2.14312,1.17361 -3.82699,2.81921 -5.05163,4.93683 -1.22463,2.11762 -1.83695,4.54136 -1.83695,7.27128 0,2.72995 0.61232,5.15369 1.83695,7.27128 1.22464,2.11762 2.90851,3.75685 5.05163,4.91768 2.1431,1.16086 4.54136,1.7413 7.19474,1.7413 z m 0,-3.52086 c -1.88797,0 -3.60374,-0.42733 -5.1473,-1.28201 -1.54354,-0.85466 -2.76181,-2.06659 -3.65477,-3.63564 -0.89297,-1.56909 -1.33945,-3.39966 -1.33945,-5.49175 0,-2.06658 0.45286,-3.89078 1.3586,-5.47261 0.90569,-1.58179 2.13033,-2.79369 3.67389,-3.63562 1.54356,-0.8419 3.27208,-1.26288 5.18557,-1.26288 1.888,0 3.59738,0.4273 5.12816,1.28204 1.53082,0.85468 2.73629,2.06655 3.61651,3.63561 0.88021,1.56906 1.32032,3.38688 1.32032,5.45346 0,2.09209 -0.44647,3.92266 -1.33944,5.49175 -0.89297,1.56905 -2.11123,2.78098 -3.65481,3.63564 -1.54353,0.85468 -3.2593,1.28201 -5.14728,1.28201 z"
           stroke="#000000"
           stroke-width="0"
           fill="#000000"
           fill-opacity="1"
           id="path1444" /><path
           d="m -87.736065,269.02081 c 0.66495,0 1.26592,-0.13914 1.80295,-0.4174 0.53708,-0.27827 0.95903,-0.6712 1.26592,-1.17883 0.30687,-0.50763 0.4603,-1.08863 0.4603,-1.74302 0,-0.65439 -0.15343,-1.23542 -0.4603,-1.743 -0.30689,-0.50763 -0.72884,-0.90207 -1.26592,-1.18345 -0.53703,-0.28131 -1.138,-0.42198 -1.80295,-0.42198 -0.66493,0 -1.26587,0.14067 -1.80295,0.42198 -0.53705,0.28138 -0.95898,0.67582 -1.26593,1.18345 -0.30689,0.50758 -0.46032,1.08861 -0.46032,1.743 0,0.65439 0.15343,1.23539 0.46032,1.74302 0.30695,0.50763 0.72888,0.90056 1.26593,1.17883 0.53708,0.27826 1.13802,0.4174 1.80295,0.4174 z m 0,-0.84396 c -0.4731,0 -0.90308,-0.10248 -1.28987,-0.30732 -0.38685,-0.20492 -0.69213,-0.49538 -0.91588,-0.87154 -0.22376,-0.37613 -0.33563,-0.81494 -0.33563,-1.31643 0,-0.49541 0.11348,-0.93268 0.34044,-1.31183 0.22696,-0.37917 0.53385,-0.66971 0.92065,-0.87151 0.38682,-0.20183 0.81994,-0.30276 1.29947,-0.30276 0.4731,0 0.90149,0.10244 1.28511,0.30734 0.38359,0.20489 0.68567,0.49538 0.90628,0.87151 0.22055,0.37613 0.33086,0.81184 0.33086,1.30725 0,0.50149 -0.11192,0.9403 -0.33568,1.31643 -0.22376,0.37616 -0.52906,0.66662 -0.91588,0.87154 -0.3868,0.20484 -0.81674,0.30732 -1.28987,0.30732 z"
           stroke="#000000"
           stroke-width="0"
           fill="#000000"
           fill-opacity="1"
           id="path1446" /><path
           d="m -131.41137,269.02081 c 0.90789,0 1.59517,-0.23601 2.06192,-0.70797 0.4667,-0.47199 0.70009,-1.11622 0.70009,-1.93267 0,-1.34901 0,-2.69799 0,-4.04704 -0.32612,0 -0.65217,0 -0.97822,0 0,1.36178 0,2.72354 0,4.08532 0,0.56766 -0.15983,0.99661 -0.47953,1.2868 -0.31964,0.29022 -0.7544,0.43535 -1.30426,0.43535 -0.55621,0 -0.99417,-0.14513 -1.31384,-0.43535 -0.3197,-0.29019 -0.47951,-0.71914 -0.47951,-1.2868 0,-1.36178 0,-2.72354 0,-4.08532 -0.32607,0 -0.65214,0 -0.97819,0 0,1.34905 0,2.69803 0,4.04704 0,0.8228 0.23331,1.46862 0.70006,1.93741 0.46673,0.46884 1.15721,0.70323 2.07148,0.70323 z"
           stroke="#000000"
           stroke-width="0"
           fill="#000000"
           fill-opacity="1"
           id="path1448" /></g></g></g></svg>
