<?xml version="1.0" encoding="UTF-8" standalone="no"?>
<!-- Created with Inkscape (http://www.inkscape.org/) -->

<svg
   width="160"
   height="110"
   viewBox="0 0 42.333332 29.104167"
   version="1.1"
   id="svg1594"
   inkscape:version="1.2.1 (9c6d41e410, 2022-07-14)"
   sodipodi:docname="Logo_Maderkit_blanco.svg"
   xmlns:inkscape="http://www.inkscape.org/namespaces/inkscape"
   xmlns:sodipodi="http://sodipodi.sourceforge.net/DTD/sodipodi-0.dtd"
   xmlns="http://www.w3.org/2000/svg"
   xmlns:svg="http://www.w3.org/2000/svg">
  <sodipodi:namedview
     id="namedview1596"
     pagecolor="#515151"
     bordercolor="#666666"
     borderopacity="1.0"
     inkscape:showpageshadow="true"
     inkscape:pageopacity="0"
     inkscape:pagecheckerboard="false"
     inkscape:deskcolor="#ababab"
     inkscape:document-units="mm"
     showgrid="false"
     borderlayer="true"
     inkscape:zoom="4.6311628"
     inkscape:cx="73.523651"
     inkscape:cy="70.392688"
     inkscape:window-width="2400"
     inkscape:window-height="1271"
     inkscape:window-x="2391"
     inkscape:window-y="-9"
     inkscape:window-maximized="1"
     inkscape:current-layer="layer1" />
  <defs
     id="defs1591" />
  <g
     inkscape:label="Capa 1"
     inkscape:groupmode="layer"
     id="layer1">
    <g
       id="g1813"
       transform="matrix(1.0440083,0,0,1.0440083,-270.54952,-39.312773)">
      <polygon
         class="fil2"
         points="3823,12547 4255,11760 3837,11760 3407,12547 "
         id="polygon35-5"
         style="clip-rule:evenodd;fill:#ffffff;fill-rule:nonzero;image-rendering:optimizeQuality;shape-rendering:geometricPrecision;text-rendering:geometricPrecision"
         transform="matrix(0.02104899,0,0,0.02104899,194.25517,-209.51851)" />
      <polygon
         class="fil3"
         points="3381,12735 3451,12735 3451,13043 3381,13043 3381,12864 3301,12995 3293,12995 3213,12864 3213,13043 3143,13043 3143,12735 3213,12735 3297,12872 "
         id="polygon37-3"
         style="clip-rule:evenodd;fill:#ffffff;fill-rule:nonzero;image-rendering:optimizeQuality;shape-rendering:geometricPrecision;text-rendering:geometricPrecision"
         transform="matrix(0.02104899,0,0,0.02104899,194.25517,-209.51851)" />
      <path
         class="fil3"
         d="m 271.33663,62.708213 c 0,-0.694617 -0.46307,-1.136646 -1.1156,-1.136646 -0.63147,0 -1.09454,0.442029 -1.09454,1.136646 0,0.694617 0.46307,1.136646 1.09454,1.136646 0.65253,0 1.1156,-0.442029 1.1156,-1.136646 z m 1.38923,-2.31539 v 4.63078 h -1.38923 v -0.42098 c -0.31573,0.336785 -0.75776,0.568324 -1.38923,0.568324 -1.22084,0 -2.21015,-1.0735 -2.21015,-2.462734 0,-1.389235 0.98931,-2.441684 2.21015,-2.441684 0.63147,0 1.0735,0.210489 1.38923,0.568323 v -0.442029 z"
         id="path39-5"
         style="clip-rule:evenodd;fill:#ffffff;fill-rule:nonzero;stroke-width:0.0210489;image-rendering:optimizeQuality;shape-rendering:geometricPrecision;text-rendering:geometricPrecision" />
      <path
         class="fil3"
         d="m 277.10406,62.708213 c 0,-0.694617 -0.46309,-1.136646 -1.09456,-1.136646 -0.63147,0 -1.09454,0.442029 -1.09454,1.136646 0,0.694617 0.46307,1.136646 1.09454,1.136646 0.63147,0 1.09456,-0.442029 1.09456,-1.136646 z m 1.41028,-4.167703 v 6.483093 h -1.41028 v -0.42098 c -0.29469,0.336785 -0.75776,0.568324 -1.36819,0.568324 -1.22084,0 -2.23119,-1.0735 -2.23119,-2.462734 0,-1.389235 1.01035,-2.441684 2.23119,-2.441684 0.61043,0 1.0735,0.210489 1.36819,0.568323 V 58.54051 Z"
         id="path41-5"
         style="clip-rule:evenodd;fill:#ffffff;fill-rule:nonzero;stroke-width:0.0210489;image-rendering:optimizeQuality;shape-rendering:geometricPrecision;text-rendering:geometricPrecision" />
      <path
         class="fil3"
         d="m 282.74519,62.224087 c -0.14735,-0.526226 -0.56832,-0.736717 -0.9893,-0.736717 -0.52622,0 -0.88406,0.273638 -1.01035,0.736717 z m -0.86301,1.683919 c 0.37888,0 0.71566,-0.147344 0.88406,-0.336784 l 1.1156,0.631469 c -0.44203,0.631471 -1.13665,0.968256 -2.0207,0.968256 -1.57869,0 -2.56798,-1.0735 -2.56798,-2.462734 0,-1.389235 1.01035,-2.441684 2.46273,-2.441684 1.36818,0 2.35748,1.052449 2.35748,2.441684 0,0.189441 -0.021,0.378881 -0.0421,0.568323 h -3.3047 c 0.16839,0.463078 0.61042,0.63147 1.1156,0.63147 z"
         id="path43-7"
         style="clip-rule:evenodd;fill:#ffffff;fill-rule:nonzero;stroke-width:0.0210489;image-rendering:optimizeQuality;shape-rendering:geometricPrecision;text-rendering:geometricPrecision" />
      <path
         class="fil3"
         d="m 287.6917,60.308627 v 1.557627 c -0.56832,-0.08419 -1.38923,0.147342 -1.38923,1.073497 v 2.083852 h -1.38924 v -4.63078 h 1.38924 v 0.820911 c 0.18944,-0.610421 0.79986,-0.905107 1.38923,-0.905107 z"
         id="path45-3"
         style="clip-rule:evenodd;fill:#ffffff;fill-rule:nonzero;stroke-width:0.0210489;image-rendering:optimizeQuality;shape-rendering:geometricPrecision;text-rendering:geometricPrecision" />
      <polygon
         class="fil3"
         points="4679,12823 4599,12933 4681,13043 4606,13043 4536,12946 4536,13043 4470,13043 4470,12735 4536,12735 4536,12919 4602,12823 "
         id="polygon47-1"
         style="clip-rule:evenodd;fill:#ffffff;fill-rule:nonzero;image-rendering:optimizeQuality;shape-rendering:geometricPrecision;text-rendering:geometricPrecision"
         transform="matrix(0.02104899,0,0,0.02104899,194.25517,-209.51851)" />
      <path
         class="fil3"
         d="m 293.31179,60.392823 h 1.38923 v 4.63078 h -1.38923 z m -0.14735,-1.241892 c 0,-0.463077 0.37888,-0.84196 0.84197,-0.84196 0.44202,0 0.82091,0.378883 0.82091,0.84196 0,0.44203 -0.37889,0.84196 -0.82091,0.84196 -0.46309,0 -0.84197,-0.39993 -0.84197,-0.84196 z"
         id="path49-1"
         style="clip-rule:evenodd;fill:#ffffff;fill-rule:nonzero;stroke-width:0.0210489;image-rendering:optimizeQuality;shape-rendering:geometricPrecision;text-rendering:geometricPrecision" />
      <path
         class="fil3"
         d="m 297.47949,61.718909 v 1.641822 c 0,0.399931 0.33678,0.442031 0.9472,0.399931 v 1.262941 c -1.81021,0.189441 -2.33643,-0.357833 -2.33643,-1.662872 v -1.641822 h -0.73672 v -1.326086 h 0.73672 v -0.884058 l 1.38923,-0.42098 v 1.305038 h 0.9472 v 1.326086 z"
         id="path51-2"
         style="clip-rule:evenodd;fill:#ffffff;fill-rule:nonzero;stroke-width:0.0210489;image-rendering:optimizeQuality;shape-rendering:geometricPrecision;text-rendering:geometricPrecision" />
      <path
         style="fill:#ffffff;stroke:none;stroke-width:0.33442px;stroke-linecap:butt;stroke-linejoin:miter;stroke-opacity:1"
         d="m 280.55608,48.079154 3.55729,6.504142 h 8.73533 l -8.81952,-16.144584 z"
         id="path1572" />
    </g>
  </g>
</svg>
