<?xml version="1.0" encoding="UTF-8" standalone="no"?>
<!-- Created with Inkscape (http://www.inkscape.org/) -->

<svg
   width="33mm"
   height="20mm"
   viewBox="0 0 33 20"
   version="1.1"
   id="svg36227"
   inkscape:version="1.2.1 (9c6d41e410, 2022-07-14)"
   sodipodi:docname="03_Navegacion_Armado.svg"
   xml:space="preserve"
   xmlns:inkscape="http://www.inkscape.org/namespaces/inkscape"
   xmlns:sodipodi="http://sodipodi.sourceforge.net/DTD/sodipodi-0.dtd"
   xmlns:xlink="http://www.w3.org/1999/xlink"
   xmlns="http://www.w3.org/2000/svg"
   xmlns:svg="http://www.w3.org/2000/svg"><sodipodi:namedview
     id="namedview36229"
     pagecolor="#ffffff"
     bordercolor="#eeeeee"
     borderopacity="1"
     inkscape:showpageshadow="0"
     inkscape:pageopacity="0"
     inkscape:pagecheckerboard="0"
     inkscape:deskcolor="#505050"
     inkscape:document-units="mm"
     showgrid="false"
     inkscape:zoom="6.6128423"
     inkscape:cx="30.09296"
     inkscape:cy="30.849065"
     inkscape:current-layer="layer1"
     showguides="true"
     inkscape:window-width="1920"
     inkscape:window-height="1017"
     inkscape:window-x="-8"
     inkscape:window-y="-8"
     inkscape:window-maximized="1" /><defs
     id="defs36224"><linearGradient
       inkscape:collect="always"
       id="linearGradient1116"><stop
         style="stop-color:#000000;stop-opacity:1;"
         offset="0"
         id="stop1112" /><stop
         style="stop-color:#000000;stop-opacity:0;"
         offset="1"
         id="stop1114" /></linearGradient><linearGradient
       id="linearGradient8956"
       inkscape:swatch="gradient"><stop
         style="stop-color:#000000;stop-opacity:1;"
         offset="0"
         id="stop8952" /><stop
         style="stop-color:#000000;stop-opacity:0;"
         offset="1"
         id="stop8954" /></linearGradient><linearGradient
       id="linearGradient8163"
       inkscape:swatch="solid"><stop
         style="stop-color:#7c46c2;stop-opacity:1;"
         offset="0"
         id="stop8161" /></linearGradient><color-profile
       name="Agfa-:-Swop-Standard"
       xlink:href="../../../WINDOWS/system32/spool/drivers/color/RSWOP.icm"
       id="color-profile5459" /><filter
       y="-0.13272241"
       height="1.2654448"
       inkscape:menu-tooltip="Darkens the edge with an inner blur and adds a flexible glow"
       inkscape:menu="Shadows and Glows"
       inkscape:label="Dark and Glow"
       style="color-interpolation-filters:sRGB"
       id="filter5454-4-2-3-4"
       x="-0.13272241"
       width="1.2654448"><feGaussianBlur
         stdDeviation="0.47054122"
         result="result6"
         id="feGaussianBlur5444-0-7-1-9" /><feComposite
         result="result8"
         in="SourceGraphic"
         operator="atop"
         in2="result6"
         id="feComposite5446-1-8-7-8" /><feComposite
         result="result9"
         operator="over"
         in2="SourceAlpha"
         in="result8"
         id="feComposite5448-9-1-7-7" /><feColorMatrix
         values="1 0 0 0 0 0 1 0 0 0 0 0 1 0 0 0 0 0 1 0 "
         result="result10"
         id="feColorMatrix5450-1-7-1-3" /><feBlend
         in="result10"
         mode="normal"
         in2="result6"
         id="feBlend5452-5-2-18-1" /></filter><filter
       y="-0.13272241"
       height="1.2654448"
       inkscape:menu-tooltip="Darkens the edge with an inner blur and adds a flexible glow"
       inkscape:menu="Shadows and Glows"
       inkscape:label="Dark and Glow"
       style="color-interpolation-filters:sRGB"
       id="filter5454-4-2-54"
       x="-0.13272241"
       width="1.2654448"><feGaussianBlur
         stdDeviation="0.47054122"
         result="result6"
         id="feGaussianBlur5444-0-7-2" /><feComposite
         result="result8"
         in="SourceGraphic"
         operator="atop"
         in2="result6"
         id="feComposite5446-1-8-1" /><feComposite
         result="result9"
         operator="over"
         in2="SourceAlpha"
         in="result8"
         id="feComposite5448-9-1-1" /><feColorMatrix
         values="1 0 0 0 0 0 1 0 0 0 0 0 1 0 0 0 0 0 1 0 "
         result="result10"
         id="feColorMatrix5450-1-7-0" /><feBlend
         in="result10"
         mode="normal"
         in2="result6"
         id="feBlend5452-5-2-24" /></filter><filter
       y="-0.13272241"
       height="1.2654448"
       inkscape:menu-tooltip="Darkens the edge with an inner blur and adds a flexible glow"
       inkscape:menu="Shadows and Glows"
       inkscape:label="Dark and Glow"
       style="color-interpolation-filters:sRGB"
       id="filter5454-4-9-5"
       x="-0.13272241"
       width="1.2654448"><feGaussianBlur
         stdDeviation="0.47054122"
         result="result6"
         id="feGaussianBlur5444-0-74-6" /><feComposite
         result="result8"
         in="SourceGraphic"
         operator="atop"
         in2="result6"
         id="feComposite5446-1-1-7" /><feComposite
         result="result9"
         operator="over"
         in2="SourceAlpha"
         in="result8"
         id="feComposite5448-9-0-0" /><feColorMatrix
         values="1 0 0 0 0 0 1 0 0 0 0 0 1 0 0 0 0 0 1 0 "
         result="result10"
         id="feColorMatrix5450-1-6-2" /><feBlend
         in="result10"
         mode="normal"
         in2="result6"
         id="feBlend5452-5-20-5" /></filter><clipPath
       clipPathUnits="userSpaceOnUse"
       id="clipPath905-9-0"><path
         d="m 238.0498,493.3495 c -0.2628,-2.5925 2.6761,-5.5314 5.2686,-5.2685 2.5925,-0.2629 5.5314,2.676 5.2685,5.2685 0.2629,2.5925 -2.676,5.5314 -5.2685,5.2686 -2.5925,0.2628 -5.5314,-2.6761 -5.2686,-5.2686 z"
         stroke="#FF3F3F"
         stroke-width="0.24"
         fill-opacity="0"
         id="path907-5-5"
         style="stroke:#f28f1d;stroke-width:0.75;stroke-miterlimit:4;stroke-dasharray:none;stroke-opacity:1" /></clipPath><clipPath
       clipPathUnits="userSpaceOnUse"
       id="clipPath1315-5"><path
         d="m 286.3802,493.3495 c -0.2629,-2.5925 2.676,-5.5314 5.2685,-5.2685 2.5925,-0.2629 5.5314,2.676 5.2686,5.2685 0.2628,2.5925 -2.6761,5.5314 -5.2686,5.2686 -2.5925,0.2628 -5.5314,-2.6761 -5.2685,-5.2686 z"
         stroke="#ff3f3f"
         stroke-width="0.24"
         fill-opacity="0"
         id="path1317-0" /></clipPath><clipPath
       clipPathUnits="userSpaceOnUse"
       id="clipPath1319-2"><path
         d="m 313.004,493.3495 c 0.2628,-2.5925 -2.6761,-5.5314 -5.2686,-5.2685 -2.5925,-0.2629 -5.5314,2.676 -5.2685,5.2685 -0.2629,2.5925 2.676,5.5314 5.2685,5.2686 2.5925,0.2628 5.5314,-2.6761 5.2686,-5.2686 z"
         stroke="#ff3f3f"
         stroke-width="0.24"
         fill-opacity="0"
         id="path1321-7" /></clipPath><filter
       y="-0.13272241"
       height="1.2654448"
       inkscape:menu-tooltip="Darkens the edge with an inner blur and adds a flexible glow"
       inkscape:menu="Shadows and Glows"
       inkscape:label="Dark and Glow"
       style="color-interpolation-filters:sRGB"
       id="filter5454-4-2-3-4-0"
       x="-0.13272241"
       width="1.2654448"><feGaussianBlur
         stdDeviation="0.47054122"
         result="result6"
         id="feGaussianBlur5444-0-7-1-9-9" /><feComposite
         result="result8"
         in="SourceGraphic"
         operator="atop"
         in2="result6"
         id="feComposite5446-1-8-7-8-9" /><feComposite
         result="result9"
         operator="over"
         in2="SourceAlpha"
         in="result8"
         id="feComposite5448-9-1-7-7-8" /><feColorMatrix
         values="1 0 0 0 0 0 1 0 0 0 0 0 1 0 0 0 0 0 1 0 "
         result="result10"
         id="feColorMatrix5450-1-7-1-3-8" /><feBlend
         in="result10"
         mode="normal"
         in2="result6"
         id="feBlend5452-5-2-18-1-7" /></filter><linearGradient
       inkscape:collect="always"
       xlink:href="#linearGradient1116"
       id="linearGradient1118"
       x1="269.73328"
       y1="316.02557"
       x2="270.28851"
       y2="292.45535"
       gradientUnits="userSpaceOnUse" /><filter
       inkscape:collect="always"
       style="color-interpolation-filters:sRGB"
       id="filter1120"
       x="-0.083975361"
       y="-0.15127989"
       width="1.1679507"
       height="1.3025598"><feGaussianBlur
         inkscape:collect="always"
         stdDeviation="8.729525"
         id="feGaussianBlur1122" /></filter><linearGradient
       inkscape:collect="always"
       xlink:href="#linearGradient1116"
       id="linearGradient1611"
       gradientUnits="userSpaceOnUse"
       x1="269.73328"
       y1="316.02557"
       x2="270.28851"
       y2="292.45535" /></defs><g
     inkscape:label="Capa 1"
     inkscape:groupmode="layer"
     id="layer1"><g
       style="overflow:visible;opacity:0.6;fill:url(#linearGradient1118);fill-opacity:1;filter:url(#filter1120)"
       id="g506-6"
       transform="matrix(0.11040603,0,0,0.11040603,-12.930798,-35.340287)"><path
         d="m 156.5782,373.3551 c -7.2373,0.7339 -15.4417,-7.4708 -14.7078,-14.7081 v -2.5576 c -0.7339,-7.2373 7.4705,-15.4421 14.7078,-14.7081 H 376.559 c 7.2373,-0.734 15.4414,7.4708 14.7078,14.7081 v 2.5576 c 0.7336,7.2373 -7.4705,15.442 -14.7078,14.7081 h -61.9974 l 8.1318,106.471 -27.3162,-106.471 h -19.2164 l -9.5922,102.4103 -9.5923,-102.4103 H 237.76 l -27.3163,106.471 8.1319,-106.471 z"
         stroke="#000000"
         stroke-width="0"
         fill="#000000"
         fill-opacity="1"
         id="path497-3"
         style="fill:url(#linearGradient1611);fill-opacity:1" /></g><g
       style="overflow:visible;fill:#ffffff"
       id="g506"
       transform="matrix(0.11040603,0,0,0.11040603,-12.930798,-35.340287)"><path
         d="m 156.5782,373.3551 c -7.2373,0.7339 -15.4417,-7.4708 -14.7078,-14.7081 v -2.5576 c -0.7339,-7.2373 7.4705,-15.4421 14.7078,-14.7081 H 376.559 c 7.2373,-0.734 15.4414,7.4708 14.7078,14.7081 v 2.5576 c 0.7336,7.2373 -7.4705,15.442 -14.7078,14.7081 h -61.9974 l 8.1318,106.471 -27.3162,-106.471 h -19.2164 l -9.5922,102.4103 -9.5923,-102.4103 H 237.76 l -27.3163,106.471 8.1319,-106.471 z"
         stroke="#000000"
         stroke-width="0"
         fill="#000000"
         fill-opacity="1"
         id="path497"
         style="fill:#ffffff" /></g><g
       aria-label="Navegación de Armado"
       transform="scale(1.0005301,0.99947018)"
       id="text14254"
       style="font-weight:bold;font-size:2.25693px;font-family:Play;fill:#f28f1d;stroke-width:0.43675"><g
         aria-label="Navegacion de armado"
         transform="scale(0.99947019,1.0005301)"
         id="text479-5"
         style="font-size:2.2215px;line-height:1.05;-inkscape-font-specification:'Play, Bold';stroke-width:0.12128"><path
           d="m 4.7133844,3.3691286 h 0.350997 l 0.697551,0.9841245 V 3.3691286 h 0.3087885 v 1.4417535 h -0.350997 l -0.697551,-0.999675 v 0.999675 H 4.7133844 Z"
           id="path1420" /><path
           d="m 6.6727461,4.8330971 q -0.1510619,0 -0.2265929,-0.026658 -0.07331,-0.02888 -0.1044105,-0.099967 -0.02888,-0.07331 -0.02888,-0.217707 0,-0.128847 0.031101,-0.2021565 0.033322,-0.073309 0.1044105,-0.1044105 0.07331,-0.033323 0.1999349,-0.033323 h 0.364326 v -0.073309 q 0,-0.068867 -0.019993,-0.102189 -0.017772,-0.033323 -0.068867,-0.046651 -0.048873,-0.013329 -0.1488405,-0.013329 -0.137733,0 -0.3776549,0.026658 v -0.204378 q 0.1754984,-0.022215 0.4109774,-0.022215 0.2065995,0 0.3176745,0.031101 0.1132965,0.031101 0.1621695,0.106632 0.048873,0.075531 0.048873,0.2199285 V 4.8108821 H 7.0193001 v -0.097746 q -0.037765,0.064424 -0.102189,0.091082 -0.064423,0.028879 -0.244365,0.028879 z M 6.7993716,4.6309406 q 0.097746,0 0.1399545,-0.00666 0.031101,-0.00444 0.042209,-0.013329 0.013329,-0.00889 0.022215,-0.028879 0.00889,-0.01555 0.00889,-0.046652 v -0.208821 h -0.22215 q -0.075531,0 -0.106632,0.011108 -0.031101,0.00889 -0.042209,0.039987 -0.011107,0.028879 -0.011107,0.1044105 0,0.073309 0.011107,0.102189 0.011108,0.028879 0.042209,0.037765 0.033322,0.00889 0.115518,0.00889 z"
           id="path1422" /><path
           d="m 7.4791489,3.7356761 h 0.3443325 l 0.2354789,0.7442025 0.226593,-0.7442025 h 0.3265605 l -0.395427,1.075206 H 7.8879049 Z"
           id="path1424" /><path
           d="m 9.2941144,4.8330971 q -0.5709255,0 -0.5709255,-0.3487755 v -0.386541 q 0,-0.2021565 0.128847,-0.293238 0.1310685,-0.091082 0.4020915,-0.091082 0.2554725,0 0.373212,0.08886 0.119961,0.086639 0.119961,0.2954595 v 0.262137 h -0.697551 v 0.097746 q 0,0.093303 0.066645,0.13329 0.066645,0.039987 0.239922,0.039987 0.159948,0 0.359883,-0.046651 v 0.2065995 q -0.1977135,0.042209 -0.422085,0.042209 z m 0.1443975,-0.657564 v -0.155505 q 0,-0.053316 -0.04443,-0.079974 -0.042208,-0.026658 -0.1443975,-0.026658 -0.1177395,0 -0.1577265,0.026658 -0.042209,0.02888 -0.042209,0.079974 v 0.155505 z"
           id="path1426" /><path
           d="m 10.431523,5.2996121 q -0.262137,0 -0.388763,-0.01555 v -0.217707 q 0.208821,0.028879 0.388763,0.028879 0.164391,0 0.235479,-0.053316 0.07109,-0.053316 0.07109,-0.17772 v -0.173277 q -0.03999,0.057759 -0.07775,0.08886 -0.03777,0.028879 -0.09997,0.039987 -0.05998,0.013329 -0.166613,0.013329 -0.157726,0 -0.251029,-0.028879 -0.0933,-0.031101 -0.135512,-0.099967 -0.042208,-0.071088 -0.042208,-0.195492 V 4.0888946 q 0,-0.1488405 0.037765,-0.2288145 0.03999,-0.079974 0.13329,-0.1132965 0.09553,-0.033323 0.273245,-0.033323 0.115518,0 0.17772,0.013329 0.05998,0.013329 0.09108,0.039987 0.0311,0.026658 0.07109,0.091082 V 3.7356761 h 0.313232 v 1.132965 q 0,0.2288145 -0.157727,0.328782 -0.155505,0.102189 -0.473179,0.102189 z m 0.07775,-0.6686715 q 0.09552,0 0.142176,-0.013329 0.04887,-0.013329 0.06664,-0.042209 0.01999,-0.031101 0.01999,-0.086639 V 4.0555721 q 0,-0.05998 -0.01777,-0.08886 -0.01777,-0.031101 -0.06887,-0.042209 -0.05109,-0.011108 -0.159948,-0.011108 -0.08886,0 -0.131068,0.013329 -0.04221,0.013329 -0.05776,0.046651 -0.01333,0.031101 -0.01333,0.093303 v 0.4109775 q 0,0.068867 0.01333,0.099967 0.01555,0.02888 0.05998,0.042209 0.04443,0.011107 0.146619,0.011107 z"
           id="path1428" /><path
           d="m 11.651126,4.8330971 q -0.151062,0 -0.226593,-0.026658 -0.07331,-0.02888 -0.104411,-0.099967 -0.02888,-0.07331 -0.02888,-0.217707 0,-0.128847 0.0311,-0.2021565 0.03332,-0.073309 0.10441,-0.1044105 0.07331,-0.033323 0.199935,-0.033323 h 0.364326 v -0.073309 q 0,-0.068867 -0.01999,-0.102189 -0.01777,-0.033323 -0.06887,-0.046651 -0.04887,-0.013329 -0.14884,-0.013329 -0.137733,0 -0.377655,0.026658 v -0.204378 q 0.175498,-0.022215 0.410977,-0.022215 0.2066,0 0.317675,0.031101 0.113296,0.031101 0.162169,0.106632 0.04887,0.075531 0.04887,0.2199285 V 4.8108821 H 11.99768 v -0.097746 q -0.03777,0.064424 -0.102189,0.091082 -0.06442,0.028879 -0.244365,0.028879 z m 0.126625,-0.2021565 q 0.09775,0 0.139955,-0.00666 0.0311,-0.00444 0.04221,-0.013329 0.01333,-0.00889 0.02222,-0.028879 0.0089,-0.01555 0.0089,-0.046652 v -0.208821 h -0.22215 q -0.07553,0 -0.106632,0.011108 -0.0311,0.00889 -0.04221,0.039987 -0.01111,0.028879 -0.01111,0.1044105 0,0.073309 0.01111,0.102189 0.01111,0.028879 0.04221,0.037765 0.03332,0.00889 0.115518,0.00889 z"
           id="path1430" /><path
           d="m 13.123978,4.8330971 q -0.08442,0 -0.13329,-0.00444 -0.04887,-0.00222 -0.119961,-0.011107 -0.07109,-0.00889 -0.117739,-0.031101 -0.04443,-0.022215 -0.0933,-0.066645 -0.09108,-0.075531 -0.09108,-0.257694 V 4.1044451 q 0,-0.146619 0.06665,-0.244365 0.02444,-0.035544 0.07109,-0.064423 0.04887,-0.031101 0.09775,-0.048873 0.03999,-0.013329 0.106632,-0.022215 0.06664,-0.00889 0.11774,-0.011108 h 0.117739 q 0.124404,0 0.326561,0.039987 v 0.213264 q -0.228815,-0.053316 -0.350997,-0.053316 -0.224372,0 -0.224372,0.151062 v 0.395427 q 0,0.1710555 0.246587,0.1710555 0.119961,0 0.344332,-0.048873 v 0.213264 q -0.202156,0.037765 -0.364326,0.037765 z"
           id="path1432" /><path
           d="m 13.679354,3.3469136 h 0.324339 v 0.262137 h -0.324339 z m 0,0.3887625 h 0.324339 v 1.075206 h -0.324339 z"
           id="path1434" /><path
           d="m 14.812318,4.8330971 q -0.09997,0 -0.164391,-0.00666 -0.06442,-0.00666 -0.137733,-0.026658 -0.07997,-0.022215 -0.128847,-0.062202 -0.04887,-0.042209 -0.0822,-0.1177395 -0.03332,-0.073309 -0.03332,-0.17772 V 4.1244386 q 0,-0.106632 0.03332,-0.186606 0.03332,-0.079974 0.08664,-0.124404 0.04665,-0.037765 0.122182,-0.062202 0.07775,-0.026658 0.151062,-0.033322 0.08442,-0.00444 0.153284,-0.00444 0.102189,0 0.162169,0.00666 0.0622,0.00444 0.135512,0.026658 0.07997,0.024436 0.128847,0.066645 0.05109,0.042209 0.08664,0.119961 0.03332,0.079974 0.03332,0.191049 v 0.3176745 q 0,0.099967 -0.03332,0.1754985 -0.0311,0.075531 -0.08219,0.1177395 -0.04443,0.037765 -0.122183,0.062202 -0.07553,0.022215 -0.14884,0.02888 -0.06664,0.00666 -0.159948,0.00666 z m 0,-0.2021565 q 0.09108,0 0.137733,-0.013329 0.04665,-0.01555 0.06442,-0.046652 0.01999,-0.031101 0.01999,-0.091081 V 4.0733441 q 0,-0.08886 -0.04665,-0.124404 -0.04665,-0.035544 -0.175498,-0.035544 -0.128847,0 -0.175499,0.035544 -0.04665,0.035544 -0.04665,0.124404 v 0.4065345 q 0,0.05998 0.01777,0.091081 0.01999,0.031101 0.06665,0.046652 0.04665,0.013329 0.137733,0.013329 z"
           id="path1436" /><path
           d="m 15.61206,3.7356761 h 0.319896 v 0.1310685 q 0.03777,-0.1532835 0.344332,-0.1532835 0.2066,0 0.288795,0.075531 0.08442,0.073309 0.08442,0.2332575 v 0.7886325 h -0.324339 v -0.746424 q 0,-0.062202 -0.01333,-0.093303 -0.01111,-0.031101 -0.04887,-0.04443 -0.03554,-0.013329 -0.111075,-0.013329 -0.09552,0 -0.139954,0.013329 -0.04443,0.011108 -0.05998,0.042209 -0.01555,0.031101 -0.01555,0.095525 v 0.746424 H 15.61206 Z"
           id="path1438" /><path
           d="m 17.857994,4.8330971 q -0.191049,0 -0.282131,-0.026658 -0.09108,-0.02888 -0.126625,-0.106632 -0.03554,-0.077752 -0.03554,-0.2421435 V 4.0378001 q 0,-0.17772 0.09997,-0.2510295 0.102189,-0.07331 0.328782,-0.07331 0.106632,0 0.166613,0.013329 0.0622,0.011108 0.09997,0.042209 0.03777,0.028879 0.07775,0.086638 v -0.599805 h 0.324339 v 1.55505 H 18.197883 V 4.6886996 q -0.03999,0.064424 -0.07331,0.091082 -0.0311,0.024437 -0.08886,0.037765 -0.05998,0.01555 -0.17772,0.01555 z m 0.08219,-0.2021565 q 0.108854,0 0.159948,-0.011107 0.0511,-0.011108 0.06887,-0.039987 0.01777,-0.031101 0.01777,-0.091082 V 4.0555721 q 0,-0.055537 -0.01999,-0.084417 -0.01777,-0.031101 -0.06665,-0.04443 -0.04665,-0.013329 -0.142176,-0.013329 -0.102189,0 -0.146619,0.013329 -0.04443,0.011108 -0.05998,0.042209 -0.01333,0.028879 -0.01333,0.097746 v 0.4109775 q 0,0.062202 0.01333,0.095524 0.01555,0.031101 0.05776,0.04443 0.04221,0.013329 0.131068,0.013329 z"
           id="path1440" /><path
           d="m 19.335291,4.8330971 q -0.570925,0 -0.570925,-0.3487755 v -0.386541 q 0,-0.2021565 0.128847,-0.293238 0.131068,-0.091082 0.402091,-0.091082 0.255473,0 0.373212,0.08886 0.119961,0.086639 0.119961,0.2954595 v 0.262137 h -0.697551 v 0.097746 q 0,0.093303 0.06665,0.13329 0.06664,0.039987 0.239922,0.039987 0.159948,0 0.359883,-0.046651 v 0.2065995 q -0.197713,0.042209 -0.422085,0.042209 z m 0.144398,-0.657564 v -0.155505 q 0,-0.053316 -0.04443,-0.079974 -0.04221,-0.026658 -0.144398,-0.026658 -0.117739,0 -0.157726,0.026658 -0.04221,0.02888 -0.04221,0.079974 v 0.155505 z"
           id="path1442" /><path
           d="m 20.852575,4.8330971 q -0.151062,0 -0.226593,-0.026658 -0.07331,-0.02888 -0.10441,-0.099967 -0.02888,-0.07331 -0.02888,-0.217707 0,-0.128847 0.0311,-0.2021565 0.03332,-0.073309 0.104411,-0.1044105 0.07331,-0.033323 0.199935,-0.033323 h 0.364326 v -0.073309 q 0,-0.068867 -0.01999,-0.102189 -0.01777,-0.033323 -0.06887,-0.046651 -0.04887,-0.013329 -0.148841,-0.013329 -0.137733,0 -0.377655,0.026658 v -0.204378 q 0.175499,-0.022215 0.410978,-0.022215 0.206599,0 0.317674,0.031101 0.113297,0.031101 0.16217,0.106632 0.04887,0.075531 0.04887,0.2199285 v 0.7397595 h -0.317675 v -0.097746 q -0.03777,0.064424 -0.102189,0.091082 -0.06442,0.028879 -0.244365,0.028879 z m 0.126626,-0.2021565 q 0.09775,0 0.139954,-0.00666 0.0311,-0.00444 0.04221,-0.013329 0.01333,-0.00889 0.02222,-0.028879 0.0089,-0.01555 0.0089,-0.046652 v -0.208821 h -0.22215 q -0.07553,0 -0.106632,0.011108 -0.0311,0.00889 -0.04221,0.039987 -0.01111,0.028879 -0.01111,0.1044105 0,0.073309 0.01111,0.102189 0.01111,0.028879 0.04221,0.037765 0.03332,0.00889 0.115518,0.00889 z"
           id="path1444" /><path
           d="m 21.801153,3.7356761 h 0.308788 v 0.1888275 q 0,-0.051095 0.04221,-0.099967 0.04221,-0.048873 0.106632,-0.079974 0.06665,-0.031101 0.131068,-0.031101 h 0.115518 v 0.2688015 h -0.111075 q -0.137733,0 -0.204378,0.042209 -0.06442,0.042208 -0.06442,0.1399545 v 0.6464565 h -0.324339 z"
           id="path1446" /><path
           d="m 22.683088,3.7356761 h 0.324339 v 0.1310685 q 0.0311,-0.1532835 0.317674,-0.1532835 0.151062,0 0.228815,0.039987 0.07775,0.037765 0.10441,0.119961 0.02666,-0.084417 0.102189,-0.1221825 0.07775,-0.037765 0.233258,-0.037765 0.139954,0 0.215485,0.033323 0.07553,0.031101 0.104411,0.097746 0.0311,0.066645 0.0311,0.17772 V 4.8108821 H 24.020431 V 4.0666796 q 0,-0.071088 -0.0089,-0.099967 -0.0089,-0.031101 -0.03999,-0.042209 -0.02888,-0.011108 -0.102189,-0.011108 -0.09108,0 -0.131069,0.011108 -0.03777,0.011108 -0.05109,0.042209 -0.01111,0.028879 -0.01111,0.099967 V 4.8108821 H 23.351759 V 4.0666796 q 0,-0.071088 -0.0089,-0.099967 -0.0089,-0.031101 -0.03999,-0.042209 -0.02888,-0.011108 -0.102189,-0.011108 -0.09108,0 -0.131068,0.011108 -0.03777,0.011108 -0.0511,0.042209 -0.01111,0.028879 -0.01111,0.099967 v 0.7442025 h -0.324339 z"
           id="path1448" /><path
           d="m 24.933465,4.8330971 q -0.151062,0 -0.226593,-0.026658 -0.07331,-0.02888 -0.104411,-0.099967 -0.02888,-0.07331 -0.02888,-0.217707 0,-0.128847 0.0311,-0.2021565 0.03332,-0.073309 0.10441,-0.1044105 0.07331,-0.033323 0.199935,-0.033323 h 0.364326 v -0.073309 q 0,-0.068867 -0.01999,-0.102189 -0.01777,-0.033323 -0.06887,-0.046651 -0.04887,-0.013329 -0.14884,-0.013329 -0.137733,0 -0.377655,0.026658 v -0.204378 q 0.175498,-0.022215 0.410977,-0.022215 0.2066,0 0.317675,0.031101 0.113296,0.031101 0.162169,0.106632 0.04887,0.075531 0.04887,0.2199285 v 0.7397595 h -0.317674 v -0.097746 q -0.03777,0.064424 -0.102189,0.091082 -0.06442,0.028879 -0.244365,0.028879 z M 25.06009,4.6309406 q 0.09775,0 0.139955,-0.00666 0.0311,-0.00444 0.04221,-0.013329 0.01333,-0.00889 0.02221,-0.028879 0.0089,-0.01555 0.0089,-0.046652 v -0.208821 h -0.22215 q -0.07553,0 -0.106632,0.011108 -0.0311,0.00889 -0.04221,0.039987 -0.01111,0.028879 -0.01111,0.1044105 0,0.073309 0.01111,0.102189 0.01111,0.028879 0.04221,0.037765 0.03332,0.00889 0.115518,0.00889 z"
           id="path1450" /><path
           d="m 26.295242,4.8330971 q -0.191049,0 -0.28213,-0.026658 -0.09108,-0.02888 -0.126626,-0.106632 -0.03554,-0.077752 -0.03554,-0.2421435 V 4.0378001 q 0,-0.17772 0.09997,-0.2510295 0.102189,-0.07331 0.328782,-0.07331 0.106632,0 0.166612,0.013329 0.0622,0.011108 0.09997,0.042209 0.03777,0.028879 0.07775,0.086638 v -0.599805 h 0.324339 v 1.55505 H 26.635132 V 4.6886996 q -0.03999,0.064424 -0.07331,0.091082 -0.0311,0.024437 -0.08886,0.037765 -0.05998,0.01555 -0.17772,0.01555 z m 0.0822,-0.2021565 q 0.108853,0 0.159948,-0.011107 0.05109,-0.011108 0.06887,-0.039987 0.01777,-0.031101 0.01777,-0.091082 V 4.0555721 q 0,-0.055537 -0.01999,-0.084417 -0.01777,-0.031101 -0.06664,-0.04443 -0.04665,-0.013329 -0.142176,-0.013329 -0.102189,0 -0.146619,0.013329 -0.04443,0.011108 -0.05998,0.042209 -0.01333,0.028879 -0.01333,0.097746 v 0.4109775 q 0,0.062202 0.01333,0.095524 0.01555,0.031101 0.05776,0.04443 0.04221,0.013329 0.131069,0.013329 z"
           id="path1452" /><path
           d="m 27.748103,4.8330971 q -0.09997,0 -0.164391,-0.00666 -0.06442,-0.00666 -0.137733,-0.026658 -0.07997,-0.022215 -0.128847,-0.062202 -0.04887,-0.042209 -0.0822,-0.1177395 -0.03332,-0.073309 -0.03332,-0.17772 V 4.1244386 q 0,-0.106632 0.03332,-0.186606 0.03332,-0.079974 0.08664,-0.124404 0.04665,-0.037765 0.122182,-0.062202 0.07775,-0.026658 0.151062,-0.033322 0.08442,-0.00444 0.153284,-0.00444 0.102189,0 0.162169,0.00666 0.0622,0.00444 0.135512,0.026658 0.07997,0.024436 0.128847,0.066645 0.05109,0.042209 0.08664,0.119961 0.03332,0.079974 0.03332,0.191049 v 0.3176745 q 0,0.099967 -0.03332,0.1754985 -0.0311,0.075531 -0.08219,0.1177395 -0.04443,0.037765 -0.122183,0.062202 -0.07553,0.022215 -0.14884,0.02888 -0.06665,0.00666 -0.159948,0.00666 z m 0,-0.2021565 q 0.09108,0 0.137733,-0.013329 0.04665,-0.01555 0.06442,-0.046652 0.01999,-0.031101 0.01999,-0.091081 V 4.0733441 q 0,-0.08886 -0.04665,-0.124404 -0.04665,-0.035544 -0.175498,-0.035544 -0.128847,0 -0.175499,0.035544 -0.04665,0.035544 -0.04665,0.124404 v 0.4065345 q 0,0.05998 0.01777,0.091081 0.01999,0.031101 0.06665,0.046652 0.04665,0.013329 0.137733,0.013329 z"
           id="path1454" /></g></g><text
       xml:space="preserve"
       style="font-weight:bold;font-size:9.38916px;font-family:Arial;-inkscape-font-specification:'Arial, Bold';fill:#f70009;fill-opacity:0.996078;stroke:#0072ce;stroke-width:1"
       x="26.523571"
       y="16.202183"
       id="text409"><tspan
         sodipodi:role="line"
         id="tspan407"
         style="stroke-width:1"
         x="26.523571"
         y="16.202183" /></text><text
       xml:space="preserve"
       style="font-style:normal;font-variant:normal;font-weight:normal;font-stretch:normal;font-size:2.11666667px;font-family:Play;-inkscape-font-specification:Play;opacity:0.99;fill:#f28f1d;fill-opacity:1;stroke:none;stroke-width:1;stroke-dasharray:none;stroke-opacity:1"
       x="14.938027"
       y="5.2764053"
       id="text5439"><tspan
         sodipodi:role="line"
         id="tspan5437"
         style="stroke-width:1;font-size:2.11666667px"
         x="14.938027"
         y="5.2764053" /></text><g
       aria-label="´"
       id="text5443"
       style="font-size:2.11667px;font-family:Play;-inkscape-font-specification:Play;opacity:0.99;fill:#f28f1d"
       transform="matrix(1.4511927,0,0,1.2604687,-6.7405502,-0.79065329)"><path
         d="M 15.000693,3.2217253 H 15.23141 L 14.966827,3.4905424 H 14.810193 Z"
         id="path5445" /></g></g></svg>
