<?xml version="1.0" encoding="UTF-8" standalone="no"?>
<!-- Created with Inkscape (http://www.inkscape.org/) -->

<svg
   width="38mm"
   height="13mm"
   viewBox="0 0 38 13"
   version="1.1"
   id="svg36227"
   inkscape:version="1.2 (dc2aedaf03, 2022-05-15)"
   sodipodi:docname="06_Ver_en_AR.svg"
   xml:space="preserve"
   xmlns:inkscape="http://www.inkscape.org/namespaces/inkscape"
   xmlns:sodipodi="http://sodipodi.sourceforge.net/DTD/sodipodi-0.dtd"
   xmlns:xlink="http://www.w3.org/1999/xlink"
   xmlns="http://www.w3.org/2000/svg"
   xmlns:svg="http://www.w3.org/2000/svg"><sodipodi:namedview
     id="namedview36229"
     pagecolor="#ffffff"
     bordercolor="#eeeeee"
     borderopacity="1"
     inkscape:showpageshadow="0"
     inkscape:pageopacity="0"
     inkscape:pagecheckerboard="0"
     inkscape:deskcolor="#505050"
     inkscape:document-units="mm"
     showgrid="false"
     inkscape:zoom="6.6136924"
     inkscape:cx="84.219218"
     inkscape:cy="46.267649"
     inkscape:current-layer="g3367"
     showguides="true" /><defs
     id="defs36224"><linearGradient
       id="linearGradient8956"
       inkscape:swatch="gradient"><stop
         style="stop-color:#000000;stop-opacity:1;"
         offset="0"
         id="stop8952" /><stop
         style="stop-color:#000000;stop-opacity:0;"
         offset="1"
         id="stop8954" /></linearGradient><linearGradient
       id="linearGradient8163"
       inkscape:swatch="solid"><stop
         style="stop-color:#7c46c2;stop-opacity:1;"
         offset="0"
         id="stop8161" /></linearGradient><color-profile
       name="Agfa-:-Swop-Standard"
       xlink:href="file:///C:/WINDOWS/system32/spool/drivers/color/RSWOP.icm"
       id="color-profile381" /><filter
       y="-0.13272241"
       height="1.2654448"
       inkscape:menu-tooltip="Darkens the edge with an inner blur and adds a flexible glow"
       inkscape:menu="Shadows and Glows"
       inkscape:label="Dark and Glow"
       style="color-interpolation-filters:sRGB"
       id="filter5454-4-2-3-4"
       x="-0.13272241"
       width="1.2654448"><feGaussianBlur
         stdDeviation="0.47054122"
         result="result6"
         id="feGaussianBlur5444-0-7-1-9" /><feComposite
         result="result8"
         in="SourceGraphic"
         operator="atop"
         in2="result6"
         id="feComposite5446-1-8-7-8" /><feComposite
         result="result9"
         operator="over"
         in2="SourceAlpha"
         in="result8"
         id="feComposite5448-9-1-7-7" /><feColorMatrix
         values="1 0 0 0 0 0 1 0 0 0 0 0 1 0 0 0 0 0 1 0 "
         result="result10"
         id="feColorMatrix5450-1-7-1-3" /><feBlend
         in="result10"
         mode="normal"
         in2="result6"
         id="feBlend5452-5-2-18-1" /></filter><filter
       y="-0.13272241"
       height="1.2654448"
       inkscape:menu-tooltip="Darkens the edge with an inner blur and adds a flexible glow"
       inkscape:menu="Shadows and Glows"
       inkscape:label="Dark and Glow"
       style="color-interpolation-filters:sRGB"
       id="filter5454-4-2-54"
       x="-0.13272241"
       width="1.2654448"><feGaussianBlur
         stdDeviation="0.47054122"
         result="result6"
         id="feGaussianBlur5444-0-7-2" /><feComposite
         result="result8"
         in="SourceGraphic"
         operator="atop"
         in2="result6"
         id="feComposite5446-1-8-1" /><feComposite
         result="result9"
         operator="over"
         in2="SourceAlpha"
         in="result8"
         id="feComposite5448-9-1-1" /><feColorMatrix
         values="1 0 0 0 0 0 1 0 0 0 0 0 1 0 0 0 0 0 1 0 "
         result="result10"
         id="feColorMatrix5450-1-7-0" /><feBlend
         in="result10"
         mode="normal"
         in2="result6"
         id="feBlend5452-5-2-24" /></filter><filter
       y="-0.13272241"
       height="1.2654448"
       inkscape:menu-tooltip="Darkens the edge with an inner blur and adds a flexible glow"
       inkscape:menu="Shadows and Glows"
       inkscape:label="Dark and Glow"
       style="color-interpolation-filters:sRGB"
       id="filter5454-4-9-5"
       x="-0.13272241"
       width="1.2654448"><feGaussianBlur
         stdDeviation="0.47054122"
         result="result6"
         id="feGaussianBlur5444-0-74-6" /><feComposite
         result="result8"
         in="SourceGraphic"
         operator="atop"
         in2="result6"
         id="feComposite5446-1-1-7" /><feComposite
         result="result9"
         operator="over"
         in2="SourceAlpha"
         in="result8"
         id="feComposite5448-9-0-0" /><feColorMatrix
         values="1 0 0 0 0 0 1 0 0 0 0 0 1 0 0 0 0 0 1 0 "
         result="result10"
         id="feColorMatrix5450-1-6-2" /><feBlend
         in="result10"
         mode="normal"
         in2="result6"
         id="feBlend5452-5-20-5" /></filter><clipPath
       clipPathUnits="userSpaceOnUse"
       id="clipPath905-9-0"><path
         d="m 238.0498,493.3495 c -0.2628,-2.5925 2.6761,-5.5314 5.2686,-5.2685 2.5925,-0.2629 5.5314,2.676 5.2685,5.2685 0.2629,2.5925 -2.676,5.5314 -5.2685,5.2686 -2.5925,0.2628 -5.5314,-2.6761 -5.2686,-5.2686 z"
         stroke="#FF3F3F"
         stroke-width="0.24"
         fill-opacity="0"
         id="path907-5-5"
         style="stroke:#f28f1d;stroke-width:0.75;stroke-miterlimit:4;stroke-dasharray:none;stroke-opacity:1" /></clipPath><clipPath
       clipPathUnits="userSpaceOnUse"
       id="clipPath1315-5"><path
         d="m 286.3802,493.3495 c -0.2629,-2.5925 2.676,-5.5314 5.2685,-5.2685 2.5925,-0.2629 5.5314,2.676 5.2686,5.2685 0.2628,2.5925 -2.6761,5.5314 -5.2686,5.2686 -2.5925,0.2628 -5.5314,-2.6761 -5.2685,-5.2686 z"
         stroke="#ff3f3f"
         stroke-width="0.24"
         fill-opacity="0"
         id="path1317-0" /></clipPath><clipPath
       clipPathUnits="userSpaceOnUse"
       id="clipPath1319-2"><path
         d="m 313.004,493.3495 c 0.2628,-2.5925 -2.6761,-5.5314 -5.2686,-5.2685 -2.5925,-0.2629 -5.5314,2.676 -5.2685,5.2685 -0.2629,2.5925 2.676,5.5314 5.2685,5.2686 2.5925,0.2628 5.5314,-2.6761 5.2686,-5.2686 z"
         stroke="#ff3f3f"
         stroke-width="0.24"
         fill-opacity="0"
         id="path1321-7" /></clipPath><filter
       y="-0.13272241"
       height="1.2654448"
       inkscape:menu-tooltip="Darkens the edge with an inner blur and adds a flexible glow"
       inkscape:menu="Shadows and Glows"
       inkscape:label="Dark and Glow"
       style="color-interpolation-filters:sRGB"
       id="filter5454-4-2-3-4-0"
       x="-0.13272241"
       width="1.2654448"><feGaussianBlur
         stdDeviation="0.47054122"
         result="result6"
         id="feGaussianBlur5444-0-7-1-9-9" /><feComposite
         result="result8"
         in="SourceGraphic"
         operator="atop"
         in2="result6"
         id="feComposite5446-1-8-7-8-9" /><feComposite
         result="result9"
         operator="over"
         in2="SourceAlpha"
         in="result8"
         id="feComposite5448-9-1-7-7-8" /><feColorMatrix
         values="1 0 0 0 0 0 1 0 0 0 0 0 1 0 0 0 0 0 1 0 "
         result="result10"
         id="feColorMatrix5450-1-7-1-3-8" /><feBlend
         in="result10"
         mode="normal"
         in2="result6"
         id="feBlend5452-5-2-18-1-7" /></filter><filter
       inkscape:collect="always"
       style="color-interpolation-filters:sRGB"
       id="filter14932"
       x="-0.066771778"
       y="-0.28231618"
       width="1.1335436"
       height="1.5646323"><feGaussianBlur
         inkscape:collect="always"
         stdDeviation="0.91757556"
         id="feGaussianBlur14934" /></filter></defs><g
     inkscape:label="Capa 1"
     inkscape:groupmode="layer"
     id="layer1"><g
       id="g3367"
       transform="translate(-13.522883,-54.426414)"><path
         d="m 45.266225,60.557686 2.084358,4.268933 -4.202451,-4.268933 H 17.661453 c -0.799065,0.08093 -1.704883,-0.823972 -1.623867,-1.622147 v -0.282121 c -0.08102,-0.798218 0.824802,-1.703077 1.623867,-1.622147 h 29.722865 c 0.79902,-0.08093 1.704839,0.823929 1.623866,1.622147 v 0.282121 c 0.08097,0.798175 -0.824846,1.703077 -1.623866,1.622147 z"
         stroke="#000000"
         stroke-width="0"
         fill="#000000"
         fill-opacity="1"
         id="path14238-5"
         style="opacity:0.6;filter:url(#filter14932)" /><path
         d="m 45.266225,60.557686 2.084358,4.268933 -4.202451,-4.268933 H 17.661453 c -0.799065,0.08093 -1.704883,-0.823972 -1.623867,-1.622147 v -0.282121 c -0.08102,-0.798218 0.824802,-1.703077 1.623867,-1.622147 h 29.722865 c 0.79902,-0.08093 1.704839,0.823929 1.623866,1.622147 v 0.282121 c 0.08097,0.798175 -0.824846,1.703077 -1.623866,1.622147 z"
         stroke="#000000"
         stroke-width="0"
         fill="#000000"
         fill-opacity="1"
         id="path14238"
         style="fill:#ffffff" /><g
         aria-label="Ver en Realidad Aumentada"
         transform="scale(1.0005301,0.99947018)"
         id="text14256"
         style="font-weight:bold;font-size:2.25693px;font-family:Play;fill:#f28f1d;stroke-width:0.43675"><path
           d="m 17.807222,58.141133 h 0.356595 l 0.392706,1.171347 h 0.009 l 0.392706,-1.171347 h 0.347567 l -0.541663,1.464748 h -0.431074 z"
           id="path330" /><path
           d="m 19.998701,59.62845 q -0.580032,0 -0.580032,-0.354338 v -0.392706 q 0,-0.20538 0.130902,-0.297915 0.133159,-0.09253 0.408505,-0.09253 0.259547,0 0.379164,0.09028 0.121874,0.08802 0.121874,0.300172 v 0.266318 h -0.708676 v 0.09931 q 0,0.09479 0.06771,0.135416 0.06771,0.04062 0.243749,0.04062 0.162499,0 0.365622,-0.0474 v 0.209894 q -0.200867,0.04288 -0.428816,0.04288 z m 0.1467,-0.668051 v -0.157985 q 0,-0.05417 -0.04514,-0.08125 -0.04288,-0.02708 -0.1467,-0.02708 -0.119617,0 -0.160242,0.02708 -0.04288,0.02934 -0.04288,0.08125 v 0.157985 z"
           id="path332" /><path
           d="m 20.71189,58.513527 h 0.313714 v 0.191839 q 0,-0.05191 0.04288,-0.101562 0.04288,-0.04965 0.108333,-0.08125 0.06771,-0.0316 0.133159,-0.0316 h 0.11736 v 0.273089 h -0.112846 q -0.13993,0 -0.207638,0.04288 -0.06545,0.04288 -0.06545,0.142187 v 0.656767 H 20.71189 Z"
           id="path334" /><path
           d="m 22.675417,59.62845 q -0.580031,0 -0.580031,-0.354338 v -0.392706 q 0,-0.20538 0.130902,-0.297915 0.133159,-0.09253 0.408504,-0.09253 0.259547,0 0.379165,0.09028 0.121874,0.08802 0.121874,0.300172 v 0.266318 h -0.708676 v 0.09931 q 0,0.09479 0.06771,0.135416 0.06771,0.04062 0.243748,0.04062 0.162499,0 0.365623,-0.0474 v 0.209894 q -0.200867,0.04288 -0.428817,0.04288 z m 0.146701,-0.668051 v -0.157985 q 0,-0.05417 -0.04514,-0.08125 -0.04288,-0.02708 -0.1467,-0.02708 -0.119618,0 -0.160242,0.02708 -0.04288,0.02934 -0.04288,0.08125 v 0.157985 z"
           id="path336" /><path
           d="m 23.388607,58.513527 h 0.324998 v 0.133158 q 0.03837,-0.155728 0.349824,-0.155728 0.209895,0 0.293401,0.07674 0.08576,0.07448 0.08576,0.236978 v 0.80121 h -0.329511 v -0.758329 q 0,-0.06319 -0.01354,-0.09479 -0.01129,-0.0316 -0.04965,-0.04514 -0.03611,-0.01354 -0.112847,-0.01354 -0.09705,0 -0.142187,0.01354 -0.04514,0.01128 -0.06094,0.04288 -0.0158,0.0316 -0.0158,0.09705 v 0.758329 h -0.329512 z"
           id="path338" /><path
           d="m 25.264114,58.141133 h 0.659023 q 0.293401,0 0.424303,0.07222 0.130902,0.06997 0.130902,0.236978 v 0.25729 q 0,0.128645 -0.09253,0.203123 -0.09028,0.07222 -0.241491,0.09253 l 0.424302,0.602601 h -0.406247 l -0.383678,-0.575517 h -0.162499 v 0.575517 h -0.352081 z m 0.65451,0.656767 q 0.124131,0 0.169269,-0.0316 0.04514,-0.03385 0.04514,-0.128645 v -0.103819 q 0,-0.08125 -0.04965,-0.11059 -0.0474,-0.0316 -0.164755,-0.0316 H 25.616195 V 58.7979 Z"
           id="path340" /><path
           d="m 27.306634,59.62845 q -0.580031,0 -0.580031,-0.354338 v -0.392706 q 0,-0.20538 0.130902,-0.297915 0.133159,-0.09253 0.408504,-0.09253 0.259547,0 0.379164,0.09028 0.121874,0.08802 0.121874,0.300172 v 0.266318 h -0.708676 v 0.09931 q 0,0.09479 0.06771,0.135416 0.06771,0.04062 0.243749,0.04062 0.162499,0 0.365622,-0.0474 v 0.209894 q -0.200866,0.04288 -0.428816,0.04288 z m 0.1467,-0.668051 v -0.157985 q 0,-0.05417 -0.04514,-0.08125 -0.04288,-0.02708 -0.146701,-0.02708 -0.119617,0 -0.160242,0.02708 -0.04288,0.02934 -0.04288,0.08125 v 0.157985 z"
           id="path342" /><path
           d="m 28.329023,59.62845 q -0.153472,0 -0.230207,-0.02708 -0.07448,-0.02934 -0.106076,-0.101562 -0.02934,-0.07448 -0.02934,-0.221179 0,-0.130902 0.0316,-0.205381 0.03385,-0.07448 0.106076,-0.106075 0.07448,-0.03385 0.203123,-0.03385 h 0.370137 v -0.07448 q 0,-0.06997 -0.02031,-0.103819 -0.01806,-0.03385 -0.06996,-0.0474 -0.04965,-0.01354 -0.151215,-0.01354 -0.139929,0 -0.383678,0.02708 v -0.207637 q 0.178298,-0.02257 0.417532,-0.02257 0.209895,0 0.322741,0.0316 0.115104,0.0316 0.164756,0.108333 0.04965,0.07674 0.04965,0.223436 v 0.751558 h -0.322741 v -0.0993 q -0.03837,0.06545 -0.103819,0.09253 -0.06545,0.02934 -0.248262,0.02934 z m 0.128645,-0.205381 q 0.0993,0 0.142186,-0.0068 0.0316,-0.0045 0.04288,-0.01354 0.01354,-0.009 0.02257,-0.02934 0.009,-0.0158 0.009,-0.0474 V 59.11387 H 28.44864 q -0.07674,0 -0.108333,0.01129 -0.0316,0.009 -0.04288,0.04062 -0.01128,0.02934 -0.01128,0.106076 0,0.07448 0.01128,0.103819 0.01129,0.02934 0.04288,0.03837 0.03385,0.009 0.117361,0.009 z"
           id="path344" /><path
           d="m 29.301758,58.02603 h 0.329512 v 1.579851 h -0.329512 z"
           id="path346" /><path
           d="m 29.938212,58.118564 h 0.329511 v 0.266318 h -0.329511 z m 0,0.394963 h 0.329511 v 1.092354 h -0.329511 z"
           id="path348" /><path
           d="m 30.985427,59.62845 q -0.194096,0 -0.286631,-0.02708 -0.09253,-0.02934 -0.128645,-0.108333 -0.03611,-0.07899 -0.03611,-0.246005 v -0.42656 q 0,-0.180554 0.101561,-0.255033 0.103819,-0.07448 0.334026,-0.07448 0.108333,0 0.16927,0.01354 0.06319,0.01128 0.101562,0.04288 0.03837,0.02934 0.07899,0.08802 V 58.02603 h 0.329512 v 1.579851 H 31.330737 V 59.48175 q -0.04062,0.06545 -0.07448,0.09253 -0.0316,0.02483 -0.09028,0.03837 -0.06094,0.0158 -0.180554,0.0158 z m 0.08351,-0.205381 q 0.11059,0 0.162499,-0.01128 0.05191,-0.01129 0.06996,-0.04062 0.01805,-0.0316 0.01805,-0.09253 v -0.440102 q 0,-0.05642 -0.02031,-0.08576 -0.01806,-0.0316 -0.06771,-0.04514 -0.0474,-0.01354 -0.144444,-0.01354 -0.103818,0 -0.148957,0.01354 -0.04514,0.01128 -0.06094,0.04288 -0.01354,0.02934 -0.01354,0.09931 v 0.417532 q 0,0.06319 0.01354,0.09705 0.0158,0.0316 0.05868,0.04514 0.04288,0.01354 0.133159,0.01354 z"
           id="path350" /><path
           d="m 32.247049,59.62845 q -0.153471,0 -0.230206,-0.02708 -0.07448,-0.02934 -0.106076,-0.101562 -0.02934,-0.07448 -0.02934,-0.221179 0,-0.130902 0.0316,-0.205381 0.03385,-0.07448 0.106075,-0.106075 0.07448,-0.03385 0.203124,-0.03385 h 0.370137 v -0.07448 q 0,-0.06997 -0.02031,-0.103819 -0.01805,-0.03385 -0.06996,-0.0474 -0.04965,-0.01354 -0.151215,-0.01354 -0.139929,0 -0.383678,0.02708 v -0.207637 q 0.178298,-0.02257 0.417532,-0.02257 0.209895,0 0.322741,0.0316 0.115104,0.0316 0.164756,0.108333 0.04965,0.07674 0.04965,0.223436 v 0.751558 h -0.322741 v -0.0993 q -0.03837,0.06545 -0.103819,0.09253 -0.06545,0.02934 -0.248263,0.02934 z m 0.128645,-0.205381 q 0.0993,0 0.142187,-0.0068 0.0316,-0.0045 0.04288,-0.01354 0.01354,-0.009 0.02257,-0.02934 0.009,-0.0158 0.009,-0.0474 V 59.11387 h -0.225693 q -0.07674,0 -0.108333,0.01129 -0.0316,0.009 -0.04288,0.04062 -0.01128,0.02934 -0.01128,0.106076 0,0.07448 0.01128,0.103819 0.01129,0.02934 0.04288,0.03837 0.03385,0.009 0.11736,0.009 z"
           id="path352" /><path
           d="m 33.630546,59.62845 q -0.194096,0 -0.28663,-0.02708 -0.09253,-0.02934 -0.128645,-0.108333 -0.03611,-0.07899 -0.03611,-0.246005 v -0.42656 q 0,-0.180554 0.101562,-0.255033 0.103819,-0.07448 0.334026,-0.07448 0.108332,0 0.16927,0.01354 0.06319,0.01128 0.101561,0.04288 0.03837,0.02934 0.07899,0.08802 V 58.02603 h 0.329512 v 1.579851 H 33.975857 V 59.48175 q -0.04062,0.06545 -0.07448,0.09253 -0.0316,0.02483 -0.09028,0.03837 -0.06094,0.0158 -0.180555,0.0158 z m 0.08351,-0.205381 q 0.110589,0 0.162499,-0.01128 0.05191,-0.01129 0.06996,-0.04062 0.01806,-0.0316 0.01806,-0.09253 v -0.440102 q 0,-0.05642 -0.02031,-0.08576 -0.01806,-0.0316 -0.06771,-0.04514 -0.0474,-0.01354 -0.144444,-0.01354 -0.103819,0 -0.148957,0.01354 -0.04514,0.01128 -0.06094,0.04288 -0.01354,0.02934 -0.01354,0.09931 v 0.417532 q 0,0.06319 0.01354,0.09705 0.0158,0.0316 0.05868,0.04514 0.04288,0.01354 0.133159,0.01354 z"
           id="path354" /><path
           d="m 35.503796,58.141133 h 0.428817 l 0.528121,1.464748 H 36.104139 L 35.973237,59.219946 H 35.438345 L 35.3097,59.605881 h -0.347567 z m 0.392706,0.844092 -0.185069,-0.550691 h -0.009 l -0.185069,0.550691 z"
           id="path356" /><path
           d="m 36.988854,59.62845 q -0.209895,0 -0.295658,-0.07448 -0.08351,-0.07673 -0.08351,-0.239234 v -0.80121 h 0.329512 v 0.756071 q 0,0.06319 0.01128,0.09479 0.01354,0.0316 0.04965,0.04514 0.03837,0.01354 0.115103,0.01354 0.09705,0 0.142187,-0.01128 0.04514,-0.01354 0.06094,-0.04514 0.0158,-0.0316 0.0158,-0.09705 v -0.756071 h 0.329512 v 1.092354 h -0.324998 v -0.133159 q -0.03611,0.155728 -0.349824,0.155728 z"
           id="path358" /><path
           d="m 37.952562,58.513527 h 0.329512 v 0.133158 q 0.0316,-0.155728 0.322741,-0.155728 0.153471,0 0.232464,0.04062 0.07899,0.03837 0.106076,0.121874 0.02708,-0.08576 0.103818,-0.124131 0.07899,-0.03837 0.236978,-0.03837 0.142187,0 0.218922,0.03385 0.07674,0.0316 0.106076,0.09931 0.0316,0.06771 0.0316,0.180555 v 0.80121 h -0.329512 v -0.756072 q 0,-0.07222 -0.009,-0.101562 -0.009,-0.0316 -0.04063,-0.04288 -0.02934,-0.01129 -0.103819,-0.01129 -0.09253,0 -0.133159,0.01129 -0.03837,0.01128 -0.05191,0.04288 -0.01129,0.02934 -0.01129,0.101562 v 0.756072 h -0.329512 v -0.756072 q 0,-0.07222 -0.009,-0.101562 -0.009,-0.0316 -0.04063,-0.04288 -0.02934,-0.01129 -0.103819,-0.01129 -0.09253,0 -0.133159,0.01129 -0.03837,0.01128 -0.05191,0.04288 -0.01129,0.02934 -0.01129,0.101562 v 0.756072 h -0.329512 z"
           id="path360" /><path
           d="m 40.478066,59.62845 q -0.580031,0 -0.580031,-0.354338 v -0.392706 q 0,-0.20538 0.130902,-0.297915 0.133159,-0.09253 0.408504,-0.09253 0.259547,0 0.379165,0.09028 0.121874,0.08802 0.121874,0.300172 v 0.266318 h -0.708676 v 0.09931 q 0,0.09479 0.06771,0.135416 0.06771,0.04062 0.243748,0.04062 0.162499,0 0.365623,-0.0474 v 0.209894 q -0.200867,0.04288 -0.428817,0.04288 z m 0.146701,-0.668051 v -0.157985 q 0,-0.05417 -0.04514,-0.08125 -0.04288,-0.02708 -0.1467,-0.02708 -0.119618,0 -0.160242,0.02708 -0.04288,0.02934 -0.04288,0.08125 v 0.157985 z"
           id="path362" /><path
           d="m 41.191256,58.513527 h 0.324998 v 0.133158 q 0.03837,-0.155728 0.349824,-0.155728 0.209894,0 0.293401,0.07674 0.08576,0.07448 0.08576,0.236978 v 0.80121 H 41.91573 v -0.758329 q 0,-0.06319 -0.01354,-0.09479 -0.01129,-0.0316 -0.04965,-0.04514 -0.03611,-0.01354 -0.112846,-0.01354 -0.09705,0 -0.142187,0.01354 -0.04514,0.01128 -0.06094,0.04288 -0.0158,0.0316 -0.0158,0.09705 v 0.758329 h -0.329511 z"
           id="path364" /><path
           d="m 43.080305,59.62845 q -0.08351,0 -0.139929,-0.0068 -0.05642,-0.0068 -0.112847,-0.02708 -0.06319,-0.02031 -0.103819,-0.05642 -0.03837,-0.03611 -0.06319,-0.09931 -0.02708,-0.06545 -0.02708,-0.151214 V 58.71665 h -0.221179 v -0.203123 h 0.221179 v -0.315971 h 0.329512 v 0.315971 h 0.300172 v 0.203123 h -0.300172 v 0.51458 q 0,0.07899 0.01354,0.119618 0.01354,0.03837 0.05191,0.05642 0.03837,0.0158 0.11736,0.0158 0.0316,0 0.117361,-0.01128 v 0.20538 q -0.106076,0.01129 -0.182812,0.01129 z"
           id="path366" /><path
           d="m 43.761897,59.62845 q -0.153471,0 -0.230207,-0.02708 -0.07448,-0.02934 -0.106075,-0.101562 -0.02934,-0.07448 -0.02934,-0.221179 0,-0.130902 0.0316,-0.205381 0.03385,-0.07448 0.106075,-0.106075 0.07448,-0.03385 0.203124,-0.03385 h 0.370137 v -0.07448 q 0,-0.06997 -0.02031,-0.103819 -0.01805,-0.03385 -0.06996,-0.0474 -0.04965,-0.01354 -0.151214,-0.01354 -0.13993,0 -0.383678,0.02708 v -0.207637 q 0.178297,-0.02257 0.417532,-0.02257 0.209894,0 0.322741,0.0316 0.115103,0.0316 0.164756,0.108333 0.04965,0.07674 0.04965,0.223436 v 0.751558 h -0.322741 v -0.0993 q -0.03837,0.06545 -0.103818,0.09253 -0.06545,0.02934 -0.248263,0.02934 z m 0.128645,-0.205381 q 0.0993,0 0.142187,-0.0068 0.0316,-0.0045 0.04288,-0.01354 0.01354,-0.009 0.02257,-0.02934 0.009,-0.0158 0.009,-0.0474 V 59.11387 h -0.225694 q -0.07673,0 -0.108332,0.01129 -0.0316,0.009 -0.04288,0.04062 -0.01128,0.02934 -0.01128,0.106076 0,0.07448 0.01128,0.103819 0.01129,0.02934 0.04288,0.03837 0.03385,0.009 0.11736,0.009 z"
           id="path368" /><path
           d="m 45.145394,59.62845 q -0.194096,0 -0.28663,-0.02708 -0.09253,-0.02934 -0.128645,-0.108333 -0.03611,-0.07899 -0.03611,-0.246005 v -0.42656 q 0,-0.180554 0.101562,-0.255033 0.103819,-0.07448 0.334026,-0.07448 0.108332,0 0.169269,0.01354 0.06319,0.01128 0.101562,0.04288 0.03837,0.02934 0.07899,0.08802 V 58.02603 h 0.329511 v 1.579851 H 45.490704 V 59.48175 q -0.04062,0.06545 -0.07448,0.09253 -0.0316,0.02483 -0.09028,0.03837 -0.06094,0.0158 -0.180554,0.0158 z m 0.08351,-0.205381 q 0.11059,0 0.162499,-0.01128 0.05191,-0.01129 0.06997,-0.04062 0.01806,-0.0316 0.01806,-0.09253 v -0.440102 q 0,-0.05642 -0.02031,-0.08576 -0.01806,-0.0316 -0.06771,-0.04514 -0.0474,-0.01354 -0.144443,-0.01354 -0.103819,0 -0.148958,0.01354 -0.04514,0.01128 -0.06094,0.04288 -0.01354,0.02934 -0.01354,0.09931 v 0.417532 q 0,0.06319 0.01354,0.09705 0.0158,0.0316 0.05868,0.04514 0.04288,0.01354 0.133158,0.01354 z"
           id="path370" /><path
           d="m 46.407016,59.62845 q -0.153471,0 -0.230207,-0.02708 -0.07448,-0.02934 -0.106076,-0.101562 -0.02934,-0.07448 -0.02934,-0.221179 0,-0.130902 0.0316,-0.205381 0.03385,-0.07448 0.106076,-0.106075 0.07448,-0.03385 0.203124,-0.03385 h 0.370136 v -0.07448 q 0,-0.06997 -0.02031,-0.103819 -0.01806,-0.03385 -0.06996,-0.0474 -0.04965,-0.01354 -0.151214,-0.01354 -0.13993,0 -0.383678,0.02708 v -0.207637 q 0.178297,-0.02257 0.417532,-0.02257 0.209894,0 0.322741,0.0316 0.115103,0.0316 0.164756,0.108333 0.04965,0.07674 0.04965,0.223436 v 0.751558 h -0.322741 v -0.0993 q -0.03837,0.06545 -0.103819,0.09253 -0.06545,0.02934 -0.248262,0.02934 z m 0.128645,-0.205381 q 0.09931,0 0.142187,-0.0068 0.0316,-0.0045 0.04288,-0.01354 0.01354,-0.009 0.02257,-0.02934 0.009,-0.0158 0.009,-0.0474 V 59.11387 h -0.225693 q -0.07673,0 -0.108332,0.01129 -0.0316,0.009 -0.04288,0.04062 -0.01129,0.02934 -0.01129,0.106076 0,0.07448 0.01129,0.103819 0.01129,0.02934 0.04288,0.03837 0.03385,0.009 0.11736,0.009 z"
           id="path372" /></g></g></g></svg>
