<?xml version="1.0" encoding="UTF-8" standalone="no"?>
<svg
   height="48"
   width="48"
   version="1.1"
   id="svg4"
   sodipodi:docname="hand_tool.svg"
   inkscape:version="1.2.1 (9c6d41e410, 2022-07-14)"
   xmlns:inkscape="http://www.inkscape.org/namespaces/inkscape"
   xmlns:sodipodi="http://sodipodi.sourceforge.net/DTD/sodipodi-0.dtd"
   xmlns="http://www.w3.org/2000/svg"
   xmlns:svg="http://www.w3.org/2000/svg">
  <defs
     id="defs8" />
  <sodipodi:namedview
     id="namedview6"
     pagecolor="#ffffff"
     bordercolor="#000000"
     borderopacity="0.25"
     inkscape:showpageshadow="2"
     inkscape:pageopacity="0.0"
     inkscape:pagecheckerboard="0"
     inkscape:deskcolor="#d1d1d1"
     showgrid="false"
     inkscape:zoom="8.71875"
     inkscape:cx="-11.010753"
     inkscape:cy="38.996416"
     inkscape:window-width="1920"
     inkscape:window-height="1017"
     inkscape:window-x="-8"
     inkscape:window-y="-8"
     inkscape:window-maximized="1"
     inkscape:current-layer="svg4" />
  <g
     id="g1635"
     transform="matrix(1.2941235,0,0,1.2941235,55.720299,6.5852919)">
    <rect
       style="fill:#ffffff;fill-opacity:1;stroke-width:5.06976"
       id="rect434"
       width="25.709288"
       height="4.4606023"
       x="-36.982445"
       y="17.680204" />
    <rect
       style="fill:#ffffff;fill-opacity:1;stroke-width:3.00393"
       id="rect436"
       width="22.708517"
       height="3.1629725"
       x="-34.143879"
       y="21.816399" />
    <rect
       style="fill:#ffffff;fill-opacity:0.996078;stroke-width:3.96386"
       id="rect446"
       width="19.545547"
       height="4.1034451"
       x="-31.143112"
       y="24.736065" />
    <rect
       style="fill:#fffefe;fill-opacity:1;stroke-width:3.77953"
       id="rect448"
       width="4.9472132"
       height="21.491991"
       x="-27.574631"
       y="-1.5409352" />
    <rect
       style="fill:#ffffff;fill-opacity:0.996078;stroke-width:3.77953"
       id="rect450"
       width="8.191287"
       height="7.4613705"
       x="-24.736065"
       y="11.110954" />
    <rect
       style="fill:#ffffff;fill-opacity:0.996078;stroke-width:3.53366"
       id="rect452"
       width="10.137732"
       height="5.6771297"
       x="-21.329788"
       y="13.462908" />
  </g>
  <path
     d="m 20.456847,47.294223 q -1.100005,0 -2.070598,-0.42059 -0.970592,-0.42059 -1.68236,-1.132358 L 3.3744166,32.411803 6.9979624,28.658845 q 0.9058865,-0.905887 2.0382445,-1.391183 1.1323581,-0.485297 2.3617751,-0.161766 l 5.047082,1.164712 V 7.1763946 q 0,-2.7176594 1.876479,-4.5941384 1.876479,-1.87647911 4.594138,-1.87647911 2.71766,0 4.594139,1.87647911 1.876479,1.876479 1.876479,4.5941384 V 18.305857 h 1.682361 q 0.32353,0 0.582355,0.129412 0.258825,0.129412 0.582356,0.258825 l 9.576514,4.658844 q 1.552948,0.711768 2.297069,2.297069 0.744121,1.585302 0.42059,3.267662 l -2.329422,14.105946 q -0.323531,1.876479 -1.811773,3.073544 -1.488242,1.197064 -3.364721,1.197064 z m -0.51765,-3.882371 h 18.182436 l 2.782365,-16.111837 -11.84123,-5.888262 h -3.55884 V 7.1763946 q 0,-1.1647112 -0.711767,-1.8764791 -0.711768,-0.7117679 -1.87648,-0.7117679 -1.164711,0 -1.876479,0.7117679 -0.711768,0.7117679 -0.711768,1.8764791 V 32.994158 l -9.96475,-2.135303 -1.4882425,1.488242 z m 0,0 h 18.182436 z"
     id="path2"
     style="stroke-width:1.29412;stroke:none;stroke-opacity:1;fill:#f28f1d;fill-opacity:0.99607843" />
</svg>
