<?xml version="1.0" encoding="UTF-8" standalone="no"?>
<!-- Created with Inkscape (http://www.inkscape.org/) -->

<svg
   width="177.27086mm"
   height="92.604164mm"
   viewBox="0 0 177.27086 92.604164"
   version="1.1"
   id="svg5"
   inkscape:version="1.4.2 (f4327f4, 2025-05-13)"
   sodipodi:docname="Logo_MM_Color.svg"
   xml:space="preserve"
   inkscape:export-filename="Página 4.jpg"
   inkscape:export-xdpi="96"
   inkscape:export-ydpi="96"
   xmlns:inkscape="http://www.inkscape.org/namespaces/inkscape"
   xmlns:sodipodi="http://sodipodi.sourceforge.net/DTD/sodipodi-0.dtd"
   xmlns="http://www.w3.org/2000/svg"
   xmlns:svg="http://www.w3.org/2000/svg"><sodipodi:namedview
     id="namedview7"
     pagecolor="#ffffff"
     bordercolor="#000000"
     borderopacity="0.25"
     inkscape:showpageshadow="2"
     inkscape:pageopacity="0.0"
     inkscape:pagecheckerboard="0"
     inkscape:deskcolor="#d1d1d1"
     inkscape:document-units="mm"
     showgrid="false"
     inkscape:zoom="2.3630598"
     inkscape:cx="340.02525"
     inkscape:cy="160.17369"
     inkscape:window-width="2560"
     inkscape:window-height="1494"
     inkscape:window-x="2869"
     inkscape:window-y="-11"
     inkscape:window-maximized="1"
     inkscape:current-layer="layer1"
     showguides="true"><inkscape:page
       x="-1.5692807e-13"
       y="0"
       width="177.27084"
       height="92.604164"
       id="page2"
       inkscape:export-filename="Página 4.jpg"
       inkscape:export-xdpi="96"
       inkscape:export-ydpi="96"
       margin="0"
       bleed="0" /></sodipodi:namedview><defs
     id="defs2"><clipPath
       clipPathUnits="userSpaceOnUse"
       id="clipPath12137"><rect
         style="fill:#000000;stroke-width:0.264583"
         id="rect12139"
         width="170.80872"
         height="110.80566"
         x="786.84015"
         y="169.60866" /></clipPath></defs><g
     inkscape:label="Capa 1"
     inkscape:groupmode="layer"
     id="layer1"
     transform="translate(-676.98795)"><rect
       style="fill:#ffffff;stroke-width:0.4"
       id="rect2"
       width="177.27084"
       height="92.604164"
       x="676.98792"
       y="0" /><text
       xml:space="preserve"
       style="font-style:normal;font-variant:normal;font-weight:normal;font-stretch:normal;font-size:6.35px;font-family:Prompt;-inkscape-font-specification:Prompt;letter-spacing:8.66775006px;fill:#0088aa;fill-opacity:1;stroke-width:0.52952"
       x="617.47089"
       y="99.704178"
       id="text6122-9-6-4-7"
       transform="scale(1.1014796,0.90786973)"
       inkscape:export-filename="text6122-9-6.png"
       inkscape:export-xdpi="96"
       inkscape:export-ydpi="96"><tspan
         sodipodi:role="line"
         id="tspan6120-2-9-8-6"
         style="font-style:normal;font-variant:normal;font-weight:normal;font-stretch:normal;font-size:6.35px;font-family:Prompt;-inkscape-font-specification:Prompt;fill:#0088aa;fill-opacity:1;stroke-width:0.52952;letter-spacing:8.66775006px"
         x="617.47089"
         y="99.704178">FORM &amp; FUTURE</tspan></text><path
       d="m 751.14284,58.693464 c 0,-13.433396 0,-26.866745 0,-40.300103 6.47766,13.433358 12.95534,26.866707 19.43301,40.300103 1.34952,0 2.69903,0 4.04854,0 6.47768,-13.433396 12.95535,-26.866745 19.43301,-40.300103 0,13.433358 0,26.866707 0,40.300103 2.69903,0 5.39806,0 8.09711,0 0,-18.89321 0,-37.786429 0,-56.6796195 -2.69905,0 -5.39808,0 -8.09711,0 C 786.90497,17.081476 779.75254,32.149098 772.60012,47.216749 765.4477,32.149098 758.29525,17.081476 751.14284,2.0138445 c -2.69903,0 -5.39805,0 -8.09708,0 0,18.8931905 0,37.7864095 0,56.6796195 2.69903,0 5.39805,0 8.09708,0 z"
       stroke="#000000"
       stroke-width="0"
       fill="#000000"
       fill-opacity="1"
       id="path1420-2-8-1"
       style="fill:#0088aa;fill-opacity:1" /><path
       d="m 780.29235,58.693464 c 2.69904,0 5.39807,0 8.09709,0 0,-18.89321 0,-37.786429 0,-56.6796195 -2.69902,0 -5.39805,0 -8.09709,0 C 773.13992,17.081476 765.9875,32.149098 758.83508,47.216749 751.68265,32.149098 744.53023,17.081476 737.37779,2.0138445 c -2.69903,0 -5.39807,0 -8.09709,0 0,18.8931905 0,37.7864095 0,56.6796195 2.69902,0 5.39806,0 8.09709,0 0,-13.433396 0,-26.866745 0,-40.300103 6.47768,13.433358 12.95535,26.866707 19.43301,40.300103 1.34952,0 2.69902,0 4.04854,0 6.47768,-13.433396 12.95534,-26.866745 19.43301,-40.300103 0,13.433358 0,26.866707 0,40.300103 z"
       stroke="#000000"
       stroke-width="0"
       fill="#000000"
       fill-opacity="1"
       id="path1422-4-2-8"
       style="fill:#0088aa;fill-opacity:1" /><path
       d="m 767.10187,66.790539 c 0,5.398063 0,10.796116 0,16.194169 0.75681,0 1.51361,0 2.27043,0 0,-3.838092 0,-7.676193 0,-11.514303 1.76074,3.83811 3.52147,7.676211 5.28221,11.514303 0.38613,0 0.77226,0 1.15839,0 1.75301,-3.838092 3.50603,-7.676193 5.25904,-11.514303 0,3.83811 0,7.676211 0,11.514303 0.76454,0 1.52906,0 2.2936,0 0,-5.398053 0,-10.796106 0,-16.194169 -0.7877,0 -1.5754,0 -2.36311,0 -1.92291,4.208797 -3.84581,8.417574 -5.76872,12.626371 -1.92292,-4.208797 -3.84582,-8.417574 -5.76876,-12.626371 -0.78769,0 -1.57538,0 -2.36308,0 z"
       stroke="#000000"
       stroke-width="0"
       fill="#000000"
       fill-opacity="1"
       id="path1424-1-4-9"
       style="fill:#0088aa;fill-opacity:1" /><path
       d="m 794.43967,83.332237 c 1.60629,0 3.05814,-0.351384 4.35551,-1.054143 1.29739,-0.70274 2.31678,-1.695084 3.05813,-2.977034 0.74136,-1.28194 1.11207,-2.749208 1.11207,-4.401854 0,-1.652626 -0.37071,-3.119894 -1.11207,-4.401854 -0.74135,-1.281949 -1.76074,-2.278158 -3.05813,-2.988626 -1.29737,-0.710478 -2.74922,-1.065688 -4.35551,-1.065688 -1.60628,0 -3.05812,0.35521 -4.35552,1.065688 -1.29739,0.710468 -2.31676,1.706677 -3.05813,2.988626 -0.74137,1.28196 -1.11204,2.749228 -1.11204,4.401854 0,1.652646 0.37067,3.119914 1.11204,4.401854 0.74137,1.28195 1.76074,2.274294 3.05813,2.977034 1.2974,0.702759 2.74924,1.054143 4.35552,1.054143 z m 0,-2.131443 c -1.14295,0 -2.18162,-0.258691 -3.11605,-0.776092 -0.93444,-0.517392 -1.67193,-1.251065 -2.2125,-2.200932 -0.54058,-0.949886 -0.81087,-2.058061 -0.81087,-3.324564 0,-1.251055 0.27414,-2.355385 0.82244,-3.31298 0.5483,-0.957577 1.28968,-1.69123 2.22409,-2.200913 0.93444,-0.509663 1.98084,-0.764519 3.13921,-0.764519 1.14295,0 2.17777,0.258682 3.10449,0.776121 0.92669,0.517402 1.65648,1.251036 2.18931,2.200903 0.53286,0.949867 0.79931,2.050333 0.79931,3.301388 0,1.266503 -0.2703,2.374678 -0.81087,3.324564 -0.54058,0.949867 -1.27808,1.68354 -2.21252,2.200932 -0.93442,0.517401 -1.9731,0.776092 -3.11604,0.776092 z"
       stroke="#000000"
       stroke-width="0"
       fill="#000000"
       fill-opacity="1"
       id="path1426-43-5-2"
       style="fill:#0088aa;fill-opacity:1" /><path
       d="m 807.04288,83.332237 c 1.29737,0 2.32446,-0.37455 3.08128,-1.123641 0.75681,-0.749072 1.13521,-1.787778 1.13521,-3.11604 0,-4.100657 0,-8.201351 0,-12.302017 -0.78769,0 -1.5754,0 -2.36309,0 0,4.046605 0,8.093239 0,12.139835 0,1.544505 -0.79543,2.316752 -2.38628,2.316752 -0.32436,0 -0.66798,-0.03087 -1.03095,-0.09263 -0.36295,-0.06175 -0.66028,-0.139015 -0.89195,-0.23167 0,0.671855 0,1.34371 0,2.015574 0.24712,0.108112 0.61008,0.200786 1.08885,0.278022 0.47882,0.07719 0.93445,0.11584 1.36693,0.11584 z"
       stroke="#000000"
       stroke-width="0"
       fill="#000000"
       fill-opacity="1"
       id="path1428-1-5-7"
       style="fill:#0088aa;fill-opacity:1" /><path
       d="m 814.15534,66.790539 c 0,5.398063 0,10.796116 0,16.194169 0.79541,0 1.5908,0 2.38624,0 0,-5.398053 0,-10.796106 0,-16.194169 -0.79544,0 -1.59083,0 -2.38624,0 z"
       stroke="#000000"
       stroke-width="0"
       fill="#000000"
       fill-opacity="1"
       id="path1430-1-1-9"
       style="fill:#0088aa;fill-opacity:1" /><path
       d="m 827.66206,83.332237 c 2.4712,0 4.40185,-0.5792 5.79191,-1.737581 0,-0.764529 0,-1.529067 0,-2.293596 -0.77226,0.664136 -1.61015,1.146798 -2.51371,1.447986 -0.90351,0.301188 -1.92678,0.451748 -3.0697,0.451748 -1.23559,0 -2.33605,-0.254836 -3.3014,-0.764538 -0.96531,-0.509683 -1.72212,-1.243298 -2.27041,-2.200893 -0.54829,-0.957606 -0.82247,-2.069654 -0.82247,-3.336157 0,-1.266502 0.2703,-2.374658 0.81088,-3.324544 0.54058,-0.949877 1.29354,-1.679666 2.25886,-2.189349 0.96529,-0.509663 2.07348,-0.764519 3.32454,-0.764519 2.23954,0 4.03117,0.594609 5.3749,1.783885 0,-0.756801 0,-1.513592 0,-2.270421 -1.49819,-1.127496 -3.35931,-1.69122 -5.5834,-1.69122 -1.66809,0 -3.15078,0.347501 -4.44819,1.042541 -1.2974,0.695021 -2.30904,1.683501 -3.03497,2.965441 -0.72591,1.28195 -1.08886,2.764685 -1.08886,4.448186 0,1.683502 0.36295,3.162401 1.08886,4.436613 0.72593,1.274211 1.73757,2.258837 3.03497,2.953887 1.29741,0.695002 2.7801,1.042531 4.44819,1.042531 z"
       stroke="#000000"
       stroke-width="0"
       fill="#000000"
       fill-opacity="1"
       id="path1432-6-7-5"
       style="fill:#0088aa;fill-opacity:1" /><path
       d="m 842.00282,66.790539 c -2.15459,5.398063 -4.3092,10.796116 -6.46377,16.194169 0.81088,0 1.62173,0 2.4326,0 0.52512,-1.34372 1.05027,-2.68741 1.57541,-4.031158 2.38627,0 4.77252,0 7.15879,0 0.54057,1.343748 1.08115,2.687438 1.62174,4.031158 0.80315,0 1.60629,0 2.40941,0 -2.15457,-5.398053 -4.30915,-10.796106 -6.46376,-16.194169 -0.75681,0 -1.51359,0 -2.27042,0 z m 4.05435,10.193769 c -1.94608,0 -3.89216,0 -5.83827,0 0.97305,-2.525286 1.94611,-5.050524 2.91913,-7.575829 0.97306,2.525305 1.94608,5.050543 2.91914,7.575829 z"
       stroke="#000000"
       stroke-width="0"
       fill="#000000"
       fill-opacity="1"
       id="path1434-1-1-4"
       style="fill:#0088aa;fill-opacity:1" /><path
       d="m 680.69817,66.790539 c 0,5.398063 0,10.796116 0,16.194169 0.75681,0 1.51362,0 2.27043,0 0,-3.838092 0,-7.676193 0,-11.514303 1.76074,3.83811 3.52148,7.676211 5.28223,11.514303 0.38612,0 0.77225,0 1.15838,0 1.75302,-3.838092 3.50603,-7.676193 5.25905,-11.514303 0,3.83811 0,7.676211 0,11.514303 0.76453,0 1.52907,0 2.2936,0 0,-5.398053 0,-10.796106 0,-16.194169 -0.78771,0 -1.5754,0 -2.36311,0 -1.9229,4.208797 -3.84581,8.417574 -5.76873,12.626371 -1.92292,-4.208797 -3.84583,-8.417574 -5.76875,-12.626371 -0.78771,0 -1.5754,0 -2.3631,0 z"
       stroke="#000000"
       stroke-width="0"
       fill="#000000"
       fill-opacity="1"
       id="path1436-0-1-3"
       style="fill:#0088aa;fill-opacity:1" /><path
       d="m 705.97406,66.790539 c -2.15459,5.398063 -4.30918,10.796116 -6.46377,16.194169 0.81087,0 1.62173,0 2.4326,0 0.52513,-1.34372 1.05026,-2.68741 1.5754,-4.031158 2.38627,0 4.77253,0 7.1588,0 0.54058,1.343748 1.08116,2.687438 1.62173,4.031158 0.80316,0 1.6063,0 2.40944,0 -2.15459,-5.398053 -4.30918,-10.796106 -6.46377,-16.194169 -0.75681,0 -1.51362,0 -2.27043,0 z m 4.05433,10.193769 c -1.94607,0 -3.89216,0 -5.83823,0 0.97303,-2.525286 1.94607,-5.050524 2.91912,-7.575829 0.97304,2.525305 1.94608,5.050543 2.91911,7.575829 z"
       stroke="#000000"
       stroke-width="0"
       fill="#000000"
       fill-opacity="1"
       id="path1438-7-5-12"
       style="fill:#0088aa;fill-opacity:1" /><path
       d="m 723.76681,66.790539 c -2.17005,0 -4.34007,0 -6.51011,0 0,5.398063 0,10.796116 0,16.194169 0.7877,0 1.5754,0 2.3631,0 0,-2.131415 0,-4.262819 0,-6.394243 1.18154,0 2.3631,0 3.54464,0 1.15068,2.131424 2.30132,4.262828 3.45199,6.394243 0.81858,0 1.63717,0 2.45577,0 -1.18928,-2.193204 -2.37856,-4.386388 -3.56782,-6.579601 1.15839,-0.293459 2.0542,-0.853348 2.68745,-1.679666 0.63325,-0.826298 0.94986,-1.834071 0.94986,-3.023366 0,-1.606303 -0.46334,-2.826425 -1.39005,-3.660472 -0.9267,-0.834036 -2.25498,-1.251064 -3.98483,-1.251064 z m -0.39386,7.807499 c -1.25104,0 -2.50211,0 -3.75315,0 0,-1.938358 0,-3.876724 0,-5.815062 1.25104,0 2.50211,0 3.75315,0 1.06571,0 1.8959,0.223932 2.49053,0.671845 0.59463,0.447903 0.89195,1.196994 0.89195,2.247254 0,0.957605 -0.30504,1.679666 -0.91512,2.166183 -0.61008,0.486507 -1.43253,0.72978 -2.46736,0.72978 z"
       stroke="#000000"
       stroke-width="0"
       fill="#000000"
       fill-opacity="1"
       id="path1440-03-2-3"
       style="fill:#0088aa;fill-opacity:1" /><path
       d="m 731.69013,66.790539 c 0,5.398063 0,10.796116 0,16.194169 0.79542,0 1.59085,0 2.38627,0 0,-5.398053 0,-10.796106 0,-16.194169 -0.79542,0 -1.59085,0 -2.38627,0 z"
       stroke="#000000"
       stroke-width="0"
       fill="#000000"
       fill-opacity="1"
       id="path1442-4-7-3"
       style="fill:#0088aa;fill-opacity:1" /><path
       d="m 745.15053,83.332237 c 1.6063,0 3.05813,-0.351384 4.35551,-1.054143 1.29739,-0.70274 2.31678,-1.695084 3.05814,-2.977034 0.74136,-1.28194 1.11204,-2.749208 1.11204,-4.401854 0,-1.652626 -0.37068,-3.119894 -1.11204,-4.401854 -0.74136,-1.281949 -1.76075,-2.278158 -3.05814,-2.988626 -1.29738,-0.710478 -2.74921,-1.065688 -4.35551,-1.065688 -1.60629,0 -3.05813,0.35521 -4.35551,1.065688 -1.2974,0.710468 -2.31677,1.706677 -3.05813,2.988626 -0.74137,1.28196 -1.11204,2.749228 -1.11204,4.401854 0,1.652646 0.37067,3.119914 1.11204,4.401854 0.74136,1.28195 1.76073,2.274294 3.05813,2.977034 1.29738,0.702759 2.74922,1.054143 4.35551,1.054143 z m 0,-2.131443 c -1.14293,0 -2.18161,-0.258691 -3.11605,-0.776092 -0.93442,-0.517392 -1.67193,-1.251065 -2.2125,-2.200932 -0.54058,-0.949886 -0.81087,-2.058061 -0.81087,-3.324564 0,-1.251055 0.27415,-2.355385 0.82246,-3.31298 0.54829,-0.957577 1.28965,-1.69123 2.22408,-2.200913 0.93444,-0.509663 1.98083,-0.764519 3.13921,-0.764519 1.14296,0 2.17777,0.258682 3.10446,0.776121 0.92672,0.517402 1.65648,1.251036 2.18935,2.200903 0.53286,0.949867 0.79929,2.050333 0.79929,3.301388 0,1.266503 -0.27029,2.374678 -0.81086,3.324564 -0.54059,0.949867 -1.27809,1.68354 -2.21254,2.200932 -0.93441,0.517401 -1.97309,0.776092 -3.11603,0.776092 z"
       stroke="#000000"
       stroke-width="0"
       fill="#000000"
       fill-opacity="1"
       id="path1444-5-6-4"
       style="fill:#0088aa;fill-opacity:1" /></g></svg>
