<?xml version="1.0" encoding="UTF-8" standalone="no"?>
<!-- Created with Inkscape (http://www.inkscape.org/) -->

<svg
   width="48.923mm"
   height="38.050999mm"
   viewBox="0 0 48.922999 38.050998"
   version="1.1"
   id="svg5"
   inkscape:version="1.4.2 (f4327f4, 2025-05-13)"
   sodipodi:docname="Logosimbolo.svg"
   xml:space="preserve"
   inkscape:export-filename="Logo_MM_1280_702.png"
   inkscape:export-xdpi="96"
   inkscape:export-ydpi="96"
   xmlns:inkscape="http://www.inkscape.org/namespaces/inkscape"
   xmlns:sodipodi="http://sodipodi.sourceforge.net/DTD/sodipodi-0.dtd"
   xmlns="http://www.w3.org/2000/svg"
   xmlns:svg="http://www.w3.org/2000/svg"><sodipodi:namedview
     id="namedview7"
     pagecolor="#ffffff"
     bordercolor="#000000"
     borderopacity="0.25"
     inkscape:showpageshadow="2"
     inkscape:pageopacity="0.0"
     inkscape:pagecheckerboard="0"
     inkscape:deskcolor="#d1d1d1"
     inkscape:document-units="mm"
     showgrid="false"
     inkscape:zoom="5.2913966"
     inkscape:cx="94.776491"
     inkscape:cy="73.232084"
     inkscape:window-width="2560"
     inkscape:window-height="1494"
     inkscape:window-x="2869"
     inkscape:window-y="-11"
     inkscape:window-maximized="1"
     inkscape:current-layer="layer1"
     showguides="true"><inkscape:page
       x="0"
       y="0"
       width="48.923"
       height="38.050995"
       id="page2"
       margin="0"
       bleed="0"
       inkscape:export-filename="Página 2.png"
       inkscape:export-xdpi="96"
       inkscape:export-ydpi="96" /></sodipodi:namedview><defs
     id="defs2"><clipPath
       clipPathUnits="userSpaceOnUse"
       id="clipPath12137"><rect
         style="fill:#000000;stroke-width:0.264583"
         id="rect12139"
         width="170.80872"
         height="110.80566"
         x="786.84015"
         y="169.60866" /></clipPath></defs><g
     inkscape:label="Capa 1"
     inkscape:groupmode="layer"
     id="layer1"
     transform="translate(-568.1375)"><g
       id="g1"
       transform="translate(21.281545,10.996074)"><path
         d="m 561.53282,27.055089 c 0,-9.018381 0,-18.036731 0,-27.055089 4.34872,9.018358 8.69745,18.036708 13.04617,27.055089 0.90599,0 1.81197,0 2.71795,0 C 581.64567,18.036708 585.99439,9.018358 590.34311,0 c 0,9.018358 0,18.036708 0,27.055089 1.81197,0 3.62393,0 5.43592,0 0,-12.683776 0,-25.367558 0,-38.051328 -1.81199,0 -3.62395,0 -5.43592,0 -4.80172,10.115514 -9.60343,20.231024 -14.40514,30.346546 -4.80172,-10.115522 -9.60344,-20.231032 -14.40515,-30.346546 -1.81197,0 -3.62393,0 -5.4359,0 0,12.68377 0,25.367552 0,38.051328 1.81197,0 3.62393,0 5.4359,0 z"
         stroke="#000000"
         stroke-width="0"
         fill="#000000"
         fill-opacity="1"
         id="path1420-2"
         style="fill:#0088aa;fill-opacity:1" /><path
         d="m 581.10208,27.055089 c 1.81197,0 3.62393,0 5.4359,0 0,-12.683776 0,-25.367558 0,-38.051328 -1.81197,0 -3.62393,0 -5.4359,0 -4.80172,10.115514 -9.60344,20.231024 -14.40514,30.346546 -4.80172,-10.115522 -9.60343,-20.231032 -14.40515,-30.346546 -1.81197,0 -3.62395,0 -5.43591,0 0,12.68377 0,25.367552 0,38.051328 1.81196,0 3.62394,0 5.43591,0 0,-9.018381 0,-18.036731 0,-27.055089 4.34872,9.018358 8.69745,18.036708 13.04617,27.055089 0.90598,0 1.81196,0 2.71795,0 C 572.40463,18.036708 576.75335,9.018358 581.10208,0 c 0,9.018358 0,18.036708 0,27.055089 z"
         stroke="#000000"
         stroke-width="0"
         fill="#000000"
         fill-opacity="1"
         id="path1422-4"
         style="fill:#0088aa;fill-opacity:1" /></g></g></svg>
