<?xml version="1.0" encoding="UTF-8" standalone="no"?>
<!-- Created with Inkscape (http://www.inkscape.org/) -->

<svg
   width="671"
   height="352"
   viewBox="0 0 177.53541 93.133333"
   version="1.1"
   id="svg5"
   inkscape:version="1.4.2 (f4327f4, 2025-05-13)"
   sodipodi:docname="Logo_MM_en_fondo_blanco - copia.svg"
   xml:space="preserve"
   xmlns:inkscape="http://www.inkscape.org/namespaces/inkscape"
   xmlns:sodipodi="http://sodipodi.sourceforge.net/DTD/sodipodi-0.dtd"
   xmlns="http://www.w3.org/2000/svg"
   xmlns:svg="http://www.w3.org/2000/svg"><sodipodi:namedview
     id="namedview7"
     pagecolor="#ffffff"
     bordercolor="#000000"
     borderopacity="0.25"
     inkscape:showpageshadow="2"
     inkscape:pageopacity="0.0"
     inkscape:pagecheckerboard="0"
     inkscape:deskcolor="#d1d1d1"
     inkscape:document-units="mm"
     showgrid="false"
     inkscape:zoom="2.6456983"
     inkscape:cx="341.87572"
     inkscape:cy="172.54424"
     inkscape:window-width="3840"
     inkscape:window-height="2054"
     inkscape:window-x="6709"
     inkscape:window-y="-11"
     inkscape:window-maximized="1"
     inkscape:current-layer="g1"
     showguides="true" /><defs
     id="defs2"><clipPath
       clipPathUnits="userSpaceOnUse"
       id="clipPath12137"><rect
         style="fill:#000000;stroke-width:0.264583"
         id="rect12139"
         width="170.80872"
         height="110.80566"
         x="786.84015"
         y="169.60866" /></clipPath></defs><g
     inkscape:label="Capa 1"
     inkscape:groupmode="layer"
     id="layer1"
     transform="translate(-220.00001)"><g
       id="g1"
       transform="translate(6.4822874,17.462503)"
       style="stroke:#000000"><g
         id="g2"
         transform="matrix(0.94016164,0,0,0.94016164,18.088246,1.7415464)"
         style="stroke-width:1.06365"><text
           xml:space="preserve"
           style="font-style:normal;font-variant:normal;font-weight:normal;font-stretch:normal;font-size:5.28113px;font-family:Prompt;-inkscape-font-specification:Prompt;letter-spacing:9.37667px;fill:#0088aa;fill-opacity:1;stroke:#000000;stroke-width:0.563222"
           x="196.82045"
           y="80.761017"
           id="text6122-9-6-4-7"
           transform="scale(1.1014796,0.90786973)"
           inkscape:export-filename="text6122-9-6.png"
           inkscape:export-xdpi="96"
           inkscape:export-ydpi="96"><tspan
             sodipodi:role="line"
             id="tspan6120-2-9-8-6"
             style="font-style:normal;font-variant:normal;font-weight:normal;font-stretch:normal;font-family:Prompt;-inkscape-font-specification:Prompt;fill:#0088aa;fill-opacity:1;stroke:none;stroke-width:0.563222"
             x="196.82045"
             y="80.761017">FORM &amp; FUTURE</tspan></text><path
           d="m 287.80493,41.495547 c 0,-13.433397 0,-26.866745 0,-40.3001032 6.47766,13.4333582 12.95533,26.8667062 19.43301,40.3001032 1.34952,0 2.69903,0 4.04854,0 6.47767,-13.433397 12.95535,-26.866745 19.43301,-40.3001032 0,13.4333582 0,26.8667062 0,40.3001032 2.69903,0 5.39805,0 8.0971,0 0,-18.89321 0,-37.7864294 0,-56.67962 -2.69905,0 -5.39807,0 -8.0971,0 -7.15243,15.06763162 -14.30486,30.135254 -21.45728,45.202904 -7.15243,-15.06765 -14.30487,-30.13527238 -21.45728,-45.202904 -2.69903,0 -5.39806,0 -8.09709,0 0,18.8931906 0,37.78641 0,56.67962 2.69903,0 5.39806,0 8.09709,0 z"
           stroke="#000000"
           stroke-width="0"
           fill="#000000"
           fill-opacity="1"
           id="path1420-2-8-1"
           style="fill:#0088aa;fill-opacity:1;stroke:#000000" /><path
           d="m 316.95444,41.495547 c 2.69903,0 5.39807,0 8.09709,0 0,-18.89321 0,-37.7864294 0,-56.67962 -2.69902,0 -5.39806,0 -8.09709,0 -7.15243,15.06763162 -14.30485,30.135254 -21.45727,45.202904 -7.15243,-15.06765 -14.30486,-30.13527238 -21.45729,-45.202904 -2.69903,0 -5.39807,0 -8.09709,0 0,18.8931906 0,37.78641 0,56.67962 2.69902,0 5.39806,0 8.09709,0 0,-13.433397 0,-26.866745 0,-40.3001032 6.47767,13.4333582 12.95535,26.8667062 19.43301,40.3001032 1.34952,0 2.69902,0 4.04854,0 6.47768,-13.433397 12.95534,-26.866745 19.43301,-40.3001032 0,13.4333582 0,26.8667062 0,40.3001032 z"
           stroke="#000000"
           stroke-width="0"
           fill="#000000"
           fill-opacity="1"
           id="path1422-4-2-8"
           style="fill:#0088aa;fill-opacity:1;stroke:#000000" /><path
           d="m 303.76395,49.592621 c 0,5.398063 0,10.796116 0,16.194169 0.75681,0 1.51362,0 2.27043,0 0,-3.838091 0,-7.676192 0,-11.514303 1.76075,3.838111 3.52148,7.676212 5.28222,11.514303 0.38613,0 0.77225,0 1.15839,0 1.75301,-3.838091 3.50603,-7.676192 5.25904,-11.514303 0,3.838111 0,7.676212 0,11.514303 0.76453,0 1.52906,0 2.2936,0 0,-5.398053 0,-10.796106 0,-16.194169 -0.7877,0 -1.5754,0 -2.36311,0 -1.92291,4.208797 -3.84581,8.417575 -5.76872,12.626371 -1.92292,-4.208796 -3.84582,-8.417574 -5.76876,-12.626371 -0.7877,0 -1.57538,0 -2.36309,0 z"
           stroke="#000000"
           stroke-width="0"
           fill="#000000"
           fill-opacity="1"
           id="path1424-1-4-9"
           style="fill:#0088aa;fill-opacity:1;stroke:#000000" /><path
           d="m 331.10176,66.13432 c 1.60628,0 3.05813,-0.351384 4.35551,-1.054143 1.29739,-0.70274 2.31677,-1.695085 3.05813,-2.977034 0.74136,-1.28194 1.11206,-2.749209 1.11206,-4.401854 0,-1.652626 -0.3707,-3.119895 -1.11206,-4.401854 -0.74136,-1.281949 -1.76074,-2.278158 -3.05813,-2.988626 -1.29738,-0.710478 -2.74923,-1.065688 -4.35551,-1.065688 -1.60629,0 -3.05813,0.35521 -4.35552,1.065688 -1.29739,0.710468 -2.31676,1.706677 -3.05814,2.988626 -0.74136,1.281959 -1.11204,2.749228 -1.11204,4.401854 0,1.652645 0.37068,3.119914 1.11204,4.401854 0.74138,1.281949 1.76075,2.274294 3.05814,2.977034 1.29739,0.702759 2.74923,1.054143 4.35552,1.054143 z m 0,-2.131443 c -1.14295,0 -2.18162,-0.258691 -3.11605,-0.776093 -0.93444,-0.517392 -1.67193,-1.251064 -2.21251,-2.200931 -0.54057,-0.949887 -0.81087,-2.058062 -0.81087,-3.324564 0,-1.251055 0.27415,-2.355385 0.82245,-3.312981 0.54829,-0.957576 1.28968,-1.69123 2.22409,-2.200912 0.93444,-0.509664 1.98084,-0.764519 3.13921,-0.764519 1.14295,0 2.17777,0.258681 3.10449,0.776121 0.92669,0.517402 1.65648,1.251036 2.18931,2.200903 0.53286,0.949867 0.7993,2.050333 0.7993,3.301388 0,1.266502 -0.27029,2.374677 -0.81087,3.324564 -0.54057,0.949867 -1.27807,1.683539 -2.21251,2.200931 -0.93442,0.517402 -1.9731,0.776093 -3.11604,0.776093 z"
           stroke="#000000"
           stroke-width="0"
           fill="#000000"
           fill-opacity="1"
           id="path1426-43-5-2"
           style="fill:#0088aa;fill-opacity:1;stroke:#000000" /><path
           d="m 343.70496,66.13432 c 1.29738,0 2.32447,-0.37455 3.08129,-1.123642 0.75681,-0.749072 1.13521,-1.787777 1.13521,-3.11604 0,-4.100656 0,-8.201351 0,-12.302017 -0.78769,0 -1.5754,0 -2.36309,0 0,4.046606 0,8.09324 0,12.139836 0,1.544504 -0.79544,2.316752 -2.38628,2.316752 -0.32436,0 -0.66798,-0.03088 -1.03095,-0.09263 -0.36295,-0.06175 -0.66028,-0.139016 -0.89195,-0.23167 0,0.671854 0,1.343709 0,2.015574 0.24711,0.108111 0.61008,0.200785 1.08885,0.278022 0.47882,0.07719 0.93445,0.11584 1.36692,0.11584 z"
           stroke="#000000"
           stroke-width="0"
           fill="#000000"
           fill-opacity="1"
           id="path1428-1-5-7"
           style="fill:#0088aa;fill-opacity:1;stroke:#000000" /><path
           d="m 350.81743,49.592621 c 0,5.398063 0,10.796116 0,16.194169 0.79541,0 1.5908,0 2.38623,0 0,-5.398053 0,-10.796106 0,-16.194169 -0.79543,0 -1.59082,0 -2.38623,0 z"
           stroke="#000000"
           stroke-width="0"
           fill="#000000"
           fill-opacity="1"
           id="path1430-1-1-9"
           style="fill:#0088aa;fill-opacity:1;stroke:#000000" /><path
           d="m 364.32414,66.13432 c 2.47121,0 4.40186,-0.5792 5.79192,-1.737581 0,-0.764529 0,-1.529068 0,-2.293596 -0.77226,0.664136 -1.61015,1.146798 -2.51371,1.447986 -0.90351,0.301187 -1.92678,0.451748 -3.0697,0.451748 -1.23559,0 -2.33606,-0.254837 -3.3014,-0.764539 -0.96531,-0.509682 -1.72212,-1.243297 -2.27041,-2.200893 -0.5483,-0.957605 -0.82247,-2.069654 -0.82247,-3.336156 0,-1.266502 0.2703,-2.374658 0.81088,-3.324545 0.54057,-0.949876 1.29354,-1.679666 2.25885,-2.189348 0.9653,-0.509664 2.07349,-0.764519 3.32455,-0.764519 2.23954,0 4.03117,0.594609 5.37489,1.783884 0,-0.7568 0,-1.513591 0,-2.27042 -1.49818,-1.127496 -3.3593,-1.69122 -5.5834,-1.69122 -1.66808,0 -3.15078,0.3475 -4.44818,1.042541 -1.2974,0.695021 -2.30905,1.683501 -3.03497,2.965441 -0.72591,1.281949 -1.08886,2.764684 -1.08886,4.448186 0,1.683501 0.36295,3.162401 1.08886,4.436612 0.72592,1.274212 1.73757,2.258838 3.03497,2.953887 1.2974,0.695002 2.7801,1.042532 4.44818,1.042532 z"
           stroke="#000000"
           stroke-width="0"
           fill="#000000"
           fill-opacity="1"
           id="path1432-6-7-5"
           style="fill:#0088aa;fill-opacity:1;stroke:#000000" /><path
           d="m 378.66491,49.592621 c -2.15459,5.398063 -4.3092,10.796116 -6.46377,16.194169 0.81088,0 1.62173,0 2.4326,0 0.52512,-1.343719 1.05027,-2.68741 1.57541,-4.031158 2.38627,0 4.77252,0 7.15879,0 0.54057,1.343748 1.08115,2.687439 1.62173,4.031158 0.80316,0 1.6063,0 2.40942,0 -2.15457,-5.398053 -4.30915,-10.796106 -6.46376,-16.194169 -0.75681,0 -1.51359,0 -2.27042,0 z m 4.05434,10.193769 c -1.94607,0 -3.89215,0 -5.83826,0 0.97305,-2.525286 1.94611,-5.050523 2.91913,-7.575828 0.97306,2.525305 1.94608,5.050542 2.91913,7.575828 z"
           stroke="#000000"
           stroke-width="0"
           fill="#000000"
           fill-opacity="1"
           id="path1434-1-1-4"
           style="fill:#0088aa;fill-opacity:1;stroke:#000000" /><path
           d="m 217.36026,49.592621 c 0,5.398063 0,10.796116 0,16.194169 0.75681,0 1.51362,0 2.27043,0 0,-3.838091 0,-7.676192 0,-11.514303 1.76074,3.838111 3.52148,7.676212 5.28222,11.514303 0.38613,0 0.77226,0 1.15838,0 1.75302,-3.838091 3.50604,-7.676192 5.25906,-11.514303 0,3.838111 0,7.676212 0,11.514303 0.76453,0 1.52907,0 2.2936,0 0,-5.398053 0,-10.796106 0,-16.194169 -0.78771,0 -1.5754,0 -2.36311,0 -1.92291,4.208797 -3.84582,8.417575 -5.76874,12.626371 -1.92292,-4.208796 -3.84583,-8.417574 -5.76875,-12.626371 -0.7877,0 -1.57539,0 -2.36309,0 z"
           stroke="#000000"
           stroke-width="0"
           fill="#000000"
           fill-opacity="1"
           id="path1436-0-1-3"
           style="fill:#0088aa;fill-opacity:1;stroke:#000000" /><path
           d="m 242.63615,49.592621 c -2.15459,5.398063 -4.30918,10.796116 -6.46377,16.194169 0.81087,0 1.62173,0 2.4326,0 0.52513,-1.343719 1.05026,-2.68741 1.5754,-4.031158 2.38627,0 4.77253,0 7.1588,0 0.54058,1.343748 1.08116,2.687439 1.62173,4.031158 0.80315,0 1.6063,0 2.40944,0 -2.15459,-5.398053 -4.30918,-10.796106 -6.46377,-16.194169 -0.75681,0 -1.51362,0 -2.27043,0 z m 4.05433,10.193769 c -1.94607,0 -3.89216,0 -5.83823,0 0.97303,-2.525286 1.94607,-5.050523 2.91911,-7.575828 0.97305,2.525305 1.94609,5.050542 2.91912,7.575828 z"
           stroke="#000000"
           stroke-width="0"
           fill="#000000"
           fill-opacity="1"
           id="path1438-7-5-12"
           style="fill:#0088aa;fill-opacity:1;stroke:#000000" /><path
           d="m 260.42889,49.592621 c -2.17004,0 -4.34006,0 -6.5101,0 0,5.398063 0,10.796116 0,16.194169 0.7877,0 1.5754,0 2.3631,0 0,-2.131414 0,-4.262819 0,-6.394243 1.18154,0 2.3631,0 3.54464,0 1.15068,2.131424 2.30132,4.262829 3.45198,6.394243 0.81859,0 1.63718,0 2.45578,0 -1.18928,-2.193203 -2.37856,-4.386387 -3.56783,-6.5796 1.1584,-0.293459 2.05421,-0.853348 2.68746,-1.679666 0.63324,-0.826299 0.94986,-1.834071 0.94986,-3.023366 0,-1.606304 -0.46334,-2.826426 -1.39005,-3.660472 -0.9267,-0.834037 -2.25498,-1.251065 -3.98484,-1.251065 z m -0.39385,7.807499 c -1.25104,0 -2.50211,0 -3.75315,0 0,-1.938357 0,-3.876724 0,-5.815062 1.25104,0 2.50211,0 3.75315,0 1.06571,0 1.8959,0.223933 2.49053,0.671846 0.59463,0.447903 0.89195,1.196994 0.89195,2.247254 0,0.957605 -0.30504,1.679666 -0.91512,2.166182 -0.61008,0.486507 -1.43253,0.72978 -2.46736,0.72978 z"
           stroke="#000000"
           stroke-width="0"
           fill="#000000"
           fill-opacity="1"
           id="path1440-03-2-3"
           style="fill:#0088aa;fill-opacity:1;stroke:#000000" /><path
           d="m 268.35222,49.592621 c 0,5.398063 0,10.796116 0,16.194169 0.79542,0 1.59085,0 2.38627,0 0,-5.398053 0,-10.796106 0,-16.194169 -0.79542,0 -1.59085,0 -2.38627,0 z"
           stroke="#000000"
           stroke-width="0"
           fill="#000000"
           fill-opacity="1"
           id="path1442-4-7-3"
           style="fill:#0088aa;fill-opacity:1;stroke:#000000" /><path
           d="m 281.81262,66.13432 c 1.60629,0 3.05812,-0.351384 4.35551,-1.054143 1.29739,-0.70274 2.31677,-1.695085 3.05814,-2.977034 0.74136,-1.28194 1.11204,-2.749209 1.11204,-4.401854 0,-1.652626 -0.37068,-3.119895 -1.11204,-4.401854 -0.74137,-1.281949 -1.76075,-2.278158 -3.05814,-2.988626 -1.29739,-0.710478 -2.74922,-1.065688 -4.35551,-1.065688 -1.60629,0 -3.05813,0.35521 -4.35551,1.065688 -1.2974,0.710468 -2.31677,1.706677 -3.05814,2.988626 -0.74136,1.281959 -1.11204,2.749228 -1.11204,4.401854 0,1.652645 0.37068,3.119914 1.11204,4.401854 0.74137,1.281949 1.76074,2.274294 3.05814,2.977034 1.29738,0.702759 2.74922,1.054143 4.35551,1.054143 z m 0,-2.131443 c -1.14293,0 -2.18161,-0.258691 -3.11605,-0.776093 -0.93442,-0.517392 -1.67193,-1.251064 -2.2125,-2.200931 -0.54058,-0.949887 -0.81088,-2.058062 -0.81088,-3.324564 0,-1.251055 0.27416,-2.355385 0.82247,-3.312981 0.54828,-0.957576 1.28965,-1.69123 2.22408,-2.200912 0.93444,-0.509664 1.98083,-0.764519 3.13921,-0.764519 1.14296,0 2.17777,0.258681 3.10446,0.776121 0.92672,0.517402 1.65648,1.251036 2.18935,2.200903 0.53286,0.949867 0.79929,2.050333 0.79929,3.301388 0,1.266502 -0.27029,2.374677 -0.81087,3.324564 -0.54058,0.949867 -1.27808,1.683539 -2.21253,2.200931 -0.93441,0.517402 -1.9731,0.776093 -3.11603,0.776093 z"
           stroke="#000000"
           stroke-width="0"
           fill="#000000"
           fill-opacity="1"
           id="path1444-5-6-4"
           style="fill:#0088aa;fill-opacity:1;stroke:#000000" /></g></g></g></svg>
